G04 DipTrace 3.2.0.1*
G04 BottomSilk.gbr*
%MOIN*%
G04 #@! TF.FileFunction,Legend,Bot*
G04 #@! TF.Part,Single*
%ADD12C,0.003*%
%ADD23C,0.007874*%
%ADD56C,0.009264*%
%ADD57C,0.012351*%
%ADD59C,0.010807*%
%FSLAX26Y26*%
G04*
G70*
G90*
G75*
G01*
G04 BotSilk*
%LPD*%
X3463945Y2172876D2*
D23*
X3822200D1*
Y1823270D1*
X3463945D1*
Y2172876D1*
X3644900Y2172629D2*
Y1825529D1*
X3026824Y2262900D2*
D12*
X3107824D1*
X3026824Y2259900D2*
X3107824D1*
X3005824Y2256900D2*
X3128824D1*
X3005824Y2253900D2*
X3128824D1*
X2987824Y2250900D2*
X3146824D1*
X2987824Y2247900D2*
X3146824D1*
X2987824Y2244900D2*
X3146824D1*
X2978824Y2241900D2*
X3155824D1*
X2978824Y2238900D2*
X3155824D1*
X2969824Y2235900D2*
X3032824D1*
X3101824D2*
X3167824D1*
X2969824Y2232900D2*
X3032824D1*
X3101824D2*
X3167824D1*
X2960824Y2229900D2*
X3023824D1*
X3110824D2*
X3176824D1*
X2960824Y2226900D2*
X3023824D1*
X3110824D2*
X3176824D1*
X2960824Y2223900D2*
X3023824D1*
X3110824D2*
X3176824D1*
X1748824Y2220900D2*
X1793824D1*
X2501824D2*
X2546824D1*
X2960824D2*
X3002824D1*
X3035824D2*
X3098824D1*
X3131824D2*
X3176824D1*
X1748824Y2217900D2*
X1793824D1*
X2501824D2*
X2546824D1*
X2960824D2*
X3002824D1*
X3035824D2*
X3098824D1*
X3131824D2*
X3176824D1*
X1748824Y2214900D2*
X1793824D1*
X1862824D2*
X1964824D1*
X2414824D2*
X2459824D1*
X2501824D2*
X2546824D1*
X2645824D2*
X2699824D1*
X2948824D2*
X3002824D1*
X3026824D2*
X3107824D1*
X3131824D2*
X3185824D1*
X1748824Y2211900D2*
X1793824D1*
X1862824D2*
X1964824D1*
X2414824D2*
X2459824D1*
X2501824D2*
X2546824D1*
X2645824D2*
X2699824D1*
X2948824D2*
X3002824D1*
X3026824D2*
X3107824D1*
X3131824D2*
X3185824D1*
X716824Y2208900D2*
X761824D1*
X899824D2*
X941824D1*
X974824D2*
X1256824D1*
X1748824D2*
X1793824D1*
X1832824D2*
X1982824D1*
X2414824D2*
X2459824D1*
X2501824D2*
X2546824D1*
X2633824D2*
X2708824D1*
X2948824D2*
X2993824D1*
X3017824D2*
X3119824D1*
X3140824D2*
X3185824D1*
X716824Y2205900D2*
X761824D1*
X899824D2*
X941824D1*
X974824D2*
X1256824D1*
X1748824D2*
X1793824D1*
X1832824D2*
X1982824D1*
X2414824D2*
X2459824D1*
X2501824D2*
X2546824D1*
X2633824D2*
X2708824D1*
X2948824D2*
X2993824D1*
X3017824D2*
X3119824D1*
X3140824D2*
X3185824D1*
X716824Y2202900D2*
X761824D1*
X899824D2*
X941824D1*
X974824D2*
X1256824D1*
X1748824D2*
X1793824D1*
X1832824D2*
X1982824D1*
X2414824D2*
X2459824D1*
X2501824D2*
X2546824D1*
X2633824D2*
X2708824D1*
X2948824D2*
X2993824D1*
X3017824D2*
X3119824D1*
X3140824D2*
X3185824D1*
X716824Y2199900D2*
X761824D1*
X887824D2*
X941824D1*
X956824D2*
X1256824D1*
X1748824D2*
X1793824D1*
X1832824D2*
X1991824D1*
X2414824D2*
X2459824D1*
X2501824D2*
X2546824D1*
X2633824D2*
X2708824D1*
X2948824D2*
X2984824D1*
X3017824D2*
X3119824D1*
X3149824D2*
X3185824D1*
X716824Y2196900D2*
X761824D1*
X887824D2*
X941824D1*
X956824D2*
X1256824D1*
X1748824D2*
X1793824D1*
X1832824D2*
X1991824D1*
X2414824D2*
X2459824D1*
X2501824D2*
X2546824D1*
X2633824D2*
X2708824D1*
X2948824D2*
X2984824D1*
X3017824D2*
X3119824D1*
X3149824D2*
X3185824D1*
X716824Y2193900D2*
X770824D1*
X887824D2*
X1256824D1*
X1748824D2*
X1793824D1*
X1832824D2*
X2003824D1*
X2414824D2*
X2459824D1*
X2501824D2*
X2546824D1*
X2633824D2*
X2708824D1*
X2948824D2*
X2984824D1*
X3017824D2*
X3119824D1*
X3149824D2*
X3185824D1*
X716824Y2190900D2*
X770824D1*
X887824D2*
X1256824D1*
X1748824D2*
X1793824D1*
X1832824D2*
X2003824D1*
X2414824D2*
X2459824D1*
X2501824D2*
X2546824D1*
X2633824D2*
X2708824D1*
X2948824D2*
X2984824D1*
X3017824D2*
X3119824D1*
X3149824D2*
X3185824D1*
X716824Y2187900D2*
X770824D1*
X887824D2*
X1256824D1*
X1748824D2*
X1793824D1*
X1832824D2*
X2012824D1*
X2414824D2*
X2459824D1*
X2501824D2*
X2546824D1*
X2624824D2*
X2717824D1*
X2930824D2*
X2984824D1*
X3017824D2*
X3119824D1*
X3149824D2*
X3203824D1*
X716824Y2184900D2*
X770824D1*
X887824D2*
X1256824D1*
X1748824D2*
X1793824D1*
X1832824D2*
X2012824D1*
X2414824D2*
X2459824D1*
X2501824D2*
X2546824D1*
X2624824D2*
X2717824D1*
X2930824D2*
X2984824D1*
X3017824D2*
X3119824D1*
X3149824D2*
X3203824D1*
X716824Y2181900D2*
X770824D1*
X887824D2*
X1256824D1*
X1748824D2*
X1793824D1*
X1832824D2*
X2012824D1*
X2414824D2*
X2459824D1*
X2501824D2*
X2546824D1*
X2624824D2*
X2717824D1*
X2930824D2*
X2984824D1*
X3017824D2*
X3119824D1*
X3149824D2*
X3203824D1*
X725824Y2178900D2*
X779824D1*
X878824D2*
X1256824D1*
X1748824D2*
X1793824D1*
X1832824D2*
X1886824D1*
X1946824D2*
X2012824D1*
X2501824D2*
X2546824D1*
X2624824D2*
X2717824D1*
X2912824D2*
X2984824D1*
X3017824D2*
X3119824D1*
X3149824D2*
X3224824D1*
X725824Y2175900D2*
X779824D1*
X878824D2*
X1256824D1*
X1748824D2*
X1793824D1*
X1832824D2*
X1886824D1*
X1946824D2*
X2012824D1*
X2501824D2*
X2546824D1*
X2624824D2*
X2717824D1*
X2912824D2*
X2984824D1*
X3017824D2*
X3119824D1*
X3149824D2*
X3224824D1*
X725824Y2172900D2*
X779824D1*
X878824D2*
X1001824D1*
X1049824D2*
X1094824D1*
X1214824D2*
X1256824D1*
X1319824D2*
X1400824D1*
X1451824D2*
X1496824D1*
X1586824D2*
X1688824D1*
X1748824D2*
X1793824D1*
X1832824D2*
X1859824D1*
X1958824D2*
X2012824D1*
X2072824D2*
X2135824D1*
X2147824D2*
X2192824D1*
X2261824D2*
X2336824D1*
X2414824D2*
X2459824D1*
X2501824D2*
X2546824D1*
X2615824D2*
X2726824D1*
X2891824D2*
X2984824D1*
X3017824D2*
X3041824D1*
X3053824D2*
X3080824D1*
X3092824D2*
X3119824D1*
X3149824D2*
X3242824D1*
X725824Y2169900D2*
X779824D1*
X878824D2*
X1001824D1*
X1049824D2*
X1094824D1*
X1214824D2*
X1256824D1*
X1319824D2*
X1400824D1*
X1451824D2*
X1496824D1*
X1586824D2*
X1688824D1*
X1748824D2*
X1793824D1*
X1832824D2*
X1859824D1*
X1958824D2*
X2012824D1*
X2072824D2*
X2135824D1*
X2147824D2*
X2192824D1*
X2261824D2*
X2336824D1*
X2414824D2*
X2459824D1*
X2501824D2*
X2546824D1*
X2615824D2*
X2726824D1*
X2891824D2*
X2984824D1*
X3017824D2*
X3041824D1*
X3053824D2*
X3080824D1*
X3092824D2*
X3119824D1*
X3149824D2*
X3242824D1*
X737824Y2166900D2*
X791824D1*
X869824D2*
X923824D1*
X935824D2*
X989824D1*
X1049824D2*
X1094824D1*
X1214824D2*
X1256824D1*
X1298824D2*
X1421824D1*
X1451824D2*
X1505824D1*
X1574824D2*
X1697824D1*
X1748824D2*
X1793824D1*
X1967824D2*
X2012824D1*
X2063824D2*
X2192824D1*
X2252824D2*
X2354824D1*
X2414824D2*
X2459824D1*
X2501824D2*
X2546824D1*
X2615824D2*
X2726824D1*
X2873824D2*
X3002824D1*
X3017824D2*
X3119824D1*
X3131824D2*
X3260824D1*
X737824Y2163900D2*
X791824D1*
X869824D2*
X923824D1*
X935824D2*
X989824D1*
X1049824D2*
X1094824D1*
X1214824D2*
X1256824D1*
X1298824D2*
X1421824D1*
X1451824D2*
X1505824D1*
X1574824D2*
X1697824D1*
X1748824D2*
X1793824D1*
X1967824D2*
X2012824D1*
X2063824D2*
X2192824D1*
X2252824D2*
X2354824D1*
X2414824D2*
X2459824D1*
X2501824D2*
X2546824D1*
X2615824D2*
X2726824D1*
X2873824D2*
X3002824D1*
X3017824D2*
X3119824D1*
X3131824D2*
X3260824D1*
X737824Y2160900D2*
X791824D1*
X869824D2*
X923824D1*
X935824D2*
X989824D1*
X1049824D2*
X1094824D1*
X1214824D2*
X1256824D1*
X1298824D2*
X1421824D1*
X1451824D2*
X1505824D1*
X1574824D2*
X1697824D1*
X1748824D2*
X1793824D1*
X1967824D2*
X2012824D1*
X2063824D2*
X2192824D1*
X2252824D2*
X2354824D1*
X2414824D2*
X2459824D1*
X2501824D2*
X2546824D1*
X2615824D2*
X2726824D1*
X2873824D2*
X3002824D1*
X3017824D2*
X3119824D1*
X3131824D2*
X3260824D1*
X737824Y2157900D2*
X791824D1*
X869824D2*
X923824D1*
X935824D2*
X980824D1*
X1049824D2*
X1094824D1*
X1214824D2*
X1256824D1*
X1298824D2*
X1430824D1*
X1451824D2*
X1505824D1*
X1574824D2*
X1706824D1*
X1748824D2*
X1793824D1*
X1958824D2*
X2012824D1*
X2051824D2*
X2192824D1*
X2243824D2*
X2363824D1*
X2414824D2*
X2459824D1*
X2501824D2*
X2546824D1*
X2615824D2*
X2726824D1*
X2864824D2*
X3272824D1*
X737824Y2154900D2*
X791824D1*
X869824D2*
X923824D1*
X935824D2*
X980824D1*
X1049824D2*
X1094824D1*
X1214824D2*
X1256824D1*
X1298824D2*
X1430824D1*
X1451824D2*
X1505824D1*
X1574824D2*
X1706824D1*
X1748824D2*
X1793824D1*
X1958824D2*
X2012824D1*
X2051824D2*
X2192824D1*
X2243824D2*
X2363824D1*
X2414824D2*
X2459824D1*
X2501824D2*
X2546824D1*
X2615824D2*
X2726824D1*
X2864824D2*
X3272824D1*
X737824Y2151900D2*
X791824D1*
X860824D2*
X914824D1*
X935824D2*
X989824D1*
X1049824D2*
X1094824D1*
X1214824D2*
X1256824D1*
X1298824D2*
X1439824D1*
X1460824D2*
X1514824D1*
X1565824D2*
X1619824D1*
X1643824D2*
X1715824D1*
X1748824D2*
X1793824D1*
X1946824D2*
X2012824D1*
X2042824D2*
X2192824D1*
X2234824D2*
X2375824D1*
X2414824D2*
X2459824D1*
X2501824D2*
X2546824D1*
X2606824D2*
X2660824D1*
X2681824D2*
X2735824D1*
X2864824D2*
X3272824D1*
X737824Y2148900D2*
X791824D1*
X860824D2*
X914824D1*
X935824D2*
X989824D1*
X1049824D2*
X1094824D1*
X1214824D2*
X1256824D1*
X1298824D2*
X1439824D1*
X1460824D2*
X1514824D1*
X1565824D2*
X1619824D1*
X1643824D2*
X1715824D1*
X1748824D2*
X1793824D1*
X1946824D2*
X2012824D1*
X2042824D2*
X2192824D1*
X2234824D2*
X2375824D1*
X2414824D2*
X2459824D1*
X2501824D2*
X2546824D1*
X2606824D2*
X2660824D1*
X2681824D2*
X2735824D1*
X2864824D2*
X3272824D1*
X746824Y2145900D2*
X800824D1*
X860824D2*
X914824D1*
X935824D2*
X1001824D1*
X1049824D2*
X1094824D1*
X1214824D2*
X1256824D1*
X1298824D2*
X1439824D1*
X1460824D2*
X1514824D1*
X1565824D2*
X1619824D1*
X1652824D2*
X1724824D1*
X1748824D2*
X1793824D1*
X1901824D2*
X2012824D1*
X2042824D2*
X2192824D1*
X2234824D2*
X2375824D1*
X2414824D2*
X2459824D1*
X2501824D2*
X2546824D1*
X2606824D2*
X2660824D1*
X2681824D2*
X2735824D1*
X2855824D2*
X3281824D1*
X746824Y2142900D2*
X800824D1*
X860824D2*
X914824D1*
X935824D2*
X1001824D1*
X1049824D2*
X1094824D1*
X1214824D2*
X1256824D1*
X1298824D2*
X1439824D1*
X1460824D2*
X1514824D1*
X1565824D2*
X1619824D1*
X1652824D2*
X1724824D1*
X1748824D2*
X1793824D1*
X1901824D2*
X2012824D1*
X2042824D2*
X2192824D1*
X2234824D2*
X2375824D1*
X2414824D2*
X2459824D1*
X2501824D2*
X2546824D1*
X2606824D2*
X2660824D1*
X2681824D2*
X2735824D1*
X2855824D2*
X3281824D1*
X746824Y2139900D2*
X800824D1*
X860824D2*
X914824D1*
X935824D2*
X1001824D1*
X1049824D2*
X1094824D1*
X1214824D2*
X1256824D1*
X1298824D2*
X1439824D1*
X1460824D2*
X1514824D1*
X1565824D2*
X1619824D1*
X1652824D2*
X1724824D1*
X1748824D2*
X1793824D1*
X1901824D2*
X2012824D1*
X2042824D2*
X2192824D1*
X2234824D2*
X2375824D1*
X2414824D2*
X2459824D1*
X2501824D2*
X2546824D1*
X2606824D2*
X2660824D1*
X2681824D2*
X2735824D1*
X2855824D2*
X3281824D1*
X746824Y2136900D2*
X800824D1*
X860824D2*
X905824D1*
X935824D2*
X1094824D1*
X1118824D2*
X1256824D1*
X1298824D2*
X1334824D1*
X1385824D2*
X1439824D1*
X1460824D2*
X1514824D1*
X1565824D2*
X1619824D1*
X1661824D2*
X1733824D1*
X1748824D2*
X1793824D1*
X1862824D2*
X2003824D1*
X2042824D2*
X2096824D1*
X2120824D2*
X2192824D1*
X2225824D2*
X2288824D1*
X2318824D2*
X2375824D1*
X2414824D2*
X2459824D1*
X2501824D2*
X2546824D1*
X2606824D2*
X2651824D1*
X2693824D2*
X2735824D1*
X2855824D2*
X2927824D1*
X2948824D2*
X3185824D1*
X3206824D2*
X3281824D1*
X746824Y2133900D2*
X800824D1*
X860824D2*
X905824D1*
X935824D2*
X1094824D1*
X1118824D2*
X1256824D1*
X1298824D2*
X1334824D1*
X1385824D2*
X1439824D1*
X1460824D2*
X1514824D1*
X1565824D2*
X1619824D1*
X1661824D2*
X1733824D1*
X1748824D2*
X1793824D1*
X1862824D2*
X2003824D1*
X2042824D2*
X2096824D1*
X2120824D2*
X2192824D1*
X2225824D2*
X2288824D1*
X2318824D2*
X2375824D1*
X2414824D2*
X2459824D1*
X2501824D2*
X2546824D1*
X2606824D2*
X2651824D1*
X2693824D2*
X2735824D1*
X2855824D2*
X2927824D1*
X2948824D2*
X3185824D1*
X3206824D2*
X3281824D1*
X755824Y2130900D2*
X809824D1*
X851824D2*
X905824D1*
X944824D2*
X1094824D1*
X1118824D2*
X1256824D1*
X1385824D2*
X1439824D1*
X1469824D2*
X1526824D1*
X1556824D2*
X1610824D1*
X1670824D2*
X1793824D1*
X1841824D2*
X2003824D1*
X2042824D2*
X2096824D1*
X2138824D2*
X2192824D1*
X2225824D2*
X2279824D1*
X2330824D2*
X2384824D1*
X2414824D2*
X2459824D1*
X2501824D2*
X2546824D1*
X2597824D2*
X2651824D1*
X2693824D2*
X2747824D1*
X2855824D2*
X2927824D1*
X2960824D2*
X3176824D1*
X3215824D2*
X3281824D1*
X755824Y2127900D2*
X809824D1*
X851824D2*
X905824D1*
X944824D2*
X1094824D1*
X1118824D2*
X1256824D1*
X1385824D2*
X1439824D1*
X1469824D2*
X1526824D1*
X1556824D2*
X1610824D1*
X1670824D2*
X1793824D1*
X1841824D2*
X2003824D1*
X2042824D2*
X2096824D1*
X2138824D2*
X2192824D1*
X2225824D2*
X2279824D1*
X2330824D2*
X2384824D1*
X2414824D2*
X2459824D1*
X2501824D2*
X2546824D1*
X2597824D2*
X2651824D1*
X2693824D2*
X2747824D1*
X2855824D2*
X2927824D1*
X2960824D2*
X3176824D1*
X3215824D2*
X3281824D1*
X755824Y2124900D2*
X809824D1*
X851824D2*
X905824D1*
X944824D2*
X1094824D1*
X1118824D2*
X1256824D1*
X1355824D2*
X1439824D1*
X1469824D2*
X1526824D1*
X1556824D2*
X1610824D1*
X1679824D2*
X1793824D1*
X1832824D2*
X1991824D1*
X2042824D2*
X2087824D1*
X2147824D2*
X2192824D1*
X2225824D2*
X2384824D1*
X2414824D2*
X2459824D1*
X2501824D2*
X2546824D1*
X2597824D2*
X2651824D1*
X2693824D2*
X2747824D1*
X2855824D2*
X2918824D1*
X2960824D2*
X3176824D1*
X3215824D2*
X3281824D1*
X755824Y2121900D2*
X809824D1*
X851824D2*
X905824D1*
X944824D2*
X1094824D1*
X1118824D2*
X1256824D1*
X1355824D2*
X1439824D1*
X1469824D2*
X1526824D1*
X1556824D2*
X1610824D1*
X1679824D2*
X1793824D1*
X1832824D2*
X1991824D1*
X2042824D2*
X2087824D1*
X2147824D2*
X2192824D1*
X2225824D2*
X2384824D1*
X2414824D2*
X2459824D1*
X2501824D2*
X2546824D1*
X2597824D2*
X2651824D1*
X2693824D2*
X2747824D1*
X2855824D2*
X2918824D1*
X2960824D2*
X3176824D1*
X3215824D2*
X3281824D1*
X755824Y2118900D2*
X809824D1*
X851824D2*
X905824D1*
X944824D2*
X1094824D1*
X1118824D2*
X1256824D1*
X1355824D2*
X1439824D1*
X1469824D2*
X1526824D1*
X1556824D2*
X1610824D1*
X1679824D2*
X1793824D1*
X1832824D2*
X1991824D1*
X2042824D2*
X2087824D1*
X2147824D2*
X2192824D1*
X2225824D2*
X2384824D1*
X2414824D2*
X2459824D1*
X2501824D2*
X2546824D1*
X2597824D2*
X2651824D1*
X2693824D2*
X2747824D1*
X2855824D2*
X2918824D1*
X2960824D2*
X3176824D1*
X3215824D2*
X3281824D1*
X764824Y2115900D2*
X818824D1*
X842824D2*
X896824D1*
X956824D2*
X1094824D1*
X1118824D2*
X1256824D1*
X1319824D2*
X1439824D1*
X1481824D2*
X1535824D1*
X1547824D2*
X1601824D1*
X1691824D2*
X1793824D1*
X1823824D2*
X1973824D1*
X2042824D2*
X2087824D1*
X2147824D2*
X2192824D1*
X2225824D2*
X2384824D1*
X2414824D2*
X2459824D1*
X2501824D2*
X2546824D1*
X2588824D2*
X2642824D1*
X2702824D2*
X2756824D1*
X2855824D2*
X2927824D1*
X2948824D2*
X3062824D1*
X3074824D2*
X3185824D1*
X3206824D2*
X3281824D1*
X764824Y2112900D2*
X818824D1*
X842824D2*
X896824D1*
X956824D2*
X1094824D1*
X1118824D2*
X1256824D1*
X1319824D2*
X1439824D1*
X1481824D2*
X1535824D1*
X1547824D2*
X1601824D1*
X1691824D2*
X1793824D1*
X1823824D2*
X1973824D1*
X2042824D2*
X2087824D1*
X2147824D2*
X2192824D1*
X2225824D2*
X2384824D1*
X2414824D2*
X2459824D1*
X2501824D2*
X2546824D1*
X2588824D2*
X2642824D1*
X2702824D2*
X2756824D1*
X2855824D2*
X2927824D1*
X2948824D2*
X3062824D1*
X3074824D2*
X3185824D1*
X3206824D2*
X3281824D1*
X764824Y2109900D2*
X818824D1*
X842824D2*
X896824D1*
X974824D2*
X1094824D1*
X1118824D2*
X1256824D1*
X1298824D2*
X1430824D1*
X1481824D2*
X1535824D1*
X1547824D2*
X1601824D1*
X1700824D2*
X1793824D1*
X1823824D2*
X1925824D1*
X2042824D2*
X2087824D1*
X2147824D2*
X2192824D1*
X2225824D2*
X2384824D1*
X2414824D2*
X2459824D1*
X2501824D2*
X2546824D1*
X2588824D2*
X2756824D1*
X2864824D2*
X3050824D1*
X3083824D2*
X3272824D1*
X764824Y2106900D2*
X818824D1*
X842824D2*
X896824D1*
X974824D2*
X1094824D1*
X1118824D2*
X1256824D1*
X1298824D2*
X1430824D1*
X1481824D2*
X1535824D1*
X1547824D2*
X1601824D1*
X1700824D2*
X1793824D1*
X1823824D2*
X1925824D1*
X2042824D2*
X2087824D1*
X2147824D2*
X2192824D1*
X2225824D2*
X2384824D1*
X2414824D2*
X2459824D1*
X2501824D2*
X2546824D1*
X2588824D2*
X2756824D1*
X2864824D2*
X3050824D1*
X3083824D2*
X3272824D1*
X773824Y2103900D2*
X818824D1*
X830824D2*
X884824D1*
X1049824D2*
X1094824D1*
X1214824D2*
X1256824D1*
X1298824D2*
X1430824D1*
X1490824D2*
X1592824D1*
X1691824D2*
X1793824D1*
X1823824D2*
X1886824D1*
X2042824D2*
X2087824D1*
X2147824D2*
X2192824D1*
X2225824D2*
X2384824D1*
X2414824D2*
X2459824D1*
X2501824D2*
X2546824D1*
X2588824D2*
X2756824D1*
X2873824D2*
X3050824D1*
X3083824D2*
X3260824D1*
X773824Y2100900D2*
X818824D1*
X830824D2*
X884824D1*
X1049824D2*
X1094824D1*
X1214824D2*
X1256824D1*
X1298824D2*
X1430824D1*
X1490824D2*
X1592824D1*
X1691824D2*
X1793824D1*
X1823824D2*
X1886824D1*
X2042824D2*
X2087824D1*
X2147824D2*
X2192824D1*
X2225824D2*
X2384824D1*
X2414824D2*
X2459824D1*
X2501824D2*
X2546824D1*
X2588824D2*
X2756824D1*
X2873824D2*
X3050824D1*
X3083824D2*
X3260824D1*
X773824Y2097900D2*
X818824D1*
X830824D2*
X884824D1*
X1049824D2*
X1094824D1*
X1214824D2*
X1256824D1*
X1298824D2*
X1430824D1*
X1490824D2*
X1592824D1*
X1691824D2*
X1793824D1*
X1823824D2*
X1886824D1*
X2042824D2*
X2087824D1*
X2147824D2*
X2192824D1*
X2225824D2*
X2384824D1*
X2414824D2*
X2459824D1*
X2501824D2*
X2546824D1*
X2588824D2*
X2756824D1*
X2873824D2*
X3050824D1*
X3083824D2*
X3260824D1*
X773824Y2094900D2*
X884824D1*
X1049824D2*
X1094824D1*
X1214824D2*
X1256824D1*
X1289824D2*
X1409824D1*
X1490824D2*
X1592824D1*
X1679824D2*
X1793824D1*
X1823824D2*
X1877824D1*
X2042824D2*
X2087824D1*
X2147824D2*
X2192824D1*
X2225824D2*
X2384824D1*
X2414824D2*
X2459824D1*
X2501824D2*
X2546824D1*
X2576824D2*
X2765824D1*
X2882824D2*
X3062824D1*
X3074824D2*
X3251824D1*
X773824Y2091900D2*
X884824D1*
X1049824D2*
X1094824D1*
X1214824D2*
X1256824D1*
X1289824D2*
X1409824D1*
X1490824D2*
X1592824D1*
X1679824D2*
X1793824D1*
X1823824D2*
X1877824D1*
X2042824D2*
X2087824D1*
X2147824D2*
X2192824D1*
X2225824D2*
X2384824D1*
X2414824D2*
X2459824D1*
X2501824D2*
X2546824D1*
X2576824D2*
X2765824D1*
X2882824D2*
X3062824D1*
X3074824D2*
X3251824D1*
X773824Y2088900D2*
X875824D1*
X1049824D2*
X1094824D1*
X1214824D2*
X1256824D1*
X1289824D2*
X1361824D1*
X1490824D2*
X1592824D1*
X1670824D2*
X1793824D1*
X1823824D2*
X1868824D1*
X1985824D2*
X2012824D1*
X2042824D2*
X2087824D1*
X2147824D2*
X2192824D1*
X2330824D2*
X2384824D1*
X2414824D2*
X2459824D1*
X2501824D2*
X2546824D1*
X2576824D2*
X2765824D1*
X2903824D2*
X3233824D1*
X773824Y2085900D2*
X875824D1*
X1049824D2*
X1094824D1*
X1214824D2*
X1256824D1*
X1289824D2*
X1361824D1*
X1490824D2*
X1592824D1*
X1670824D2*
X1793824D1*
X1823824D2*
X1868824D1*
X1985824D2*
X2012824D1*
X2042824D2*
X2087824D1*
X2147824D2*
X2192824D1*
X2330824D2*
X2384824D1*
X2414824D2*
X2459824D1*
X2501824D2*
X2546824D1*
X2576824D2*
X2765824D1*
X2903824D2*
X3233824D1*
X782824Y2082900D2*
X875824D1*
X1049824D2*
X1094824D1*
X1214824D2*
X1256824D1*
X1289824D2*
X1343824D1*
X1412824D2*
X1439824D1*
X1499824D2*
X1583824D1*
X1661824D2*
X1793824D1*
X1823824D2*
X1877824D1*
X1967824D2*
X2012824D1*
X2042824D2*
X2087824D1*
X2147824D2*
X2192824D1*
X2225824D2*
X2249824D1*
X2330824D2*
X2384824D1*
X2414824D2*
X2459824D1*
X2501824D2*
X2546824D1*
X2576824D2*
X2765824D1*
X2921824D2*
X3212824D1*
X782824Y2079900D2*
X875824D1*
X1049824D2*
X1094824D1*
X1214824D2*
X1256824D1*
X1289824D2*
X1343824D1*
X1412824D2*
X1439824D1*
X1499824D2*
X1583824D1*
X1661824D2*
X1793824D1*
X1823824D2*
X1877824D1*
X1967824D2*
X2012824D1*
X2042824D2*
X2087824D1*
X2147824D2*
X2192824D1*
X2225824D2*
X2249824D1*
X2330824D2*
X2384824D1*
X2414824D2*
X2459824D1*
X2501824D2*
X2546824D1*
X2576824D2*
X2765824D1*
X2921824D2*
X3212824D1*
X782824Y2076900D2*
X875824D1*
X1049824D2*
X1094824D1*
X1214824D2*
X1256824D1*
X1289824D2*
X1343824D1*
X1412824D2*
X1439824D1*
X1499824D2*
X1583824D1*
X1661824D2*
X1793824D1*
X1823824D2*
X1877824D1*
X1967824D2*
X2012824D1*
X2042824D2*
X2087824D1*
X2147824D2*
X2192824D1*
X2225824D2*
X2249824D1*
X2330824D2*
X2384824D1*
X2414824D2*
X2459824D1*
X2501824D2*
X2546824D1*
X2576824D2*
X2765824D1*
X2921824D2*
X3212824D1*
X782824Y2073900D2*
X875824D1*
X1049824D2*
X1094824D1*
X1214824D2*
X1256824D1*
X1289824D2*
X1343824D1*
X1394824D2*
X1439824D1*
X1499824D2*
X1583824D1*
X1652824D2*
X1724824D1*
X1748824D2*
X1793824D1*
X1823824D2*
X1898824D1*
X1946824D2*
X2012824D1*
X2042824D2*
X2087824D1*
X2147824D2*
X2192824D1*
X2225824D2*
X2270824D1*
X2309824D2*
X2384824D1*
X2414824D2*
X2459824D1*
X2501824D2*
X2546824D1*
X2567824D2*
X2621824D1*
X2720824D2*
X2774824D1*
X2948824D2*
X3185824D1*
X782824Y2070900D2*
X875824D1*
X1049824D2*
X1094824D1*
X1214824D2*
X1256824D1*
X1289824D2*
X1343824D1*
X1394824D2*
X1439824D1*
X1499824D2*
X1583824D1*
X1652824D2*
X1724824D1*
X1748824D2*
X1793824D1*
X1823824D2*
X1898824D1*
X1946824D2*
X2012824D1*
X2042824D2*
X2087824D1*
X2147824D2*
X2192824D1*
X2225824D2*
X2270824D1*
X2309824D2*
X2384824D1*
X2414824D2*
X2459824D1*
X2501824D2*
X2546824D1*
X2567824D2*
X2621824D1*
X2720824D2*
X2774824D1*
X2948824D2*
X3185824D1*
X794824Y2067900D2*
X866824D1*
X1049824D2*
X1094824D1*
X1214824D2*
X1256824D1*
X1289824D2*
X1439824D1*
X1508824D2*
X1571824D1*
X1643824D2*
X1715824D1*
X1748824D2*
X1793824D1*
X1832824D2*
X2012824D1*
X2042824D2*
X2087824D1*
X2147824D2*
X2192824D1*
X2225824D2*
X2375824D1*
X2414824D2*
X2459824D1*
X2501824D2*
X2546824D1*
X2567824D2*
X2621824D1*
X2720824D2*
X2774824D1*
X2987824D2*
X3146824D1*
X794824Y2064900D2*
X866824D1*
X1049824D2*
X1094824D1*
X1214824D2*
X1256824D1*
X1289824D2*
X1439824D1*
X1508824D2*
X1571824D1*
X1643824D2*
X1715824D1*
X1748824D2*
X1793824D1*
X1832824D2*
X2012824D1*
X2042824D2*
X2087824D1*
X2147824D2*
X2192824D1*
X2225824D2*
X2375824D1*
X2414824D2*
X2459824D1*
X2501824D2*
X2546824D1*
X2567824D2*
X2621824D1*
X2720824D2*
X2774824D1*
X2987824D2*
X3146824D1*
X794824Y2061900D2*
X866824D1*
X1049824D2*
X1094824D1*
X1214824D2*
X1256824D1*
X1289824D2*
X1439824D1*
X1508824D2*
X1571824D1*
X1631824D2*
X1706824D1*
X1748824D2*
X1793824D1*
X1832824D2*
X2012824D1*
X2042824D2*
X2087824D1*
X2147824D2*
X2192824D1*
X2225824D2*
X2375824D1*
X2414824D2*
X2459824D1*
X2501824D2*
X2546824D1*
X2567824D2*
X2612824D1*
X2729824D2*
X2774824D1*
X794824Y2058900D2*
X866824D1*
X1049824D2*
X1094824D1*
X1214824D2*
X1256824D1*
X1289824D2*
X1439824D1*
X1508824D2*
X1571824D1*
X1631824D2*
X1706824D1*
X1748824D2*
X1793824D1*
X1832824D2*
X2012824D1*
X2042824D2*
X2087824D1*
X2147824D2*
X2192824D1*
X2225824D2*
X2375824D1*
X2414824D2*
X2459824D1*
X2501824D2*
X2546824D1*
X2567824D2*
X2612824D1*
X2729824D2*
X2774824D1*
X794824Y2055900D2*
X866824D1*
X1049824D2*
X1094824D1*
X1214824D2*
X1256824D1*
X1289824D2*
X1439824D1*
X1508824D2*
X1571824D1*
X1631824D2*
X1706824D1*
X1748824D2*
X1793824D1*
X1832824D2*
X2012824D1*
X2042824D2*
X2087824D1*
X2147824D2*
X2192824D1*
X2225824D2*
X2375824D1*
X2414824D2*
X2459824D1*
X2501824D2*
X2546824D1*
X2567824D2*
X2612824D1*
X2729824D2*
X2774824D1*
X803824Y2052900D2*
X857824D1*
X1049824D2*
X1094824D1*
X1214824D2*
X1256824D1*
X1298824D2*
X1439824D1*
X1517824D2*
X1571824D1*
X1622824D2*
X1697824D1*
X1748824D2*
X1793824D1*
X1841824D2*
X2012824D1*
X2042824D2*
X2087824D1*
X2147824D2*
X2192824D1*
X2225824D2*
X2363824D1*
X2414824D2*
X2459824D1*
X2501824D2*
X2546824D1*
X2558824D2*
X2612824D1*
X2729824D2*
X2783824D1*
X2912824D2*
X2927824D1*
X3206824D2*
X3224824D1*
X803824Y2049900D2*
X857824D1*
X1049824D2*
X1094824D1*
X1214824D2*
X1256824D1*
X1298824D2*
X1439824D1*
X1517824D2*
X1571824D1*
X1622824D2*
X1697824D1*
X1748824D2*
X1793824D1*
X1841824D2*
X2012824D1*
X2042824D2*
X2087824D1*
X2147824D2*
X2192824D1*
X2225824D2*
X2363824D1*
X2414824D2*
X2459824D1*
X2501824D2*
X2546824D1*
X2558824D2*
X2612824D1*
X2729824D2*
X2783824D1*
X2912824D2*
X2927824D1*
X3206824D2*
X3224824D1*
X803824Y2046900D2*
X857824D1*
X1049824D2*
X1094824D1*
X1214824D2*
X1256824D1*
X1307824D2*
X1439824D1*
X1517824D2*
X1571824D1*
X1622824D2*
X1688824D1*
X1748824D2*
X1793824D1*
X1853824D2*
X2003824D1*
X2042824D2*
X2087824D1*
X2147824D2*
X2192824D1*
X2225824D2*
X2354824D1*
X2414824D2*
X2459824D1*
X2501824D2*
X2546824D1*
X2558824D2*
X2612824D1*
X2729824D2*
X2783824D1*
X2903824D2*
X2945824D1*
X3188824D2*
X3233824D1*
X803824Y2043900D2*
X857824D1*
X1049824D2*
X1094824D1*
X1214824D2*
X1256824D1*
X1307824D2*
X1439824D1*
X1517824D2*
X1571824D1*
X1622824D2*
X1688824D1*
X1748824D2*
X1793824D1*
X1853824D2*
X2003824D1*
X2042824D2*
X2087824D1*
X2147824D2*
X2192824D1*
X2225824D2*
X2354824D1*
X2414824D2*
X2459824D1*
X2501824D2*
X2546824D1*
X2558824D2*
X2612824D1*
X2729824D2*
X2783824D1*
X2903824D2*
X2945824D1*
X3188824D2*
X3233824D1*
X803824Y2040900D2*
X848824D1*
X1049824D2*
X1094824D1*
X1214824D2*
X1256824D1*
X1328824D2*
X1409824D1*
X1517824D2*
X1571824D1*
X1622824D2*
X1688824D1*
X1748824D2*
X1793824D1*
X1880824D2*
X1973824D1*
X2042824D2*
X2087824D1*
X2147824D2*
X2192824D1*
X2252824D2*
X2336824D1*
X2414824D2*
X2459824D1*
X2501824D2*
X2546824D1*
X2558824D2*
X2603824D1*
X2738824D2*
X2783824D1*
X2903824D2*
X2945824D1*
X3188824D2*
X3233824D1*
X803824Y2037900D2*
X848824D1*
X1049824D2*
X1094824D1*
X1214824D2*
X1256824D1*
X1328824D2*
X1409824D1*
X1517824D2*
X1571824D1*
X1622824D2*
X1688824D1*
X1748824D2*
X1793824D1*
X1880824D2*
X1973824D1*
X2042824D2*
X2087824D1*
X2147824D2*
X2192824D1*
X2252824D2*
X2336824D1*
X2414824D2*
X2459824D1*
X2501824D2*
X2546824D1*
X2558824D2*
X2603824D1*
X2738824D2*
X2783824D1*
X2903824D2*
X2945824D1*
X3188824D2*
X3233824D1*
X803824Y2034900D2*
X848824D1*
X1049824D2*
X1094824D1*
X1214824D2*
X1256824D1*
X1328824D2*
X1409824D1*
X1517824D2*
X1571824D1*
X1622824D2*
X1688824D1*
X1748824D2*
X1793824D1*
X1880824D2*
X1973824D1*
X2042824D2*
X2087824D1*
X2147824D2*
X2192824D1*
X2252824D2*
X2336824D1*
X2414824D2*
X2459824D1*
X2501824D2*
X2546824D1*
X2558824D2*
X2603824D1*
X2738824D2*
X2783824D1*
X2903824D2*
X2945824D1*
X3188824D2*
X3233824D1*
X1529824Y2031900D2*
X1583824D1*
X2891824D2*
X2936824D1*
X3044824D2*
X3089824D1*
X3197824D2*
X3242824D1*
X1529824Y2028900D2*
X1583824D1*
X2891824D2*
X2936824D1*
X3044824D2*
X3089824D1*
X3197824D2*
X3242824D1*
X1529824Y2025900D2*
X1583824D1*
X2891824D2*
X2936824D1*
X3044824D2*
X3089824D1*
X3197824D2*
X3242824D1*
X1529824Y2022900D2*
X1583824D1*
X2891824D2*
X2936824D1*
X3044824D2*
X3089824D1*
X3197824D2*
X3242824D1*
X1538824Y2019900D2*
X1592824D1*
X2882824D2*
X2927824D1*
X3044824D2*
X3089824D1*
X3206824D2*
X3251824D1*
X1538824Y2016900D2*
X1592824D1*
X2882824D2*
X2927824D1*
X3044824D2*
X3089824D1*
X3206824D2*
X3251824D1*
X1538824Y2013900D2*
X1592824D1*
X2882824D2*
X2927824D1*
X3044824D2*
X3089824D1*
X3206824D2*
X3251824D1*
X1538824Y2010900D2*
X1592824D1*
X2882824D2*
X2927824D1*
X3044824D2*
X3089824D1*
X3206824D2*
X3251824D1*
X1538824Y2007900D2*
X1592824D1*
X2882824D2*
X2927824D1*
X3044824D2*
X3089824D1*
X3206824D2*
X3251824D1*
X1547824Y2004900D2*
X1592824D1*
X2873824D2*
X2918824D1*
X3044824D2*
X3089824D1*
X3215824D2*
X3260824D1*
X1547824Y2001900D2*
X1592824D1*
X2873824D2*
X2918824D1*
X3044824D2*
X3089824D1*
X3215824D2*
X3260824D1*
X1547824Y1998900D2*
X1592824D1*
X2873824D2*
X2918824D1*
X3044824D2*
X3089824D1*
X3215824D2*
X3260824D1*
X1547824Y1995900D2*
X1592824D1*
X2873824D2*
X2918824D1*
X3044824D2*
X3089824D1*
X3215824D2*
X3260824D1*
X1547824Y1992900D2*
X1592824D1*
X2873824D2*
X2918824D1*
X3044824D2*
X3089824D1*
X3215824D2*
X3260824D1*
X2873824Y1989900D2*
X2909824D1*
X3044824D2*
X3089824D1*
X3227824D2*
X3260824D1*
X2873824Y1986900D2*
X2909824D1*
X3044824D2*
X3089824D1*
X3227824D2*
X3260824D1*
X2891824Y1983900D2*
X2909824D1*
X3044824D2*
X3089824D1*
X3227824D2*
X3242824D1*
X2891824Y1980900D2*
X2909824D1*
X3044824D2*
X3089824D1*
X3227824D2*
X3242824D1*
X3044824Y1977900D2*
X3089824D1*
X3044824Y1974900D2*
X3089824D1*
X3044824Y1971900D2*
X3089824D1*
X3044824Y1968900D2*
X3089824D1*
X3044824Y1965900D2*
X3089824D1*
X3026824Y2262900D2*
Y2259900D1*
Y2256900D1*
X3005824D1*
Y2253900D1*
Y2250900D1*
X2987824D1*
Y2247900D1*
Y2244900D1*
Y2241900D1*
X2978824D1*
Y2238900D1*
Y2235900D1*
X2969824D1*
Y2232900D1*
Y2229900D1*
X2960824D1*
Y2226900D1*
Y2223900D1*
Y2220900D1*
Y2217900D1*
Y2214900D1*
X2948824D1*
Y2211900D1*
Y2208900D1*
Y2205900D1*
Y2202900D1*
Y2199900D1*
Y2196900D1*
Y2193900D1*
Y2190900D1*
Y2187900D1*
X2930824D1*
Y2184900D1*
Y2181900D1*
Y2178900D1*
X2912824D1*
Y2175900D1*
Y2172900D1*
X2891824D1*
Y2169900D1*
Y2166900D1*
X2873824D1*
Y2163900D1*
Y2160900D1*
Y2157900D1*
X2864824D1*
Y2154900D1*
Y2151900D1*
Y2148900D1*
Y2145900D1*
X2855824D1*
Y2142900D1*
Y2139900D1*
Y2136900D1*
Y2133900D1*
Y2130900D1*
Y2127900D1*
Y2124900D1*
Y2121900D1*
Y2118900D1*
Y2115900D1*
Y2112900D1*
Y2109900D1*
X2864824D1*
Y2106900D1*
Y2103900D1*
X2873824D1*
Y2100900D1*
Y2097900D1*
Y2094900D1*
X2882824D1*
Y2091900D1*
Y2088900D1*
X2903824D1*
Y2085900D1*
Y2082900D1*
X2921824D1*
Y2079900D1*
Y2076900D1*
Y2073900D1*
X2948824D1*
Y2070900D1*
X3107824Y2262900D2*
Y2259900D1*
Y2256900D1*
X3128824D1*
Y2253900D1*
Y2250900D1*
X3146824D1*
Y2247900D1*
Y2244900D1*
Y2241900D1*
X3155824D1*
Y2238900D1*
Y2235900D1*
X3167824D1*
Y2232900D1*
Y2229900D1*
X3176824D1*
Y2226900D1*
Y2223900D1*
Y2220900D1*
Y2217900D1*
Y2214900D1*
X3185824D1*
Y2211900D1*
Y2208900D1*
Y2205900D1*
Y2202900D1*
Y2199900D1*
Y2196900D1*
Y2193900D1*
Y2190900D1*
Y2187900D1*
X3203824D1*
Y2184900D1*
Y2181900D1*
Y2178900D1*
X3224824D1*
Y2175900D1*
Y2172900D1*
X3242824D1*
Y2169900D1*
Y2166900D1*
X3260824D1*
Y2163900D1*
Y2160900D1*
Y2157900D1*
X3272824D1*
Y2154900D1*
Y2151900D1*
Y2148900D1*
Y2145900D1*
X3281824D1*
Y2142900D1*
Y2139900D1*
Y2136900D1*
Y2133900D1*
Y2130900D1*
Y2127900D1*
Y2124900D1*
Y2121900D1*
Y2118900D1*
Y2115900D1*
Y2112900D1*
Y2109900D1*
X3272824D1*
Y2106900D1*
Y2103900D1*
X3260824D1*
Y2100900D1*
Y2097900D1*
Y2094900D1*
X3251824D1*
Y2091900D1*
Y2088900D1*
X3233824D1*
Y2085900D1*
Y2082900D1*
X3212824D1*
Y2079900D1*
Y2076900D1*
Y2073900D1*
X3185824D1*
Y2070900D1*
X3032824Y2238900D2*
Y2235900D1*
Y2232900D1*
Y2229900D1*
X3023824D1*
Y2226900D1*
Y2223900D1*
Y2220900D1*
X3002824D1*
Y2217900D1*
Y2214900D1*
Y2211900D1*
Y2208900D1*
X2993824D1*
Y2205900D1*
Y2202900D1*
Y2199900D1*
X2984824D1*
Y2196900D1*
Y2193900D1*
Y2190900D1*
Y2187900D1*
Y2184900D1*
Y2181900D1*
Y2178900D1*
Y2175900D1*
Y2172900D1*
Y2169900D1*
Y2166900D1*
X3002824D1*
Y2163900D1*
Y2160900D1*
X3101824Y2238900D2*
Y2235900D1*
Y2232900D1*
Y2229900D1*
X3110824D1*
Y2226900D1*
Y2223900D1*
Y2220900D1*
X3131824D1*
Y2217900D1*
Y2214900D1*
Y2211900D1*
Y2208900D1*
X3140824D1*
Y2205900D1*
Y2202900D1*
Y2199900D1*
X3149824D1*
Y2196900D1*
Y2193900D1*
Y2190900D1*
Y2187900D1*
Y2184900D1*
Y2181900D1*
Y2178900D1*
Y2175900D1*
Y2172900D1*
Y2169900D1*
Y2166900D1*
X3131824D1*
Y2163900D1*
Y2160900D1*
X1748824Y2220900D2*
Y2217900D1*
Y2214900D1*
Y2211900D1*
Y2208900D1*
Y2205900D1*
Y2202900D1*
Y2199900D1*
Y2196900D1*
Y2193900D1*
Y2190900D1*
Y2187900D1*
Y2184900D1*
Y2181900D1*
Y2178900D1*
Y2175900D1*
Y2172900D1*
Y2169900D1*
Y2166900D1*
Y2163900D1*
Y2160900D1*
Y2157900D1*
Y2154900D1*
Y2151900D1*
Y2148900D1*
Y2145900D1*
Y2142900D1*
Y2139900D1*
Y2136900D1*
Y2133900D1*
X1793824Y2220900D2*
Y2217900D1*
Y2214900D1*
Y2211900D1*
Y2208900D1*
Y2205900D1*
Y2202900D1*
Y2199900D1*
Y2196900D1*
Y2193900D1*
Y2190900D1*
Y2187900D1*
Y2184900D1*
Y2181900D1*
Y2178900D1*
Y2175900D1*
Y2172900D1*
Y2169900D1*
Y2166900D1*
Y2163900D1*
Y2160900D1*
Y2157900D1*
Y2154900D1*
Y2151900D1*
Y2148900D1*
Y2145900D1*
Y2142900D1*
Y2139900D1*
Y2136900D1*
Y2133900D1*
Y2130900D1*
Y2127900D1*
Y2124900D1*
Y2121900D1*
Y2118900D1*
Y2115900D1*
Y2112900D1*
Y2109900D1*
Y2106900D1*
Y2103900D1*
Y2100900D1*
Y2097900D1*
Y2094900D1*
Y2091900D1*
Y2088900D1*
Y2085900D1*
Y2082900D1*
Y2079900D1*
Y2076900D1*
Y2073900D1*
Y2070900D1*
Y2067900D1*
Y2064900D1*
Y2061900D1*
Y2058900D1*
Y2055900D1*
Y2052900D1*
Y2049900D1*
Y2046900D1*
Y2043900D1*
Y2040900D1*
Y2037900D1*
Y2034900D1*
X2501824Y2220900D2*
Y2217900D1*
Y2214900D1*
Y2211900D1*
Y2208900D1*
Y2205900D1*
Y2202900D1*
Y2199900D1*
Y2196900D1*
Y2193900D1*
Y2190900D1*
Y2187900D1*
Y2184900D1*
Y2181900D1*
Y2178900D1*
Y2175900D1*
Y2172900D1*
Y2169900D1*
Y2166900D1*
Y2163900D1*
Y2160900D1*
Y2157900D1*
Y2154900D1*
Y2151900D1*
Y2148900D1*
Y2145900D1*
Y2142900D1*
Y2139900D1*
Y2136900D1*
Y2133900D1*
Y2130900D1*
Y2127900D1*
Y2124900D1*
Y2121900D1*
Y2118900D1*
Y2115900D1*
Y2112900D1*
Y2109900D1*
Y2106900D1*
Y2103900D1*
Y2100900D1*
Y2097900D1*
Y2094900D1*
Y2091900D1*
Y2088900D1*
Y2085900D1*
Y2082900D1*
Y2079900D1*
Y2076900D1*
Y2073900D1*
Y2070900D1*
Y2067900D1*
Y2064900D1*
Y2061900D1*
Y2058900D1*
Y2055900D1*
Y2052900D1*
Y2049900D1*
Y2046900D1*
Y2043900D1*
Y2040900D1*
Y2037900D1*
Y2034900D1*
X2546824Y2220900D2*
Y2217900D1*
Y2214900D1*
Y2211900D1*
Y2208900D1*
Y2205900D1*
Y2202900D1*
Y2199900D1*
Y2196900D1*
Y2193900D1*
Y2190900D1*
Y2187900D1*
Y2184900D1*
Y2181900D1*
Y2178900D1*
Y2175900D1*
Y2172900D1*
Y2169900D1*
Y2166900D1*
Y2163900D1*
Y2160900D1*
Y2157900D1*
Y2154900D1*
Y2151900D1*
Y2148900D1*
Y2145900D1*
Y2142900D1*
Y2139900D1*
Y2136900D1*
Y2133900D1*
Y2130900D1*
Y2127900D1*
Y2124900D1*
Y2121900D1*
Y2118900D1*
Y2115900D1*
Y2112900D1*
Y2109900D1*
Y2106900D1*
Y2103900D1*
Y2100900D1*
Y2097900D1*
Y2094900D1*
Y2091900D1*
Y2088900D1*
Y2085900D1*
Y2082900D1*
Y2079900D1*
Y2076900D1*
Y2073900D1*
Y2070900D1*
Y2067900D1*
Y2064900D1*
Y2061900D1*
Y2058900D1*
Y2055900D1*
Y2052900D1*
Y2049900D1*
Y2046900D1*
Y2043900D1*
Y2040900D1*
Y2037900D1*
Y2034900D1*
X3035824Y2220900D2*
Y2217900D1*
Y2214900D1*
X3026824D1*
Y2211900D1*
Y2208900D1*
X3017824D1*
Y2205900D1*
Y2202900D1*
Y2199900D1*
Y2196900D1*
Y2193900D1*
Y2190900D1*
Y2187900D1*
Y2184900D1*
Y2181900D1*
Y2178900D1*
Y2175900D1*
Y2172900D1*
Y2169900D1*
Y2166900D1*
Y2163900D1*
Y2160900D1*
X3098824Y2220900D2*
Y2217900D1*
Y2214900D1*
X3107824D1*
Y2211900D1*
Y2208900D1*
X3119824D1*
Y2205900D1*
Y2202900D1*
Y2199900D1*
Y2196900D1*
Y2193900D1*
Y2190900D1*
Y2187900D1*
Y2184900D1*
Y2181900D1*
Y2178900D1*
Y2175900D1*
Y2172900D1*
Y2169900D1*
Y2166900D1*
Y2163900D1*
Y2160900D1*
X1862824Y2214900D2*
Y2211900D1*
Y2208900D1*
X1832824D1*
Y2205900D1*
Y2202900D1*
Y2199900D1*
Y2196900D1*
Y2193900D1*
Y2190900D1*
Y2187900D1*
Y2184900D1*
Y2181900D1*
Y2178900D1*
Y2175900D1*
Y2172900D1*
Y2169900D1*
X1964824Y2214900D2*
Y2211900D1*
Y2208900D1*
X1982824D1*
Y2205900D1*
Y2202900D1*
Y2199900D1*
X1991824D1*
Y2196900D1*
Y2193900D1*
X2003824D1*
Y2190900D1*
Y2187900D1*
X2012824D1*
Y2184900D1*
Y2181900D1*
Y2178900D1*
Y2175900D1*
Y2172900D1*
Y2169900D1*
Y2166900D1*
Y2163900D1*
Y2160900D1*
Y2157900D1*
Y2154900D1*
Y2151900D1*
Y2148900D1*
Y2145900D1*
Y2142900D1*
Y2139900D1*
Y2136900D1*
X2003824D1*
Y2133900D1*
Y2130900D1*
Y2127900D1*
Y2124900D1*
X1991824D1*
Y2121900D1*
Y2118900D1*
Y2115900D1*
X1973824D1*
Y2112900D1*
X2414824Y2214900D2*
Y2211900D1*
Y2208900D1*
Y2205900D1*
Y2202900D1*
Y2199900D1*
Y2196900D1*
Y2193900D1*
Y2190900D1*
Y2187900D1*
Y2184900D1*
Y2181900D1*
X2459824Y2214900D2*
Y2211900D1*
Y2208900D1*
Y2205900D1*
Y2202900D1*
Y2199900D1*
Y2196900D1*
Y2193900D1*
Y2190900D1*
Y2187900D1*
Y2184900D1*
Y2181900D1*
X2645824Y2214900D2*
Y2211900D1*
Y2208900D1*
X2633824D1*
Y2205900D1*
Y2202900D1*
Y2199900D1*
Y2196900D1*
Y2193900D1*
Y2190900D1*
Y2187900D1*
X2624824D1*
Y2184900D1*
Y2181900D1*
Y2178900D1*
Y2175900D1*
Y2172900D1*
X2615824D1*
Y2169900D1*
Y2166900D1*
Y2163900D1*
Y2160900D1*
Y2157900D1*
Y2154900D1*
Y2151900D1*
X2606824D1*
Y2148900D1*
Y2145900D1*
Y2142900D1*
Y2139900D1*
Y2136900D1*
Y2133900D1*
Y2130900D1*
X2597824D1*
Y2127900D1*
Y2124900D1*
Y2121900D1*
Y2118900D1*
Y2115900D1*
X2588824D1*
Y2112900D1*
Y2109900D1*
Y2106900D1*
Y2103900D1*
Y2100900D1*
Y2097900D1*
Y2094900D1*
X2576824D1*
Y2091900D1*
Y2088900D1*
Y2085900D1*
Y2082900D1*
Y2079900D1*
Y2076900D1*
Y2073900D1*
X2567824D1*
Y2070900D1*
Y2067900D1*
Y2064900D1*
Y2061900D1*
Y2058900D1*
Y2055900D1*
Y2052900D1*
X2558824D1*
Y2049900D1*
Y2046900D1*
Y2043900D1*
Y2040900D1*
Y2037900D1*
Y2034900D1*
X2699824Y2214900D2*
Y2211900D1*
Y2208900D1*
X2708824D1*
Y2205900D1*
Y2202900D1*
Y2199900D1*
Y2196900D1*
Y2193900D1*
Y2190900D1*
Y2187900D1*
X2717824D1*
Y2184900D1*
Y2181900D1*
Y2178900D1*
Y2175900D1*
Y2172900D1*
X2726824D1*
Y2169900D1*
Y2166900D1*
Y2163900D1*
Y2160900D1*
Y2157900D1*
Y2154900D1*
Y2151900D1*
X2735824D1*
Y2148900D1*
Y2145900D1*
Y2142900D1*
Y2139900D1*
Y2136900D1*
Y2133900D1*
Y2130900D1*
X2747824D1*
Y2127900D1*
Y2124900D1*
Y2121900D1*
Y2118900D1*
Y2115900D1*
X2756824D1*
Y2112900D1*
Y2109900D1*
Y2106900D1*
Y2103900D1*
Y2100900D1*
Y2097900D1*
Y2094900D1*
X2765824D1*
Y2091900D1*
Y2088900D1*
Y2085900D1*
Y2082900D1*
Y2079900D1*
Y2076900D1*
Y2073900D1*
X2774824D1*
Y2070900D1*
Y2067900D1*
Y2064900D1*
Y2061900D1*
Y2058900D1*
Y2055900D1*
Y2052900D1*
X2783824D1*
Y2049900D1*
Y2046900D1*
Y2043900D1*
Y2040900D1*
Y2037900D1*
Y2034900D1*
X716824Y2208900D2*
Y2205900D1*
Y2202900D1*
Y2199900D1*
Y2196900D1*
Y2193900D1*
Y2190900D1*
Y2187900D1*
Y2184900D1*
Y2181900D1*
Y2178900D1*
X725824D1*
Y2175900D1*
Y2172900D1*
Y2169900D1*
Y2166900D1*
X737824D1*
Y2163900D1*
Y2160900D1*
Y2157900D1*
Y2154900D1*
Y2151900D1*
Y2148900D1*
Y2145900D1*
X746824D1*
Y2142900D1*
Y2139900D1*
Y2136900D1*
Y2133900D1*
Y2130900D1*
X755824D1*
Y2127900D1*
Y2124900D1*
Y2121900D1*
Y2118900D1*
Y2115900D1*
X764824D1*
Y2112900D1*
Y2109900D1*
Y2106900D1*
Y2103900D1*
X773824D1*
Y2100900D1*
Y2097900D1*
Y2094900D1*
Y2091900D1*
Y2088900D1*
Y2085900D1*
Y2082900D1*
X782824D1*
Y2079900D1*
Y2076900D1*
Y2073900D1*
Y2070900D1*
Y2067900D1*
X794824D1*
Y2064900D1*
Y2061900D1*
Y2058900D1*
Y2055900D1*
Y2052900D1*
X803824D1*
Y2049900D1*
Y2046900D1*
Y2043900D1*
Y2040900D1*
Y2037900D1*
Y2034900D1*
X761824Y2208900D2*
Y2205900D1*
Y2202900D1*
Y2199900D1*
Y2196900D1*
Y2193900D1*
X770824D1*
Y2190900D1*
Y2187900D1*
Y2184900D1*
Y2181900D1*
Y2178900D1*
X779824D1*
Y2175900D1*
Y2172900D1*
Y2169900D1*
Y2166900D1*
X791824D1*
Y2163900D1*
Y2160900D1*
Y2157900D1*
Y2154900D1*
Y2151900D1*
Y2148900D1*
Y2145900D1*
X800824D1*
Y2142900D1*
Y2139900D1*
Y2136900D1*
Y2133900D1*
Y2130900D1*
X809824D1*
Y2127900D1*
Y2124900D1*
Y2121900D1*
Y2118900D1*
Y2115900D1*
X818824D1*
Y2112900D1*
Y2109900D1*
Y2106900D1*
Y2103900D1*
Y2100900D1*
Y2097900D1*
X899824Y2208900D2*
Y2205900D1*
Y2202900D1*
Y2199900D1*
X887824D1*
Y2196900D1*
Y2193900D1*
Y2190900D1*
Y2187900D1*
Y2184900D1*
Y2181900D1*
Y2178900D1*
X878824D1*
Y2175900D1*
Y2172900D1*
Y2169900D1*
Y2166900D1*
X869824D1*
Y2163900D1*
Y2160900D1*
Y2157900D1*
Y2154900D1*
Y2151900D1*
X860824D1*
Y2148900D1*
Y2145900D1*
Y2142900D1*
Y2139900D1*
Y2136900D1*
Y2133900D1*
Y2130900D1*
X851824D1*
Y2127900D1*
Y2124900D1*
Y2121900D1*
Y2118900D1*
Y2115900D1*
X842824D1*
Y2112900D1*
Y2109900D1*
Y2106900D1*
Y2103900D1*
X830824D1*
Y2100900D1*
Y2097900D1*
X941824Y2208900D2*
Y2205900D1*
Y2202900D1*
Y2199900D1*
Y2196900D1*
X974824Y2208900D2*
Y2205900D1*
Y2202900D1*
Y2199900D1*
X956824D1*
Y2196900D1*
X1256824Y2208900D2*
Y2205900D1*
Y2202900D1*
Y2199900D1*
Y2196900D1*
Y2193900D1*
Y2190900D1*
Y2187900D1*
Y2184900D1*
Y2181900D1*
Y2178900D1*
Y2175900D1*
Y2172900D1*
Y2169900D1*
Y2166900D1*
Y2163900D1*
Y2160900D1*
Y2157900D1*
Y2154900D1*
Y2151900D1*
Y2148900D1*
Y2145900D1*
Y2142900D1*
Y2139900D1*
Y2136900D1*
Y2133900D1*
Y2130900D1*
Y2127900D1*
Y2124900D1*
Y2121900D1*
Y2118900D1*
Y2115900D1*
Y2112900D1*
Y2109900D1*
Y2106900D1*
Y2103900D1*
Y2100900D1*
Y2097900D1*
Y2094900D1*
Y2091900D1*
Y2088900D1*
Y2085900D1*
Y2082900D1*
Y2079900D1*
Y2076900D1*
Y2073900D1*
Y2070900D1*
Y2067900D1*
Y2064900D1*
Y2061900D1*
Y2058900D1*
Y2055900D1*
Y2052900D1*
Y2049900D1*
Y2046900D1*
Y2043900D1*
Y2040900D1*
Y2037900D1*
Y2034900D1*
X1886824Y2181900D2*
Y2178900D1*
Y2175900D1*
Y2172900D1*
X1859824D1*
Y2169900D1*
X1946824Y2181900D2*
Y2178900D1*
Y2175900D1*
Y2172900D1*
X1958824D1*
Y2169900D1*
Y2166900D1*
X1967824D1*
Y2163900D1*
Y2160900D1*
Y2157900D1*
X1958824D1*
Y2154900D1*
Y2151900D1*
X1946824D1*
Y2148900D1*
Y2145900D1*
X1001824Y2175900D2*
Y2172900D1*
Y2169900D1*
Y2166900D1*
X989824D1*
Y2163900D1*
Y2160900D1*
Y2157900D1*
X980824D1*
Y2154900D1*
Y2151900D1*
X989824D1*
Y2148900D1*
Y2145900D1*
X1001824D1*
Y2142900D1*
Y2139900D1*
Y2136900D1*
X1049824Y2175900D2*
Y2172900D1*
Y2169900D1*
Y2166900D1*
Y2163900D1*
Y2160900D1*
Y2157900D1*
Y2154900D1*
Y2151900D1*
Y2148900D1*
Y2145900D1*
Y2142900D1*
Y2139900D1*
Y2136900D1*
X1094824Y2175900D2*
Y2172900D1*
Y2169900D1*
Y2166900D1*
Y2163900D1*
Y2160900D1*
Y2157900D1*
Y2154900D1*
Y2151900D1*
Y2148900D1*
Y2145900D1*
Y2142900D1*
Y2139900D1*
Y2136900D1*
Y2133900D1*
Y2130900D1*
Y2127900D1*
Y2124900D1*
Y2121900D1*
Y2118900D1*
Y2115900D1*
Y2112900D1*
Y2109900D1*
Y2106900D1*
Y2103900D1*
Y2100900D1*
Y2097900D1*
Y2094900D1*
Y2091900D1*
Y2088900D1*
Y2085900D1*
Y2082900D1*
Y2079900D1*
Y2076900D1*
Y2073900D1*
Y2070900D1*
Y2067900D1*
Y2064900D1*
Y2061900D1*
Y2058900D1*
Y2055900D1*
Y2052900D1*
Y2049900D1*
Y2046900D1*
Y2043900D1*
Y2040900D1*
Y2037900D1*
Y2034900D1*
X1214824Y2175900D2*
Y2172900D1*
Y2169900D1*
Y2166900D1*
Y2163900D1*
Y2160900D1*
Y2157900D1*
Y2154900D1*
Y2151900D1*
Y2148900D1*
Y2145900D1*
Y2142900D1*
Y2139900D1*
Y2136900D1*
X1319824Y2172900D2*
Y2169900D1*
Y2166900D1*
X1298824D1*
Y2163900D1*
Y2160900D1*
Y2157900D1*
Y2154900D1*
Y2151900D1*
Y2148900D1*
Y2145900D1*
Y2142900D1*
Y2139900D1*
Y2136900D1*
Y2133900D1*
X1400824Y2172900D2*
Y2169900D1*
Y2166900D1*
X1421824D1*
Y2163900D1*
Y2160900D1*
Y2157900D1*
X1430824D1*
Y2154900D1*
Y2151900D1*
X1439824D1*
Y2148900D1*
Y2145900D1*
Y2142900D1*
Y2139900D1*
Y2136900D1*
Y2133900D1*
Y2130900D1*
Y2127900D1*
Y2124900D1*
Y2121900D1*
Y2118900D1*
Y2115900D1*
Y2112900D1*
Y2109900D1*
X1430824D1*
Y2106900D1*
Y2103900D1*
Y2100900D1*
Y2097900D1*
Y2094900D1*
X1409824D1*
Y2091900D1*
X1451824Y2172900D2*
Y2169900D1*
Y2166900D1*
Y2163900D1*
Y2160900D1*
Y2157900D1*
Y2154900D1*
Y2151900D1*
X1460824D1*
Y2148900D1*
Y2145900D1*
Y2142900D1*
Y2139900D1*
Y2136900D1*
Y2133900D1*
Y2130900D1*
X1469824D1*
Y2127900D1*
Y2124900D1*
Y2121900D1*
Y2118900D1*
Y2115900D1*
X1481824D1*
Y2112900D1*
Y2109900D1*
Y2106900D1*
Y2103900D1*
X1490824D1*
Y2100900D1*
Y2097900D1*
Y2094900D1*
Y2091900D1*
Y2088900D1*
Y2085900D1*
Y2082900D1*
X1499824D1*
Y2079900D1*
Y2076900D1*
Y2073900D1*
Y2070900D1*
Y2067900D1*
X1508824D1*
Y2064900D1*
Y2061900D1*
Y2058900D1*
Y2055900D1*
Y2052900D1*
X1517824D1*
Y2049900D1*
Y2046900D1*
Y2043900D1*
Y2040900D1*
Y2037900D1*
Y2034900D1*
Y2031900D1*
X1529824D1*
Y2028900D1*
Y2025900D1*
Y2022900D1*
Y2019900D1*
X1538824D1*
Y2016900D1*
Y2013900D1*
Y2010900D1*
Y2007900D1*
Y2004900D1*
X1547824D1*
Y2001900D1*
Y1998900D1*
Y1995900D1*
Y1992900D1*
X1496824Y2172900D2*
Y2169900D1*
Y2166900D1*
X1505824D1*
Y2163900D1*
Y2160900D1*
Y2157900D1*
Y2154900D1*
Y2151900D1*
X1514824D1*
Y2148900D1*
Y2145900D1*
Y2142900D1*
Y2139900D1*
Y2136900D1*
Y2133900D1*
Y2130900D1*
X1526824D1*
Y2127900D1*
Y2124900D1*
Y2121900D1*
Y2118900D1*
Y2115900D1*
X1535824D1*
Y2112900D1*
Y2109900D1*
Y2106900D1*
X1586824Y2172900D2*
Y2169900D1*
Y2166900D1*
X1574824D1*
Y2163900D1*
Y2160900D1*
Y2157900D1*
Y2154900D1*
Y2151900D1*
X1565824D1*
Y2148900D1*
Y2145900D1*
Y2142900D1*
Y2139900D1*
Y2136900D1*
Y2133900D1*
Y2130900D1*
X1556824D1*
Y2127900D1*
Y2124900D1*
Y2121900D1*
Y2118900D1*
Y2115900D1*
X1547824D1*
Y2112900D1*
Y2109900D1*
Y2106900D1*
X1688824Y2172900D2*
Y2169900D1*
Y2166900D1*
X1697824D1*
Y2163900D1*
Y2160900D1*
Y2157900D1*
X1706824D1*
Y2154900D1*
Y2151900D1*
X1715824D1*
Y2148900D1*
Y2145900D1*
X1724824D1*
Y2142900D1*
Y2139900D1*
Y2136900D1*
X1733824D1*
Y2133900D1*
X2072824Y2172900D2*
Y2169900D1*
Y2166900D1*
X2063824D1*
Y2163900D1*
Y2160900D1*
Y2157900D1*
X2051824D1*
Y2154900D1*
Y2151900D1*
X2042824D1*
Y2148900D1*
Y2145900D1*
Y2142900D1*
Y2139900D1*
Y2136900D1*
Y2133900D1*
Y2130900D1*
Y2127900D1*
Y2124900D1*
Y2121900D1*
Y2118900D1*
Y2115900D1*
Y2112900D1*
Y2109900D1*
Y2106900D1*
Y2103900D1*
Y2100900D1*
Y2097900D1*
Y2094900D1*
Y2091900D1*
Y2088900D1*
Y2085900D1*
Y2082900D1*
Y2079900D1*
Y2076900D1*
Y2073900D1*
Y2070900D1*
Y2067900D1*
Y2064900D1*
Y2061900D1*
Y2058900D1*
Y2055900D1*
Y2052900D1*
Y2049900D1*
Y2046900D1*
Y2043900D1*
Y2040900D1*
Y2037900D1*
Y2034900D1*
X2135824Y2172900D2*
Y2169900D1*
X2147824Y2172900D2*
Y2169900D1*
X2192824Y2172900D2*
Y2169900D1*
Y2166900D1*
Y2163900D1*
Y2160900D1*
Y2157900D1*
Y2154900D1*
Y2151900D1*
Y2148900D1*
Y2145900D1*
Y2142900D1*
Y2139900D1*
Y2136900D1*
Y2133900D1*
Y2130900D1*
Y2127900D1*
Y2124900D1*
Y2121900D1*
Y2118900D1*
Y2115900D1*
Y2112900D1*
Y2109900D1*
Y2106900D1*
Y2103900D1*
Y2100900D1*
Y2097900D1*
Y2094900D1*
Y2091900D1*
Y2088900D1*
Y2085900D1*
Y2082900D1*
Y2079900D1*
Y2076900D1*
Y2073900D1*
Y2070900D1*
Y2067900D1*
Y2064900D1*
Y2061900D1*
Y2058900D1*
Y2055900D1*
Y2052900D1*
Y2049900D1*
Y2046900D1*
Y2043900D1*
Y2040900D1*
Y2037900D1*
Y2034900D1*
X2261824Y2172900D2*
Y2169900D1*
Y2166900D1*
X2252824D1*
Y2163900D1*
Y2160900D1*
Y2157900D1*
X2243824D1*
Y2154900D1*
Y2151900D1*
X2234824D1*
Y2148900D1*
Y2145900D1*
Y2142900D1*
Y2139900D1*
Y2136900D1*
X2225824D1*
Y2133900D1*
Y2130900D1*
Y2127900D1*
Y2124900D1*
Y2121900D1*
Y2118900D1*
Y2115900D1*
Y2112900D1*
Y2109900D1*
Y2106900D1*
Y2103900D1*
Y2100900D1*
Y2097900D1*
Y2094900D1*
Y2091900D1*
X2336824Y2172900D2*
Y2169900D1*
Y2166900D1*
X2354824D1*
Y2163900D1*
Y2160900D1*
Y2157900D1*
X2363824D1*
Y2154900D1*
Y2151900D1*
X2375824D1*
Y2148900D1*
Y2145900D1*
Y2142900D1*
Y2139900D1*
Y2136900D1*
Y2133900D1*
Y2130900D1*
X2384824D1*
Y2127900D1*
Y2124900D1*
Y2121900D1*
Y2118900D1*
Y2115900D1*
Y2112900D1*
Y2109900D1*
Y2106900D1*
Y2103900D1*
Y2100900D1*
Y2097900D1*
Y2094900D1*
Y2091900D1*
Y2088900D1*
Y2085900D1*
Y2082900D1*
Y2079900D1*
Y2076900D1*
Y2073900D1*
Y2070900D1*
Y2067900D1*
X2375824D1*
Y2064900D1*
Y2061900D1*
Y2058900D1*
Y2055900D1*
Y2052900D1*
X2363824D1*
Y2049900D1*
Y2046900D1*
X2354824D1*
Y2043900D1*
Y2040900D1*
X2336824D1*
Y2037900D1*
Y2034900D1*
X2414824Y2172900D2*
Y2169900D1*
Y2166900D1*
Y2163900D1*
Y2160900D1*
Y2157900D1*
Y2154900D1*
Y2151900D1*
Y2148900D1*
Y2145900D1*
Y2142900D1*
Y2139900D1*
Y2136900D1*
Y2133900D1*
Y2130900D1*
Y2127900D1*
Y2124900D1*
Y2121900D1*
Y2118900D1*
Y2115900D1*
Y2112900D1*
Y2109900D1*
Y2106900D1*
Y2103900D1*
Y2100900D1*
Y2097900D1*
Y2094900D1*
Y2091900D1*
Y2088900D1*
Y2085900D1*
Y2082900D1*
Y2079900D1*
Y2076900D1*
Y2073900D1*
Y2070900D1*
Y2067900D1*
Y2064900D1*
Y2061900D1*
Y2058900D1*
Y2055900D1*
Y2052900D1*
Y2049900D1*
Y2046900D1*
Y2043900D1*
Y2040900D1*
Y2037900D1*
Y2034900D1*
X2459824Y2172900D2*
Y2169900D1*
Y2166900D1*
Y2163900D1*
Y2160900D1*
Y2157900D1*
Y2154900D1*
Y2151900D1*
Y2148900D1*
Y2145900D1*
Y2142900D1*
Y2139900D1*
Y2136900D1*
Y2133900D1*
Y2130900D1*
Y2127900D1*
Y2124900D1*
Y2121900D1*
Y2118900D1*
Y2115900D1*
Y2112900D1*
Y2109900D1*
Y2106900D1*
Y2103900D1*
Y2100900D1*
Y2097900D1*
Y2094900D1*
Y2091900D1*
Y2088900D1*
Y2085900D1*
Y2082900D1*
Y2079900D1*
Y2076900D1*
Y2073900D1*
Y2070900D1*
Y2067900D1*
Y2064900D1*
Y2061900D1*
Y2058900D1*
Y2055900D1*
Y2052900D1*
Y2049900D1*
Y2046900D1*
Y2043900D1*
Y2040900D1*
Y2037900D1*
Y2034900D1*
X3041824Y2175900D2*
Y2172900D1*
Y2169900D1*
X3053824Y2175900D2*
Y2172900D1*
Y2169900D1*
X3080824Y2175900D2*
Y2172900D1*
Y2169900D1*
X3092824Y2175900D2*
Y2172900D1*
Y2169900D1*
X923824D2*
Y2166900D1*
Y2163900D1*
Y2160900D1*
Y2157900D1*
Y2154900D1*
Y2151900D1*
X914824D1*
Y2148900D1*
Y2145900D1*
Y2142900D1*
Y2139900D1*
Y2136900D1*
X905824D1*
Y2133900D1*
Y2130900D1*
Y2127900D1*
Y2124900D1*
Y2121900D1*
Y2118900D1*
Y2115900D1*
X896824D1*
Y2112900D1*
Y2109900D1*
Y2106900D1*
Y2103900D1*
X884824D1*
Y2100900D1*
Y2097900D1*
Y2094900D1*
Y2091900D1*
Y2088900D1*
X875824D1*
Y2085900D1*
Y2082900D1*
Y2079900D1*
Y2076900D1*
Y2073900D1*
Y2070900D1*
Y2067900D1*
X866824D1*
Y2064900D1*
Y2061900D1*
Y2058900D1*
Y2055900D1*
Y2052900D1*
X857824D1*
Y2049900D1*
Y2046900D1*
Y2043900D1*
Y2040900D1*
X848824D1*
Y2037900D1*
Y2034900D1*
X935824Y2169900D2*
Y2166900D1*
Y2163900D1*
Y2160900D1*
Y2157900D1*
Y2154900D1*
Y2151900D1*
Y2148900D1*
Y2145900D1*
Y2142900D1*
Y2139900D1*
Y2136900D1*
Y2133900D1*
Y2130900D1*
X944824D1*
Y2127900D1*
Y2124900D1*
Y2121900D1*
Y2118900D1*
Y2115900D1*
X956824D1*
Y2112900D1*
Y2109900D1*
X974824D1*
Y2106900D1*
X1619824Y2154900D2*
Y2151900D1*
Y2148900D1*
Y2145900D1*
Y2142900D1*
Y2139900D1*
Y2136900D1*
Y2133900D1*
Y2130900D1*
X1610824D1*
Y2127900D1*
Y2124900D1*
Y2121900D1*
Y2118900D1*
Y2115900D1*
X1601824D1*
Y2112900D1*
Y2109900D1*
Y2106900D1*
Y2103900D1*
X1592824D1*
Y2100900D1*
Y2097900D1*
Y2094900D1*
Y2091900D1*
Y2088900D1*
Y2085900D1*
Y2082900D1*
X1583824D1*
Y2079900D1*
Y2076900D1*
Y2073900D1*
Y2070900D1*
Y2067900D1*
X1571824D1*
Y2064900D1*
Y2061900D1*
Y2058900D1*
Y2055900D1*
Y2052900D1*
Y2049900D1*
Y2046900D1*
Y2043900D1*
Y2040900D1*
Y2037900D1*
Y2034900D1*
Y2031900D1*
X1583824D1*
Y2028900D1*
Y2025900D1*
Y2022900D1*
Y2019900D1*
X1592824D1*
Y2016900D1*
Y2013900D1*
Y2010900D1*
Y2007900D1*
Y2004900D1*
Y2001900D1*
Y1998900D1*
Y1995900D1*
Y1992900D1*
X1643824Y2154900D2*
Y2151900D1*
Y2148900D1*
Y2145900D1*
X1652824D1*
Y2142900D1*
Y2139900D1*
Y2136900D1*
X1661824D1*
Y2133900D1*
Y2130900D1*
X1670824D1*
Y2127900D1*
Y2124900D1*
X1679824D1*
Y2121900D1*
Y2118900D1*
Y2115900D1*
X1691824D1*
Y2112900D1*
Y2109900D1*
X1700824D1*
Y2106900D1*
Y2103900D1*
X1691824D1*
Y2100900D1*
Y2097900D1*
Y2094900D1*
X1679824D1*
Y2091900D1*
Y2088900D1*
X1670824D1*
Y2085900D1*
Y2082900D1*
X1661824D1*
Y2079900D1*
Y2076900D1*
Y2073900D1*
X1652824D1*
Y2070900D1*
Y2067900D1*
X1643824D1*
Y2064900D1*
Y2061900D1*
X1631824D1*
Y2058900D1*
Y2055900D1*
Y2052900D1*
X1622824D1*
Y2049900D1*
Y2046900D1*
Y2043900D1*
Y2040900D1*
Y2037900D1*
Y2034900D1*
X2660824Y2154900D2*
Y2151900D1*
Y2148900D1*
Y2145900D1*
Y2142900D1*
Y2139900D1*
Y2136900D1*
X2651824D1*
Y2133900D1*
Y2130900D1*
Y2127900D1*
Y2124900D1*
Y2121900D1*
Y2118900D1*
Y2115900D1*
X2642824D1*
Y2112900D1*
Y2109900D1*
X2681824Y2154900D2*
Y2151900D1*
Y2148900D1*
Y2145900D1*
Y2142900D1*
Y2139900D1*
Y2136900D1*
X2693824D1*
Y2133900D1*
Y2130900D1*
Y2127900D1*
Y2124900D1*
Y2121900D1*
Y2118900D1*
Y2115900D1*
X2702824D1*
Y2112900D1*
Y2109900D1*
X1901824Y2145900D2*
Y2142900D1*
Y2139900D1*
Y2136900D1*
X1118824D2*
Y2133900D1*
Y2130900D1*
Y2127900D1*
Y2124900D1*
Y2121900D1*
Y2118900D1*
Y2115900D1*
Y2112900D1*
Y2109900D1*
Y2106900D1*
X1334824Y2139900D2*
Y2136900D1*
Y2133900D1*
X1385824Y2139900D2*
Y2136900D1*
Y2133900D1*
Y2130900D1*
Y2127900D1*
Y2124900D1*
X1355824D1*
Y2121900D1*
Y2118900D1*
Y2115900D1*
X1862824Y2136900D2*
Y2133900D1*
Y2130900D1*
X1841824D1*
Y2127900D1*
Y2124900D1*
X1832824D1*
Y2121900D1*
Y2118900D1*
Y2115900D1*
X1823824D1*
Y2112900D1*
Y2109900D1*
Y2106900D1*
Y2103900D1*
Y2100900D1*
Y2097900D1*
Y2094900D1*
Y2091900D1*
Y2088900D1*
Y2085900D1*
Y2082900D1*
Y2079900D1*
Y2076900D1*
Y2073900D1*
Y2070900D1*
Y2067900D1*
X1832824D1*
Y2064900D1*
Y2061900D1*
Y2058900D1*
Y2055900D1*
Y2052900D1*
X1841824D1*
Y2049900D1*
Y2046900D1*
X1853824D1*
Y2043900D1*
Y2040900D1*
X1880824D1*
Y2037900D1*
Y2034900D1*
X2096824Y2139900D2*
Y2136900D1*
Y2133900D1*
Y2130900D1*
Y2127900D1*
Y2124900D1*
X2087824D1*
Y2121900D1*
Y2118900D1*
Y2115900D1*
Y2112900D1*
Y2109900D1*
Y2106900D1*
Y2103900D1*
Y2100900D1*
Y2097900D1*
Y2094900D1*
Y2091900D1*
Y2088900D1*
Y2085900D1*
Y2082900D1*
Y2079900D1*
Y2076900D1*
Y2073900D1*
Y2070900D1*
Y2067900D1*
Y2064900D1*
Y2061900D1*
Y2058900D1*
Y2055900D1*
Y2052900D1*
Y2049900D1*
Y2046900D1*
Y2043900D1*
Y2040900D1*
Y2037900D1*
Y2034900D1*
X2120824Y2139900D2*
Y2136900D1*
Y2133900D1*
Y2130900D1*
X2138824D1*
Y2127900D1*
Y2124900D1*
X2147824D1*
Y2121900D1*
Y2118900D1*
Y2115900D1*
Y2112900D1*
Y2109900D1*
Y2106900D1*
Y2103900D1*
Y2100900D1*
Y2097900D1*
Y2094900D1*
Y2091900D1*
Y2088900D1*
Y2085900D1*
Y2082900D1*
Y2079900D1*
Y2076900D1*
Y2073900D1*
Y2070900D1*
Y2067900D1*
Y2064900D1*
Y2061900D1*
Y2058900D1*
Y2055900D1*
Y2052900D1*
Y2049900D1*
Y2046900D1*
Y2043900D1*
Y2040900D1*
Y2037900D1*
Y2034900D1*
X2288824Y2139900D2*
Y2136900D1*
Y2133900D1*
Y2130900D1*
X2279824D1*
Y2127900D1*
Y2124900D1*
X2318824Y2139900D2*
Y2136900D1*
Y2133900D1*
Y2130900D1*
X2330824D1*
Y2127900D1*
Y2124900D1*
X2927824Y2139900D2*
Y2136900D1*
Y2133900D1*
Y2130900D1*
Y2127900D1*
Y2124900D1*
X2918824D1*
Y2121900D1*
Y2118900D1*
Y2115900D1*
X2927824D1*
Y2112900D1*
X2948824Y2139900D2*
Y2136900D1*
Y2133900D1*
Y2130900D1*
X2960824D1*
Y2127900D1*
Y2124900D1*
Y2121900D1*
Y2118900D1*
Y2115900D1*
X2948824D1*
Y2112900D1*
X3185824Y2139900D2*
Y2136900D1*
Y2133900D1*
Y2130900D1*
X3176824D1*
Y2127900D1*
Y2124900D1*
Y2121900D1*
Y2118900D1*
Y2115900D1*
X3185824D1*
Y2112900D1*
X3206824Y2139900D2*
Y2136900D1*
Y2133900D1*
Y2130900D1*
X3215824D1*
Y2127900D1*
Y2124900D1*
Y2121900D1*
Y2118900D1*
Y2115900D1*
X3206824D1*
Y2112900D1*
X1319824Y2115900D2*
Y2112900D1*
Y2109900D1*
X1298824D1*
Y2106900D1*
Y2103900D1*
Y2100900D1*
Y2097900D1*
Y2094900D1*
X1289824D1*
Y2091900D1*
Y2088900D1*
Y2085900D1*
Y2082900D1*
Y2079900D1*
Y2076900D1*
Y2073900D1*
Y2070900D1*
Y2067900D1*
Y2064900D1*
Y2061900D1*
Y2058900D1*
Y2055900D1*
Y2052900D1*
X1298824D1*
Y2049900D1*
Y2046900D1*
X1307824D1*
Y2043900D1*
Y2040900D1*
X1328824D1*
Y2037900D1*
Y2034900D1*
X3062824Y2118900D2*
Y2115900D1*
Y2112900D1*
Y2109900D1*
X3050824D1*
Y2106900D1*
Y2103900D1*
Y2100900D1*
Y2097900D1*
Y2094900D1*
X3062824D1*
Y2091900D1*
X3074824Y2118900D2*
Y2115900D1*
Y2112900D1*
Y2109900D1*
X3083824D1*
Y2106900D1*
Y2103900D1*
Y2100900D1*
Y2097900D1*
Y2094900D1*
X3074824D1*
Y2091900D1*
X1925824Y2112900D2*
Y2109900D1*
Y2106900D1*
X1049824D2*
Y2103900D1*
Y2100900D1*
Y2097900D1*
Y2094900D1*
Y2091900D1*
Y2088900D1*
Y2085900D1*
Y2082900D1*
Y2079900D1*
Y2076900D1*
Y2073900D1*
Y2070900D1*
Y2067900D1*
Y2064900D1*
Y2061900D1*
Y2058900D1*
Y2055900D1*
Y2052900D1*
Y2049900D1*
Y2046900D1*
Y2043900D1*
Y2040900D1*
Y2037900D1*
Y2034900D1*
X1214824Y2106900D2*
Y2103900D1*
Y2100900D1*
Y2097900D1*
Y2094900D1*
Y2091900D1*
Y2088900D1*
Y2085900D1*
Y2082900D1*
Y2079900D1*
Y2076900D1*
Y2073900D1*
Y2070900D1*
Y2067900D1*
Y2064900D1*
Y2061900D1*
Y2058900D1*
Y2055900D1*
Y2052900D1*
Y2049900D1*
Y2046900D1*
Y2043900D1*
Y2040900D1*
Y2037900D1*
Y2034900D1*
X1886824Y2106900D2*
Y2103900D1*
Y2100900D1*
Y2097900D1*
Y2094900D1*
X1877824D1*
Y2091900D1*
Y2088900D1*
X1868824D1*
Y2085900D1*
Y2082900D1*
X1877824D1*
Y2079900D1*
Y2076900D1*
Y2073900D1*
X1898824D1*
Y2070900D1*
Y2067900D1*
X1361824Y2091900D2*
Y2088900D1*
Y2085900D1*
Y2082900D1*
X1343824D1*
Y2079900D1*
Y2076900D1*
Y2073900D1*
Y2070900D1*
Y2067900D1*
X1985824Y2088900D2*
Y2085900D1*
Y2082900D1*
X1967824D1*
Y2079900D1*
Y2076900D1*
Y2073900D1*
X1946824D1*
Y2070900D1*
Y2067900D1*
X2012824Y2088900D2*
Y2085900D1*
Y2082900D1*
Y2079900D1*
Y2076900D1*
Y2073900D1*
Y2070900D1*
Y2067900D1*
Y2064900D1*
Y2061900D1*
Y2058900D1*
Y2055900D1*
Y2052900D1*
Y2049900D1*
Y2046900D1*
X2003824D1*
Y2043900D1*
Y2040900D1*
X1973824D1*
Y2037900D1*
Y2034900D1*
X2330824Y2091900D2*
Y2088900D1*
Y2085900D1*
Y2082900D1*
Y2079900D1*
Y2076900D1*
Y2073900D1*
X2309824D1*
Y2070900D1*
Y2067900D1*
X1412824Y2082900D2*
Y2079900D1*
Y2076900D1*
Y2073900D1*
X1394824D1*
Y2070900D1*
Y2067900D1*
X1439824Y2082900D2*
Y2079900D1*
Y2076900D1*
Y2073900D1*
Y2070900D1*
Y2067900D1*
Y2064900D1*
Y2061900D1*
Y2058900D1*
Y2055900D1*
Y2052900D1*
Y2049900D1*
Y2046900D1*
Y2043900D1*
Y2040900D1*
X1409824D1*
Y2037900D1*
Y2034900D1*
X2225824Y2082900D2*
Y2079900D1*
Y2076900D1*
Y2073900D1*
Y2070900D1*
Y2067900D1*
Y2064900D1*
Y2061900D1*
Y2058900D1*
Y2055900D1*
Y2052900D1*
Y2049900D1*
Y2046900D1*
Y2043900D1*
Y2040900D1*
X2252824D1*
Y2037900D1*
Y2034900D1*
X2249824Y2082900D2*
Y2079900D1*
Y2076900D1*
Y2073900D1*
X2270824D1*
Y2070900D1*
Y2067900D1*
X1724824Y2076900D2*
Y2073900D1*
Y2070900D1*
Y2067900D1*
X1715824D1*
Y2064900D1*
Y2061900D1*
X1706824D1*
Y2058900D1*
Y2055900D1*
Y2052900D1*
X1697824D1*
Y2049900D1*
Y2046900D1*
X1688824D1*
Y2043900D1*
Y2040900D1*
Y2037900D1*
Y2034900D1*
X1748824Y2076900D2*
Y2073900D1*
Y2070900D1*
Y2067900D1*
Y2064900D1*
Y2061900D1*
Y2058900D1*
Y2055900D1*
Y2052900D1*
Y2049900D1*
Y2046900D1*
Y2043900D1*
Y2040900D1*
Y2037900D1*
Y2034900D1*
X2621824Y2076900D2*
Y2073900D1*
Y2070900D1*
Y2067900D1*
Y2064900D1*
Y2061900D1*
X2612824D1*
Y2058900D1*
Y2055900D1*
Y2052900D1*
Y2049900D1*
Y2046900D1*
Y2043900D1*
Y2040900D1*
X2603824D1*
Y2037900D1*
Y2034900D1*
X2720824Y2076900D2*
Y2073900D1*
Y2070900D1*
Y2067900D1*
Y2064900D1*
Y2061900D1*
X2729824D1*
Y2058900D1*
Y2055900D1*
Y2052900D1*
Y2049900D1*
Y2046900D1*
Y2043900D1*
Y2040900D1*
X2738824D1*
Y2037900D1*
Y2034900D1*
X2987824Y2070900D2*
Y2067900D1*
Y2064900D1*
X3146824Y2070900D2*
Y2067900D1*
Y2064900D1*
X2912824Y2052900D2*
Y2049900D1*
Y2046900D1*
X2903824D1*
Y2043900D1*
Y2040900D1*
Y2037900D1*
Y2034900D1*
Y2031900D1*
X2891824D1*
Y2028900D1*
Y2025900D1*
Y2022900D1*
Y2019900D1*
X2882824D1*
Y2016900D1*
Y2013900D1*
Y2010900D1*
Y2007900D1*
Y2004900D1*
X2873824D1*
Y2001900D1*
Y1998900D1*
Y1995900D1*
Y1992900D1*
Y1989900D1*
Y1986900D1*
Y1983900D1*
X2891824D1*
Y1980900D1*
X2927824Y2052900D2*
Y2049900D1*
Y2046900D1*
X2945824D1*
Y2043900D1*
Y2040900D1*
Y2037900D1*
Y2034900D1*
Y2031900D1*
X2936824D1*
Y2028900D1*
Y2025900D1*
Y2022900D1*
Y2019900D1*
X2927824D1*
Y2016900D1*
Y2013900D1*
Y2010900D1*
Y2007900D1*
Y2004900D1*
X2918824D1*
Y2001900D1*
Y1998900D1*
Y1995900D1*
Y1992900D1*
Y1989900D1*
X2909824D1*
Y1986900D1*
Y1983900D1*
Y1980900D1*
X3206824Y2052900D2*
Y2049900D1*
Y2046900D1*
X3188824D1*
Y2043900D1*
Y2040900D1*
Y2037900D1*
Y2034900D1*
Y2031900D1*
X3197824D1*
Y2028900D1*
Y2025900D1*
Y2022900D1*
Y2019900D1*
X3206824D1*
Y2016900D1*
Y2013900D1*
Y2010900D1*
Y2007900D1*
Y2004900D1*
X3215824D1*
Y2001900D1*
Y1998900D1*
Y1995900D1*
Y1992900D1*
Y1989900D1*
X3227824D1*
Y1986900D1*
Y1983900D1*
Y1980900D1*
X3224824Y2052900D2*
Y2049900D1*
Y2046900D1*
X3233824D1*
Y2043900D1*
Y2040900D1*
Y2037900D1*
Y2034900D1*
Y2031900D1*
X3242824D1*
Y2028900D1*
Y2025900D1*
Y2022900D1*
Y2019900D1*
X3251824D1*
Y2016900D1*
Y2013900D1*
Y2010900D1*
Y2007900D1*
Y2004900D1*
X3260824D1*
Y2001900D1*
Y1998900D1*
Y1995900D1*
Y1992900D1*
Y1989900D1*
Y1986900D1*
Y1983900D1*
X3242824D1*
Y1980900D1*
X3044824Y2031900D2*
Y2028900D1*
Y2025900D1*
Y2022900D1*
Y2019900D1*
Y2016900D1*
Y2013900D1*
Y2010900D1*
Y2007900D1*
Y2004900D1*
Y2001900D1*
Y1998900D1*
Y1995900D1*
Y1992900D1*
Y1989900D1*
Y1986900D1*
Y1983900D1*
Y1980900D1*
Y1977900D1*
Y1974900D1*
Y1971900D1*
Y1968900D1*
Y1965900D1*
X3089824Y2031900D2*
Y2028900D1*
Y2025900D1*
Y2022900D1*
Y2019900D1*
Y2016900D1*
Y2013900D1*
Y2010900D1*
Y2007900D1*
Y2004900D1*
Y2001900D1*
Y1998900D1*
Y1995900D1*
Y1992900D1*
Y1989900D1*
Y1986900D1*
Y1983900D1*
Y1980900D1*
Y1977900D1*
Y1974900D1*
Y1971900D1*
Y1968900D1*
Y1965900D1*
X2775084Y574982D2*
D57*
Y494598D1*
X2740596D1*
X2729100Y498489D1*
X2725297Y502292D1*
X2721495Y509897D1*
Y521393D1*
X2725297Y529086D1*
X2729100Y532889D1*
X2740596Y536692D1*
X2729100Y540583D1*
X2725297Y544385D1*
X2721495Y551990D1*
Y559684D1*
X2725297Y567289D1*
X2729100Y571180D1*
X2740596Y574982D1*
X2775084D1*
Y536692D2*
X2740596D1*
X2677691Y548188D2*
X2685296Y544385D1*
X2692989Y536692D1*
X2696792Y525195D1*
Y517590D1*
X2692989Y506094D1*
X2685296Y498489D1*
X2677691Y494598D1*
X2666195D1*
X2658501Y498489D1*
X2650896Y506094D1*
X2647005Y517590D1*
Y525195D1*
X2650896Y536692D1*
X2658501Y544385D1*
X2666195Y548188D1*
X2677691D1*
X2576406D2*
Y494598D1*
Y536692D2*
X2584011Y544385D1*
X2591705Y548188D1*
X2603113D1*
X2610806Y544385D1*
X2618411Y536692D1*
X2622302Y525195D1*
Y517590D1*
X2618411Y506094D1*
X2610806Y498489D1*
X2603113Y494598D1*
X2591705D1*
X2584011Y498489D1*
X2576406Y506094D1*
X2551704Y548188D2*
Y494598D1*
Y525195D2*
X2547813Y536692D1*
X2540208Y544385D1*
X2532514Y548188D1*
X2521018D1*
X2450419Y574982D2*
Y494598D1*
Y536692D2*
X2458024Y544385D1*
X2465718Y548188D1*
X2477214D1*
X2484819Y544385D1*
X2492513Y536692D1*
X2496315Y525195D1*
Y517590D1*
X2492513Y506094D1*
X2484819Y498489D1*
X2477214Y494598D1*
X2465718D1*
X2458024Y498489D1*
X2450419Y506094D1*
X2347955Y574982D2*
Y494598D1*
X2321160D1*
X2309664Y498489D1*
X2301971Y506094D1*
X2298168Y513788D1*
X2294366Y525195D1*
Y544385D1*
X2298168Y555881D1*
X2301971Y563486D1*
X2309664Y571180D1*
X2321160Y574982D1*
X2347955D1*
X2269663Y525195D2*
X2223767D1*
Y532889D1*
X2227570Y540583D1*
X2231372Y544385D1*
X2239066Y548188D1*
X2250562D1*
X2258167Y544385D1*
X2265860Y536692D1*
X2269663Y525195D1*
Y517590D1*
X2265860Y506094D1*
X2258167Y498489D1*
X2250562Y494598D1*
X2239066D1*
X2231372Y498489D1*
X2223767Y506094D1*
X2156971Y536692D2*
X2160774Y544385D1*
X2172270Y548188D1*
X2183766D1*
X2195262Y544385D1*
X2199064Y536692D1*
X2195262Y529086D1*
X2187568Y525195D1*
X2168467Y521393D1*
X2160774Y517590D1*
X2156971Y509897D1*
Y506094D1*
X2160774Y498489D1*
X2172270Y494598D1*
X2183766D1*
X2195262Y498489D1*
X2199064Y506094D1*
X2132268Y574982D2*
X2128466Y571180D1*
X2124575Y574982D1*
X2128466Y578873D1*
X2132268Y574982D1*
X2128466Y548188D2*
Y494598D1*
X2053976Y544385D2*
Y483102D1*
X2057779Y471695D1*
X2061581Y467804D1*
X2069275Y464001D1*
X2080771D1*
X2088376Y467804D1*
X2053976Y532889D2*
X2061581Y540494D1*
X2069275Y544385D1*
X2080771D1*
X2088376Y540494D1*
X2096069Y532889D1*
X2099872Y521393D1*
Y513699D1*
X2096069Y502292D1*
X2088376Y494598D1*
X2080771Y490796D1*
X2069275D1*
X2061581Y494598D1*
X2053976Y502292D1*
X2029273Y548188D2*
Y494598D1*
Y532889D2*
X2017777Y544385D1*
X2010084Y548188D1*
X1998676D1*
X1990983Y544385D1*
X1987180Y532889D1*
Y494598D1*
X1884716Y574982D2*
Y494598D1*
X1850227D1*
X1838731Y498489D1*
X1834929Y502292D1*
X1831126Y509897D1*
Y521393D1*
X1834929Y529086D1*
X1838731Y532889D1*
X1850227Y536692D1*
X1838731Y540583D1*
X1834929Y544385D1*
X1831126Y551990D1*
Y559684D1*
X1834929Y567289D1*
X1838731Y571180D1*
X1850227Y574982D1*
X1884716D1*
Y536692D2*
X1850227D1*
X1802533Y548188D2*
X1779629Y494598D1*
X1787234Y479300D1*
X1794927Y471606D1*
X1802533Y467804D1*
X1806424D1*
X1756637Y548188D2*
X1779629Y494598D1*
X1654172Y536692D2*
X1619773D1*
X1608277Y540583D1*
X1604386Y544385D1*
X1600583Y551990D1*
Y559684D1*
X1604386Y567289D1*
X1608277Y571180D1*
X1619773Y574982D1*
X1654172D1*
Y494598D1*
X1627378Y536692D2*
X1600583Y494598D1*
X1575880Y574982D2*
X1572078Y571180D1*
X1568187Y574982D1*
X1572078Y578873D1*
X1575880Y574982D1*
X1572078Y548188D2*
Y494598D1*
X1497500Y536692D2*
X1505193Y544385D1*
X1512887Y548188D1*
X1524294D1*
X1531988Y544385D1*
X1539593Y536692D1*
X1543484Y525195D1*
Y517590D1*
X1539593Y506094D1*
X1531988Y498489D1*
X1524294Y494598D1*
X1512887D1*
X1505193Y498489D1*
X1497500Y506094D1*
X1472797Y574982D2*
Y494598D1*
Y532889D2*
X1461301Y544385D1*
X1453607Y548188D1*
X1442111D1*
X1434506Y544385D1*
X1430704Y532889D1*
Y494598D1*
X1360105Y548188D2*
Y494598D1*
Y536692D2*
X1367710Y544385D1*
X1375404Y548188D1*
X1386811D1*
X1394505Y544385D1*
X1402110Y536692D1*
X1406001Y525195D1*
Y517590D1*
X1402110Y506094D1*
X1394505Y498489D1*
X1386811Y494598D1*
X1375404D1*
X1367710Y498489D1*
X1360105Y506094D1*
X1335402Y548188D2*
Y494598D1*
Y525195D2*
X1331511Y536692D1*
X1323906Y544385D1*
X1316213Y548188D1*
X1304717D1*
X1234118Y574982D2*
Y494598D1*
Y536692D2*
X1241723Y544385D1*
X1249417Y548188D1*
X1260913D1*
X1268518Y544385D1*
X1276211Y536692D1*
X1280014Y525195D1*
Y517590D1*
X1276211Y506094D1*
X1268518Y498489D1*
X1260913Y494598D1*
X1249417D1*
X1241723Y498489D1*
X1234118Y506094D1*
X1074262Y555881D2*
X1078064Y563486D1*
X1085758Y571180D1*
X1093363Y574982D1*
X1108661D1*
X1116355Y571180D1*
X1123960Y563486D1*
X1127851Y555881D1*
X1131654Y544385D1*
Y525195D1*
X1127851Y513788D1*
X1123960Y506094D1*
X1116355Y498489D1*
X1108661Y494598D1*
X1093363D1*
X1085758Y498489D1*
X1078064Y506094D1*
X1074262Y513788D1*
X1030458Y548188D2*
X1038063Y544385D1*
X1045756Y536692D1*
X1049559Y525195D1*
Y517590D1*
X1045756Y506094D1*
X1038063Y498489D1*
X1030458Y494598D1*
X1018962D1*
X1011268Y498489D1*
X1003663Y506094D1*
X999772Y517590D1*
Y525195D1*
X1003663Y536692D1*
X1011268Y544385D1*
X1018962Y548188D1*
X1030458D1*
X955968D2*
X963573Y544385D1*
X971267Y536692D1*
X975069Y525195D1*
Y517590D1*
X971267Y506094D1*
X963573Y498489D1*
X955968Y494598D1*
X944472D1*
X936779Y498489D1*
X929173Y506094D1*
X925283Y517590D1*
Y525195D1*
X929173Y536692D1*
X936779Y544385D1*
X944472Y548188D1*
X955968D1*
X900580D2*
Y467804D1*
Y536692D2*
X892886Y544297D1*
X885281Y548188D1*
X873785D1*
X866092Y544297D1*
X858486Y536692D1*
X854595Y525195D1*
Y517502D1*
X858486Y506094D1*
X866092Y498401D1*
X873785Y494598D1*
X885281D1*
X892886Y498401D1*
X900580Y506094D1*
X829893Y525195D2*
X783997D1*
Y532889D1*
X787799Y540583D1*
X791602Y544385D1*
X799295Y548188D1*
X810792D1*
X818397Y544385D1*
X826090Y536692D1*
X829893Y525195D1*
Y517590D1*
X826090Y506094D1*
X818397Y498489D1*
X810792Y494598D1*
X799295D1*
X791602Y498489D1*
X783997Y506094D1*
X759294Y548188D2*
Y494598D1*
Y525195D2*
X755403Y536692D1*
X747798Y544385D1*
X740104Y548188D1*
X728608D1*
X3556374Y2147264D2*
D56*
Y2095598D1*
X3582174Y2121397D2*
X3530508D1*
X3759848Y2116820D2*
D59*
X3721160D1*
M02*
