G04 DipTrace 3.2.0.1*
G04 Bottom.gbr*
%MOIN*%
G04 #@! TF.FileFunction,Copper,L2,Bot*
G04 #@! TF.Part,Single*
G04 #@! TA.AperFunction,CopperBalancing*
%ADD10C,0.009843*%
G04 #@! TA.AperFunction,Conductor*
%ADD14C,0.03937*%
%ADD15C,0.059055*%
%ADD16C,0.012992*%
G04 #@! TA.AperFunction,ComponentPad*
%ADD17R,0.098425X0.098425*%
%ADD18C,0.062992*%
%ADD19R,0.062992X0.062992*%
%ADD24O,0.137795X0.23622*%
%ADD25C,0.062992*%
%ADD27C,0.05*%
%ADD28C,0.05*%
G04 #@! TA.AperFunction,ViaPad*
%ADD29C,0.04*%
%FSLAX26Y26*%
G04*
G70*
G90*
G75*
G01*
G04 Bottom*
%LPD*%
X3587950Y843873D2*
D14*
X3670631Y926554D1*
Y1432643D1*
X4079220Y1841232D1*
X2858029Y843597D2*
D15*
X3227561D1*
X3320359Y936395D1*
X784906Y1162965D2*
Y1262965D1*
X3862935Y1162955D2*
Y1262955D1*
X1106481Y1882113D2*
D16*
X1185027Y1960659D1*
X1894954D1*
X2061727Y1793886D1*
X1884204Y1614647D2*
X1914750Y1645193D1*
X3093204D1*
X2061727Y1193886D2*
Y1219528D1*
X1966607Y1314647D1*
X1884204D1*
X3273862Y1721243D2*
X3522378D1*
X3556072Y1687549D1*
Y1960908D1*
X2061727Y893886D2*
X1927513Y1028100D1*
X1252468D1*
X1106481Y882113D1*
X1706481Y782113D2*
X1811324D1*
X1857305Y736131D1*
X2603972D1*
X2661727Y793886D1*
X1706481Y882113D2*
X1835556D1*
X1877798Y839871D1*
X2607712D1*
X2661727Y893886D1*
X784906Y962965D2*
D15*
Y1062965D1*
X4079220Y1541232D2*
D16*
X4130993Y1593005D1*
Y2063965D1*
X3991592Y2203366D1*
X2371207D1*
X2061727Y1893886D1*
X784906Y762965D2*
X1004362Y543509D1*
X3643489D1*
X3862935Y762955D1*
X3948594Y848614D1*
Y1511236D1*
X4079220Y1641862D1*
X1106481Y1782113D2*
X838450Y1514081D1*
Y916508D1*
X784906Y862965D1*
D29*
X3320359Y936395D3*
X3093204Y1645193D3*
X478773Y2272769D2*
D10*
X4173901D1*
X461568Y2263058D2*
X4189587D1*
X451014Y2253346D2*
X4201275D1*
X442344Y2243635D2*
X4208023D1*
X436519Y2233924D2*
X4214751D1*
X430771Y2224213D2*
X2355380D1*
X4007412D2*
X4218231D1*
X428272Y2214501D2*
X2345172D1*
X4017639D2*
X4221537D1*
X425773Y2204790D2*
X2335464D1*
X4027347D2*
X4223286D1*
X424197Y2195079D2*
X2325737D1*
X4037055D2*
X4223786D1*
X424543Y2185367D2*
X2316029D1*
X4046763D2*
X4224267D1*
X424889Y2175656D2*
X2306321D1*
X2380667D2*
X3982125D1*
X4056471D2*
X4224421D1*
X425216Y2165945D2*
X2296613D1*
X2370959D2*
X3991833D1*
X4066179D2*
X4224421D1*
X425216Y2156234D2*
X2286905D1*
X2361251D2*
X4001541D1*
X4075906D2*
X4224401D1*
X425216Y2146522D2*
X2277197D1*
X2351543D2*
X4011269D1*
X4085614D2*
X4224401D1*
X425216Y2136811D2*
X2267470D1*
X2341835D2*
X4020977D1*
X4095322D2*
X4224401D1*
X425216Y2127100D2*
X2257762D1*
X2332108D2*
X4030684D1*
X4105030D2*
X4224401D1*
X425216Y2117388D2*
X2248054D1*
X2322400D2*
X4040392D1*
X4114738D2*
X4224382D1*
X425216Y2107677D2*
X2238346D1*
X2312692D2*
X4050100D1*
X4124446D2*
X4224382D1*
X425216Y2097966D2*
X2228638D1*
X2302984D2*
X4059808D1*
X4134173D2*
X4224382D1*
X425216Y2088255D2*
X2218911D1*
X2293276D2*
X3529543D1*
X3582608D2*
X4069535D1*
X4143881D2*
X4224363D1*
X425216Y2078543D2*
X2209203D1*
X2283568D2*
X3509531D1*
X3602619D2*
X4079243D1*
X4153012D2*
X4224363D1*
X425216Y2068832D2*
X2199495D1*
X2273841D2*
X3497554D1*
X3614596D2*
X4088951D1*
X4157107D2*
X4224363D1*
X425216Y2059121D2*
X2189787D1*
X2264133D2*
X3489077D1*
X3623054D2*
X4098659D1*
X4157568D2*
X4224344D1*
X425216Y2049409D2*
X2180079D1*
X2254425D2*
X3482887D1*
X3629263D2*
X4104426D1*
X4157568D2*
X4224344D1*
X425216Y2039698D2*
X2170371D1*
X2244717D2*
X3478388D1*
X3633762D2*
X4104426D1*
X4157568D2*
X4224344D1*
X425216Y2029987D2*
X2160644D1*
X2235009D2*
X3475313D1*
X3636818D2*
X4104426D1*
X4157568D2*
X4224344D1*
X425216Y2020276D2*
X2150936D1*
X2225282D2*
X3473506D1*
X3638625D2*
X4104426D1*
X4157568D2*
X4224324D1*
X425216Y2010564D2*
X2141228D1*
X2215574D2*
X3472890D1*
X3639260D2*
X4104426D1*
X4157568D2*
X4224324D1*
X425216Y2000853D2*
X2131520D1*
X2205866D2*
X3472890D1*
X3639260D2*
X4104426D1*
X4157568D2*
X4224324D1*
X425216Y1991142D2*
X2121812D1*
X2196158D2*
X3472890D1*
X3639260D2*
X4104426D1*
X4157568D2*
X4224305D1*
X425216Y1981430D2*
X1169087D1*
X1910879D2*
X2112104D1*
X2186450D2*
X3472890D1*
X3639260D2*
X4104426D1*
X4157568D2*
X4224305D1*
X425216Y1971719D2*
X1158918D1*
X1921067D2*
X2102377D1*
X2176742D2*
X3472890D1*
X3639260D2*
X4104426D1*
X4157568D2*
X4224305D1*
X425216Y1962008D2*
X1149210D1*
X1930775D2*
X2092669D1*
X2167015D2*
X3472890D1*
X3639260D2*
X4104426D1*
X4157568D2*
X4224286D1*
X425216Y1952297D2*
X1139483D1*
X1940483D2*
X2082961D1*
X2157307D2*
X3472890D1*
X3639260D2*
X4104426D1*
X4157568D2*
X4224286D1*
X425216Y1942585D2*
X1129775D1*
X1950210D2*
X2047032D1*
X2147599D2*
X3472890D1*
X3639260D2*
X4104426D1*
X4157568D2*
X4224286D1*
X425216Y1932874D2*
X1120067D1*
X1194412D2*
X1885573D1*
X1959918D2*
X2028501D1*
X2137891D2*
X2635180D1*
X2688265D2*
X3472890D1*
X3639260D2*
X4104426D1*
X4157568D2*
X4224286D1*
X425216Y1923163D2*
X1075929D1*
X1184705D2*
X1683397D1*
X1729561D2*
X1895281D1*
X1969626D2*
X2019485D1*
X2128183D2*
X2624454D1*
X2699011D2*
X3472890D1*
X3639260D2*
X4104426D1*
X4157568D2*
X4224267D1*
X425216Y1913451D2*
X1065779D1*
X1174997D2*
X1670979D1*
X1741999D2*
X1904989D1*
X1979334D2*
X2014083D1*
X2118475D2*
X2618417D1*
X2705047D2*
X3472890D1*
X3639260D2*
X4104426D1*
X4157568D2*
X4224267D1*
X425216Y1903740D2*
X1059762D1*
X1165289D2*
X1664174D1*
X1748785D2*
X1914697D1*
X1989042D2*
X2011122D1*
X2112324D2*
X2615149D1*
X2708296D2*
X3473275D1*
X3638875D2*
X4104426D1*
X4157568D2*
X4224267D1*
X425216Y1894029D2*
X1056321D1*
X1156638D2*
X1660406D1*
X1752553D2*
X1924404D1*
X1998750D2*
X2010161D1*
X2113304D2*
X2614092D1*
X2709372D2*
X3474813D1*
X3637337D2*
X4104426D1*
X4157568D2*
X4224248D1*
X425216Y1884318D2*
X1054956D1*
X1158003D2*
X1658906D1*
X1754071D2*
X1934112D1*
X2112381D2*
X2615073D1*
X2708373D2*
X3477581D1*
X3634569D2*
X4051715D1*
X4157568D2*
X4224248D1*
X425216Y1874606D2*
X1055475D1*
X1157503D2*
X1659445D1*
X1753514D2*
X1943840D1*
X2109478D2*
X2618244D1*
X2705220D2*
X3481733D1*
X3630417D2*
X4040219D1*
X4157568D2*
X4224248D1*
X425216Y1864895D2*
X1057936D1*
X1155042D2*
X1662117D1*
X1750842D2*
X1953548D1*
X2104173D2*
X2624165D1*
X2699299D2*
X3487500D1*
X3624631D2*
X4033530D1*
X4157568D2*
X4224228D1*
X425216Y1855184D2*
X1062665D1*
X1150294D2*
X1667365D1*
X1745594D2*
X1963256D1*
X2095291D2*
X2634623D1*
X2688822D2*
X3495382D1*
X3616749D2*
X4029608D1*
X4157568D2*
X4224228D1*
X425216Y1845472D2*
X1070604D1*
X1142355D2*
X1676573D1*
X1736405D2*
X1972963D1*
X2077394D2*
X3506378D1*
X3605753D2*
X4027628D1*
X4157568D2*
X4224228D1*
X425216Y1835761D2*
X1085234D1*
X1127745D2*
X1699872D1*
X1713106D2*
X1982671D1*
X2091101D2*
X3523602D1*
X3588548D2*
X4017920D1*
X4157568D2*
X4224228D1*
X425216Y1826050D2*
X1080428D1*
X1132551D2*
X1992379D1*
X2101770D2*
X3535290D1*
X3576860D2*
X4008212D1*
X4157568D2*
X4224209D1*
X425216Y1816339D2*
X1068240D1*
X1144719D2*
X2002107D1*
X2108037D2*
X3535290D1*
X3576860D2*
X3998504D1*
X4157568D2*
X4224209D1*
X425216Y1806627D2*
X1061242D1*
X1151717D2*
X2011776D1*
X2111670D2*
X3535290D1*
X3576860D2*
X3988796D1*
X4157568D2*
X4224209D1*
X425216Y1796916D2*
X1057129D1*
X1155850D2*
X2010238D1*
X2113208D2*
X3535290D1*
X3576860D2*
X3979069D1*
X4157568D2*
X4224190D1*
X425216Y1787205D2*
X1055168D1*
X1157791D2*
X2010603D1*
X2112862D2*
X3535290D1*
X3576860D2*
X3969361D1*
X4081020D2*
X4104426D1*
X4157568D2*
X4224190D1*
X425216Y1777493D2*
X1055110D1*
X1157849D2*
X2012872D1*
X2110574D2*
X3535290D1*
X3576860D2*
X3959653D1*
X4071312D2*
X4104426D1*
X4157568D2*
X4224190D1*
X425216Y1767782D2*
X1054975D1*
X1155984D2*
X2017409D1*
X2106037D2*
X3535290D1*
X3576860D2*
X3949945D1*
X4061604D2*
X4104426D1*
X4157568D2*
X4224171D1*
X425216Y1758071D2*
X1045268D1*
X1151986D2*
X2025021D1*
X2098444D2*
X3228077D1*
X3319647D2*
X3535290D1*
X3576860D2*
X3940237D1*
X4051877D2*
X4104426D1*
X4157568D2*
X4224171D1*
X425216Y1748360D2*
X1035560D1*
X1145142D2*
X2038689D1*
X2084776D2*
X3228077D1*
X3319647D2*
X3535290D1*
X3576860D2*
X3930529D1*
X4042169D2*
X4104426D1*
X4157568D2*
X4224171D1*
X425216Y1738648D2*
X1025832D1*
X1133358D2*
X2647599D1*
X2675865D2*
X3228077D1*
X3576860D2*
X3920802D1*
X4032461D2*
X4104426D1*
X4157568D2*
X4224171D1*
X425216Y1728937D2*
X1016124D1*
X1090489D2*
X2629952D1*
X2693494D2*
X3228077D1*
X3576860D2*
X3911094D1*
X4022753D2*
X4104426D1*
X4157568D2*
X4224151D1*
X425216Y1719226D2*
X1006416D1*
X1080762D2*
X1677227D1*
X1735732D2*
X2621570D1*
X2701875D2*
X3228077D1*
X3576860D2*
X3901386D1*
X4013045D2*
X4104426D1*
X4157568D2*
X4224151D1*
X425216Y1709514D2*
X996709D1*
X1071054D2*
X1667730D1*
X1745228D2*
X2616783D1*
X2706662D2*
X3228077D1*
X3576860D2*
X3891678D1*
X4003337D2*
X4104426D1*
X4157568D2*
X4224151D1*
X425216Y1699803D2*
X987001D1*
X1061346D2*
X1662328D1*
X1750630D2*
X2614457D1*
X2708988D2*
X3228077D1*
X3319647D2*
X3514836D1*
X3576860D2*
X3881970D1*
X3993610D2*
X4104426D1*
X4157568D2*
X4224132D1*
X425216Y1690092D2*
X977293D1*
X1051638D2*
X1659522D1*
X1753437D2*
X2614246D1*
X2709219D2*
X3228077D1*
X3319647D2*
X3524544D1*
X3576860D2*
X3872262D1*
X3983902D2*
X4062961D1*
X4095476D2*
X4104426D1*
X4157568D2*
X4224132D1*
X425216Y1680381D2*
X967565D1*
X1041930D2*
X1658868D1*
X1754090D2*
X2616091D1*
X2707373D2*
X3228077D1*
X3319647D2*
X3534252D1*
X3575514D2*
X3862535D1*
X3974194D2*
X4045429D1*
X4157568D2*
X4224132D1*
X425216Y1670669D2*
X957858D1*
X1032203D2*
X1660271D1*
X1752687D2*
X2620282D1*
X2703182D2*
X3070770D1*
X3115645D2*
X3544729D1*
X3567421D2*
X3852827D1*
X3964486D2*
X4036644D1*
X4157568D2*
X4224113D1*
X425216Y1660958D2*
X948150D1*
X1022495D2*
X1663924D1*
X1749054D2*
X1901778D1*
X3123527D2*
X3843119D1*
X3954778D2*
X4031396D1*
X4157568D2*
X4224113D1*
X425216Y1651247D2*
X938442D1*
X1012787D2*
X1670517D1*
X1742441D2*
X1871905D1*
X3126949D2*
X3833411D1*
X3945070D2*
X4028531D1*
X4157568D2*
X4224113D1*
X425216Y1641535D2*
X928734D1*
X1003079D2*
X1682475D1*
X1730484D2*
X1855930D1*
X3127295D2*
X3823703D1*
X3935343D2*
X4027647D1*
X4157568D2*
X4224113D1*
X425216Y1631824D2*
X919026D1*
X993371D2*
X1696104D1*
X1716854D2*
X1848971D1*
X3124700D2*
X3813976D1*
X3925635D2*
X4028647D1*
X4157568D2*
X4224094D1*
X425216Y1622113D2*
X909299D1*
X983663D2*
X1674516D1*
X1738442D2*
X1845645D1*
X1922759D2*
X2618763D1*
X2704701D2*
X3068213D1*
X3118202D2*
X3804268D1*
X3915927D2*
X4022303D1*
X4157568D2*
X4224094D1*
X425216Y1612402D2*
X899591D1*
X973936D2*
X1664981D1*
X1747997D2*
X1844972D1*
X1923432D2*
X2613669D1*
X2709795D2*
X3086379D1*
X3100036D2*
X3794560D1*
X3906219D2*
X4012576D1*
X4157568D2*
X4224094D1*
X425216Y1602690D2*
X889883D1*
X964228D2*
X1659272D1*
X1753687D2*
X1846818D1*
X1921586D2*
X2610920D1*
X2712525D2*
X3784852D1*
X3896511D2*
X4002868D1*
X4157568D2*
X4224075D1*
X425216Y1592979D2*
X880175D1*
X954520D2*
X1656080D1*
X1756878D2*
X1851624D1*
X1916780D2*
X2610151D1*
X2713294D2*
X3775144D1*
X3886803D2*
X3993160D1*
X4157568D2*
X4224075D1*
X425216Y1583268D2*
X870467D1*
X944812D2*
X1654927D1*
X1758051D2*
X1861255D1*
X1907169D2*
X2611285D1*
X2712179D2*
X3765436D1*
X3877076D2*
X3983452D1*
X4155646D2*
X4224075D1*
X425216Y1573556D2*
X860759D1*
X935104D2*
X1655638D1*
X1757320D2*
X2614419D1*
X2709046D2*
X3755709D1*
X3867368D2*
X3973744D1*
X4148725D2*
X4224055D1*
X425216Y1563845D2*
X851032D1*
X925396D2*
X1658310D1*
X1754648D2*
X2620032D1*
X2703413D2*
X3746001D1*
X3857660D2*
X3964036D1*
X4139018D2*
X4224055D1*
X425216Y1554134D2*
X841324D1*
X915669D2*
X1663347D1*
X1749611D2*
X2629452D1*
X2693993D2*
X3736293D1*
X3847952D2*
X3954309D1*
X4129290D2*
X4224055D1*
X425216Y1544423D2*
X831616D1*
X905961D2*
X1671748D1*
X1741211D2*
X2650117D1*
X2673328D2*
X3726585D1*
X3838244D2*
X3944601D1*
X4018946D2*
X4027743D1*
X4130694D2*
X4224055D1*
X425216Y1534711D2*
X821908D1*
X896253D2*
X1687819D1*
X1725140D2*
X3716877D1*
X3828517D2*
X3934893D1*
X4009239D2*
X4028070D1*
X4130367D2*
X4224036D1*
X425216Y1525000D2*
X814314D1*
X886545D2*
X3707169D1*
X3818809D2*
X3926031D1*
X3999531D2*
X4030319D1*
X4128118D2*
X4224036D1*
X425216Y1515289D2*
X811911D1*
X876837D2*
X3697442D1*
X3809101D2*
X3922340D1*
X3989823D2*
X4034798D1*
X4123639D2*
X4224036D1*
X425216Y1505577D2*
X811873D1*
X867129D2*
X3687734D1*
X3799393D2*
X3922013D1*
X3980115D2*
X4042353D1*
X4116103D2*
X4224017D1*
X425216Y1495866D2*
X811873D1*
X865034D2*
X3678026D1*
X3789685D2*
X3922013D1*
X3975174D2*
X4055848D1*
X4102589D2*
X4224017D1*
X425216Y1486155D2*
X811873D1*
X865034D2*
X3668318D1*
X3779977D2*
X3922013D1*
X3975174D2*
X4224017D1*
X425216Y1476444D2*
X811873D1*
X865034D2*
X3658610D1*
X3770250D2*
X3922013D1*
X3975174D2*
X4223998D1*
X425216Y1466732D2*
X811873D1*
X865034D2*
X3648902D1*
X3760542D2*
X3922013D1*
X3975174D2*
X4223998D1*
X425216Y1457021D2*
X811873D1*
X865034D2*
X3639483D1*
X3750834D2*
X3922013D1*
X3975174D2*
X4223998D1*
X425216Y1447310D2*
X811873D1*
X865034D2*
X3633754D1*
X3741126D2*
X3922013D1*
X3975174D2*
X4223998D1*
X425216Y1437598D2*
X811873D1*
X865034D2*
X3631178D1*
X3731418D2*
X3922013D1*
X3975174D2*
X4223978D1*
X425216Y1427887D2*
X811873D1*
X865034D2*
X3630871D1*
X3721710D2*
X3922013D1*
X3975174D2*
X4223978D1*
X425216Y1418176D2*
X811873D1*
X865034D2*
X3630871D1*
X3711983D2*
X3922013D1*
X3975174D2*
X4223978D1*
X425216Y1408465D2*
X811873D1*
X865034D2*
X3630871D1*
X3710387D2*
X3922013D1*
X3975174D2*
X4223959D1*
X425216Y1398753D2*
X811873D1*
X865034D2*
X3630871D1*
X3710387D2*
X3922013D1*
X3975174D2*
X4223959D1*
X425216Y1389042D2*
X811873D1*
X865034D2*
X3630871D1*
X3710387D2*
X3922013D1*
X3975174D2*
X4223959D1*
X425216Y1379331D2*
X811873D1*
X865034D2*
X3630871D1*
X3710387D2*
X3922013D1*
X3975174D2*
X4223940D1*
X425216Y1369619D2*
X811873D1*
X865034D2*
X3630871D1*
X3710387D2*
X3922013D1*
X3975174D2*
X4223940D1*
X425216Y1359908D2*
X811873D1*
X865034D2*
X3630871D1*
X3710387D2*
X3922013D1*
X3975174D2*
X4223940D1*
X425216Y1350197D2*
X811873D1*
X865034D2*
X1868944D1*
X1899460D2*
X3630871D1*
X3710387D2*
X3922013D1*
X3975174D2*
X4223940D1*
X425216Y1340486D2*
X811873D1*
X865034D2*
X1854930D1*
X1913474D2*
X3630871D1*
X3710387D2*
X3922013D1*
X3975174D2*
X4223921D1*
X425216Y1330774D2*
X811873D1*
X865034D2*
X1848471D1*
X1979084D2*
X3630871D1*
X3710387D2*
X3922013D1*
X3975174D2*
X4223921D1*
X425216Y1321063D2*
X811873D1*
X865034D2*
X1845453D1*
X1989177D2*
X2794526D1*
X2921525D2*
X3630871D1*
X3710387D2*
X3922013D1*
X3975174D2*
X4223921D1*
X425216Y1311352D2*
X769158D1*
X800654D2*
X811873D1*
X865034D2*
X1845049D1*
X1998885D2*
X2794526D1*
X2921525D2*
X3630871D1*
X3710387D2*
X3847214D1*
X3878652D2*
X3922013D1*
X3975174D2*
X4223902D1*
X425216Y1301640D2*
X751318D1*
X865034D2*
X1847183D1*
X2008612D2*
X2794526D1*
X2921525D2*
X3630871D1*
X3710387D2*
X3829355D1*
X3896530D2*
X3922013D1*
X3975174D2*
X4223902D1*
X425216Y1291929D2*
X742437D1*
X865034D2*
X1852373D1*
X1916031D2*
X1960334D1*
X2018320D2*
X2794526D1*
X2921525D2*
X3630871D1*
X3710387D2*
X3820474D1*
X3905392D2*
X3922013D1*
X3975174D2*
X4223902D1*
X425216Y1282218D2*
X737131D1*
X865034D2*
X1862831D1*
X1905573D2*
X1970041D1*
X2028028D2*
X2794526D1*
X2921525D2*
X3630871D1*
X3710387D2*
X3815168D1*
X3910698D2*
X3922013D1*
X3975174D2*
X4223902D1*
X425216Y1272507D2*
X734248D1*
X865034D2*
X1979749D1*
X2037736D2*
X2794526D1*
X2921525D2*
X3630871D1*
X3710387D2*
X3812265D1*
X3913601D2*
X3922013D1*
X3975174D2*
X4223882D1*
X425216Y1262795D2*
X733325D1*
X865034D2*
X1989477D1*
X2047444D2*
X2794526D1*
X2921525D2*
X3630871D1*
X3710387D2*
X3811362D1*
X3914504D2*
X3922013D1*
X3975174D2*
X4223882D1*
X425216Y1253084D2*
X734305D1*
X865034D2*
X1999185D1*
X2057152D2*
X2794526D1*
X2921525D2*
X3630871D1*
X3710387D2*
X3812342D1*
X3913543D2*
X3922013D1*
X3975174D2*
X4223882D1*
X425216Y1243373D2*
X735305D1*
X865034D2*
X2008893D1*
X2066879D2*
X2794526D1*
X2921525D2*
X3630871D1*
X3710387D2*
X3813322D1*
X3912543D2*
X3922013D1*
X3975174D2*
X4223863D1*
X425216Y1233661D2*
X735305D1*
X865034D2*
X2018600D1*
X2083334D2*
X2794526D1*
X2921525D2*
X3630871D1*
X3710387D2*
X3813322D1*
X3912543D2*
X3922013D1*
X3975174D2*
X4223863D1*
X425216Y1223950D2*
X735305D1*
X865034D2*
X1084849D1*
X1128110D2*
X2027520D1*
X2095926D2*
X2794526D1*
X2921525D2*
X3630871D1*
X3710387D2*
X3813322D1*
X3912543D2*
X3922013D1*
X3975174D2*
X4223863D1*
X425216Y1214239D2*
X735305D1*
X865034D2*
X1071662D1*
X1141297D2*
X2020830D1*
X2102616D2*
X2794526D1*
X2921525D2*
X3630871D1*
X3710387D2*
X3813322D1*
X3912543D2*
X3922013D1*
X3975174D2*
X4223844D1*
X425216Y1204528D2*
X735305D1*
X865034D2*
X1064587D1*
X1148391D2*
X2017216D1*
X2106230D2*
X2794526D1*
X2921525D2*
X3630871D1*
X3710387D2*
X3813322D1*
X3912543D2*
X3922013D1*
X3975174D2*
X4223844D1*
X425216Y1194816D2*
X735305D1*
X865034D2*
X1060608D1*
X1152351D2*
X2015948D1*
X2107498D2*
X2794526D1*
X2921525D2*
X3630871D1*
X3710387D2*
X3813322D1*
X3912543D2*
X3922013D1*
X3975174D2*
X4223844D1*
X425216Y1185105D2*
X735305D1*
X865034D2*
X1058936D1*
X1154024D2*
X2016813D1*
X2106653D2*
X2794526D1*
X2921525D2*
X3630871D1*
X3710387D2*
X3813322D1*
X3912543D2*
X3922013D1*
X3975174D2*
X4223844D1*
X425216Y1175394D2*
X734882D1*
X865034D2*
X1059339D1*
X1153639D2*
X2019927D1*
X2103519D2*
X2794526D1*
X2921525D2*
X3630871D1*
X3710387D2*
X3812919D1*
X3912966D2*
X3922013D1*
X3975174D2*
X4223825D1*
X425216Y1165682D2*
X733402D1*
X865034D2*
X1061838D1*
X1151121D2*
X2025925D1*
X2097521D2*
X2794526D1*
X2921525D2*
X3630871D1*
X3710387D2*
X3811438D1*
X3914427D2*
X3922013D1*
X3975174D2*
X4223825D1*
X425216Y1155971D2*
X733825D1*
X865034D2*
X1066856D1*
X1146103D2*
X2036863D1*
X2086583D2*
X2794526D1*
X2921525D2*
X3630871D1*
X3710387D2*
X3811842D1*
X3914024D2*
X3922013D1*
X3975174D2*
X4223825D1*
X425216Y1146260D2*
X736170D1*
X865034D2*
X1075641D1*
X1137318D2*
X2794526D1*
X2921525D2*
X3630871D1*
X3710387D2*
X3814187D1*
X3911678D2*
X3922013D1*
X3975174D2*
X4223805D1*
X425216Y1136549D2*
X740784D1*
X865034D2*
X1095480D1*
X1117479D2*
X2041861D1*
X2081585D2*
X2641870D1*
X2681594D2*
X2794526D1*
X2921525D2*
X3630871D1*
X3710387D2*
X3818801D1*
X3907065D2*
X3922013D1*
X3975174D2*
X4223805D1*
X425216Y1126837D2*
X748512D1*
X865034D2*
X1092212D1*
X1120747D2*
X1692221D1*
X1720737D2*
X2027712D1*
X2095734D2*
X2627722D1*
X2695743D2*
X2794526D1*
X2921525D2*
X3630871D1*
X3710387D2*
X3826529D1*
X3899337D2*
X3922013D1*
X3975174D2*
X4223805D1*
X425216Y1117126D2*
X762507D1*
X865034D2*
X1074661D1*
X1138299D2*
X1674670D1*
X1738289D2*
X2020292D1*
X2103173D2*
X2620282D1*
X2703163D2*
X2794526D1*
X2921525D2*
X3630871D1*
X3710387D2*
X3840524D1*
X3885342D2*
X3922013D1*
X3975174D2*
X4223786D1*
X425216Y1107415D2*
X759758D1*
X865034D2*
X1066298D1*
X1146661D2*
X1666307D1*
X1746670D2*
X2016101D1*
X2107364D2*
X2616091D1*
X2707354D2*
X2794526D1*
X2921525D2*
X3630871D1*
X3710387D2*
X3837813D1*
X3888053D2*
X3922013D1*
X3975174D2*
X4223786D1*
X425216Y1097703D2*
X747147D1*
X865034D2*
X1061531D1*
X1151428D2*
X1661521D1*
X1751438D2*
X2014237D1*
X2109209D2*
X2614246D1*
X2709199D2*
X3630871D1*
X3710387D2*
X3825183D1*
X3900682D2*
X3922013D1*
X3975174D2*
X4223786D1*
X425216Y1087992D2*
X739957D1*
X865034D2*
X1059224D1*
X1153754D2*
X1659214D1*
X1753744D2*
X2014467D1*
X2108998D2*
X2614457D1*
X2708988D2*
X3630871D1*
X3710387D2*
X3817994D1*
X3907872D2*
X3922013D1*
X3975174D2*
X4223786D1*
X425216Y1078281D2*
X735709D1*
X865034D2*
X1058993D1*
X1153966D2*
X1659002D1*
X1753956D2*
X2016774D1*
X2106672D2*
X2616783D1*
X2706681D2*
X3630871D1*
X3710387D2*
X3813745D1*
X3912140D2*
X3922013D1*
X3975174D2*
X4223767D1*
X425216Y1068570D2*
X733652D1*
X865034D2*
X1060858D1*
X1152101D2*
X1660848D1*
X1752110D2*
X2021561D1*
X2101904D2*
X2621551D1*
X2701894D2*
X3630871D1*
X3710387D2*
X3811669D1*
X3914197D2*
X3922013D1*
X3975174D2*
X4223767D1*
X425216Y1058858D2*
X733498D1*
X865034D2*
X1065049D1*
X1147910D2*
X1665058D1*
X1747920D2*
X2029923D1*
X2093523D2*
X2629932D1*
X2693532D2*
X3630871D1*
X3710387D2*
X3811535D1*
X3914350D2*
X3922013D1*
X3975174D2*
X4223767D1*
X425216Y1049147D2*
X735247D1*
X865034D2*
X1072488D1*
X1140471D2*
X1672478D1*
X1740480D2*
X2047513D1*
X2075933D2*
X2647522D1*
X2675942D2*
X3630871D1*
X3710387D2*
X3813284D1*
X3912582D2*
X3922013D1*
X3975174D2*
X4223748D1*
X425216Y1039436D2*
X735305D1*
X865034D2*
X1086656D1*
X1126322D2*
X1234813D1*
X1945174D2*
X3630871D1*
X3710387D2*
X3817167D1*
X3908718D2*
X3922013D1*
X3975174D2*
X4223748D1*
X425216Y1029724D2*
X735305D1*
X865034D2*
X1225105D1*
X1954882D2*
X2633854D1*
X2689591D2*
X3630871D1*
X3710387D2*
X3823799D1*
X3902067D2*
X3922013D1*
X3975174D2*
X4223748D1*
X425216Y1020013D2*
X735305D1*
X865034D2*
X1215397D1*
X1964590D2*
X2624338D1*
X2699107D2*
X3630871D1*
X3710387D2*
X3835199D1*
X3890667D2*
X3922013D1*
X3975174D2*
X4223729D1*
X425216Y1010302D2*
X735305D1*
X865034D2*
X1205689D1*
X1974298D2*
X2619052D1*
X2704393D2*
X3630871D1*
X3710387D2*
X3844119D1*
X3881747D2*
X3922013D1*
X3975174D2*
X4223729D1*
X425216Y1000591D2*
X735305D1*
X865034D2*
X1195962D1*
X1253948D2*
X1664673D1*
X1748285D2*
X1926038D1*
X1984006D2*
X2616437D1*
X2707008D2*
X3630871D1*
X3710387D2*
X3828144D1*
X3897722D2*
X3922013D1*
X3975174D2*
X4223729D1*
X425216Y990879D2*
X735305D1*
X865034D2*
X1186254D1*
X1244240D2*
X1661559D1*
X1751399D2*
X1935746D1*
X1993733D2*
X2616034D1*
X2707412D2*
X3630871D1*
X3710387D2*
X3819762D1*
X3906104D2*
X3922013D1*
X3975174D2*
X4223729D1*
X425216Y981168D2*
X735305D1*
X865034D2*
X1176546D1*
X1234532D2*
X1660713D1*
X1752264D2*
X1945454D1*
X2003441D2*
X2617783D1*
X2705662D2*
X3300416D1*
X3340312D2*
X3630871D1*
X3710387D2*
X3814745D1*
X3911121D2*
X3922013D1*
X3975174D2*
X4223709D1*
X425216Y971457D2*
X734056D1*
X865034D2*
X1166838D1*
X1224824D2*
X1661982D1*
X1750976D2*
X1955162D1*
X2013149D2*
X2621955D1*
X2701491D2*
X3285690D1*
X3355038D2*
X3630871D1*
X3710387D2*
X3812073D1*
X3913793D2*
X3922013D1*
X3975174D2*
X4223709D1*
X425216Y961745D2*
X733344D1*
X865034D2*
X1157130D1*
X1215097D2*
X1665596D1*
X1747362D2*
X1964870D1*
X2022857D2*
X2629529D1*
X2693916D2*
X3275963D1*
X3362843D2*
X3630871D1*
X3710387D2*
X3811381D1*
X3914504D2*
X3922013D1*
X3975174D2*
X4223709D1*
X425216Y952034D2*
X734536D1*
X865034D2*
X1147403D1*
X1205389D2*
X1672286D1*
X1740672D2*
X1974597D1*
X2032565D2*
X2644754D1*
X2678711D2*
X3266255D1*
X3367379D2*
X3630871D1*
X3710387D2*
X3812553D1*
X3913312D2*
X3922013D1*
X3975174D2*
X4223690D1*
X425216Y942323D2*
X737727D1*
X865034D2*
X1137695D1*
X1195681D2*
X1684897D1*
X1728062D2*
X1984305D1*
X2042272D2*
X3256547D1*
X3369609D2*
X3630582D1*
X3710387D2*
X3815764D1*
X3910102D2*
X3922013D1*
X3975174D2*
X4223690D1*
X425216Y932612D2*
X743456D1*
X865034D2*
X1127987D1*
X1185973D2*
X1994013D1*
X2085237D2*
X2638218D1*
X2685247D2*
X3246820D1*
X3369821D2*
X3620855D1*
X3710387D2*
X3821473D1*
X3904393D2*
X3922013D1*
X3975174D2*
X4223690D1*
X425216Y922900D2*
X753029D1*
X865034D2*
X1086964D1*
X1176265D2*
X1686954D1*
X1726005D2*
X2003721D1*
X2096848D2*
X2626607D1*
X2696858D2*
X3237112D1*
X3368052D2*
X3611147D1*
X3710214D2*
X3831047D1*
X3894819D2*
X3922013D1*
X3975174D2*
X4223671D1*
X425216Y913189D2*
X774887D1*
X864803D2*
X1073219D1*
X1166538D2*
X1673228D1*
X1739730D2*
X2013429D1*
X2103135D2*
X2620301D1*
X2703144D2*
X3227404D1*
X3364073D2*
X3601439D1*
X3708023D2*
X3852865D1*
X3873020D2*
X3922013D1*
X3975174D2*
X4223671D1*
X425216Y903478D2*
X753625D1*
X861458D2*
X1066125D1*
X1156830D2*
X1666115D1*
X1746843D2*
X2016986D1*
X2106480D2*
X2616976D1*
X2706470D2*
X2788739D1*
X2927311D2*
X3217696D1*
X3357133D2*
X3518662D1*
X3702775D2*
X3831662D1*
X3894204D2*
X3922013D1*
X3975174D2*
X4223671D1*
X425216Y893766D2*
X743783D1*
X852885D2*
X1062242D1*
X1150717D2*
X1662232D1*
X1852900D2*
X2015948D1*
X2107518D2*
X2615938D1*
X2707508D2*
X2788739D1*
X2927311D2*
X3207988D1*
X3347483D2*
X3518662D1*
X3693663D2*
X3821819D1*
X3904047D2*
X3922013D1*
X3975174D2*
X4223671D1*
X425216Y884055D2*
X737939D1*
X843177D2*
X1060743D1*
X1152236D2*
X1660733D1*
X1862608D2*
X2017024D1*
X2106422D2*
X2617033D1*
X2706431D2*
X2788739D1*
X3337775D2*
X3518662D1*
X3683955D2*
X3815975D1*
X3909891D2*
X3922013D1*
X3975174D2*
X4223652D1*
X425216Y874344D2*
X734632D1*
X835180D2*
X1061377D1*
X1151582D2*
X1661367D1*
X1872316D2*
X2020427D1*
X2103019D2*
X2613189D1*
X2703029D2*
X2788739D1*
X3328048D2*
X3518662D1*
X3674247D2*
X3812650D1*
X3913216D2*
X3922013D1*
X3975174D2*
X4223652D1*
X425216Y864633D2*
X733363D1*
X836448D2*
X1064241D1*
X1148718D2*
X1664251D1*
X1882024D2*
X2026809D1*
X2096637D2*
X2603481D1*
X2696646D2*
X2788739D1*
X3318340D2*
X3518662D1*
X3664539D2*
X3811381D1*
X3914485D2*
X3922013D1*
X3975174D2*
X4223652D1*
X425216Y854921D2*
X733979D1*
X835833D2*
X1069893D1*
X1143066D2*
X1669883D1*
X1743075D2*
X1833765D1*
X2684824D2*
X2788739D1*
X3308632D2*
X3518662D1*
X3657234D2*
X3811996D1*
X3913870D2*
X3917740D1*
X3975174D2*
X4223632D1*
X425216Y845210D2*
X736555D1*
X833257D2*
X1080082D1*
X1132877D2*
X1680091D1*
X1732867D2*
X1843473D1*
X2642032D2*
X2788739D1*
X3298924D2*
X3518662D1*
X3657234D2*
X3814572D1*
X3974944D2*
X4223632D1*
X425216Y835499D2*
X741437D1*
X828375D2*
X1853181D1*
X2632324D2*
X2644139D1*
X2679307D2*
X2788739D1*
X3289216D2*
X3518662D1*
X3657234D2*
X3819455D1*
X3971560D2*
X4223632D1*
X425216Y825787D2*
X749607D1*
X820204D2*
X1095499D1*
X1117460D2*
X1695508D1*
X1717450D2*
X1862889D1*
X2622616D2*
X2629279D1*
X2694166D2*
X2788739D1*
X3279489D2*
X3518662D1*
X3657234D2*
X3827625D1*
X3962948D2*
X4223613D1*
X425216Y816076D2*
X764929D1*
X804883D2*
X1076275D1*
X1136684D2*
X1676285D1*
X1736693D2*
X2021830D1*
X2101635D2*
X2621820D1*
X2701625D2*
X2788739D1*
X3269781D2*
X3518662D1*
X3657234D2*
X3842927D1*
X3953240D2*
X4223613D1*
X425216Y806365D2*
X757931D1*
X811881D2*
X1067817D1*
X1145142D2*
X1667826D1*
X1745132D2*
X2017716D1*
X2105749D2*
X2617706D1*
X2705739D2*
X2788739D1*
X3259823D2*
X3518662D1*
X3657234D2*
X3835968D1*
X3943513D2*
X4223613D1*
X425216Y796654D2*
X746186D1*
X823626D2*
X1063126D1*
X1149852D2*
X1663116D1*
X1825756D2*
X2016024D1*
X2107422D2*
X2616034D1*
X2707431D2*
X2788739D1*
X3241214D2*
X3518662D1*
X3657234D2*
X3824222D1*
X3933805D2*
X4223613D1*
X425216Y786942D2*
X739380D1*
X830431D2*
X1060954D1*
X1152005D2*
X1660963D1*
X1835483D2*
X2016486D1*
X2106979D2*
X2616476D1*
X2706969D2*
X2788739D1*
X2927311D2*
X3518662D1*
X3657234D2*
X3817417D1*
X3924097D2*
X4223594D1*
X425216Y777231D2*
X735382D1*
X834430D2*
X1060954D1*
X1152005D2*
X1660963D1*
X1845191D2*
X2019158D1*
X2104307D2*
X2616072D1*
X2704297D2*
X2788739D1*
X2927311D2*
X3518662D1*
X3657234D2*
X3813419D1*
X3914389D2*
X4223594D1*
X425216Y767520D2*
X733536D1*
X836275D2*
X1063146D1*
X1149833D2*
X1663136D1*
X1854899D2*
X2024521D1*
X2098944D2*
X2606364D1*
X2698934D2*
X2788739D1*
X2927311D2*
X3518662D1*
X3657234D2*
X3811573D1*
X3914312D2*
X4223594D1*
X425216Y757808D2*
X733594D1*
X836218D2*
X1067855D1*
X1145104D2*
X1667865D1*
X1745113D2*
X1806640D1*
X1864627D2*
X2034172D1*
X2089274D2*
X2596656D1*
X2689284D2*
X2788739D1*
X2927311D2*
X3518662D1*
X3657234D2*
X3811631D1*
X3914254D2*
X4223575D1*
X425216Y748097D2*
X735574D1*
X836948D2*
X1076333D1*
X1136626D2*
X1676342D1*
X1736616D2*
X1816348D1*
X2644935D2*
X2788739D1*
X2927311D2*
X3518662D1*
X3657234D2*
X3810900D1*
X3912274D2*
X4223575D1*
X425216Y738386D2*
X739707D1*
X846656D2*
X1095730D1*
X1117229D2*
X1695739D1*
X1717219D2*
X1826056D1*
X2635207D2*
X2788739D1*
X2927311D2*
X3518662D1*
X3657234D2*
X3801192D1*
X3908141D2*
X4223575D1*
X425216Y728675D2*
X746724D1*
X856364D2*
X1835764D1*
X2625499D2*
X2788739D1*
X2927311D2*
X3518662D1*
X3657234D2*
X3791484D1*
X3901125D2*
X4223556D1*
X425216Y718963D2*
X758950D1*
X866091D2*
X1846452D1*
X2614830D2*
X2788739D1*
X2927311D2*
X3518662D1*
X3657234D2*
X3781776D1*
X3888898D2*
X4223556D1*
X425216Y709252D2*
X801454D1*
X875799D2*
X2788739D1*
X2927311D2*
X3518662D1*
X3657234D2*
X3772049D1*
X3846414D2*
X4223556D1*
X425216Y699541D2*
X811162D1*
X885507D2*
X2788739D1*
X2927311D2*
X3518662D1*
X3657234D2*
X3762341D1*
X3836687D2*
X4223556D1*
X425216Y689829D2*
X820870D1*
X895215D2*
X2788739D1*
X2927311D2*
X3518662D1*
X3657234D2*
X3752633D1*
X3826979D2*
X4223536D1*
X425216Y680118D2*
X830578D1*
X904923D2*
X2788739D1*
X2927311D2*
X3518662D1*
X3657234D2*
X3742925D1*
X3817271D2*
X4223536D1*
X425216Y670407D2*
X840286D1*
X914631D2*
X3733217D1*
X3807563D2*
X4223536D1*
X425216Y660696D2*
X849993D1*
X924358D2*
X3723509D1*
X3797855D2*
X4223517D1*
X425216Y650984D2*
X859721D1*
X934066D2*
X3713782D1*
X3788147D2*
X4223517D1*
X425216Y641273D2*
X869429D1*
X943774D2*
X3704074D1*
X3778420D2*
X4223517D1*
X425216Y631562D2*
X879137D1*
X953482D2*
X3694366D1*
X3768712D2*
X4223498D1*
X425216Y621850D2*
X888845D1*
X963190D2*
X3684658D1*
X3759004D2*
X4223498D1*
X425216Y612139D2*
X898552D1*
X972898D2*
X3674950D1*
X3749296D2*
X4223498D1*
X425216Y602428D2*
X908260D1*
X982625D2*
X3665242D1*
X3739588D2*
X4223498D1*
X425216Y592717D2*
X479400D1*
X549766D2*
X917988D1*
X992333D2*
X3655515D1*
X3729880D2*
X4100447D1*
X4172813D2*
X4223479D1*
X425216Y583005D2*
X459080D1*
X570085D2*
X927696D1*
X1002041D2*
X3645807D1*
X3720153D2*
X4080570D1*
X4192709D2*
X4223479D1*
X425216Y573294D2*
X445893D1*
X583292D2*
X937404D1*
X1011749D2*
X3636099D1*
X3710445D2*
X4067517D1*
X4205743D2*
X4223479D1*
X425216Y563583D2*
X436069D1*
X593115D2*
X947111D1*
X3700737D2*
X4057809D1*
X4215470D2*
X4223459D1*
X425216Y553871D2*
X428485D1*
X600709D2*
X956819D1*
X3691029D2*
X4050273D1*
X606649Y544160D2*
X966527D1*
X3681321D2*
X4044372D1*
X611262Y534449D2*
X976255D1*
X3671613D2*
X4039816D1*
X614703Y524738D2*
X985982D1*
X3661867D2*
X4036413D1*
X617106Y515026D2*
X4034049D1*
X618548Y505315D2*
X4032645D1*
X619048Y495604D2*
X4032184D1*
X618644Y485892D2*
X4032607D1*
X617318Y476181D2*
X4033972D1*
X615030Y466470D2*
X4036298D1*
X611705Y456759D2*
X4039662D1*
X607245Y447047D2*
X4044179D1*
X601458Y437336D2*
X4050004D1*
X594057Y427625D2*
X4057463D1*
X2800430Y1328085D2*
X2920548D1*
Y1104936D1*
X2795509D1*
Y1328085D1*
X2800430D1*
X2926336Y775286D2*
Y677062D1*
X2789721D1*
X2789722Y911904D1*
X2926336D1*
Y892238D1*
X3207419Y892219D1*
X3285978Y970776D1*
X3288782Y973368D1*
X3291780Y975731D1*
X3294954Y977852D1*
X3298285Y979718D1*
X3301752Y981316D1*
X3305334Y982637D1*
X3309009Y983674D1*
X3312753Y984419D1*
X3316544Y984867D1*
X3320359Y985017D1*
X3324174Y984867D1*
X3327965Y984419D1*
X3331710Y983674D1*
X3335384Y982637D1*
X3338966Y981316D1*
X3342433Y979718D1*
X3345764Y977852D1*
X3348939Y975731D1*
X3351937Y973368D1*
X3354740Y970776D1*
X3357332Y967973D1*
X3359695Y964974D1*
X3361816Y961800D1*
X3363682Y958469D1*
X3365280Y955002D1*
X3366602Y951420D1*
X3367638Y947746D1*
X3368383Y944001D1*
X3368831Y940210D1*
X3368981Y936395D1*
X3368831Y932580D1*
X3368383Y928789D1*
X3367638Y925044D1*
X3366602Y921370D1*
X3365280Y917788D1*
X3363682Y914321D1*
X3361816Y910990D1*
X3359695Y907816D1*
X3357332Y904817D1*
X3351260Y898534D1*
X3261942Y809216D1*
X3259139Y806625D1*
X3256141Y804261D1*
X3252966Y802140D1*
X3249635Y800274D1*
X3246168Y798676D1*
X3242586Y797355D1*
X3238912Y796318D1*
X3235168Y795574D1*
X3231376Y795125D1*
X3222640Y794975D1*
X2926346D1*
X2926316Y775290D1*
X3656257Y775555D2*
Y677062D1*
X3519643D1*
Y912180D1*
X3601401D1*
X3631852Y942617D1*
X3631971Y1435686D1*
X3632923Y1441696D1*
X3634803Y1447483D1*
X3637566Y1452905D1*
X3641143Y1457828D1*
X3650169Y1467024D1*
X4028835Y1845690D1*
X4029252Y1849146D1*
X4030027Y1853042D1*
X4031106Y1856866D1*
X4032481Y1860592D1*
X4034144Y1864200D1*
X4036085Y1867666D1*
X4038292Y1870969D1*
X4040751Y1874088D1*
X4043447Y1877005D1*
X4046364Y1879702D1*
X4049484Y1882161D1*
X4052787Y1884368D1*
X4056252Y1886309D1*
X4059860Y1887972D1*
X4063587Y1889347D1*
X4067410Y1890425D1*
X4071306Y1891200D1*
X4075251Y1891667D1*
X4079220Y1891823D1*
X4083189Y1891667D1*
X4087134Y1891200D1*
X4091030Y1890425D1*
X4094853Y1889347D1*
X4098580Y1887972D1*
X4102188Y1886309D1*
X4105396Y1884512D1*
X4105402Y2053355D1*
X3981003Y2177764D1*
X2381821Y2177776D1*
X2110683Y1906651D1*
X2111694Y1901800D1*
X2112161Y1897855D1*
X2112317Y1893886D1*
X2112161Y1889917D1*
X2111694Y1885972D1*
X2110919Y1882076D1*
X2109841Y1878252D1*
X2108466Y1874526D1*
X2106803Y1870918D1*
X2104862Y1867452D1*
X2102655Y1864149D1*
X2100196Y1861030D1*
X2097500Y1858113D1*
X2094583Y1855416D1*
X2091463Y1852957D1*
X2088160Y1850750D1*
X2084694Y1848809D1*
X2081087Y1847146D1*
X2077360Y1845771D1*
X2073537Y1844693D1*
X2069641Y1843854D1*
X2073537Y1843079D1*
X2077360Y1842000D1*
X2081087Y1840625D1*
X2084694Y1838962D1*
X2088160Y1837021D1*
X2091463Y1834814D1*
X2094583Y1832355D1*
X2097500Y1829659D1*
X2100196Y1826742D1*
X2102655Y1823622D1*
X2104862Y1820319D1*
X2106803Y1816853D1*
X2108466Y1813246D1*
X2109841Y1809519D1*
X2110919Y1805696D1*
X2111694Y1801800D1*
X2112161Y1797855D1*
X2112317Y1793886D1*
X2112161Y1789917D1*
X2111694Y1785972D1*
X2110919Y1782076D1*
X2109841Y1778252D1*
X2108466Y1774526D1*
X2106803Y1770918D1*
X2104862Y1767452D1*
X2102655Y1764149D1*
X2100196Y1761030D1*
X2097500Y1758113D1*
X2094583Y1755416D1*
X2091463Y1752957D1*
X2088160Y1750750D1*
X2084694Y1748809D1*
X2081087Y1747146D1*
X2077360Y1745771D1*
X2073537Y1744693D1*
X2069641Y1743918D1*
X2065696Y1743451D1*
X2061727Y1743295D1*
X2057757Y1743451D1*
X2053813Y1743918D1*
X2049917Y1744693D1*
X2046093Y1745771D1*
X2042367Y1747146D1*
X2038759Y1748809D1*
X2035293Y1750750D1*
X2031990Y1752957D1*
X2028871Y1755416D1*
X2025954Y1758113D1*
X2023257Y1761030D1*
X2020798Y1764149D1*
X2018591Y1767452D1*
X2016650Y1770918D1*
X2014987Y1774526D1*
X2013612Y1778252D1*
X2012534Y1782076D1*
X2011759Y1785972D1*
X2011292Y1789917D1*
X2011136Y1793886D1*
X2011292Y1797855D1*
X2011759Y1801800D1*
X2012799Y1806637D1*
X1884360Y1935062D1*
X1195616Y1935068D1*
X1155424Y1894865D1*
X1156449Y1890027D1*
X1156916Y1886082D1*
X1157072Y1882113D1*
X1156916Y1878144D1*
X1156449Y1874199D1*
X1155674Y1870303D1*
X1154596Y1866480D1*
X1153221Y1862753D1*
X1151558Y1859145D1*
X1149617Y1855679D1*
X1147410Y1852376D1*
X1144951Y1849257D1*
X1142254Y1846340D1*
X1139337Y1843644D1*
X1136218Y1841184D1*
X1132915Y1838977D1*
X1129449Y1837036D1*
X1125841Y1835373D1*
X1122115Y1833998D1*
X1118291Y1832920D1*
X1114395Y1832081D1*
X1118291Y1831306D1*
X1122115Y1830227D1*
X1125841Y1828852D1*
X1129449Y1827189D1*
X1132915Y1825248D1*
X1136218Y1823041D1*
X1139337Y1820582D1*
X1142254Y1817886D1*
X1144951Y1814969D1*
X1147410Y1811849D1*
X1149617Y1808546D1*
X1151558Y1805080D1*
X1153221Y1801473D1*
X1154596Y1797746D1*
X1155674Y1793923D1*
X1156449Y1790027D1*
X1156916Y1786082D1*
X1157072Y1782113D1*
X1156916Y1778144D1*
X1156449Y1774199D1*
X1155674Y1770303D1*
X1154596Y1766480D1*
X1153221Y1762753D1*
X1151558Y1759145D1*
X1149617Y1755679D1*
X1147410Y1752376D1*
X1144951Y1749257D1*
X1142254Y1746340D1*
X1139337Y1743644D1*
X1136218Y1741184D1*
X1132915Y1738977D1*
X1129449Y1737036D1*
X1125841Y1735373D1*
X1122115Y1733998D1*
X1118291Y1732920D1*
X1114395Y1732145D1*
X1110451Y1731678D1*
X1106481Y1731522D1*
X1102512Y1731678D1*
X1098567Y1732145D1*
X1093730Y1733185D1*
X864036Y1503477D1*
X863962Y914500D1*
X863333Y910534D1*
X862092Y906715D1*
X860269Y903137D1*
X857909Y899888D1*
X846106Y887973D1*
X833858Y875726D1*
X834874Y870879D1*
X835341Y866934D1*
X835497Y862965D1*
X835341Y858995D1*
X834874Y855050D1*
X834099Y851154D1*
X833021Y847331D1*
X831646Y843604D1*
X829983Y839997D1*
X828042Y836531D1*
X825835Y833228D1*
X823376Y830109D1*
X820679Y827192D1*
X817762Y824495D1*
X814643Y822036D1*
X811340Y819829D1*
X807874Y817888D1*
X804267Y816225D1*
X800540Y814850D1*
X796717Y813772D1*
X792821Y812932D1*
X796717Y812157D1*
X800540Y811079D1*
X804267Y809704D1*
X807874Y808041D1*
X811340Y806100D1*
X814643Y803893D1*
X817762Y801434D1*
X820679Y798737D1*
X823376Y795821D1*
X825835Y792701D1*
X828042Y789398D1*
X829983Y785932D1*
X831646Y782325D1*
X833021Y778598D1*
X834099Y774775D1*
X834874Y770879D1*
X835341Y766934D1*
X835497Y762965D1*
X835341Y758995D1*
X834874Y755050D1*
X833834Y750214D1*
X1014960Y569101D1*
X3632872Y569100D1*
X3813972Y750183D1*
X3812968Y755041D1*
X3812501Y758986D1*
X3812345Y762955D1*
X3812501Y766925D1*
X3812968Y770869D1*
X3813743Y774766D1*
X3814821Y778589D1*
X3816196Y782316D1*
X3817859Y785923D1*
X3819800Y789389D1*
X3822007Y792692D1*
X3824466Y795811D1*
X3827162Y798728D1*
X3830079Y801425D1*
X3833199Y803884D1*
X3836502Y806091D1*
X3839968Y808032D1*
X3843575Y809695D1*
X3847302Y811070D1*
X3851125Y812148D1*
X3855021Y812988D1*
X3851125Y813763D1*
X3847302Y814841D1*
X3843575Y816216D1*
X3839968Y817879D1*
X3836502Y819820D1*
X3833199Y822027D1*
X3830079Y824486D1*
X3827162Y827182D1*
X3824466Y830099D1*
X3822007Y833219D1*
X3819800Y836522D1*
X3817859Y839988D1*
X3816196Y843595D1*
X3814821Y847322D1*
X3813743Y851145D1*
X3812968Y855041D1*
X3812501Y858986D1*
X3812345Y862955D1*
X3812501Y866925D1*
X3812968Y870869D1*
X3813743Y874766D1*
X3814821Y878589D1*
X3816196Y882316D1*
X3817859Y885923D1*
X3819800Y889389D1*
X3822007Y892692D1*
X3824466Y895811D1*
X3827162Y898728D1*
X3830079Y901425D1*
X3833199Y903884D1*
X3836502Y906091D1*
X3839968Y908032D1*
X3843575Y909695D1*
X3847302Y911070D1*
X3851125Y912148D1*
X3855021Y912988D1*
X3851125Y913763D1*
X3847302Y914841D1*
X3843575Y916216D1*
X3839968Y917879D1*
X3836502Y919820D1*
X3833199Y922027D1*
X3830079Y924486D1*
X3827162Y927182D1*
X3824466Y930099D1*
X3822007Y933219D1*
X3819800Y936522D1*
X3817859Y939988D1*
X3816196Y943595D1*
X3814821Y947322D1*
X3813743Y951145D1*
X3812968Y955041D1*
X3812501Y958986D1*
X3812345Y962955D1*
X3812501Y966925D1*
X3812968Y970869D1*
X3813743Y974766D1*
X3814821Y978589D1*
X3816196Y982316D1*
X3817859Y985923D1*
X3819800Y989389D1*
X3822007Y992692D1*
X3824466Y995811D1*
X3827162Y998728D1*
X3830079Y1001425D1*
X3833199Y1003884D1*
X3836502Y1006091D1*
X3839968Y1008032D1*
X3843575Y1009695D1*
X3847302Y1011070D1*
X3851125Y1012148D1*
X3855021Y1012988D1*
X3851125Y1013763D1*
X3847302Y1014841D1*
X3843575Y1016216D1*
X3839968Y1017879D1*
X3836502Y1019820D1*
X3833199Y1022027D1*
X3830079Y1024486D1*
X3827162Y1027182D1*
X3824466Y1030099D1*
X3822007Y1033219D1*
X3819800Y1036522D1*
X3817859Y1039988D1*
X3816196Y1043595D1*
X3814821Y1047322D1*
X3813743Y1051145D1*
X3812968Y1055041D1*
X3812501Y1058986D1*
X3812345Y1062955D1*
X3812501Y1066925D1*
X3812968Y1070869D1*
X3813743Y1074766D1*
X3814821Y1078589D1*
X3816196Y1082316D1*
X3817859Y1085923D1*
X3819800Y1089389D1*
X3822007Y1092692D1*
X3824466Y1095811D1*
X3827162Y1098728D1*
X3830079Y1101425D1*
X3833199Y1103884D1*
X3836502Y1106091D1*
X3839968Y1108032D1*
X3843575Y1109695D1*
X3847302Y1111070D1*
X3851125Y1112148D1*
X3855021Y1112988D1*
X3851125Y1113763D1*
X3847302Y1114841D1*
X3843575Y1116216D1*
X3839968Y1117879D1*
X3836502Y1119820D1*
X3833199Y1122027D1*
X3830079Y1124486D1*
X3827162Y1127182D1*
X3824466Y1130099D1*
X3822007Y1133219D1*
X3819800Y1136522D1*
X3817859Y1139988D1*
X3816196Y1143595D1*
X3814821Y1147322D1*
X3813743Y1151145D1*
X3812968Y1155041D1*
X3812501Y1158986D1*
X3812345Y1162955D1*
X3812501Y1166925D1*
X3812968Y1170869D1*
X3814311Y1176782D1*
X3814313Y1248981D1*
X3812968Y1255041D1*
X3812501Y1258986D1*
X3812345Y1262955D1*
X3812501Y1266925D1*
X3812968Y1270869D1*
X3813743Y1274766D1*
X3814821Y1278589D1*
X3816196Y1282316D1*
X3817859Y1285923D1*
X3819800Y1289389D1*
X3822007Y1292692D1*
X3824466Y1295811D1*
X3827162Y1298728D1*
X3830079Y1301425D1*
X3833199Y1303884D1*
X3836502Y1306091D1*
X3839968Y1308032D1*
X3843575Y1309695D1*
X3847302Y1311070D1*
X3851125Y1312148D1*
X3855021Y1312923D1*
X3858966Y1313390D1*
X3862935Y1313546D1*
X3866905Y1313390D1*
X3870849Y1312923D1*
X3874745Y1312148D1*
X3878569Y1311070D1*
X3882296Y1309695D1*
X3885903Y1308032D1*
X3889369Y1306091D1*
X3892672Y1303884D1*
X3895791Y1301425D1*
X3898708Y1298728D1*
X3901405Y1295811D1*
X3903864Y1292692D1*
X3906071Y1289389D1*
X3908012Y1285923D1*
X3909675Y1282316D1*
X3911050Y1278589D1*
X3912128Y1274766D1*
X3912903Y1270869D1*
X3913370Y1266925D1*
X3913526Y1262955D1*
X3913370Y1258986D1*
X3912903Y1255041D1*
X3911559Y1249129D1*
X3911558Y1176929D1*
X3912903Y1170869D1*
X3913370Y1166925D1*
X3913526Y1162955D1*
X3913370Y1158986D1*
X3912903Y1155041D1*
X3912128Y1151145D1*
X3911050Y1147322D1*
X3909675Y1143595D1*
X3908012Y1139988D1*
X3906071Y1136522D1*
X3903864Y1133219D1*
X3901405Y1130099D1*
X3898708Y1127182D1*
X3895791Y1124486D1*
X3892672Y1122027D1*
X3889369Y1119820D1*
X3885903Y1117879D1*
X3882296Y1116216D1*
X3878569Y1114841D1*
X3874745Y1113763D1*
X3870849Y1112923D1*
X3874745Y1112148D1*
X3878569Y1111070D1*
X3882296Y1109695D1*
X3885903Y1108032D1*
X3889369Y1106091D1*
X3892672Y1103884D1*
X3895791Y1101425D1*
X3898708Y1098728D1*
X3901405Y1095811D1*
X3903864Y1092692D1*
X3906071Y1089389D1*
X3908012Y1085923D1*
X3909675Y1082316D1*
X3911050Y1078589D1*
X3912128Y1074766D1*
X3912903Y1070869D1*
X3913370Y1066925D1*
X3913526Y1062955D1*
X3913370Y1058986D1*
X3912903Y1055041D1*
X3912128Y1051145D1*
X3911050Y1047322D1*
X3909675Y1043595D1*
X3908012Y1039988D1*
X3906071Y1036522D1*
X3903864Y1033219D1*
X3901405Y1030099D1*
X3898708Y1027182D1*
X3895791Y1024486D1*
X3892672Y1022027D1*
X3889369Y1019820D1*
X3885903Y1017879D1*
X3882296Y1016216D1*
X3878569Y1014841D1*
X3874745Y1013763D1*
X3870849Y1012923D1*
X3874745Y1012148D1*
X3878569Y1011070D1*
X3882296Y1009695D1*
X3885903Y1008032D1*
X3889369Y1006091D1*
X3892672Y1003884D1*
X3895791Y1001425D1*
X3898708Y998728D1*
X3901405Y995811D1*
X3903864Y992692D1*
X3906071Y989389D1*
X3908012Y985923D1*
X3909675Y982316D1*
X3911050Y978589D1*
X3912128Y974766D1*
X3912903Y970869D1*
X3913370Y966925D1*
X3913526Y962955D1*
X3913370Y958986D1*
X3912903Y955041D1*
X3912128Y951145D1*
X3911050Y947322D1*
X3909675Y943595D1*
X3908012Y939988D1*
X3906071Y936522D1*
X3903864Y933219D1*
X3901405Y930099D1*
X3898708Y927182D1*
X3895791Y924486D1*
X3892672Y922027D1*
X3889369Y919820D1*
X3885903Y917879D1*
X3882296Y916216D1*
X3878569Y914841D1*
X3874745Y913763D1*
X3870849Y912923D1*
X3874745Y912148D1*
X3878569Y911070D1*
X3882296Y909695D1*
X3885903Y908032D1*
X3889369Y906091D1*
X3892672Y903884D1*
X3895791Y901425D1*
X3898708Y898728D1*
X3901405Y895811D1*
X3903864Y892692D1*
X3906071Y889389D1*
X3908012Y885923D1*
X3909675Y882316D1*
X3911050Y878589D1*
X3912128Y874766D1*
X3912903Y870869D1*
X3913370Y866925D1*
X3913526Y862955D1*
X3913370Y858986D1*
X3912903Y855041D1*
X3912128Y851145D1*
X3911012Y847220D1*
X3923014Y859225D1*
X3923004Y1511236D1*
X3923319Y1515239D1*
X3924256Y1519144D1*
X3925793Y1522854D1*
X3927891Y1526278D1*
X3930499Y1529332D1*
X4030259Y1629092D1*
X4029252Y1633948D1*
X4028786Y1637893D1*
X4028630Y1641862D1*
X4028786Y1645831D1*
X4029252Y1649776D1*
X4030027Y1653672D1*
X4031106Y1657496D1*
X4032481Y1661222D1*
X4034144Y1664830D1*
X4036085Y1668296D1*
X4038292Y1671599D1*
X4040751Y1674718D1*
X4043447Y1677635D1*
X4046364Y1680332D1*
X4049484Y1682791D1*
X4052787Y1684998D1*
X4056252Y1686939D1*
X4059860Y1688602D1*
X4063587Y1689977D1*
X4067410Y1691055D1*
X4071306Y1691830D1*
X4075251Y1692297D1*
X4079220Y1692453D1*
X4083189Y1692297D1*
X4087134Y1691830D1*
X4091030Y1691055D1*
X4094853Y1689977D1*
X4098580Y1688602D1*
X4102188Y1686939D1*
X4105396Y1685142D1*
X4105402Y1797949D1*
X4102188Y1796156D1*
X4098580Y1794493D1*
X4094853Y1793118D1*
X4091030Y1792040D1*
X4087134Y1791265D1*
X4083698Y1790858D1*
X3709408Y1416577D1*
X3709410Y926554D1*
X3708933Y920487D1*
X3707512Y914570D1*
X3705184Y908948D1*
X3702004Y903760D1*
X3698043Y899124D1*
X3656253Y857333D1*
X3656238Y775566D1*
X3233980Y1766046D2*
X3318665D1*
Y1741036D1*
X3523931Y1740985D1*
X3527001Y1740499D1*
X3529956Y1739539D1*
X3532725Y1738128D1*
X3535243Y1736297D1*
X3536269Y1736761D1*
Y1831899D1*
X3528277Y1834332D1*
X3523698Y1836134D1*
X3519235Y1838206D1*
X3514905Y1840542D1*
X3510721Y1843132D1*
X3506700Y1845968D1*
X3502856Y1849040D1*
X3499203Y1852336D1*
X3495753Y1855845D1*
X3492520Y1859554D1*
X3489514Y1863450D1*
X3486747Y1867518D1*
X3484228Y1871745D1*
X3481966Y1876115D1*
X3479970Y1880613D1*
X3478247Y1885221D1*
X3476802Y1889925D1*
X3475642Y1894707D1*
X3474769Y1899549D1*
X3474188Y1904436D1*
X3473904Y1911712D1*
X3473867Y2009986D1*
X3474208Y2017605D1*
X3474803Y2022489D1*
X3475688Y2027329D1*
X3476862Y2032108D1*
X3478319Y2036808D1*
X3480055Y2041412D1*
X3482064Y2045904D1*
X3484337Y2050268D1*
X3486868Y2054487D1*
X3489646Y2058548D1*
X3492663Y2062436D1*
X3495906Y2066136D1*
X3499365Y2069635D1*
X3503028Y2072922D1*
X3506880Y2075983D1*
X3510909Y2078808D1*
X3515099Y2081387D1*
X3519437Y2083711D1*
X3523905Y2085771D1*
X3528489Y2087560D1*
X3533171Y2089071D1*
X3537936Y2090300D1*
X3542766Y2091241D1*
X3547643Y2091892D1*
X3552551Y2092250D1*
X3557471Y2092314D1*
X3562386Y2092083D1*
X3567278Y2091558D1*
X3572131Y2090742D1*
X3576925Y2089636D1*
X3581645Y2088246D1*
X3586274Y2086576D1*
X3590794Y2084632D1*
X3595190Y2082421D1*
X3599446Y2079951D1*
X3603546Y2077231D1*
X3607476Y2074271D1*
X3611222Y2071080D1*
X3614771Y2067671D1*
X3618109Y2064056D1*
X3621225Y2060248D1*
X3624107Y2056260D1*
X3626746Y2052107D1*
X3629131Y2047803D1*
X3631255Y2043365D1*
X3633109Y2038807D1*
X3634687Y2034146D1*
X3635984Y2029400D1*
X3636994Y2024584D1*
X3637715Y2019717D1*
X3638142Y2014815D1*
X3638277Y2000278D1*
X3638257Y1911695D1*
X3638129Y1906777D1*
X3637688Y1901877D1*
X3636954Y1897011D1*
X3635931Y1892198D1*
X3634621Y1887455D1*
X3633030Y1882799D1*
X3631163Y1878246D1*
X3629028Y1873813D1*
X3626630Y1869516D1*
X3623980Y1865370D1*
X3621087Y1861390D1*
X3617961Y1857591D1*
X3614613Y1853985D1*
X3611055Y1850585D1*
X3607301Y1847405D1*
X3603362Y1844455D1*
X3599255Y1841746D1*
X3594992Y1839288D1*
X3590590Y1837089D1*
X3586065Y1835158D1*
X3581432Y1833500D1*
X3575865Y1831931D1*
X3575814Y1685995D1*
X3575328Y1682926D1*
X3574368Y1679970D1*
X3572957Y1677201D1*
X3571130Y1674687D1*
X3568933Y1672490D1*
X3566419Y1670664D1*
X3563650Y1669253D1*
X3560695Y1668293D1*
X3557626Y1667806D1*
X3554518D1*
X3551449Y1668293D1*
X3548493Y1669253D1*
X3545725Y1670664D1*
X3543211Y1672490D1*
X3524670Y1690945D1*
X3514162Y1701452D1*
X3318664Y1701440D1*
X3318665Y1676440D1*
X3229059D1*
Y1766046D1*
X3233980D1*
X617950Y490134D2*
X617015Y480340D1*
X615155Y470679D1*
X612385Y461238D1*
X608731Y452103D1*
X604227Y443356D1*
X598911Y435076D1*
X592834Y427339D1*
X588073Y422240D1*
X4063448Y422244D1*
X4058576Y427480D1*
X4052477Y435201D1*
X4047139Y443466D1*
X4042611Y452201D1*
X4038932Y461326D1*
X4036137Y470759D1*
X4034250Y480416D1*
X4033289Y490207D1*
X4033262Y500046D1*
X4034170Y509843D1*
X4036004Y519509D1*
X4038748Y528958D1*
X4042377Y538103D1*
X4046858Y546862D1*
X4052151Y555156D1*
X4058207Y562910D1*
X4064972Y570054D1*
X4072386Y576522D1*
X4080380Y582258D1*
X4088883Y587208D1*
X4097817Y591329D1*
X4107103Y594582D1*
X4116655Y596938D1*
X4126388Y598377D1*
X4136214Y598885D1*
X4146043Y598457D1*
X4155788Y597098D1*
X4165359Y594820D1*
X4174671Y591642D1*
X4183639Y587595D1*
X4192181Y582714D1*
X4200222Y577044D1*
X4207688Y570636D1*
X4214512Y563548D1*
X4220631Y555844D1*
X4224448Y550097D1*
X4225410Y2182395D1*
X4223997Y2210207D1*
X4216064Y2233462D1*
X4202051Y2253660D1*
X4183035Y2269239D1*
X4160474Y2279002D1*
X4133993Y2282478D1*
X516190Y2282480D1*
X487844Y2277689D1*
X463578Y2265809D1*
X443693Y2247532D1*
X429816Y2224362D1*
X423088Y2198206D1*
X424231Y2166490D1*
X424236Y545492D1*
X427358Y550718D1*
X433039Y558751D1*
X439458Y566208D1*
X446555Y573022D1*
X454267Y579131D1*
X462525Y584480D1*
X471254Y589020D1*
X480374Y592711D1*
X489804Y595519D1*
X499457Y597419D1*
X509248Y598394D1*
X519086Y598434D1*
X528884Y597539D1*
X538553Y595718D1*
X548005Y592987D1*
X557155Y589371D1*
X565921Y584902D1*
X574222Y579621D1*
X581984Y573575D1*
X589137Y566819D1*
X595616Y559414D1*
X601362Y551428D1*
X606324Y542932D1*
X610456Y534003D1*
X613722Y524722D1*
X616092Y515173D1*
X617544Y505442D1*
X618065Y495617D1*
X617950Y490134D1*
X4129655Y1537263D2*
X4129188Y1533318D1*
X4128413Y1529422D1*
X4127335Y1525599D1*
X4125960Y1521872D1*
X4124297Y1518265D1*
X4122356Y1514799D1*
X4120149Y1511496D1*
X4117689Y1508376D1*
X4114993Y1505459D1*
X4112076Y1502763D1*
X4108957Y1500304D1*
X4105654Y1498097D1*
X4102188Y1496156D1*
X4098580Y1494493D1*
X4094853Y1493118D1*
X4091030Y1492040D1*
X4087134Y1491265D1*
X4083189Y1490798D1*
X4079220Y1490642D1*
X4075251Y1490798D1*
X4071306Y1491265D1*
X4067410Y1492040D1*
X4063587Y1493118D1*
X4059860Y1494493D1*
X4056252Y1496156D1*
X4052787Y1498097D1*
X4049484Y1500304D1*
X4046364Y1502763D1*
X4043447Y1505459D1*
X4040751Y1508376D1*
X4038292Y1511496D1*
X4036085Y1514799D1*
X4034144Y1518265D1*
X4032481Y1521872D1*
X4031106Y1525599D1*
X4030027Y1529422D1*
X4029252Y1533318D1*
X4028786Y1537263D1*
X4028630Y1541232D1*
X4028786Y1545202D1*
X4029252Y1549146D1*
X4030027Y1553042D1*
X4031508Y1557957D1*
X3974175Y1500626D1*
X3974185Y848614D1*
X3973870Y844611D1*
X3972932Y840706D1*
X3971396Y836996D1*
X3969297Y833572D1*
X3966684Y830514D1*
X3911895Y775725D1*
X3912903Y770869D1*
X3913370Y766925D1*
X3913526Y762955D1*
X3913370Y758986D1*
X3912903Y755041D1*
X3912128Y751145D1*
X3911050Y747322D1*
X3909675Y743595D1*
X3908012Y739988D1*
X3906071Y736522D1*
X3903864Y733219D1*
X3901405Y730099D1*
X3898708Y727182D1*
X3895791Y724486D1*
X3892672Y722027D1*
X3889369Y719820D1*
X3885903Y717879D1*
X3882296Y716216D1*
X3878569Y714841D1*
X3874745Y713763D1*
X3870849Y712988D1*
X3866905Y712521D1*
X3862935Y712365D1*
X3858966Y712521D1*
X3855021Y712988D1*
X3850184Y714028D1*
X3660109Y524050D1*
X3656860Y521690D1*
X3653282Y519867D1*
X3649463Y518626D1*
X3645497Y517997D1*
X3628725Y517919D1*
X1002354Y517997D1*
X998388Y518626D1*
X994569Y519867D1*
X990991Y521690D1*
X987742Y524050D1*
X975827Y535853D1*
X797661Y714019D1*
X792821Y712997D1*
X788876Y712530D1*
X784906Y712374D1*
X780937Y712530D1*
X776992Y712997D1*
X773096Y713772D1*
X769273Y714850D1*
X765546Y716225D1*
X761939Y717888D1*
X758473Y719829D1*
X755170Y722036D1*
X752051Y724495D1*
X749134Y727192D1*
X746437Y730109D1*
X743978Y733228D1*
X741771Y736531D1*
X739830Y739997D1*
X738167Y743604D1*
X736792Y747331D1*
X735714Y751154D1*
X734939Y755050D1*
X734472Y758995D1*
X734316Y762965D1*
X734472Y766934D1*
X734939Y770879D1*
X735714Y774775D1*
X736792Y778598D1*
X738167Y782325D1*
X739830Y785932D1*
X741771Y789398D1*
X743978Y792701D1*
X746437Y795821D1*
X749134Y798737D1*
X752051Y801434D1*
X755170Y803893D1*
X758473Y806100D1*
X761939Y808041D1*
X765546Y809704D1*
X769273Y811079D1*
X773096Y812157D1*
X776992Y812997D1*
X773096Y813772D1*
X769273Y814850D1*
X765546Y816225D1*
X761939Y817888D1*
X758473Y819829D1*
X755170Y822036D1*
X752051Y824495D1*
X749134Y827192D1*
X746437Y830109D1*
X743978Y833228D1*
X741771Y836531D1*
X739830Y839997D1*
X738167Y843604D1*
X736792Y847331D1*
X735714Y851154D1*
X734939Y855050D1*
X734472Y858995D1*
X734316Y862965D1*
X734472Y866934D1*
X734939Y870879D1*
X735714Y874775D1*
X736792Y878598D1*
X738167Y882325D1*
X739830Y885932D1*
X741771Y889398D1*
X743978Y892701D1*
X746437Y895821D1*
X749134Y898737D1*
X752051Y901434D1*
X755170Y903893D1*
X758473Y906100D1*
X761939Y908041D1*
X765546Y909704D1*
X769273Y911079D1*
X773096Y912157D1*
X776992Y912997D1*
X773096Y913772D1*
X769273Y914850D1*
X765546Y916225D1*
X761939Y917888D1*
X758473Y919829D1*
X755170Y922036D1*
X752051Y924495D1*
X749134Y927192D1*
X746437Y930109D1*
X743978Y933228D1*
X741771Y936531D1*
X739830Y939997D1*
X738167Y943604D1*
X736792Y947331D1*
X735714Y951154D1*
X734939Y955050D1*
X734472Y958995D1*
X734316Y962965D1*
X734472Y966934D1*
X734939Y970879D1*
X736282Y976791D1*
X736284Y1048990D1*
X734939Y1055050D1*
X734472Y1058995D1*
X734316Y1062965D1*
X734472Y1066934D1*
X734939Y1070879D1*
X735714Y1074775D1*
X736792Y1078598D1*
X738167Y1082325D1*
X739830Y1085932D1*
X741771Y1089398D1*
X743978Y1092701D1*
X746437Y1095821D1*
X749134Y1098737D1*
X752051Y1101434D1*
X755170Y1103893D1*
X758473Y1106100D1*
X761939Y1108041D1*
X765546Y1109704D1*
X769273Y1111079D1*
X773096Y1112157D1*
X776992Y1112997D1*
X773096Y1113772D1*
X769273Y1114850D1*
X765546Y1116225D1*
X761939Y1117888D1*
X758473Y1119829D1*
X755170Y1122036D1*
X752051Y1124495D1*
X749134Y1127192D1*
X746437Y1130109D1*
X743978Y1133228D1*
X741771Y1136531D1*
X739830Y1139997D1*
X738167Y1143604D1*
X736792Y1147331D1*
X735714Y1151154D1*
X734939Y1155050D1*
X734472Y1158995D1*
X734316Y1162965D1*
X734472Y1166934D1*
X734939Y1170879D1*
X736282Y1176791D1*
X736284Y1248990D1*
X734939Y1255050D1*
X734472Y1258995D1*
X734316Y1262965D1*
X734472Y1266934D1*
X734939Y1270879D1*
X735714Y1274775D1*
X736792Y1278598D1*
X738167Y1282325D1*
X739830Y1285932D1*
X741771Y1289398D1*
X743978Y1292701D1*
X746437Y1295821D1*
X749134Y1298737D1*
X752051Y1301434D1*
X755170Y1303893D1*
X758473Y1306100D1*
X761939Y1308041D1*
X765546Y1309704D1*
X769273Y1311079D1*
X773096Y1312157D1*
X776992Y1312932D1*
X780937Y1313399D1*
X784906Y1313555D1*
X788876Y1313399D1*
X792821Y1312932D1*
X796717Y1312157D1*
X800540Y1311079D1*
X804267Y1309704D1*
X807874Y1308041D1*
X812849Y1305091D1*
X812938Y1516089D1*
X813566Y1520055D1*
X814807Y1523874D1*
X816630Y1527452D1*
X818991Y1530701D1*
X830794Y1542616D1*
X1057515Y1769337D1*
X1056514Y1774199D1*
X1056047Y1778144D1*
X1055891Y1782113D1*
X1056047Y1786082D1*
X1056514Y1790027D1*
X1057289Y1793923D1*
X1058367Y1797746D1*
X1059742Y1801473D1*
X1061405Y1805080D1*
X1063346Y1808546D1*
X1065553Y1811849D1*
X1068012Y1814969D1*
X1070708Y1817886D1*
X1073625Y1820582D1*
X1076745Y1823041D1*
X1080048Y1825248D1*
X1083514Y1827189D1*
X1087121Y1828852D1*
X1090848Y1830227D1*
X1094671Y1831306D1*
X1098567Y1832145D1*
X1094671Y1832920D1*
X1090848Y1833998D1*
X1087121Y1835373D1*
X1083514Y1837036D1*
X1080048Y1838977D1*
X1076745Y1841184D1*
X1073625Y1843644D1*
X1070708Y1846340D1*
X1068012Y1849257D1*
X1065553Y1852376D1*
X1063346Y1855679D1*
X1061405Y1859145D1*
X1059742Y1862753D1*
X1058367Y1866480D1*
X1057289Y1870303D1*
X1056514Y1874199D1*
X1056047Y1878144D1*
X1055891Y1882113D1*
X1056047Y1886082D1*
X1056514Y1890027D1*
X1057289Y1893923D1*
X1058367Y1897746D1*
X1059742Y1901473D1*
X1061405Y1905080D1*
X1063346Y1908546D1*
X1065553Y1911849D1*
X1068012Y1914969D1*
X1070708Y1917886D1*
X1073625Y1920582D1*
X1076745Y1923041D1*
X1080048Y1925248D1*
X1083514Y1927189D1*
X1087121Y1928852D1*
X1090848Y1930227D1*
X1094671Y1931306D1*
X1098567Y1932081D1*
X1102512Y1932547D1*
X1106481Y1932703D1*
X1110451Y1932547D1*
X1114395Y1932081D1*
X1119232Y1931040D1*
X1168407Y1980118D1*
X1171656Y1982478D1*
X1175234Y1984302D1*
X1179053Y1985542D1*
X1183019Y1986171D1*
X1199791Y1986249D1*
X1896962Y1986171D1*
X1900928Y1985542D1*
X1904747Y1984302D1*
X1908325Y1982478D1*
X1911574Y1980118D1*
X1923489Y1968315D1*
X2013612Y1878252D1*
X2012534Y1882076D1*
X2011759Y1885972D1*
X2011292Y1889917D1*
X2011136Y1893886D1*
X2011292Y1897855D1*
X2011759Y1901800D1*
X2012534Y1905696D1*
X2013612Y1909519D1*
X2014987Y1913246D1*
X2016650Y1916853D1*
X2018591Y1920319D1*
X2020798Y1923622D1*
X2023257Y1926742D1*
X2025954Y1929659D1*
X2028871Y1932355D1*
X2031990Y1934814D1*
X2035293Y1937021D1*
X2038759Y1938962D1*
X2042367Y1940625D1*
X2046093Y1942000D1*
X2049917Y1943079D1*
X2053813Y1943854D1*
X2057757Y1944320D1*
X2061727Y1944476D1*
X2065696Y1944320D1*
X2069641Y1943854D1*
X2074478Y1942813D1*
X2353112Y2221461D1*
X2356165Y2224069D1*
X2359589Y2226167D1*
X2363299Y2227704D1*
X2367204Y2228642D1*
X2371215Y2228956D1*
X3993599Y2228878D1*
X3997566Y2228250D1*
X4001385Y2227009D1*
X4004963Y2225186D1*
X4008211Y2222825D1*
X4020126Y2211022D1*
X4150452Y2080584D1*
X4152813Y2077336D1*
X4154636Y2073758D1*
X4155877Y2069939D1*
X4156505Y2065972D1*
X4156584Y2049201D1*
X4156505Y1590997D1*
X4155877Y1587031D1*
X4154636Y1583212D1*
X4152813Y1579634D1*
X4150452Y1576385D1*
X4138649Y1564470D1*
X4128169Y1553990D1*
X4129188Y1549146D1*
X4129655Y1545202D1*
X4129811Y1541232D1*
X4129655Y1537263D1*
X1151146Y878598D2*
X1150733Y875104D1*
X1150047Y871654D1*
X1149092Y868268D1*
X1147874Y864967D1*
X1146401Y861773D1*
X1144682Y858703D1*
X1142728Y855778D1*
X1140550Y853016D1*
X1138162Y850432D1*
X1135579Y848044D1*
X1132816Y845866D1*
X1129891Y843912D1*
X1126821Y842193D1*
X1123627Y840720D1*
X1120326Y839503D1*
X1116940Y838548D1*
X1113490Y837861D1*
X1109996Y837448D1*
X1106481Y837310D1*
X1102966Y837448D1*
X1099473Y837861D1*
X1096022Y838548D1*
X1092636Y839503D1*
X1089336Y840720D1*
X1086141Y842193D1*
X1083072Y843912D1*
X1080147Y845866D1*
X1077384Y848044D1*
X1074801Y850432D1*
X1072413Y853016D1*
X1070235Y855778D1*
X1068280Y858703D1*
X1066561Y861773D1*
X1065089Y864967D1*
X1063871Y868268D1*
X1062916Y871654D1*
X1062230Y875104D1*
X1061816Y878598D1*
X1061678Y882113D1*
X1061816Y885628D1*
X1062230Y889122D1*
X1062916Y892572D1*
X1063871Y895958D1*
X1065089Y899258D1*
X1066561Y902453D1*
X1068280Y905522D1*
X1070235Y908447D1*
X1072413Y911210D1*
X1074801Y913793D1*
X1077384Y916181D1*
X1080147Y918359D1*
X1083072Y920314D1*
X1086141Y922033D1*
X1089336Y923506D1*
X1092636Y924723D1*
X1096022Y925678D1*
X1099473Y926364D1*
X1102966Y926778D1*
X1106481Y926916D1*
X1109996Y926778D1*
X1113490Y926364D1*
X1116940Y925678D1*
X1120881Y924519D1*
X1239607Y1043158D1*
X1242121Y1044985D1*
X1244890Y1046396D1*
X1247845Y1047356D1*
X1250914Y1047842D1*
X1277074Y1047903D1*
X1674755D1*
X1671006Y1051814D1*
X1668738Y1054691D1*
X1666703Y1057736D1*
X1664913Y1060933D1*
X1663379Y1064259D1*
X1662111Y1067696D1*
X1661117Y1071222D1*
X1660402Y1074815D1*
X1659972Y1078452D1*
X1659828Y1082113D1*
X1659972Y1085773D1*
X1660402Y1089411D1*
X1661117Y1093004D1*
X1662111Y1096530D1*
X1663379Y1099966D1*
X1664913Y1103293D1*
X1666703Y1106489D1*
X1668738Y1109535D1*
X1671006Y1112412D1*
X1673492Y1115102D1*
X1676182Y1117588D1*
X1679059Y1119856D1*
X1682105Y1121892D1*
X1685301Y1123681D1*
X1688628Y1125215D1*
X1692065Y1126483D1*
X1695590Y1127477D1*
X1699183Y1128192D1*
X1702821Y1128623D1*
X1706481Y1128766D1*
X1710142Y1128623D1*
X1713780Y1128192D1*
X1717372Y1127477D1*
X1720898Y1126483D1*
X1724335Y1125215D1*
X1727662Y1123681D1*
X1730858Y1121892D1*
X1733904Y1119856D1*
X1736780Y1117588D1*
X1739470Y1115102D1*
X1741957Y1112412D1*
X1744225Y1109535D1*
X1746260Y1106489D1*
X1748050Y1103293D1*
X1749584Y1099966D1*
X1750851Y1096530D1*
X1751846Y1093004D1*
X1752560Y1089411D1*
X1752991Y1085773D1*
X1753135Y1082113D1*
X1752991Y1078452D1*
X1752560Y1074815D1*
X1751846Y1071222D1*
X1750851Y1067696D1*
X1749584Y1064259D1*
X1748050Y1060933D1*
X1746260Y1057736D1*
X1744225Y1054691D1*
X1741957Y1051814D1*
X1738157Y1047910D1*
X1929067Y1047842D1*
X1932136Y1047356D1*
X1935091Y1046396D1*
X1937860Y1044985D1*
X1940374Y1043158D1*
X1958915Y1024703D1*
X2047312Y936307D1*
X2051268Y937451D1*
X2054718Y938137D1*
X2058211Y938551D1*
X2061727Y938689D1*
X2065242Y938551D1*
X2068735Y938137D1*
X2072186Y937451D1*
X2075572Y936496D1*
X2078872Y935279D1*
X2082067Y933806D1*
X2085136Y932087D1*
X2088061Y930132D1*
X2090824Y927954D1*
X2093407Y925566D1*
X2095795Y922983D1*
X2097973Y920220D1*
X2099928Y917295D1*
X2101647Y914226D1*
X2103119Y911031D1*
X2104337Y907731D1*
X2105292Y904345D1*
X2105978Y900895D1*
X2106392Y897401D1*
X2106530Y893886D1*
X2106392Y890371D1*
X2105978Y886877D1*
X2105292Y883427D1*
X2104337Y880041D1*
X2103119Y876740D1*
X2101647Y873546D1*
X2099928Y870476D1*
X2097973Y867551D1*
X2095795Y864789D1*
X2093407Y862205D1*
X2090641Y859673D1*
X2599512Y859675D1*
X2619305Y879470D1*
X2618161Y883427D1*
X2617475Y886877D1*
X2617062Y890371D1*
X2616924Y893886D1*
X2617062Y897401D1*
X2617475Y900895D1*
X2618161Y904345D1*
X2619116Y907731D1*
X2620334Y911031D1*
X2621807Y914226D1*
X2623526Y917295D1*
X2625480Y920220D1*
X2627658Y922983D1*
X2630046Y925566D1*
X2632629Y927954D1*
X2635392Y930132D1*
X2638317Y932087D1*
X2641386Y933806D1*
X2644581Y935279D1*
X2647882Y936496D1*
X2651268Y937451D1*
X2654718Y938137D1*
X2658211Y938551D1*
X2661727Y938689D1*
X2665242Y938551D1*
X2668735Y938137D1*
X2672186Y937451D1*
X2675572Y936496D1*
X2678872Y935279D1*
X2682067Y933806D1*
X2685136Y932087D1*
X2688061Y930132D1*
X2690824Y927954D1*
X2693407Y925566D1*
X2695795Y922983D1*
X2697973Y920220D1*
X2699928Y917295D1*
X2701647Y914226D1*
X2703119Y911031D1*
X2704337Y907731D1*
X2705292Y904345D1*
X2705978Y900895D1*
X2706392Y897401D1*
X2706530Y893886D1*
X2706392Y890371D1*
X2705978Y886877D1*
X2705292Y883427D1*
X2704337Y880041D1*
X2703119Y876740D1*
X2701647Y873546D1*
X2699928Y870476D1*
X2697973Y867551D1*
X2695795Y864789D1*
X2693407Y862205D1*
X2690824Y859817D1*
X2688061Y857639D1*
X2685136Y855685D1*
X2682067Y853966D1*
X2678872Y852493D1*
X2675572Y851275D1*
X2672186Y850321D1*
X2668735Y849634D1*
X2665242Y849221D1*
X2661727Y849083D1*
X2658211Y849221D1*
X2654718Y849634D1*
X2651268Y850321D1*
X2647327Y851480D1*
X2620573Y824813D1*
X2618059Y822986D1*
X2615291Y821576D1*
X2612335Y820615D1*
X2609266Y820129D1*
X2583106Y820068D1*
X2098074D1*
X2099928Y817295D1*
X2101647Y814226D1*
X2103119Y811031D1*
X2104337Y807731D1*
X2105292Y804345D1*
X2105978Y800895D1*
X2106392Y797401D1*
X2106530Y793886D1*
X2106392Y790371D1*
X2105978Y786877D1*
X2105292Y783427D1*
X2104337Y780041D1*
X2103119Y776740D1*
X2101647Y773546D1*
X2099928Y770476D1*
X2097973Y767551D1*
X2095795Y764789D1*
X2093407Y762205D1*
X2090824Y759817D1*
X2088061Y757639D1*
X2085513Y755937D1*
X2595783Y755934D1*
X2619317Y779482D1*
X2618161Y783427D1*
X2617475Y786877D1*
X2617062Y790371D1*
X2616924Y793886D1*
X2617062Y797401D1*
X2617475Y800895D1*
X2618161Y804345D1*
X2619116Y807731D1*
X2620334Y811031D1*
X2621807Y814226D1*
X2623526Y817295D1*
X2625480Y820220D1*
X2627658Y822983D1*
X2630046Y825566D1*
X2632629Y827954D1*
X2635392Y830132D1*
X2638317Y832087D1*
X2641386Y833806D1*
X2644581Y835279D1*
X2647882Y836496D1*
X2651268Y837451D1*
X2654718Y838137D1*
X2658211Y838551D1*
X2661727Y838689D1*
X2665242Y838551D1*
X2668735Y838137D1*
X2672186Y837451D1*
X2675572Y836496D1*
X2678872Y835279D1*
X2682067Y833806D1*
X2685136Y832087D1*
X2688061Y830132D1*
X2690824Y827954D1*
X2693407Y825566D1*
X2695795Y822983D1*
X2697973Y820220D1*
X2699928Y817295D1*
X2701647Y814226D1*
X2703119Y811031D1*
X2704337Y807731D1*
X2705292Y804345D1*
X2705978Y800895D1*
X2706392Y797401D1*
X2706530Y793886D1*
X2706392Y790371D1*
X2705978Y786877D1*
X2705292Y783427D1*
X2704337Y780041D1*
X2703119Y776740D1*
X2701647Y773546D1*
X2699928Y770476D1*
X2697973Y767551D1*
X2695795Y764789D1*
X2693407Y762205D1*
X2690824Y759817D1*
X2688061Y757639D1*
X2685136Y755685D1*
X2682067Y753966D1*
X2678872Y752493D1*
X2675572Y751275D1*
X2672186Y750321D1*
X2668735Y749634D1*
X2665242Y749221D1*
X2661727Y749083D1*
X2658211Y749221D1*
X2654718Y749634D1*
X2651268Y750321D1*
X2647327Y751480D1*
X2616833Y721073D1*
X2614319Y719246D1*
X2611550Y717835D1*
X2608595Y716875D1*
X2605526Y716389D1*
X2579366Y716328D1*
X1855752Y716389D1*
X1852682Y716875D1*
X1849727Y717835D1*
X1846958Y719246D1*
X1844444Y721073D1*
X1825903Y739528D1*
X1803135Y762296D1*
X1746675Y762310D1*
X1744682Y758703D1*
X1742728Y755778D1*
X1740550Y753016D1*
X1738162Y750432D1*
X1735579Y748044D1*
X1732816Y745866D1*
X1729891Y743912D1*
X1726821Y742193D1*
X1723627Y740720D1*
X1720326Y739503D1*
X1716940Y738548D1*
X1713490Y737861D1*
X1709996Y737448D1*
X1706481Y737310D1*
X1702966Y737448D1*
X1699473Y737861D1*
X1696022Y738548D1*
X1692636Y739503D1*
X1689336Y740720D1*
X1686141Y742193D1*
X1683072Y743912D1*
X1680147Y745866D1*
X1677384Y748044D1*
X1674801Y750432D1*
X1672413Y753016D1*
X1670235Y755778D1*
X1668280Y758703D1*
X1666561Y761773D1*
X1665089Y764967D1*
X1663871Y768268D1*
X1662916Y771654D1*
X1662230Y775104D1*
X1661816Y778598D1*
X1661678Y782113D1*
X1661816Y785628D1*
X1662230Y789122D1*
X1662916Y792572D1*
X1663871Y795958D1*
X1665089Y799258D1*
X1666561Y802453D1*
X1668280Y805522D1*
X1670235Y808447D1*
X1672413Y811210D1*
X1674801Y813793D1*
X1677384Y816181D1*
X1680147Y818359D1*
X1683072Y820314D1*
X1686141Y822033D1*
X1689336Y823506D1*
X1692636Y824723D1*
X1696022Y825678D1*
X1699473Y826364D1*
X1702966Y826778D1*
X1706481Y826916D1*
X1709996Y826778D1*
X1713490Y826364D1*
X1716940Y825678D1*
X1720326Y824723D1*
X1723627Y823506D1*
X1726821Y822033D1*
X1729891Y820314D1*
X1732816Y818359D1*
X1735579Y816181D1*
X1738162Y813793D1*
X1740550Y811210D1*
X1742728Y808447D1*
X1744682Y805522D1*
X1746649Y801916D1*
X1812878Y801855D1*
X1815947Y801369D1*
X1818902Y800409D1*
X1821671Y798998D1*
X1824185Y797171D1*
X1842726Y778717D1*
X1865495Y755948D1*
X2037912Y755934D1*
X2032629Y759817D1*
X2030046Y762205D1*
X2027658Y764789D1*
X2025480Y767551D1*
X2023526Y770476D1*
X2021807Y773546D1*
X2020334Y776740D1*
X2019116Y780041D1*
X2018161Y783427D1*
X2017475Y786877D1*
X2017062Y790371D1*
X2016924Y793886D1*
X2017062Y797401D1*
X2017475Y800895D1*
X2018161Y804345D1*
X2019116Y807731D1*
X2020334Y811031D1*
X2021807Y814226D1*
X2023526Y817295D1*
X2025381Y820072D1*
X1876244Y820129D1*
X1873175Y820615D1*
X1870219Y821576D1*
X1867450Y822986D1*
X1864936Y824813D1*
X1846395Y843268D1*
X1827351Y862312D1*
X1746685Y862310D1*
X1744682Y858703D1*
X1742728Y855778D1*
X1740550Y853016D1*
X1738162Y850432D1*
X1735579Y848044D1*
X1732816Y845866D1*
X1729891Y843912D1*
X1726821Y842193D1*
X1723627Y840720D1*
X1720326Y839503D1*
X1716940Y838548D1*
X1713490Y837861D1*
X1709996Y837448D1*
X1706481Y837310D1*
X1702966Y837448D1*
X1699473Y837861D1*
X1696022Y838548D1*
X1692636Y839503D1*
X1689336Y840720D1*
X1686141Y842193D1*
X1683072Y843912D1*
X1680147Y845866D1*
X1677384Y848044D1*
X1674801Y850432D1*
X1672413Y853016D1*
X1670235Y855778D1*
X1668280Y858703D1*
X1666561Y861773D1*
X1665089Y864967D1*
X1663871Y868268D1*
X1662916Y871654D1*
X1662230Y875104D1*
X1661816Y878598D1*
X1661678Y882113D1*
X1661816Y885628D1*
X1662230Y889122D1*
X1662916Y892572D1*
X1663871Y895958D1*
X1665089Y899258D1*
X1666561Y902453D1*
X1668280Y905522D1*
X1670235Y908447D1*
X1672413Y911210D1*
X1674801Y913793D1*
X1677384Y916181D1*
X1680147Y918359D1*
X1683072Y920314D1*
X1686141Y922033D1*
X1689336Y923506D1*
X1692636Y924723D1*
X1696022Y925678D1*
X1699473Y926364D1*
X1702966Y926778D1*
X1706481Y926916D1*
X1709996Y926778D1*
X1713490Y926364D1*
X1716940Y925678D1*
X1720326Y924723D1*
X1723627Y923506D1*
X1726821Y922033D1*
X1729891Y920314D1*
X1732816Y918359D1*
X1735579Y916181D1*
X1738162Y913793D1*
X1740550Y911210D1*
X1742728Y908447D1*
X1744682Y905522D1*
X1746649Y901916D1*
X1837110Y901855D1*
X1840179Y901369D1*
X1843134Y900409D1*
X1845903Y898998D1*
X1848417Y897171D1*
X1866958Y878717D1*
X1886002Y859673D1*
X2032798Y859675D1*
X2030046Y862205D1*
X2027658Y864789D1*
X2025480Y867551D1*
X2023526Y870476D1*
X2021807Y873546D1*
X2020334Y876740D1*
X2019116Y880041D1*
X2018161Y883427D1*
X2017475Y886877D1*
X2017062Y890371D1*
X2016924Y893886D1*
X2017062Y897401D1*
X2017475Y900895D1*
X2018161Y904345D1*
X2019321Y908285D1*
X1919309Y1008298D1*
X1742831Y1008297D1*
X1744682Y1005522D1*
X1746401Y1002453D1*
X1747874Y999258D1*
X1749092Y995958D1*
X1750047Y992572D1*
X1750733Y989122D1*
X1751146Y985628D1*
X1751284Y982113D1*
X1751146Y978598D1*
X1750733Y975104D1*
X1750047Y971654D1*
X1749092Y968268D1*
X1747874Y964967D1*
X1746401Y961773D1*
X1744682Y958703D1*
X1742728Y955778D1*
X1740550Y953016D1*
X1738162Y950432D1*
X1735579Y948044D1*
X1732816Y945866D1*
X1729891Y943912D1*
X1726821Y942193D1*
X1723627Y940720D1*
X1720326Y939503D1*
X1716940Y938548D1*
X1713490Y937861D1*
X1709996Y937448D1*
X1706481Y937310D1*
X1702966Y937448D1*
X1699473Y937861D1*
X1696022Y938548D1*
X1692636Y939503D1*
X1689336Y940720D1*
X1686141Y942193D1*
X1683072Y943912D1*
X1680147Y945866D1*
X1677384Y948044D1*
X1674801Y950432D1*
X1672413Y953016D1*
X1670235Y955778D1*
X1668280Y958703D1*
X1666561Y961773D1*
X1665089Y964967D1*
X1663871Y968268D1*
X1662916Y971654D1*
X1662230Y975104D1*
X1661816Y978598D1*
X1661678Y982113D1*
X1661816Y985628D1*
X1662230Y989122D1*
X1662916Y992572D1*
X1663871Y995958D1*
X1665089Y999258D1*
X1666561Y1002453D1*
X1668280Y1005522D1*
X1670136Y1008299D1*
X1260663Y1008297D1*
X1148904Y896529D1*
X1150047Y892572D1*
X1150733Y889122D1*
X1151146Y885628D1*
X1151284Y882113D1*
X1151146Y878598D1*
Y778598D2*
X1150733Y775104D1*
X1150047Y771654D1*
X1149092Y768268D1*
X1147874Y764967D1*
X1146401Y761773D1*
X1144682Y758703D1*
X1142728Y755778D1*
X1140550Y753016D1*
X1138162Y750432D1*
X1135579Y748044D1*
X1132816Y745866D1*
X1129891Y743912D1*
X1126821Y742193D1*
X1123627Y740720D1*
X1120326Y739503D1*
X1116940Y738548D1*
X1113490Y737861D1*
X1109996Y737448D1*
X1106481Y737310D1*
X1102966Y737448D1*
X1099473Y737861D1*
X1096022Y738548D1*
X1092636Y739503D1*
X1089336Y740720D1*
X1086141Y742193D1*
X1083072Y743912D1*
X1080147Y745866D1*
X1077384Y748044D1*
X1074801Y750432D1*
X1072413Y753016D1*
X1070235Y755778D1*
X1068280Y758703D1*
X1066561Y761773D1*
X1065089Y764967D1*
X1063871Y768268D1*
X1062916Y771654D1*
X1062230Y775104D1*
X1061816Y778598D1*
X1061678Y782113D1*
X1061816Y785628D1*
X1062230Y789122D1*
X1062916Y792572D1*
X1063871Y795958D1*
X1065089Y799258D1*
X1066561Y802453D1*
X1068280Y805522D1*
X1070235Y808447D1*
X1072413Y811210D1*
X1074801Y813793D1*
X1077384Y816181D1*
X1080147Y818359D1*
X1083072Y820314D1*
X1086141Y822033D1*
X1089336Y823506D1*
X1092636Y824723D1*
X1096022Y825678D1*
X1099473Y826364D1*
X1102966Y826778D1*
X1106481Y826916D1*
X1109996Y826778D1*
X1113490Y826364D1*
X1116940Y825678D1*
X1120326Y824723D1*
X1123627Y823506D1*
X1126821Y822033D1*
X1129891Y820314D1*
X1132816Y818359D1*
X1135579Y816181D1*
X1138162Y813793D1*
X1140550Y811210D1*
X1142728Y808447D1*
X1144682Y805522D1*
X1146401Y802453D1*
X1147874Y799258D1*
X1149092Y795958D1*
X1150047Y792572D1*
X1150733Y789122D1*
X1151146Y785628D1*
X1151284Y782113D1*
X1151146Y778598D1*
X1752991Y1878413D2*
X1752560Y1874775D1*
X1751846Y1871182D1*
X1750851Y1867657D1*
X1749584Y1864220D1*
X1748050Y1860893D1*
X1746260Y1857697D1*
X1744225Y1854651D1*
X1741957Y1851774D1*
X1739470Y1849084D1*
X1736780Y1846598D1*
X1733904Y1844330D1*
X1730858Y1842295D1*
X1727662Y1840505D1*
X1724335Y1838971D1*
X1720898Y1837703D1*
X1717372Y1836709D1*
X1713780Y1835994D1*
X1710142Y1835564D1*
X1706481Y1835420D1*
X1702821Y1835564D1*
X1699183Y1835994D1*
X1695590Y1836709D1*
X1692065Y1837703D1*
X1688628Y1838971D1*
X1685301Y1840505D1*
X1682105Y1842295D1*
X1679059Y1844330D1*
X1676182Y1846598D1*
X1673492Y1849084D1*
X1671006Y1851774D1*
X1668738Y1854651D1*
X1666703Y1857697D1*
X1664913Y1860893D1*
X1663379Y1864220D1*
X1662111Y1867657D1*
X1661117Y1871182D1*
X1660402Y1874775D1*
X1659972Y1878413D1*
X1659828Y1882073D1*
X1659972Y1885734D1*
X1660402Y1889372D1*
X1661117Y1892965D1*
X1662111Y1896490D1*
X1663379Y1899927D1*
X1664913Y1903254D1*
X1666703Y1906450D1*
X1668738Y1909496D1*
X1671006Y1912373D1*
X1673492Y1915063D1*
X1676182Y1917549D1*
X1679059Y1919817D1*
X1682105Y1921852D1*
X1685301Y1923642D1*
X1688628Y1925176D1*
X1692065Y1926444D1*
X1695590Y1927438D1*
X1699183Y1928153D1*
X1702821Y1928583D1*
X1706481Y1928727D1*
X1710142Y1928583D1*
X1713780Y1928153D1*
X1717372Y1927438D1*
X1720898Y1926444D1*
X1724335Y1925176D1*
X1727662Y1923642D1*
X1730858Y1921852D1*
X1733904Y1919817D1*
X1736780Y1917549D1*
X1739470Y1915063D1*
X1741957Y1912373D1*
X1744225Y1909496D1*
X1746260Y1906450D1*
X1748050Y1903254D1*
X1749584Y1899927D1*
X1750851Y1896490D1*
X1751846Y1892965D1*
X1752560Y1889372D1*
X1752991Y1885734D1*
X1753135Y1882073D1*
X1752991Y1878413D1*
Y1678452D2*
X1752560Y1674815D1*
X1751846Y1671222D1*
X1750851Y1667696D1*
X1749584Y1664259D1*
X1748050Y1660933D1*
X1746260Y1657736D1*
X1744225Y1654691D1*
X1741957Y1651814D1*
X1739470Y1649124D1*
X1736780Y1646637D1*
X1733904Y1644369D1*
X1730858Y1642334D1*
X1727662Y1640544D1*
X1724335Y1639011D1*
X1720898Y1637743D1*
X1717372Y1636748D1*
X1713780Y1636034D1*
X1710142Y1635603D1*
X1706481Y1635459D1*
X1702821Y1635603D1*
X1699183Y1636034D1*
X1695590Y1636748D1*
X1692065Y1637743D1*
X1688628Y1639011D1*
X1685301Y1640544D1*
X1682105Y1642334D1*
X1679059Y1644369D1*
X1676182Y1646637D1*
X1673492Y1649124D1*
X1671006Y1651814D1*
X1668738Y1654691D1*
X1666703Y1657736D1*
X1664913Y1660933D1*
X1663379Y1664259D1*
X1662111Y1667696D1*
X1661117Y1671222D1*
X1660402Y1674815D1*
X1659972Y1678452D1*
X1659828Y1682113D1*
X1659972Y1685773D1*
X1660402Y1689411D1*
X1661117Y1693004D1*
X1662111Y1696530D1*
X1663379Y1699966D1*
X1664913Y1703293D1*
X1666703Y1706489D1*
X1668738Y1709535D1*
X1671006Y1712412D1*
X1673492Y1715102D1*
X1676182Y1717588D1*
X1679059Y1719856D1*
X1682105Y1721892D1*
X1685301Y1723681D1*
X1688628Y1725215D1*
X1692065Y1726483D1*
X1695590Y1727477D1*
X1699183Y1728192D1*
X1702821Y1728623D1*
X1706481Y1728766D1*
X1710142Y1728623D1*
X1713780Y1728192D1*
X1717372Y1727477D1*
X1720898Y1726483D1*
X1724335Y1725215D1*
X1727662Y1723681D1*
X1730858Y1721892D1*
X1733904Y1719856D1*
X1736780Y1717588D1*
X1739470Y1715102D1*
X1741957Y1712412D1*
X1744225Y1709535D1*
X1746260Y1706489D1*
X1748050Y1703293D1*
X1749584Y1699966D1*
X1750851Y1696530D1*
X1751846Y1693004D1*
X1752560Y1689411D1*
X1752991Y1685773D1*
X1753135Y1682113D1*
X1752991Y1678452D1*
X1756916Y1578144D2*
X1756449Y1574199D1*
X1755674Y1570303D1*
X1754596Y1566480D1*
X1753221Y1562753D1*
X1751558Y1559145D1*
X1749617Y1555679D1*
X1747410Y1552376D1*
X1744951Y1549257D1*
X1742254Y1546340D1*
X1739337Y1543644D1*
X1736218Y1541184D1*
X1732915Y1538977D1*
X1729449Y1537036D1*
X1725841Y1535373D1*
X1722115Y1533998D1*
X1718291Y1532920D1*
X1714395Y1532145D1*
X1710451Y1531678D1*
X1706481Y1531522D1*
X1702512Y1531678D1*
X1698567Y1532145D1*
X1694671Y1532920D1*
X1690848Y1533998D1*
X1687121Y1535373D1*
X1683514Y1537036D1*
X1680048Y1538977D1*
X1676745Y1541184D1*
X1673625Y1543644D1*
X1670708Y1546340D1*
X1668012Y1549257D1*
X1665553Y1552376D1*
X1663346Y1555679D1*
X1661405Y1559145D1*
X1659742Y1562753D1*
X1658367Y1566480D1*
X1657289Y1570303D1*
X1656514Y1574199D1*
X1656047Y1578144D1*
X1655891Y1582113D1*
X1656047Y1586082D1*
X1656514Y1590027D1*
X1657289Y1593923D1*
X1658367Y1597746D1*
X1659742Y1601473D1*
X1661405Y1605080D1*
X1663346Y1608546D1*
X1665553Y1611849D1*
X1668012Y1614969D1*
X1670708Y1617886D1*
X1673625Y1620582D1*
X1676745Y1623041D1*
X1680048Y1625248D1*
X1683514Y1627189D1*
X1687121Y1628852D1*
X1690848Y1630227D1*
X1694671Y1631306D1*
X1698567Y1632081D1*
X1702512Y1632547D1*
X1706481Y1632703D1*
X1710451Y1632547D1*
X1714395Y1632081D1*
X1718291Y1631306D1*
X1722115Y1630227D1*
X1725841Y1628852D1*
X1729449Y1627189D1*
X1732915Y1625248D1*
X1736218Y1623041D1*
X1739337Y1620582D1*
X1742254Y1617886D1*
X1744951Y1614969D1*
X1747410Y1611849D1*
X1749617Y1608546D1*
X1751558Y1605080D1*
X1753221Y1601473D1*
X1754596Y1597746D1*
X1755674Y1593923D1*
X1756449Y1590027D1*
X1756916Y1586082D1*
X1757072Y1582113D1*
X1756916Y1578144D1*
X1152991Y1078452D2*
X1152560Y1074815D1*
X1151846Y1071222D1*
X1150851Y1067696D1*
X1149584Y1064259D1*
X1148050Y1060933D1*
X1146260Y1057736D1*
X1144225Y1054691D1*
X1141957Y1051814D1*
X1139470Y1049124D1*
X1136780Y1046637D1*
X1133904Y1044369D1*
X1130858Y1042334D1*
X1127662Y1040544D1*
X1124335Y1039011D1*
X1120898Y1037743D1*
X1117372Y1036748D1*
X1113780Y1036034D1*
X1110142Y1035603D1*
X1106481Y1035459D1*
X1102821Y1035603D1*
X1099183Y1036034D1*
X1095590Y1036748D1*
X1092065Y1037743D1*
X1088628Y1039011D1*
X1085301Y1040544D1*
X1082105Y1042334D1*
X1079059Y1044369D1*
X1076182Y1046637D1*
X1073492Y1049124D1*
X1071006Y1051814D1*
X1068738Y1054691D1*
X1066703Y1057736D1*
X1064913Y1060933D1*
X1063379Y1064259D1*
X1062111Y1067696D1*
X1061117Y1071222D1*
X1060402Y1074815D1*
X1059972Y1078452D1*
X1059828Y1082113D1*
X1059972Y1085773D1*
X1060402Y1089411D1*
X1061117Y1093004D1*
X1062111Y1096530D1*
X1063379Y1099966D1*
X1064913Y1103293D1*
X1066703Y1106489D1*
X1068738Y1109535D1*
X1071006Y1112412D1*
X1073492Y1115102D1*
X1076182Y1117588D1*
X1079059Y1119856D1*
X1082105Y1121892D1*
X1085301Y1123681D1*
X1088628Y1125215D1*
X1092065Y1126483D1*
X1095590Y1127477D1*
X1099183Y1128192D1*
X1102821Y1128623D1*
X1106481Y1128766D1*
X1110142Y1128623D1*
X1113780Y1128192D1*
X1117372Y1127477D1*
X1120898Y1126483D1*
X1124335Y1125215D1*
X1127662Y1123681D1*
X1130858Y1121892D1*
X1133904Y1119856D1*
X1136780Y1117588D1*
X1139470Y1115102D1*
X1141957Y1112412D1*
X1144225Y1109535D1*
X1146260Y1106489D1*
X1148050Y1103293D1*
X1149584Y1099966D1*
X1150851Y1096530D1*
X1151846Y1093004D1*
X1152560Y1089411D1*
X1152991Y1085773D1*
X1153135Y1082113D1*
X1152991Y1078452D1*
Y1178452D2*
X1152560Y1174815D1*
X1151846Y1171222D1*
X1150851Y1167696D1*
X1149584Y1164259D1*
X1148050Y1160933D1*
X1146260Y1157736D1*
X1144225Y1154691D1*
X1141957Y1151814D1*
X1139470Y1149124D1*
X1136780Y1146637D1*
X1133904Y1144369D1*
X1130858Y1142334D1*
X1127662Y1140544D1*
X1124335Y1139011D1*
X1120898Y1137743D1*
X1117372Y1136748D1*
X1113780Y1136034D1*
X1110142Y1135603D1*
X1106481Y1135459D1*
X1102821Y1135603D1*
X1099183Y1136034D1*
X1095590Y1136748D1*
X1092065Y1137743D1*
X1088628Y1139011D1*
X1085301Y1140544D1*
X1082105Y1142334D1*
X1079059Y1144369D1*
X1076182Y1146637D1*
X1073492Y1149124D1*
X1071006Y1151814D1*
X1068738Y1154691D1*
X1066703Y1157736D1*
X1064913Y1160933D1*
X1063379Y1164259D1*
X1062111Y1167696D1*
X1061117Y1171222D1*
X1060402Y1174815D1*
X1059972Y1178452D1*
X1059828Y1182113D1*
X1059972Y1185773D1*
X1060402Y1189411D1*
X1061117Y1193004D1*
X1062111Y1196530D1*
X1063379Y1199966D1*
X1064913Y1203293D1*
X1066703Y1206489D1*
X1068738Y1209535D1*
X1071006Y1212412D1*
X1073492Y1215102D1*
X1076182Y1217588D1*
X1079059Y1219856D1*
X1082105Y1221892D1*
X1085301Y1223681D1*
X1088628Y1225215D1*
X1092065Y1226483D1*
X1095590Y1227477D1*
X1099183Y1228192D1*
X1102821Y1228623D1*
X1106481Y1228766D1*
X1110142Y1228623D1*
X1113780Y1228192D1*
X1117372Y1227477D1*
X1120898Y1226483D1*
X1124335Y1225215D1*
X1127662Y1223681D1*
X1130858Y1221892D1*
X1133904Y1219856D1*
X1136780Y1217588D1*
X1139470Y1215102D1*
X1141957Y1212412D1*
X1144225Y1209535D1*
X1146260Y1206489D1*
X1148050Y1203293D1*
X1149584Y1199966D1*
X1150851Y1196530D1*
X1151846Y1193004D1*
X1152560Y1189411D1*
X1152991Y1185773D1*
X1153135Y1182113D1*
X1152991Y1178452D1*
X2708236Y1890186D2*
X2707806Y1886548D1*
X2707091Y1882955D1*
X2706097Y1879430D1*
X2704829Y1875993D1*
X2703295Y1872666D1*
X2701505Y1869470D1*
X2699470Y1866424D1*
X2697202Y1863547D1*
X2694716Y1860857D1*
X2692026Y1858371D1*
X2689149Y1856103D1*
X2686103Y1854068D1*
X2682907Y1852278D1*
X2679580Y1850744D1*
X2676143Y1849476D1*
X2672618Y1848482D1*
X2669025Y1847767D1*
X2665387Y1847337D1*
X2661727Y1847193D1*
X2658066Y1847337D1*
X2654428Y1847767D1*
X2650836Y1848482D1*
X2647310Y1849476D1*
X2643873Y1850744D1*
X2640546Y1852278D1*
X2637350Y1854068D1*
X2634304Y1856103D1*
X2631428Y1858371D1*
X2628738Y1860857D1*
X2626251Y1863547D1*
X2623983Y1866424D1*
X2621948Y1869470D1*
X2620158Y1872666D1*
X2618624Y1875993D1*
X2617357Y1879430D1*
X2616362Y1882955D1*
X2615648Y1886548D1*
X2615217Y1890186D1*
X2615073Y1893846D1*
X2615217Y1897507D1*
X2615648Y1901145D1*
X2616362Y1904738D1*
X2617357Y1908263D1*
X2618624Y1911700D1*
X2620158Y1915027D1*
X2621948Y1918223D1*
X2623983Y1921269D1*
X2626251Y1924146D1*
X2628738Y1926835D1*
X2631428Y1929322D1*
X2634304Y1931590D1*
X2637350Y1933625D1*
X2640546Y1935415D1*
X2643873Y1936949D1*
X2647310Y1938217D1*
X2650836Y1939211D1*
X2654428Y1939926D1*
X2658066Y1940356D1*
X2661727Y1940500D1*
X2665387Y1940356D1*
X2669025Y1939926D1*
X2672618Y1939211D1*
X2676143Y1938217D1*
X2679580Y1936949D1*
X2682907Y1935415D1*
X2686103Y1933625D1*
X2689149Y1931590D1*
X2692026Y1929322D1*
X2694716Y1926835D1*
X2697202Y1924146D1*
X2699470Y1921269D1*
X2701505Y1918223D1*
X2703295Y1915027D1*
X2704829Y1911700D1*
X2706097Y1908263D1*
X2707091Y1904738D1*
X2707806Y1901145D1*
X2708236Y1897507D1*
X2708380Y1893846D1*
X2708236Y1890186D1*
Y1690225D2*
X2707806Y1686588D1*
X2707091Y1682995D1*
X2706097Y1679469D1*
X2704829Y1676032D1*
X2703295Y1672706D1*
X2701505Y1669509D1*
X2698310Y1664991D1*
X3066421Y1664996D1*
X3069653Y1668745D1*
X3073627Y1672139D1*
X3078083Y1674870D1*
X3082912Y1676870D1*
X3087994Y1678090D1*
X3093204Y1678500D1*
X3098415Y1678090D1*
X3103497Y1676870D1*
X3108325Y1674870D1*
X3112782Y1672139D1*
X3116756Y1668745D1*
X3120150Y1664770D1*
X3122881Y1660314D1*
X3124881Y1655485D1*
X3126101Y1650403D1*
X3126511Y1645193D1*
X3126101Y1639983D1*
X3124881Y1634900D1*
X3122881Y1630072D1*
X3120150Y1625615D1*
X3116756Y1621641D1*
X3112782Y1618247D1*
X3108325Y1615516D1*
X3103497Y1613516D1*
X3098415Y1612296D1*
X3093204Y1611886D1*
X3087994Y1612296D1*
X3082912Y1613516D1*
X3078083Y1615516D1*
X3073627Y1618247D1*
X3069653Y1621641D1*
X3066442Y1625383D1*
X2701330Y1625390D1*
X2704862Y1620319D1*
X2706803Y1616853D1*
X2708466Y1613246D1*
X2709841Y1609519D1*
X2710919Y1605696D1*
X2711694Y1601800D1*
X2712161Y1597855D1*
X2712317Y1593886D1*
X2712161Y1589917D1*
X2711694Y1585972D1*
X2710919Y1582076D1*
X2709841Y1578252D1*
X2708466Y1574526D1*
X2706803Y1570918D1*
X2704862Y1567452D1*
X2702655Y1564149D1*
X2700196Y1561030D1*
X2697500Y1558113D1*
X2694583Y1555416D1*
X2691463Y1552957D1*
X2688160Y1550750D1*
X2684694Y1548809D1*
X2681087Y1547146D1*
X2677360Y1545771D1*
X2673537Y1544693D1*
X2669641Y1543918D1*
X2665696Y1543451D1*
X2661727Y1543295D1*
X2657757Y1543451D1*
X2653813Y1543918D1*
X2649917Y1544693D1*
X2646093Y1545771D1*
X2642367Y1547146D1*
X2638759Y1548809D1*
X2635293Y1550750D1*
X2631990Y1552957D1*
X2628871Y1555416D1*
X2625954Y1558113D1*
X2623257Y1561030D1*
X2620798Y1564149D1*
X2618591Y1567452D1*
X2616650Y1570918D1*
X2614987Y1574526D1*
X2613612Y1578252D1*
X2612534Y1582076D1*
X2611759Y1585972D1*
X2611292Y1589917D1*
X2611136Y1593886D1*
X2611292Y1597855D1*
X2611759Y1601800D1*
X2612534Y1605696D1*
X2613612Y1609519D1*
X2614987Y1613246D1*
X2616650Y1616853D1*
X2618591Y1620319D1*
X2622191Y1625389D1*
X1922963Y1625390D1*
X1921399Y1623836D1*
X1922040Y1620640D1*
X1922511Y1614647D1*
X1922040Y1608654D1*
X1920637Y1602809D1*
X1918336Y1597256D1*
X1915195Y1592131D1*
X1911292Y1587560D1*
X1906721Y1583656D1*
X1901595Y1580515D1*
X1896042Y1578215D1*
X1890197Y1576812D1*
X1884204Y1576340D1*
X1878212Y1576812D1*
X1872367Y1578215D1*
X1866813Y1580515D1*
X1861688Y1583656D1*
X1857117Y1587560D1*
X1853213Y1592131D1*
X1850073Y1597256D1*
X1847772Y1602809D1*
X1846369Y1608654D1*
X1845897Y1614647D1*
X1846369Y1620640D1*
X1847772Y1626485D1*
X1850073Y1632038D1*
X1853213Y1637163D1*
X1857117Y1641734D1*
X1861688Y1645638D1*
X1866813Y1648779D1*
X1872367Y1651079D1*
X1878212Y1652482D1*
X1884204Y1652954D1*
X1890197Y1652482D1*
X1893384Y1651829D1*
X1901889Y1660251D1*
X1904403Y1662078D1*
X1907172Y1663489D1*
X1910127Y1664449D1*
X1913197Y1664935D1*
X1939357Y1664996D1*
X2625084D1*
X2621948Y1669509D1*
X2620158Y1672706D1*
X2618624Y1676032D1*
X2617357Y1679469D1*
X2616362Y1682995D1*
X2615648Y1686588D1*
X2615217Y1690225D1*
X2615073Y1693886D1*
X2615217Y1697546D1*
X2615648Y1701184D1*
X2616362Y1704777D1*
X2617357Y1708303D1*
X2618624Y1711739D1*
X2620158Y1715066D1*
X2621948Y1718262D1*
X2623983Y1721308D1*
X2626251Y1724185D1*
X2628738Y1726875D1*
X2631428Y1729361D1*
X2634304Y1731629D1*
X2637350Y1733665D1*
X2640546Y1735454D1*
X2643873Y1736988D1*
X2647310Y1738256D1*
X2650836Y1739250D1*
X2654428Y1739965D1*
X2658066Y1740396D1*
X2661727Y1740539D1*
X2665387Y1740396D1*
X2669025Y1739965D1*
X2672618Y1739250D1*
X2676143Y1738256D1*
X2679580Y1736988D1*
X2682907Y1735454D1*
X2686103Y1733665D1*
X2689149Y1731629D1*
X2692026Y1729361D1*
X2694716Y1726875D1*
X2697202Y1724185D1*
X2699470Y1721308D1*
X2701505Y1718262D1*
X2703295Y1715066D1*
X2704829Y1711739D1*
X2706097Y1708303D1*
X2707091Y1704777D1*
X2707806Y1701184D1*
X2708236Y1697546D1*
X2708380Y1693886D1*
X2708236Y1690225D1*
Y1090225D2*
X2707806Y1086588D1*
X2707091Y1082995D1*
X2706097Y1079469D1*
X2704829Y1076032D1*
X2703295Y1072706D1*
X2701505Y1069509D1*
X2699470Y1066464D1*
X2697202Y1063587D1*
X2694716Y1060897D1*
X2692026Y1058410D1*
X2689149Y1056142D1*
X2686103Y1054107D1*
X2682907Y1052317D1*
X2679580Y1050784D1*
X2676143Y1049516D1*
X2672618Y1048521D1*
X2669025Y1047807D1*
X2665387Y1047376D1*
X2661727Y1047232D1*
X2658066Y1047376D1*
X2654428Y1047807D1*
X2650836Y1048521D1*
X2647310Y1049516D1*
X2643873Y1050784D1*
X2640546Y1052317D1*
X2637350Y1054107D1*
X2634304Y1056142D1*
X2631428Y1058410D1*
X2628738Y1060897D1*
X2626251Y1063587D1*
X2623983Y1066464D1*
X2621948Y1069509D1*
X2620158Y1072706D1*
X2618624Y1076032D1*
X2617357Y1079469D1*
X2616362Y1082995D1*
X2615648Y1086588D1*
X2615217Y1090225D1*
X2615073Y1093886D1*
X2615217Y1097546D1*
X2615648Y1101184D1*
X2616362Y1104777D1*
X2617357Y1108303D1*
X2618624Y1111739D1*
X2620158Y1115066D1*
X2621948Y1118262D1*
X2623983Y1121308D1*
X2626251Y1124185D1*
X2628738Y1126875D1*
X2631428Y1129361D1*
X2634304Y1131629D1*
X2637350Y1133665D1*
X2640546Y1135454D1*
X2643873Y1136988D1*
X2647310Y1138256D1*
X2650836Y1139250D1*
X2654428Y1139965D1*
X2658066Y1140396D1*
X2661727Y1140539D1*
X2665387Y1140396D1*
X2669025Y1139965D1*
X2672618Y1139250D1*
X2676143Y1138256D1*
X2679580Y1136988D1*
X2682907Y1135454D1*
X2686103Y1133665D1*
X2689149Y1131629D1*
X2692026Y1129361D1*
X2694716Y1126875D1*
X2697202Y1124185D1*
X2699470Y1121308D1*
X2701505Y1118262D1*
X2703295Y1115066D1*
X2704829Y1111739D1*
X2706097Y1108303D1*
X2707091Y1104777D1*
X2707806Y1101184D1*
X2708236Y1097546D1*
X2708380Y1093886D1*
X2708236Y1090225D1*
X2706392Y990371D2*
X2705978Y986877D1*
X2705292Y983427D1*
X2704337Y980041D1*
X2703119Y976740D1*
X2701647Y973546D1*
X2699928Y970476D1*
X2697973Y967551D1*
X2695795Y964789D1*
X2693407Y962205D1*
X2690824Y959817D1*
X2688061Y957639D1*
X2685136Y955685D1*
X2682067Y953966D1*
X2678872Y952493D1*
X2675572Y951275D1*
X2672186Y950321D1*
X2668735Y949634D1*
X2665242Y949221D1*
X2661727Y949083D1*
X2658211Y949221D1*
X2654718Y949634D1*
X2651268Y950321D1*
X2647882Y951275D1*
X2644581Y952493D1*
X2641386Y953966D1*
X2638317Y955685D1*
X2635392Y957639D1*
X2632629Y959817D1*
X2630046Y962205D1*
X2627658Y964789D1*
X2625480Y967551D1*
X2623526Y970476D1*
X2621807Y973546D1*
X2620334Y976740D1*
X2619116Y980041D1*
X2618161Y983427D1*
X2617475Y986877D1*
X2617062Y990371D1*
X2616924Y993886D1*
X2617062Y997401D1*
X2617475Y1000895D1*
X2618161Y1004345D1*
X2619116Y1007731D1*
X2620334Y1011031D1*
X2621807Y1014226D1*
X2623526Y1017295D1*
X2625480Y1020220D1*
X2627658Y1022983D1*
X2630046Y1025566D1*
X2632629Y1027954D1*
X2635392Y1030132D1*
X2638317Y1032087D1*
X2641386Y1033806D1*
X2644581Y1035279D1*
X2647882Y1036496D1*
X2651268Y1037451D1*
X2654718Y1038137D1*
X2658211Y1038551D1*
X2661727Y1038689D1*
X2665242Y1038551D1*
X2668735Y1038137D1*
X2672186Y1037451D1*
X2675572Y1036496D1*
X2678872Y1035279D1*
X2682067Y1033806D1*
X2685136Y1032087D1*
X2688061Y1030132D1*
X2690824Y1027954D1*
X2693407Y1025566D1*
X2695795Y1022983D1*
X2697973Y1020220D1*
X2699928Y1017295D1*
X2701647Y1014226D1*
X2703119Y1011031D1*
X2704337Y1007731D1*
X2705292Y1004345D1*
X2705978Y1000895D1*
X2706392Y997401D1*
X2706530Y993886D1*
X2706392Y990371D1*
X2108236Y1090225D2*
X2107806Y1086588D1*
X2107091Y1082995D1*
X2106097Y1079469D1*
X2104829Y1076032D1*
X2103295Y1072706D1*
X2101505Y1069509D1*
X2099470Y1066464D1*
X2097202Y1063587D1*
X2094716Y1060897D1*
X2092026Y1058410D1*
X2089149Y1056142D1*
X2086103Y1054107D1*
X2082907Y1052317D1*
X2079580Y1050784D1*
X2076143Y1049516D1*
X2072618Y1048521D1*
X2069025Y1047807D1*
X2065387Y1047376D1*
X2061727Y1047232D1*
X2058066Y1047376D1*
X2054428Y1047807D1*
X2050836Y1048521D1*
X2047310Y1049516D1*
X2043873Y1050784D1*
X2040546Y1052317D1*
X2037350Y1054107D1*
X2034304Y1056142D1*
X2031428Y1058410D1*
X2028738Y1060897D1*
X2026251Y1063587D1*
X2023983Y1066464D1*
X2021948Y1069509D1*
X2020158Y1072706D1*
X2018624Y1076032D1*
X2017357Y1079469D1*
X2016362Y1082995D1*
X2015648Y1086588D1*
X2015217Y1090225D1*
X2015073Y1093886D1*
X2015217Y1097546D1*
X2015648Y1101184D1*
X2016362Y1104777D1*
X2017357Y1108303D1*
X2018624Y1111739D1*
X2020158Y1115066D1*
X2021948Y1118262D1*
X2023983Y1121308D1*
X2026251Y1124185D1*
X2028738Y1126875D1*
X2031428Y1129361D1*
X2034304Y1131629D1*
X2037350Y1133665D1*
X2040546Y1135454D1*
X2043873Y1136988D1*
X2047310Y1138256D1*
X2050836Y1139250D1*
X2054428Y1139965D1*
X2058066Y1140396D1*
X2061727Y1140539D1*
X2065387Y1140396D1*
X2069025Y1139965D1*
X2072618Y1139250D1*
X2076143Y1138256D1*
X2079580Y1136988D1*
X2082907Y1135454D1*
X2086103Y1133665D1*
X2089149Y1131629D1*
X2092026Y1129361D1*
X2094716Y1126875D1*
X2097202Y1124185D1*
X2099470Y1121308D1*
X2101505Y1118262D1*
X2103295Y1115066D1*
X2104829Y1111739D1*
X2106097Y1108303D1*
X2107091Y1104777D1*
X2107806Y1101184D1*
X2108236Y1097546D1*
X2108380Y1093886D1*
X2108236Y1090225D1*
X2106392Y1190371D2*
X2105978Y1186877D1*
X2105292Y1183427D1*
X2104337Y1180041D1*
X2103119Y1176740D1*
X2101647Y1173546D1*
X2099928Y1170476D1*
X2097973Y1167551D1*
X2095795Y1164789D1*
X2093407Y1162205D1*
X2090824Y1159817D1*
X2088061Y1157639D1*
X2085136Y1155685D1*
X2082067Y1153966D1*
X2078872Y1152493D1*
X2075572Y1151275D1*
X2072186Y1150321D1*
X2068735Y1149634D1*
X2065242Y1149221D1*
X2061727Y1149083D1*
X2058211Y1149221D1*
X2054718Y1149634D1*
X2051268Y1150321D1*
X2047882Y1151275D1*
X2044581Y1152493D1*
X2041386Y1153966D1*
X2038317Y1155685D1*
X2035392Y1157639D1*
X2032629Y1159817D1*
X2030046Y1162205D1*
X2027658Y1164789D1*
X2025480Y1167551D1*
X2023526Y1170476D1*
X2021807Y1173546D1*
X2020334Y1176740D1*
X2019116Y1180041D1*
X2018161Y1183427D1*
X2017475Y1186877D1*
X2017062Y1190371D1*
X2016924Y1193886D1*
X2017062Y1197401D1*
X2017475Y1200895D1*
X2018161Y1204345D1*
X2019116Y1207731D1*
X2020334Y1211031D1*
X2021807Y1214226D1*
X2023526Y1217295D1*
X2025480Y1220220D1*
X2028917Y1224345D1*
X1958403Y1294845D1*
X1916991Y1294844D1*
X1915195Y1292131D1*
X1911292Y1287560D1*
X1906721Y1283656D1*
X1901595Y1280515D1*
X1896042Y1278215D1*
X1890197Y1276812D1*
X1884204Y1276340D1*
X1878212Y1276812D1*
X1872367Y1278215D1*
X1866813Y1280515D1*
X1861688Y1283656D1*
X1857117Y1287560D1*
X1853213Y1292131D1*
X1850073Y1297256D1*
X1847772Y1302809D1*
X1846369Y1308654D1*
X1845897Y1314647D1*
X1846369Y1320640D1*
X1847772Y1326485D1*
X1850073Y1332038D1*
X1853213Y1337163D1*
X1857117Y1341734D1*
X1861688Y1345638D1*
X1866813Y1348779D1*
X1872367Y1351079D1*
X1878212Y1352482D1*
X1884204Y1352954D1*
X1890197Y1352482D1*
X1896042Y1351079D1*
X1901595Y1348779D1*
X1906721Y1345638D1*
X1911292Y1341734D1*
X1915195Y1337163D1*
X1916987Y1334447D1*
X1968161Y1334389D1*
X1971230Y1333903D1*
X1974186Y1332943D1*
X1976954Y1331532D1*
X1979468Y1329705D1*
X1998009Y1311251D1*
X2071698Y1237562D1*
X2075572Y1236496D1*
X2078872Y1235279D1*
X2082067Y1233806D1*
X2085136Y1232087D1*
X2088061Y1230132D1*
X2090824Y1227954D1*
X2093407Y1225566D1*
X2095795Y1222983D1*
X2097973Y1220220D1*
X2099928Y1217295D1*
X2101647Y1214226D1*
X2103119Y1211031D1*
X2104337Y1207731D1*
X2105292Y1204345D1*
X2105978Y1200895D1*
X2106392Y1197401D1*
X2106530Y1193886D1*
X2106392Y1190371D1*
D17*
X2858029Y1265566D3*
Y745369D3*
X3587950Y1265566D3*
Y745369D3*
X2858029Y1167455D3*
Y843597D3*
X3587950Y843873D3*
Y1167692D3*
D18*
X3273862Y1521243D3*
D19*
Y1721243D3*
D24*
X3556072Y1960908D3*
X3732319Y1960528D3*
D25*
X4079220Y1841232D3*
Y1741232D3*
Y1641862D3*
Y1541232D3*
X3862935Y762955D3*
Y862955D3*
Y962955D3*
Y1062955D3*
Y1162955D3*
Y1262955D3*
X784906Y1262965D3*
Y1162965D3*
Y1062965D3*
Y962965D3*
Y862965D3*
Y762965D3*
X1106481Y1882113D3*
Y1782113D3*
Y882113D3*
Y782113D3*
X1706481Y1882073D3*
Y1782113D3*
Y1682113D3*
Y1582113D3*
Y1082113D3*
Y982113D3*
Y882113D3*
Y782113D3*
X1106481Y1082113D3*
Y1182113D3*
X2061727Y1893886D3*
Y1793886D3*
Y893886D3*
Y793886D3*
X2661727Y1893846D3*
Y1793886D3*
Y1693886D3*
Y1593886D3*
Y1093886D3*
Y993886D3*
Y893886D3*
Y793886D3*
X2061727Y1093886D3*
Y1193886D3*
D27*
X1884204Y1614647D3*
D28*
Y1314647D3*
M02*
