M48
INCH
T01C0.0191
T02C0.022
T03C0.0354
T04C0.0394
T05C0.0591
T06C0.1181
%
T04
X+028580Y+012656
X+028580Y+007454
X+035879Y+012656
X+035879Y+007454
X+028580Y+011675
X+028580Y+008436
X+035879Y+008439
X+035879Y+011677
T03
X+032739Y+015212
X+032739Y+017212
T06
X+005146Y+004951
X+041366Y+004954
T05
X+035561Y+019609
X+037323Y+019605
T03
X+040792Y+018412
X+040792Y+017412
X+040792Y+016419
X+040792Y+015412
X+038629Y+007630
X+038629Y+008630
X+038629Y+009630
X+038629Y+010630
X+038629Y+011630
X+038629Y+012630
X+007849Y+012630
X+007849Y+011630
X+007849Y+010630
X+007849Y+009630
X+007849Y+008630
X+007849Y+007630
X+011065Y+018821
X+011065Y+017821
X+011065Y+008821
X+011065Y+007821
X+017065Y+018821
X+017065Y+017821
X+017065Y+016821
X+017065Y+015821
X+017065Y+010821
X+017065Y+009821
X+017065Y+008821
X+017065Y+007821
X+011065Y+010821
X+011065Y+011821
X+020617Y+018939
X+020617Y+017939
X+020617Y+008939
X+020617Y+007939
X+026617Y+018938
X+026617Y+017939
X+026617Y+016939
X+026617Y+015939
X+026617Y+010939
X+026617Y+009939
X+026617Y+008939
X+026617Y+007939
X+020617Y+010939
X+020617Y+011939
T02
X+018842Y+016146
X+018842Y+013146
T01
X+033204Y+009364
X+030932Y+016452
T00
M30
