G04 DipTrace 3.2.0.1*
G04 Top.gbr*
%MOIN*%
G04 #@! TF.FileFunction,Copper,L1,Top*
G04 #@! TF.Part,Single*
G04 #@! TA.AperFunction,CopperBalancing*
%ADD10C,0.009843*%
G04 #@! TA.AperFunction,Conductor*
%ADD14C,0.03937*%
%ADD15C,0.059055*%
%ADD16C,0.012992*%
G04 #@! TA.AperFunction,ComponentPad*
%ADD17R,0.098425X0.098425*%
%ADD18C,0.062992*%
%ADD19R,0.062992X0.062992*%
%ADD21R,0.094488X0.059055*%
%ADD22R,0.07874X0.098425*%
G04 #@! TA.AperFunction,ComponentPad*
%ADD24O,0.137795X0.23622*%
%ADD25C,0.062992*%
%ADD27C,0.05*%
%ADD28C,0.05*%
G04 #@! TA.AperFunction,ViaPad*
%ADD29C,0.04*%
%FSLAX26Y26*%
G04*
G70*
G90*
G75*
G01*
G04 Top*
%LPD*%
X3587950Y843873D2*
D14*
Y745369D1*
Y863034D1*
X2975093D1*
Y1339344D1*
X2896425Y1418012D1*
Y1458957D1*
X2487645D1*
X2487548Y1458860D1*
X893370D1*
Y1624214D2*
X1664380D1*
X1706481Y1582113D1*
X2896425Y1624311D2*
Y1611066D1*
X2661727D1*
Y1593886D1*
X3732319Y1960528D2*
X3859925D1*
X4079220Y1741232D1*
X3587950Y1265566D2*
X3529539D1*
X3273862Y1521243D1*
X3634430D1*
X3705542Y1592354D1*
Y1933751D1*
X3732319Y1960528D1*
X1706481Y1782113D2*
X1809366D1*
X2030723Y1655714D1*
X2511358D1*
X2661727Y1806083D1*
Y1793886D1*
X3273862Y1521243D2*
X2991633D1*
Y2125292D1*
X2975190Y2108849D1*
X2661727Y1793886D2*
X2968699Y2100858D1*
Y2108849D1*
X2975190D1*
X2858029Y745369D2*
D15*
Y843597D1*
X3862935Y1162955D2*
X3753308D1*
X3680473Y1090121D1*
Y1009230D1*
X3607639Y936395D1*
X3320359D1*
X2858029Y843597D2*
X2567384Y552953D1*
X970753D1*
Y1162965D1*
X784906D1*
X3093204Y1645193D2*
D16*
Y1868102D1*
X3093300Y1868198D1*
Y2108849D1*
X3273862Y1721243D2*
X3211410Y1783694D1*
Y2108849D1*
X2061727Y793886D2*
X2003968Y736127D1*
X1152467D1*
X1106481Y782113D1*
X1706481Y982113D2*
X1790670D1*
X1830081Y1021524D1*
X2630538D1*
X2661727Y990335D1*
Y993886D1*
X3862935Y1062955D2*
D15*
Y962955D1*
X3753308D1*
Y542978D1*
X3680473Y470144D1*
X932544D1*
X859710Y542979D1*
Y931469D1*
X828214Y962965D1*
X784906D1*
X2858029Y1265566D2*
D16*
Y1167455D1*
X4079220Y1541232D2*
Y1079240D1*
X3862935Y862955D1*
D29*
X3320359Y936395D3*
X3093204Y1645193D3*
X478773Y2272769D2*
D10*
X4173901D1*
X461568Y2263058D2*
X4189587D1*
X451014Y2253346D2*
X4201275D1*
X442344Y2243635D2*
X4208023D1*
X436519Y2233924D2*
X4214751D1*
X430771Y2224213D2*
X4218231D1*
X428272Y2214501D2*
X4221537D1*
X425773Y2204790D2*
X4223286D1*
X424197Y2195079D2*
X4223786D1*
X424543Y2185367D2*
X4224267D1*
X424889Y2175656D2*
X4224421D1*
X425216Y2165945D2*
X3039647D1*
X3146961D2*
X3157757D1*
X3265071D2*
X4224421D1*
X425216Y2156234D2*
X3039647D1*
X3146961D2*
X3157757D1*
X3265071D2*
X4224401D1*
X425216Y2146522D2*
X3039647D1*
X3146961D2*
X3157757D1*
X3265071D2*
X4224401D1*
X425216Y2136811D2*
X3039647D1*
X3146961D2*
X3157757D1*
X3265071D2*
X4224401D1*
X425216Y2127100D2*
X3039647D1*
X3146961D2*
X3157757D1*
X3265071D2*
X4224401D1*
X425216Y2117388D2*
X3039647D1*
X3146961D2*
X3157757D1*
X3265071D2*
X4224382D1*
X425216Y2107677D2*
X3039647D1*
X3146961D2*
X3157757D1*
X3265071D2*
X4224382D1*
X425216Y2097966D2*
X3039647D1*
X3146961D2*
X3157757D1*
X3265071D2*
X4224382D1*
X425216Y2088255D2*
X3039647D1*
X3146961D2*
X3157757D1*
X3265071D2*
X3529543D1*
X3582608D2*
X4224363D1*
X425216Y2078543D2*
X3039647D1*
X3146961D2*
X3157757D1*
X3265071D2*
X3509531D1*
X3602619D2*
X4224363D1*
X425216Y2068832D2*
X3039647D1*
X3146961D2*
X3157757D1*
X3265071D2*
X3497554D1*
X3614596D2*
X4224363D1*
X425216Y2059121D2*
X3039647D1*
X3146961D2*
X3157757D1*
X3265071D2*
X3489077D1*
X3623054D2*
X4224344D1*
X425216Y2049409D2*
X3039647D1*
X3146961D2*
X3157757D1*
X3265071D2*
X3482887D1*
X3629263D2*
X4224344D1*
X425216Y2039698D2*
X3072519D1*
X3114088D2*
X3190629D1*
X3232199D2*
X3478388D1*
X3633762D2*
X4224344D1*
X425216Y2029987D2*
X3072519D1*
X3114088D2*
X3190629D1*
X3232199D2*
X3475313D1*
X3636818D2*
X4224344D1*
X425216Y2020276D2*
X3072519D1*
X3114088D2*
X3190629D1*
X3232199D2*
X3473506D1*
X3638625D2*
X4224324D1*
X425216Y2010564D2*
X3072519D1*
X3114088D2*
X3190629D1*
X3232199D2*
X3472890D1*
X3639260D2*
X4224324D1*
X425216Y2000853D2*
X3072519D1*
X3114088D2*
X3190629D1*
X3232199D2*
X3472890D1*
X3639260D2*
X4224324D1*
X425216Y1991142D2*
X3072519D1*
X3114088D2*
X3190629D1*
X3232199D2*
X3472890D1*
X3639260D2*
X4224305D1*
X425216Y1981430D2*
X3072519D1*
X3114088D2*
X3190629D1*
X3232199D2*
X3472890D1*
X3639260D2*
X4224305D1*
X425216Y1971719D2*
X3072519D1*
X3114088D2*
X3190629D1*
X3232199D2*
X3472890D1*
X3639260D2*
X4224305D1*
X425216Y1962008D2*
X3072519D1*
X3114088D2*
X3190629D1*
X3232199D2*
X3472890D1*
X3639260D2*
X4224286D1*
X425216Y1952297D2*
X3072519D1*
X3114088D2*
X3190629D1*
X3232199D2*
X3472890D1*
X3639260D2*
X4224286D1*
X425216Y1942585D2*
X2047032D1*
X2076414D2*
X3072519D1*
X3114088D2*
X3190629D1*
X3232199D2*
X3472890D1*
X3639260D2*
X4224286D1*
X425216Y1932874D2*
X2028501D1*
X2094945D2*
X2635180D1*
X2688265D2*
X3072519D1*
X3114088D2*
X3190629D1*
X3232199D2*
X3472890D1*
X3639260D2*
X4224286D1*
X425216Y1923163D2*
X1075929D1*
X1137030D2*
X1683397D1*
X1729561D2*
X2019485D1*
X2103961D2*
X2624454D1*
X2699011D2*
X3072519D1*
X3114088D2*
X3190629D1*
X3232199D2*
X3472890D1*
X3639260D2*
X4224267D1*
X425216Y1913451D2*
X1065779D1*
X1147180D2*
X1670979D1*
X1741999D2*
X2014083D1*
X2109363D2*
X2618417D1*
X2705047D2*
X3072519D1*
X3114088D2*
X3190629D1*
X3232199D2*
X3472890D1*
X3639260D2*
X4224267D1*
X425216Y1903740D2*
X1059762D1*
X1153197D2*
X1664174D1*
X1748785D2*
X2011122D1*
X2112324D2*
X2615149D1*
X2708296D2*
X3072519D1*
X3114088D2*
X3190629D1*
X3232199D2*
X3473275D1*
X3638875D2*
X4224267D1*
X425216Y1894029D2*
X1056321D1*
X1156638D2*
X1660406D1*
X1752553D2*
X2010161D1*
X2113304D2*
X2614092D1*
X2709372D2*
X3072519D1*
X3114088D2*
X3190629D1*
X3232199D2*
X3474813D1*
X3637337D2*
X4224248D1*
X425216Y1884318D2*
X1054956D1*
X1158003D2*
X1658906D1*
X1754071D2*
X2011065D1*
X2112381D2*
X2615073D1*
X2708373D2*
X3072519D1*
X3114088D2*
X3190629D1*
X3232199D2*
X3477581D1*
X3634569D2*
X4051715D1*
X4106722D2*
X4224248D1*
X425216Y1874606D2*
X1055475D1*
X1157503D2*
X1659445D1*
X1753514D2*
X2013968D1*
X2109478D2*
X2618244D1*
X2705220D2*
X3072519D1*
X3114088D2*
X3190629D1*
X3232199D2*
X3481733D1*
X3630417D2*
X4040219D1*
X4118218D2*
X4224248D1*
X425216Y1864895D2*
X1057936D1*
X1155042D2*
X1662117D1*
X1750842D2*
X2019273D1*
X2104173D2*
X2624165D1*
X2699299D2*
X3072423D1*
X3113992D2*
X3190629D1*
X3232199D2*
X3487500D1*
X3624631D2*
X4033530D1*
X4124927D2*
X4224228D1*
X425216Y1855184D2*
X1062665D1*
X1150294D2*
X1667365D1*
X1745594D2*
X2028155D1*
X2095291D2*
X2634623D1*
X2688822D2*
X3072423D1*
X3113992D2*
X3190629D1*
X3232199D2*
X3495382D1*
X3616749D2*
X4029608D1*
X4128829D2*
X4224228D1*
X425216Y1845472D2*
X1070604D1*
X1142355D2*
X1676573D1*
X1736405D2*
X2046052D1*
X2077394D2*
X3072423D1*
X3113992D2*
X3190629D1*
X3232199D2*
X3506378D1*
X3605753D2*
X4027820D1*
X4130617D2*
X4224228D1*
X425216Y1835761D2*
X1085234D1*
X1127745D2*
X1699872D1*
X1713106D2*
X2032345D1*
X2091101D2*
X3072423D1*
X3113992D2*
X3190629D1*
X3232199D2*
X3523602D1*
X3588548D2*
X4027935D1*
X4130501D2*
X4224228D1*
X425216Y1826050D2*
X1080428D1*
X1132551D2*
X2021695D1*
X2101770D2*
X3072423D1*
X3113992D2*
X3190629D1*
X3232199D2*
X4029973D1*
X4128464D2*
X4224209D1*
X425216Y1816339D2*
X1068240D1*
X1144719D2*
X2015409D1*
X2108037D2*
X3072423D1*
X3113992D2*
X3190629D1*
X3232199D2*
X4034202D1*
X4124254D2*
X4224209D1*
X425216Y1806627D2*
X1061242D1*
X1151717D2*
X2011776D1*
X2111670D2*
X3072423D1*
X3113992D2*
X3190629D1*
X3232199D2*
X4041334D1*
X4117103D2*
X4224209D1*
X425216Y1796916D2*
X1057129D1*
X1155850D2*
X2010238D1*
X2113208D2*
X3072423D1*
X3113992D2*
X3190629D1*
X3232199D2*
X4053830D1*
X4104607D2*
X4224190D1*
X425216Y1787205D2*
X1055168D1*
X1157791D2*
X2010603D1*
X2112862D2*
X3072423D1*
X3113992D2*
X3190629D1*
X3236889D2*
X4224190D1*
X425216Y1777493D2*
X1055110D1*
X1157849D2*
X2012872D1*
X2110574D2*
X3072423D1*
X3113992D2*
X3191610D1*
X3246597D2*
X4224190D1*
X425216Y1767782D2*
X1056975D1*
X1155984D2*
X2017409D1*
X2106037D2*
X3072423D1*
X3113992D2*
X3198338D1*
X3256305D2*
X4224171D1*
X425216Y1758071D2*
X1060992D1*
X1151986D2*
X2025021D1*
X2098444D2*
X3072423D1*
X3113992D2*
X3208046D1*
X3319647D2*
X4224171D1*
X425216Y1748360D2*
X1067817D1*
X1145142D2*
X2038689D1*
X2084776D2*
X3072423D1*
X3113992D2*
X3217754D1*
X3319647D2*
X4224171D1*
X425216Y1738648D2*
X1079601D1*
X1133358D2*
X2647599D1*
X2675865D2*
X3072423D1*
X3113992D2*
X3227462D1*
X3319647D2*
X4224171D1*
X425216Y1728937D2*
X2629952D1*
X2693494D2*
X3072423D1*
X3113992D2*
X3228077D1*
X3319647D2*
X4224151D1*
X425216Y1719226D2*
X1677227D1*
X1735732D2*
X2621570D1*
X2701875D2*
X3072423D1*
X3113992D2*
X3228077D1*
X3319647D2*
X4224151D1*
X425216Y1709514D2*
X1667730D1*
X1745228D2*
X2616783D1*
X2706662D2*
X3072423D1*
X3113992D2*
X3228077D1*
X3319647D2*
X4224151D1*
X425216Y1699803D2*
X1662328D1*
X1750630D2*
X2614457D1*
X2708988D2*
X3072423D1*
X3113992D2*
X3228077D1*
X3319647D2*
X4224132D1*
X425216Y1690092D2*
X1659522D1*
X1753437D2*
X2614246D1*
X2709219D2*
X3072423D1*
X3113992D2*
X3228077D1*
X3319647D2*
X4062961D1*
X4095476D2*
X4224132D1*
X425216Y1680381D2*
X1658868D1*
X1754090D2*
X2616091D1*
X2707373D2*
X3072423D1*
X3113992D2*
X3228077D1*
X3319647D2*
X4045429D1*
X4113008D2*
X4224132D1*
X425216Y1670669D2*
X826041D1*
X960691D2*
X1660271D1*
X1752687D2*
X2620282D1*
X2703182D2*
X2829109D1*
X2963740D2*
X3070770D1*
X3115645D2*
X4036644D1*
X4121793D2*
X4224113D1*
X425216Y1660958D2*
X826041D1*
X1749054D2*
X2627683D1*
X2695762D2*
X2829109D1*
X2963740D2*
X3062888D1*
X3123527D2*
X4031396D1*
X4127060D2*
X4224113D1*
X425216Y1651247D2*
X826041D1*
X1742441D2*
X1871905D1*
X1896499D2*
X2641813D1*
X2681652D2*
X2829109D1*
X2963740D2*
X3059466D1*
X3126949D2*
X4028531D1*
X4129925D2*
X4224113D1*
X425216Y1641535D2*
X826041D1*
X1730484D2*
X1855930D1*
X1912474D2*
X2636757D1*
X2963740D2*
X3059120D1*
X3127295D2*
X4027647D1*
X4130790D2*
X4224113D1*
X425216Y1631824D2*
X826041D1*
X1716854D2*
X1848971D1*
X1919433D2*
X2627280D1*
X2963740D2*
X3061715D1*
X3124700D2*
X4028647D1*
X4129790D2*
X4224094D1*
X425216Y1622113D2*
X826041D1*
X1738442D2*
X1845645D1*
X1922759D2*
X2618763D1*
X2963740D2*
X3068213D1*
X3118202D2*
X4031665D1*
X4126772D2*
X4224094D1*
X425216Y1612402D2*
X826041D1*
X1747997D2*
X1844972D1*
X1923432D2*
X2613669D1*
X2963740D2*
X3086379D1*
X3100036D2*
X4037105D1*
X4121332D2*
X4224094D1*
X425216Y1602690D2*
X826041D1*
X1753687D2*
X1846818D1*
X1921586D2*
X2610920D1*
X2963740D2*
X4046217D1*
X4112220D2*
X4224075D1*
X425216Y1592979D2*
X826041D1*
X1756878D2*
X1851624D1*
X1916780D2*
X2610151D1*
X2963740D2*
X4065210D1*
X4093246D2*
X4224075D1*
X425216Y1583268D2*
X826041D1*
X960691D2*
X1649506D1*
X1758051D2*
X1861255D1*
X1907169D2*
X2611285D1*
X2963740D2*
X4050081D1*
X4108356D2*
X4224075D1*
X425216Y1573556D2*
X1655638D1*
X1757320D2*
X2614419D1*
X2907261D2*
X4039316D1*
X4119121D2*
X4224055D1*
X425216Y1563845D2*
X1658310D1*
X1754648D2*
X2620032D1*
X2703413D2*
X4032972D1*
X4125465D2*
X4224055D1*
X425216Y1554134D2*
X1663347D1*
X1749611D2*
X2629452D1*
X2693993D2*
X4029320D1*
X4129117D2*
X4224055D1*
X425216Y1544423D2*
X1671748D1*
X1741211D2*
X2650117D1*
X2673328D2*
X4027743D1*
X4130694D2*
X4224055D1*
X425216Y1534711D2*
X1687819D1*
X1725140D2*
X4028070D1*
X4130367D2*
X4224036D1*
X425216Y1525000D2*
X4030319D1*
X4128118D2*
X4224036D1*
X425216Y1515289D2*
X4034798D1*
X4123639D2*
X4224036D1*
X425216Y1505577D2*
X826041D1*
X960691D2*
X2829109D1*
X2963740D2*
X4042353D1*
X4116103D2*
X4224017D1*
X425216Y1495866D2*
X826041D1*
X2963740D2*
X4052638D1*
X4105799D2*
X4224017D1*
X425216Y1486155D2*
X826041D1*
X2963740D2*
X4052638D1*
X4105799D2*
X4224017D1*
X425216Y1476444D2*
X826041D1*
X2963740D2*
X4052638D1*
X4105799D2*
X4223998D1*
X425216Y1466732D2*
X826041D1*
X2963740D2*
X4052638D1*
X4105799D2*
X4223998D1*
X425216Y1457021D2*
X826041D1*
X2963740D2*
X4052638D1*
X4105799D2*
X4223998D1*
X425216Y1447310D2*
X826041D1*
X2963740D2*
X4052638D1*
X4105799D2*
X4223998D1*
X425216Y1437598D2*
X826041D1*
X2963740D2*
X4052638D1*
X4105799D2*
X4223978D1*
X425216Y1427887D2*
X826041D1*
X2963740D2*
X4052638D1*
X4105799D2*
X4223978D1*
X425216Y1418176D2*
X826041D1*
X960691D2*
X2829109D1*
X2963740D2*
X4052638D1*
X4105799D2*
X4223978D1*
X425216Y1408465D2*
X2857848D1*
X2961798D2*
X4052638D1*
X4105799D2*
X4223959D1*
X425216Y1398753D2*
X2861789D1*
X2971506D2*
X4052638D1*
X4105799D2*
X4223959D1*
X425216Y1389042D2*
X2869575D1*
X2981214D2*
X4052638D1*
X4105799D2*
X4223959D1*
X425216Y1379331D2*
X2879283D1*
X2990941D2*
X4052638D1*
X4105799D2*
X4223959D1*
X425216Y1369619D2*
X2888991D1*
X3000649D2*
X4052638D1*
X4105799D2*
X4223940D1*
X425216Y1359908D2*
X2898699D1*
X3008954D2*
X4052638D1*
X4105799D2*
X4223940D1*
X425216Y1350197D2*
X1868944D1*
X1899460D2*
X2908407D1*
X3013299D2*
X4052638D1*
X4105799D2*
X4223940D1*
X425216Y1340486D2*
X1854930D1*
X1913474D2*
X2918114D1*
X3014836D2*
X4052638D1*
X4105799D2*
X4223921D1*
X425216Y1330774D2*
X1848471D1*
X1919933D2*
X2927842D1*
X3014856D2*
X4052638D1*
X4105799D2*
X4223921D1*
X425216Y1321063D2*
X1845453D1*
X1922951D2*
X2794526D1*
X2921525D2*
X2935320D1*
X3014856D2*
X4052638D1*
X4105799D2*
X4223921D1*
X425216Y1311352D2*
X769158D1*
X800654D2*
X1845049D1*
X1923355D2*
X2794526D1*
X2921525D2*
X2935320D1*
X3014856D2*
X3847214D1*
X3878652D2*
X4052638D1*
X4105799D2*
X4223902D1*
X425216Y1301640D2*
X751318D1*
X818513D2*
X1847183D1*
X1921221D2*
X2794526D1*
X2921525D2*
X2935320D1*
X3014856D2*
X3829355D1*
X3896530D2*
X4052638D1*
X4105799D2*
X4223902D1*
X425216Y1291929D2*
X742437D1*
X827375D2*
X1852373D1*
X1916031D2*
X2794526D1*
X2921525D2*
X2935320D1*
X3014856D2*
X3820474D1*
X3905392D2*
X4052638D1*
X4105799D2*
X4223902D1*
X425216Y1282218D2*
X737131D1*
X832681D2*
X1862831D1*
X1905573D2*
X2794526D1*
X2921525D2*
X2935320D1*
X3014856D2*
X3815168D1*
X3910698D2*
X4052638D1*
X4105799D2*
X4223902D1*
X425216Y1272507D2*
X734248D1*
X835564D2*
X2794526D1*
X2921525D2*
X2935320D1*
X3014856D2*
X3812265D1*
X3913601D2*
X4052638D1*
X4105799D2*
X4223882D1*
X425216Y1262795D2*
X733325D1*
X836487D2*
X2794526D1*
X2921525D2*
X2935320D1*
X3014856D2*
X3811362D1*
X3914504D2*
X4052638D1*
X4105799D2*
X4223882D1*
X425216Y1253084D2*
X734305D1*
X835507D2*
X2794526D1*
X2921525D2*
X2935320D1*
X3014856D2*
X3812342D1*
X3913543D2*
X4052638D1*
X4105799D2*
X4223882D1*
X425216Y1243373D2*
X737285D1*
X832527D2*
X2794526D1*
X2921525D2*
X2935320D1*
X3014856D2*
X3815302D1*
X3910563D2*
X4052638D1*
X4105799D2*
X4223863D1*
X425216Y1233661D2*
X742687D1*
X827125D2*
X2040131D1*
X2083334D2*
X2794526D1*
X2921525D2*
X2935320D1*
X3014856D2*
X3820704D1*
X3905162D2*
X4052638D1*
X4105799D2*
X4223863D1*
X425216Y1223950D2*
X751722D1*
X818090D2*
X1084849D1*
X1128110D2*
X2027520D1*
X2095926D2*
X2794526D1*
X2921525D2*
X2935320D1*
X3014856D2*
X3829739D1*
X3896146D2*
X4052638D1*
X4105799D2*
X4223863D1*
X425216Y1214239D2*
X770311D1*
X799501D2*
X1071662D1*
X1141297D2*
X2020830D1*
X2102616D2*
X2794526D1*
X2921525D2*
X2935320D1*
X3014856D2*
X3848309D1*
X3877556D2*
X4052638D1*
X4105799D2*
X4223844D1*
X425216Y1204528D2*
X755086D1*
X996966D2*
X1064587D1*
X1148391D2*
X2017216D1*
X2106230D2*
X2794526D1*
X2921525D2*
X2935320D1*
X3014856D2*
X3727104D1*
X3892743D2*
X4052638D1*
X4105799D2*
X4223844D1*
X425216Y1194816D2*
X744609D1*
X1008481D2*
X1060608D1*
X1152351D2*
X2015948D1*
X2107498D2*
X2794526D1*
X2921525D2*
X2935320D1*
X3014856D2*
X3715416D1*
X3903220D2*
X4052638D1*
X4105799D2*
X4223844D1*
X425216Y1185105D2*
X738439D1*
X1015017D2*
X1058936D1*
X1154024D2*
X2016813D1*
X2106653D2*
X2794526D1*
X2921525D2*
X2935320D1*
X3014856D2*
X3705708D1*
X3909410D2*
X4052638D1*
X4105799D2*
X4223844D1*
X425216Y1175394D2*
X734882D1*
X1018747D2*
X1059339D1*
X1153639D2*
X2019927D1*
X2103519D2*
X2794526D1*
X2921525D2*
X2935320D1*
X3014856D2*
X3696000D1*
X3912966D2*
X4052638D1*
X4105799D2*
X4223825D1*
X425216Y1165682D2*
X733402D1*
X1020284D2*
X1061838D1*
X1151121D2*
X2025925D1*
X2097521D2*
X2794526D1*
X2921525D2*
X2935320D1*
X3014856D2*
X3686292D1*
X3914427D2*
X4052638D1*
X4105799D2*
X4223825D1*
X425216Y1155971D2*
X733825D1*
X1020361D2*
X1066856D1*
X1146103D2*
X2036863D1*
X2086583D2*
X2794526D1*
X2921525D2*
X2935320D1*
X3014856D2*
X3676584D1*
X3914024D2*
X4052638D1*
X4105799D2*
X4223825D1*
X425216Y1146260D2*
X736170D1*
X1020361D2*
X1075641D1*
X1137318D2*
X2794526D1*
X2921525D2*
X2935320D1*
X3014856D2*
X3666857D1*
X3911678D2*
X4052638D1*
X4105799D2*
X4223805D1*
X425216Y1136549D2*
X740784D1*
X1020361D2*
X1095480D1*
X1117479D2*
X2041861D1*
X2081585D2*
X2641870D1*
X2681594D2*
X2794526D1*
X2921525D2*
X2935320D1*
X3014856D2*
X3657149D1*
X3907065D2*
X4052638D1*
X4105799D2*
X4223805D1*
X425216Y1126837D2*
X748512D1*
X1020361D2*
X1092212D1*
X1120747D2*
X1692221D1*
X1720737D2*
X2027712D1*
X2095734D2*
X2627722D1*
X2695743D2*
X2794526D1*
X2921525D2*
X2935320D1*
X3014856D2*
X3647441D1*
X3899337D2*
X4052638D1*
X4105799D2*
X4223805D1*
X425216Y1117126D2*
X762507D1*
X1020361D2*
X1074661D1*
X1138299D2*
X1674670D1*
X1738289D2*
X2020292D1*
X2103173D2*
X2620282D1*
X2703163D2*
X2794526D1*
X2921525D2*
X2935320D1*
X3014856D2*
X3639060D1*
X3885342D2*
X4052638D1*
X4105799D2*
X4223786D1*
X425216Y1107415D2*
X759758D1*
X810054D2*
X921140D1*
X1020361D2*
X1066298D1*
X1146661D2*
X1666307D1*
X1746670D2*
X2016101D1*
X2107364D2*
X2616091D1*
X2707354D2*
X2794526D1*
X2921525D2*
X2935320D1*
X3014856D2*
X3634042D1*
X3767520D2*
X3837813D1*
X3888053D2*
X4052638D1*
X4105799D2*
X4223786D1*
X425216Y1097703D2*
X747147D1*
X822665D2*
X921140D1*
X1020361D2*
X1061531D1*
X1151428D2*
X1661521D1*
X1751438D2*
X2014237D1*
X2109209D2*
X2614246D1*
X2709199D2*
X2935320D1*
X3014856D2*
X3631466D1*
X3757793D2*
X3825183D1*
X3900682D2*
X4052638D1*
X4105799D2*
X4223786D1*
X425216Y1087992D2*
X739957D1*
X829855D2*
X921140D1*
X1020361D2*
X1059224D1*
X1153754D2*
X1659214D1*
X1753744D2*
X2014467D1*
X2108998D2*
X2614457D1*
X2708988D2*
X2935320D1*
X3014856D2*
X3630871D1*
X3748085D2*
X3817994D1*
X3907872D2*
X4050792D1*
X4105799D2*
X4223786D1*
X425216Y1078281D2*
X735709D1*
X834103D2*
X921140D1*
X1020361D2*
X1058993D1*
X1153966D2*
X1659002D1*
X1753956D2*
X2016774D1*
X2106672D2*
X2616783D1*
X2706681D2*
X2935320D1*
X3014856D2*
X3630871D1*
X3738377D2*
X3813745D1*
X3912140D2*
X4041084D1*
X4105780D2*
X4223767D1*
X425216Y1068570D2*
X733652D1*
X836179D2*
X921140D1*
X1020361D2*
X1060858D1*
X1152101D2*
X1660848D1*
X1752110D2*
X2021561D1*
X2101904D2*
X2621551D1*
X2701894D2*
X2935320D1*
X3014856D2*
X3630871D1*
X3730072D2*
X3811669D1*
X3914197D2*
X4031377D1*
X4103473D2*
X4223767D1*
X425216Y1058858D2*
X733498D1*
X836314D2*
X921140D1*
X1020361D2*
X1065049D1*
X1147910D2*
X1665058D1*
X1747920D2*
X2029923D1*
X2093523D2*
X2629932D1*
X2693532D2*
X2935320D1*
X3014856D2*
X3630871D1*
X3730072D2*
X3811535D1*
X3914350D2*
X4021669D1*
X4096014D2*
X4223767D1*
X425216Y1049147D2*
X735247D1*
X834565D2*
X921140D1*
X1020361D2*
X1072488D1*
X1140471D2*
X1672478D1*
X1740480D2*
X2047513D1*
X2075933D2*
X2647522D1*
X2675942D2*
X2935320D1*
X3014856D2*
X3630871D1*
X3730072D2*
X3813284D1*
X3912582D2*
X4011961D1*
X4086306D2*
X4223748D1*
X425216Y1039436D2*
X739131D1*
X830681D2*
X921140D1*
X1020361D2*
X1086656D1*
X1126322D2*
X1686646D1*
X1726312D2*
X1820654D1*
X2639975D2*
X2935320D1*
X3014856D2*
X3630871D1*
X3730072D2*
X3813322D1*
X3912543D2*
X4002233D1*
X4076598D2*
X4223748D1*
X425216Y1029724D2*
X745782D1*
X824030D2*
X921140D1*
X1020361D2*
X1809293D1*
X2689591D2*
X2935320D1*
X3014856D2*
X3630871D1*
X3730072D2*
X3813322D1*
X3912543D2*
X3992525D1*
X4066871D2*
X4223748D1*
X425216Y1020013D2*
X757182D1*
X812630D2*
X921140D1*
X1020361D2*
X1681610D1*
X1731368D2*
X1799585D1*
X2699107D2*
X2935320D1*
X3014856D2*
X3621509D1*
X3730072D2*
X3813322D1*
X3912543D2*
X3982818D1*
X4057163D2*
X4223729D1*
X425216Y1010302D2*
X766082D1*
X840293D2*
X921140D1*
X1020361D2*
X1670671D1*
X1742287D2*
X1789877D1*
X2704393D2*
X2935320D1*
X3014856D2*
X3611801D1*
X3730072D2*
X3741253D1*
X3912543D2*
X3973110D1*
X4047455D2*
X4223729D1*
X425216Y1000591D2*
X750107D1*
X859997D2*
X921140D1*
X1020361D2*
X1664673D1*
X1838136D2*
X2616437D1*
X2707008D2*
X2935320D1*
X3014856D2*
X3602093D1*
X3912543D2*
X3963402D1*
X4037747D2*
X4223729D1*
X425216Y990879D2*
X741726D1*
X870051D2*
X921140D1*
X1020361D2*
X1661559D1*
X1828428D2*
X2616034D1*
X2707412D2*
X2935320D1*
X3014856D2*
X3592385D1*
X3912543D2*
X3953694D1*
X4028039D2*
X4223729D1*
X425216Y981168D2*
X736728D1*
X879759D2*
X921140D1*
X1020361D2*
X1660713D1*
X1818720D2*
X2617783D1*
X2705662D2*
X2935320D1*
X3014856D2*
X3300416D1*
X3912543D2*
X3943966D1*
X4018331D2*
X4223709D1*
X425216Y971457D2*
X734056D1*
X889467D2*
X921140D1*
X1020361D2*
X1661982D1*
X1809012D2*
X2621955D1*
X2701491D2*
X2935320D1*
X3014856D2*
X3285690D1*
X3913793D2*
X3934259D1*
X4008604D2*
X4223709D1*
X425216Y961745D2*
X733344D1*
X898733D2*
X921140D1*
X1020361D2*
X1665596D1*
X1747362D2*
X2629529D1*
X2693916D2*
X2935320D1*
X3014856D2*
X3277885D1*
X3914504D2*
X3924551D1*
X3998896D2*
X4223709D1*
X425216Y952034D2*
X734536D1*
X904750D2*
X921140D1*
X1020361D2*
X1672286D1*
X1740672D2*
X2644754D1*
X2678711D2*
X2935320D1*
X3014856D2*
X3273329D1*
X3693028D2*
X3703709D1*
X3989188D2*
X4223690D1*
X425216Y942323D2*
X737727D1*
X908095D2*
X921140D1*
X1020361D2*
X1684897D1*
X1728062D2*
X2935320D1*
X3014856D2*
X3271119D1*
X3683320D2*
X3703709D1*
X3979480D2*
X4223690D1*
X425216Y932612D2*
X743456D1*
X909306D2*
X921140D1*
X1020361D2*
X2038209D1*
X2085237D2*
X2638218D1*
X2685247D2*
X2935320D1*
X3014856D2*
X3270907D1*
X3673593D2*
X3703709D1*
X3969772D2*
X4223690D1*
X425216Y922900D2*
X753029D1*
X909325D2*
X921140D1*
X1020361D2*
X1086964D1*
X1125995D2*
X1686954D1*
X1726005D2*
X2026598D1*
X2096848D2*
X2626607D1*
X2696858D2*
X2935320D1*
X3014856D2*
X3272657D1*
X3663885D2*
X3703709D1*
X3960064D2*
X4223671D1*
X425216Y913189D2*
X774887D1*
X909325D2*
X921140D1*
X1020361D2*
X1073219D1*
X1139740D2*
X1673228D1*
X1739730D2*
X2020311D1*
X2103135D2*
X2620301D1*
X2703144D2*
X2935320D1*
X3014856D2*
X3276655D1*
X3654177D2*
X3703709D1*
X3802911D2*
X3852865D1*
X3950337D2*
X4223671D1*
X425216Y903478D2*
X753625D1*
X909325D2*
X921140D1*
X1020361D2*
X1066125D1*
X1146853D2*
X1666115D1*
X1746843D2*
X2016986D1*
X2106480D2*
X2616976D1*
X2706470D2*
X2788739D1*
X2927311D2*
X2935320D1*
X3014856D2*
X3283595D1*
X3657234D2*
X3703709D1*
X3802911D2*
X3831662D1*
X3940629D2*
X4223671D1*
X425216Y893766D2*
X743783D1*
X909325D2*
X921140D1*
X1020361D2*
X1062242D1*
X1150717D2*
X1662232D1*
X1750726D2*
X2015948D1*
X2107518D2*
X2615938D1*
X2707508D2*
X2788739D1*
X2927311D2*
X2935320D1*
X3657234D2*
X3703709D1*
X3802911D2*
X3821819D1*
X3930921D2*
X4223671D1*
X425216Y884055D2*
X737939D1*
X909325D2*
X921140D1*
X1020361D2*
X1060743D1*
X1152236D2*
X1660733D1*
X1752226D2*
X2017024D1*
X2106422D2*
X2617033D1*
X2706431D2*
X2788739D1*
X2927311D2*
X2935320D1*
X3657234D2*
X3703709D1*
X3802911D2*
X3815975D1*
X3921213D2*
X4223652D1*
X425216Y874344D2*
X734632D1*
X909325D2*
X921140D1*
X1020361D2*
X1061377D1*
X1151582D2*
X1661367D1*
X1751591D2*
X2020427D1*
X2103019D2*
X2620417D1*
X2703029D2*
X2788739D1*
X2927311D2*
X2935320D1*
X3657234D2*
X3703709D1*
X3802911D2*
X3812650D1*
X3913216D2*
X4223652D1*
X425216Y864633D2*
X733363D1*
X909325D2*
X921140D1*
X1020361D2*
X1064241D1*
X1148718D2*
X1664251D1*
X1748727D2*
X2026809D1*
X2096637D2*
X2626799D1*
X2696646D2*
X2788739D1*
X2927311D2*
X2935320D1*
X3657234D2*
X3703709D1*
X3802911D2*
X3811381D1*
X3914485D2*
X4223652D1*
X425216Y854921D2*
X733979D1*
X909325D2*
X921140D1*
X1020361D2*
X1069893D1*
X1143066D2*
X1669883D1*
X1743075D2*
X2038632D1*
X2084834D2*
X2638622D1*
X2684824D2*
X2788739D1*
X2927311D2*
X2936185D1*
X3657234D2*
X3703709D1*
X3802911D2*
X3811996D1*
X3913870D2*
X4223632D1*
X425216Y845210D2*
X736555D1*
X909325D2*
X921140D1*
X1020361D2*
X1080082D1*
X1132877D2*
X1680091D1*
X1732867D2*
X2788739D1*
X2927311D2*
X2939664D1*
X3657234D2*
X3703709D1*
X3802911D2*
X3814572D1*
X3911294D2*
X4223632D1*
X425216Y835499D2*
X741437D1*
X909325D2*
X921140D1*
X1020361D2*
X2044129D1*
X2079317D2*
X2644139D1*
X2679307D2*
X2780185D1*
X2927311D2*
X2946796D1*
X3657234D2*
X3703709D1*
X3802911D2*
X3819455D1*
X3906411D2*
X4223632D1*
X425216Y825787D2*
X749607D1*
X909325D2*
X921140D1*
X1020361D2*
X1095499D1*
X1117460D2*
X1695508D1*
X1717450D2*
X2029289D1*
X2094176D2*
X2629279D1*
X2694166D2*
X2770477D1*
X2927311D2*
X2963309D1*
X3657234D2*
X3703709D1*
X3802911D2*
X3827625D1*
X3898241D2*
X4223613D1*
X425216Y816076D2*
X764929D1*
X909325D2*
X921140D1*
X1020361D2*
X1076275D1*
X1136684D2*
X1676285D1*
X1736693D2*
X2021830D1*
X2101635D2*
X2621820D1*
X2701625D2*
X2760769D1*
X2927311D2*
X3518662D1*
X3657234D2*
X3703709D1*
X3802911D2*
X3842927D1*
X3882939D2*
X4223613D1*
X425216Y806365D2*
X757931D1*
X909325D2*
X921140D1*
X1020361D2*
X1067817D1*
X1145142D2*
X1667826D1*
X1745132D2*
X2017716D1*
X2105749D2*
X2617706D1*
X2705739D2*
X2751042D1*
X2927311D2*
X3518662D1*
X3657234D2*
X3703709D1*
X3802911D2*
X3835968D1*
X3889898D2*
X4223613D1*
X425216Y796654D2*
X746186D1*
X909325D2*
X921140D1*
X1020361D2*
X1063126D1*
X1149852D2*
X1663116D1*
X1749842D2*
X2016024D1*
X2107422D2*
X2616034D1*
X2707431D2*
X2741334D1*
X2927311D2*
X3518662D1*
X3657234D2*
X3703709D1*
X3802911D2*
X3824222D1*
X3901663D2*
X4223613D1*
X425216Y786942D2*
X739380D1*
X909325D2*
X921140D1*
X1020361D2*
X1060954D1*
X1152005D2*
X1660963D1*
X1752014D2*
X2016486D1*
X2106979D2*
X2616476D1*
X2706969D2*
X2731626D1*
X2927311D2*
X3518662D1*
X3657234D2*
X3703709D1*
X3802911D2*
X3817417D1*
X3908468D2*
X4223594D1*
X425216Y777231D2*
X735382D1*
X909325D2*
X921140D1*
X1020361D2*
X1060954D1*
X1152005D2*
X1660963D1*
X1751995D2*
X2016082D1*
X2104307D2*
X2619148D1*
X2704297D2*
X2721918D1*
X2927311D2*
X3518662D1*
X3657234D2*
X3703709D1*
X3802911D2*
X3813419D1*
X3912447D2*
X4223594D1*
X425216Y767520D2*
X733536D1*
X909325D2*
X921140D1*
X1020361D2*
X1063146D1*
X1150063D2*
X1663136D1*
X1749823D2*
X2006374D1*
X2098944D2*
X2624511D1*
X2698934D2*
X2712210D1*
X2927311D2*
X3518662D1*
X3657234D2*
X3703709D1*
X3802911D2*
X3811573D1*
X3914312D2*
X4223594D1*
X425216Y757808D2*
X733594D1*
X909325D2*
X921140D1*
X1020361D2*
X1067855D1*
X1159771D2*
X1667865D1*
X1745113D2*
X1996666D1*
X2089274D2*
X2634181D1*
X2689284D2*
X2702502D1*
X2927311D2*
X3518662D1*
X3657234D2*
X3703709D1*
X3802911D2*
X3811631D1*
X3914254D2*
X4223575D1*
X425216Y748097D2*
X735574D1*
X909325D2*
X921140D1*
X1020361D2*
X1076333D1*
X2044925D2*
X2692775D1*
X2927311D2*
X3518662D1*
X3657234D2*
X3703709D1*
X3802911D2*
X3813592D1*
X3912274D2*
X4223575D1*
X425216Y738386D2*
X739707D1*
X909325D2*
X921140D1*
X1020361D2*
X1095730D1*
X1117229D2*
X1121220D1*
X2035217D2*
X2683067D1*
X2927311D2*
X3518662D1*
X3657234D2*
X3703709D1*
X3802911D2*
X3817725D1*
X3908141D2*
X4223575D1*
X425216Y728675D2*
X746724D1*
X909325D2*
X921140D1*
X1020361D2*
X1130928D1*
X2025509D2*
X2673359D1*
X2927311D2*
X3518662D1*
X3657234D2*
X3703709D1*
X3802911D2*
X3824741D1*
X3901125D2*
X4223556D1*
X425216Y718963D2*
X758950D1*
X909325D2*
X921140D1*
X1020361D2*
X1141597D1*
X2014821D2*
X2663651D1*
X2927311D2*
X3518662D1*
X3657234D2*
X3703709D1*
X3802911D2*
X3836968D1*
X3888898D2*
X4223556D1*
X425216Y709252D2*
X810104D1*
X909325D2*
X921140D1*
X1020361D2*
X2653943D1*
X2927311D2*
X3518662D1*
X3657234D2*
X3703709D1*
X3802911D2*
X4223556D1*
X425216Y699541D2*
X810104D1*
X909325D2*
X921140D1*
X1020361D2*
X2644235D1*
X2783710D2*
X2788729D1*
X2927311D2*
X3518662D1*
X3657234D2*
X3703709D1*
X3802911D2*
X4223556D1*
X425216Y689829D2*
X810104D1*
X909325D2*
X921140D1*
X1020361D2*
X2634508D1*
X2774002D2*
X2788739D1*
X2927311D2*
X3518662D1*
X3657234D2*
X3703709D1*
X3802911D2*
X4223536D1*
X425216Y680118D2*
X810104D1*
X909325D2*
X921140D1*
X1020361D2*
X2624800D1*
X2764294D2*
X2788739D1*
X2927311D2*
X3518662D1*
X3657234D2*
X3703709D1*
X3802911D2*
X4223536D1*
X425216Y670407D2*
X810104D1*
X909325D2*
X921140D1*
X1020361D2*
X2615092D1*
X2754586D2*
X3703709D1*
X3802911D2*
X4223536D1*
X425216Y660696D2*
X810104D1*
X909325D2*
X921140D1*
X1020361D2*
X2605384D1*
X2744878D2*
X3703709D1*
X3802911D2*
X4223517D1*
X425216Y650984D2*
X810104D1*
X909325D2*
X921140D1*
X1020361D2*
X2595676D1*
X2735170D2*
X3703709D1*
X3802911D2*
X4223517D1*
X425216Y641273D2*
X810104D1*
X909325D2*
X921140D1*
X1020361D2*
X2585949D1*
X2725443D2*
X3703709D1*
X3802911D2*
X4223517D1*
X425216Y631562D2*
X810104D1*
X909325D2*
X921140D1*
X1020361D2*
X2576241D1*
X2715735D2*
X3703709D1*
X3802911D2*
X4223498D1*
X425216Y621850D2*
X810104D1*
X909325D2*
X921140D1*
X1020361D2*
X2566533D1*
X2706027D2*
X3703709D1*
X3802911D2*
X4223498D1*
X425216Y612139D2*
X810104D1*
X909325D2*
X921140D1*
X1020361D2*
X2556825D1*
X2696319D2*
X3703709D1*
X3802911D2*
X4223498D1*
X425216Y602428D2*
X810104D1*
X909325D2*
X921140D1*
X1020361D2*
X2547117D1*
X2686612D2*
X3703709D1*
X3802911D2*
X4223498D1*
X425216Y592717D2*
X479400D1*
X549766D2*
X810104D1*
X909325D2*
X921140D1*
X2676904D2*
X3703709D1*
X3802911D2*
X4100447D1*
X4172813D2*
X4223479D1*
X425216Y583005D2*
X459080D1*
X570085D2*
X810104D1*
X909325D2*
X921140D1*
X2667176D2*
X3703709D1*
X3802911D2*
X4080570D1*
X4192709D2*
X4223479D1*
X425216Y573294D2*
X445893D1*
X583292D2*
X810104D1*
X909325D2*
X921140D1*
X2657468D2*
X3703709D1*
X3802911D2*
X4067517D1*
X4205743D2*
X4223479D1*
X425216Y563583D2*
X436069D1*
X593115D2*
X810104D1*
X909325D2*
X921140D1*
X2647760D2*
X3703709D1*
X3802911D2*
X4057809D1*
X4215470D2*
X4223459D1*
X425216Y553871D2*
X428485D1*
X600709D2*
X810104D1*
X2638053D2*
X3694462D1*
X3802911D2*
X4050273D1*
X606649Y544160D2*
X810104D1*
X2628345D2*
X3684735D1*
X3802911D2*
X4044372D1*
X611262Y534449D2*
X810854D1*
X2618617D2*
X3675027D1*
X3802161D2*
X4039816D1*
X614703Y524738D2*
X813661D1*
X2608909D2*
X3665319D1*
X3799354D2*
X4036413D1*
X617106Y515026D2*
X818947D1*
X3794068D2*
X4034049D1*
X618548Y505315D2*
X827636D1*
X3785398D2*
X4032645D1*
X619048Y495604D2*
X837344D1*
X3775671D2*
X4032184D1*
X618644Y485892D2*
X847052D1*
X3765963D2*
X4032607D1*
X617318Y476181D2*
X856760D1*
X3756255D2*
X4033972D1*
X615030Y466470D2*
X866468D1*
X3746547D2*
X4036298D1*
X611705Y456759D2*
X876176D1*
X3736839D2*
X4039662D1*
X607245Y447047D2*
X885903D1*
X3727131D2*
X4044179D1*
X601458Y437336D2*
X895611D1*
X3717404D2*
X4050004D1*
X594057Y427625D2*
X907972D1*
X3705043D2*
X4057463D1*
X2800430Y1328085D2*
X2920548D1*
Y1104936D1*
X2795509D1*
Y1328085D1*
X2800430D1*
X2926336Y775286D2*
Y677062D1*
X2789721D1*
Y706532D1*
X2601957Y518763D1*
X3660326Y518767D1*
X3704693Y563125D1*
X3704687Y962970D1*
X3704415Y964409D1*
X3652176Y912170D1*
X3656257Y912180D1*
Y677062D1*
X3519643D1*
Y824259D1*
X2975093Y824254D1*
X2969026Y824732D1*
X2963109Y826152D1*
X2957487Y828481D1*
X2952299Y831661D1*
X2947671Y835613D1*
X2943719Y840240D1*
X2940540Y845429D1*
X2938211Y851051D1*
X2936791Y856968D1*
X2936313Y863034D1*
Y1323268D1*
X2869003Y1390590D1*
X2865051Y1395218D1*
X2861872Y1400406D1*
X2859543Y1406028D1*
X2858714Y1408971D1*
X2854496Y1410334D1*
X2830086D1*
Y1420196D1*
X2490286Y1420177D1*
X2477706Y1420080D1*
X959708D1*
Y1410237D1*
X827031D1*
Y1507481D1*
X959708D1*
Y1497658D1*
X2484900Y1497639D1*
X2497488Y1497736D1*
X2830077D1*
X2830086Y1507579D1*
X2962764D1*
Y1410334D1*
X2958938D1*
X3002514Y1366765D1*
X3006466Y1362138D1*
X3009646Y1356949D1*
X3011974Y1351327D1*
X3013395Y1345410D1*
X3013872Y1339332D1*
Y901832D1*
X3286189Y901814D1*
X3283387Y904817D1*
X3281023Y907816D1*
X3278902Y910990D1*
X3277037Y914321D1*
X3275438Y917788D1*
X3274117Y921370D1*
X3273081Y925044D1*
X3272336Y928789D1*
X3271887Y932580D1*
X3271737Y936395D1*
X3271887Y940210D1*
X3272336Y944001D1*
X3273081Y947746D1*
X3274117Y951420D1*
X3275438Y955002D1*
X3277037Y958469D1*
X3278902Y961800D1*
X3281023Y964974D1*
X3283387Y967973D1*
X3285978Y970776D1*
X3288782Y973368D1*
X3291780Y975731D1*
X3294954Y977852D1*
X3298285Y979718D1*
X3301752Y981316D1*
X3305334Y982637D1*
X3309009Y983674D1*
X3312753Y984419D1*
X3316544Y984867D1*
X3325280Y985017D1*
X3587511D1*
X3631858Y1029376D1*
X3631851Y1090121D1*
X3632001Y1093936D1*
X3632450Y1097727D1*
X3633195Y1101471D1*
X3634231Y1105146D1*
X3635552Y1108728D1*
X3637151Y1112195D1*
X3639016Y1115526D1*
X3641137Y1118700D1*
X3643501Y1121698D1*
X3649572Y1127982D1*
X3718927Y1197336D1*
X3721731Y1199928D1*
X3724729Y1202292D1*
X3727903Y1204413D1*
X3731234Y1206278D1*
X3734701Y1207876D1*
X3738283Y1209198D1*
X3741957Y1210234D1*
X3745702Y1210979D1*
X3749493Y1211428D1*
X3758229Y1211577D1*
X3848946D1*
X3855252Y1212950D1*
X3851125Y1213763D1*
X3847302Y1214841D1*
X3843575Y1216216D1*
X3839968Y1217879D1*
X3836502Y1219820D1*
X3833199Y1222027D1*
X3830079Y1224486D1*
X3827162Y1227182D1*
X3824466Y1230099D1*
X3822007Y1233219D1*
X3819800Y1236522D1*
X3817859Y1239988D1*
X3816196Y1243595D1*
X3814821Y1247322D1*
X3813743Y1251145D1*
X3812968Y1255041D1*
X3812501Y1258986D1*
X3812345Y1262955D1*
X3812501Y1266925D1*
X3812968Y1270869D1*
X3813743Y1274766D1*
X3814821Y1278589D1*
X3816196Y1282316D1*
X3817859Y1285923D1*
X3819800Y1289389D1*
X3822007Y1292692D1*
X3824466Y1295811D1*
X3827162Y1298728D1*
X3830079Y1301425D1*
X3833199Y1303884D1*
X3836502Y1306091D1*
X3839968Y1308032D1*
X3843575Y1309695D1*
X3847302Y1311070D1*
X3851125Y1312148D1*
X3855021Y1312923D1*
X3858966Y1313390D1*
X3862935Y1313546D1*
X3866905Y1313390D1*
X3870849Y1312923D1*
X3874745Y1312148D1*
X3878569Y1311070D1*
X3882296Y1309695D1*
X3885903Y1308032D1*
X3889369Y1306091D1*
X3892672Y1303884D1*
X3895791Y1301425D1*
X3898708Y1298728D1*
X3901405Y1295811D1*
X3903864Y1292692D1*
X3906071Y1289389D1*
X3908012Y1285923D1*
X3909675Y1282316D1*
X3911050Y1278589D1*
X3912128Y1274766D1*
X3912903Y1270869D1*
X3913370Y1266925D1*
X3913526Y1262955D1*
X3913370Y1258986D1*
X3912903Y1255041D1*
X3912128Y1251145D1*
X3911050Y1247322D1*
X3909675Y1243595D1*
X3908012Y1239988D1*
X3906071Y1236522D1*
X3903864Y1233219D1*
X3901405Y1230099D1*
X3898708Y1227182D1*
X3895791Y1224486D1*
X3892672Y1222027D1*
X3889369Y1219820D1*
X3885903Y1217879D1*
X3882296Y1216216D1*
X3878569Y1214841D1*
X3874745Y1213763D1*
X3870849Y1212923D1*
X3874745Y1212148D1*
X3878569Y1211070D1*
X3882296Y1209695D1*
X3885903Y1208032D1*
X3889369Y1206091D1*
X3892672Y1203884D1*
X3895791Y1201425D1*
X3898708Y1198728D1*
X3901405Y1195811D1*
X3903864Y1192692D1*
X3906071Y1189389D1*
X3908012Y1185923D1*
X3909675Y1182316D1*
X3911050Y1178589D1*
X3912128Y1174766D1*
X3912903Y1170869D1*
X3913370Y1166925D1*
X3913526Y1162955D1*
X3913370Y1158986D1*
X3912903Y1155041D1*
X3912128Y1151145D1*
X3911050Y1147322D1*
X3909675Y1143595D1*
X3908012Y1139988D1*
X3906071Y1136522D1*
X3903864Y1133219D1*
X3901405Y1130099D1*
X3898708Y1127182D1*
X3895791Y1124486D1*
X3892672Y1122027D1*
X3889369Y1119820D1*
X3885903Y1117879D1*
X3882296Y1116216D1*
X3878569Y1114841D1*
X3874745Y1113763D1*
X3870849Y1112923D1*
X3874745Y1112148D1*
X3878569Y1111070D1*
X3882296Y1109695D1*
X3885903Y1108032D1*
X3889369Y1106091D1*
X3892672Y1103884D1*
X3895791Y1101425D1*
X3898708Y1098728D1*
X3901405Y1095811D1*
X3903864Y1092692D1*
X3906071Y1089389D1*
X3908012Y1085923D1*
X3909675Y1082316D1*
X3911050Y1078589D1*
X3912128Y1074766D1*
X3912903Y1070869D1*
X3913370Y1066925D1*
X3913526Y1062955D1*
X3913370Y1058986D1*
X3912903Y1055041D1*
X3911559Y1049129D1*
X3911557Y976929D1*
X3912903Y970869D1*
X3913370Y966925D1*
X3913526Y962955D1*
X3913370Y958986D1*
X3912903Y955041D1*
X3912128Y951145D1*
X3911012Y947220D1*
X4053618Y1089829D1*
X4053629Y1497605D1*
X4049484Y1500304D1*
X4046364Y1502763D1*
X4043447Y1505459D1*
X4040751Y1508376D1*
X4038292Y1511496D1*
X4036085Y1514799D1*
X4034144Y1518265D1*
X4032481Y1521872D1*
X4031106Y1525599D1*
X4030027Y1529422D1*
X4029252Y1533318D1*
X4028786Y1537263D1*
X4028630Y1541232D1*
X4028786Y1545202D1*
X4029252Y1549146D1*
X4030027Y1553042D1*
X4031106Y1556866D1*
X4032481Y1560592D1*
X4034144Y1564200D1*
X4036085Y1567666D1*
X4038292Y1570969D1*
X4040751Y1574088D1*
X4043447Y1577005D1*
X4046364Y1579702D1*
X4049484Y1582161D1*
X4052787Y1584368D1*
X4056252Y1586309D1*
X4059860Y1587972D1*
X4063587Y1589347D1*
X4067410Y1590425D1*
X4071306Y1591200D1*
X4074095Y1591530D1*
X4067410Y1592669D1*
X4063587Y1593748D1*
X4059860Y1595123D1*
X4056252Y1596786D1*
X4052787Y1598727D1*
X4049484Y1600934D1*
X4046364Y1603393D1*
X4043447Y1606089D1*
X4040751Y1609006D1*
X4038292Y1612126D1*
X4036085Y1615429D1*
X4034144Y1618895D1*
X4032481Y1622502D1*
X4031106Y1626229D1*
X4030027Y1630052D1*
X4029252Y1633948D1*
X4028786Y1637893D1*
X4028630Y1641862D1*
X4028786Y1645831D1*
X4029252Y1649776D1*
X4030027Y1653672D1*
X4031106Y1657496D1*
X4032481Y1661222D1*
X4034144Y1664830D1*
X4036085Y1668296D1*
X4038292Y1671599D1*
X4040751Y1674718D1*
X4043447Y1677635D1*
X4046364Y1680332D1*
X4049484Y1682791D1*
X4052787Y1684998D1*
X4056252Y1686939D1*
X4059860Y1688602D1*
X4063587Y1689977D1*
X4067410Y1691055D1*
X4071306Y1691830D1*
X4075251Y1692297D1*
X4079220Y1692453D1*
X4083189Y1692297D1*
X4087134Y1691830D1*
X4091030Y1691055D1*
X4094853Y1689977D1*
X4098580Y1688602D1*
X4102188Y1686939D1*
X4105654Y1684998D1*
X4108957Y1682791D1*
X4112076Y1680332D1*
X4114993Y1677635D1*
X4117689Y1674718D1*
X4120149Y1671599D1*
X4122356Y1668296D1*
X4124297Y1664830D1*
X4125960Y1661222D1*
X4127335Y1657496D1*
X4128413Y1653672D1*
X4129188Y1649776D1*
X4129655Y1645831D1*
X4129811Y1641862D1*
X4129655Y1637893D1*
X4129188Y1633948D1*
X4128413Y1630052D1*
X4127335Y1626229D1*
X4125960Y1622502D1*
X4124297Y1618895D1*
X4122356Y1615429D1*
X4120149Y1612126D1*
X4117689Y1609006D1*
X4114993Y1606089D1*
X4112076Y1603393D1*
X4108957Y1600934D1*
X4105654Y1598727D1*
X4102188Y1596786D1*
X4098580Y1595123D1*
X4094853Y1593748D1*
X4091030Y1592669D1*
X4087134Y1591895D1*
X4084345Y1591564D1*
X4091030Y1590425D1*
X4094853Y1589347D1*
X4098580Y1587972D1*
X4102188Y1586309D1*
X4105654Y1584368D1*
X4108957Y1582161D1*
X4112076Y1579702D1*
X4114993Y1577005D1*
X4117689Y1574088D1*
X4120149Y1570969D1*
X4122356Y1567666D1*
X4124297Y1564200D1*
X4125960Y1560592D1*
X4127335Y1556866D1*
X4128413Y1553042D1*
X4129188Y1549146D1*
X4129655Y1545202D1*
X4129811Y1541232D1*
X4129655Y1537263D1*
X4129188Y1533318D1*
X4128413Y1529422D1*
X4127335Y1525599D1*
X4125960Y1521872D1*
X4124297Y1518265D1*
X4122356Y1514799D1*
X4120149Y1511496D1*
X4117689Y1508376D1*
X4114993Y1505459D1*
X4112076Y1502763D1*
X4108957Y1500304D1*
X4104801Y1497619D1*
X4104811Y1079240D1*
X4104496Y1075237D1*
X4103558Y1071332D1*
X4102022Y1067622D1*
X4099923Y1064198D1*
X4097315Y1061145D1*
X3911891Y875720D1*
X3912903Y870869D1*
X3913370Y866925D1*
X3913526Y862955D1*
X3913370Y858986D1*
X3912903Y855041D1*
X3912128Y851145D1*
X3911050Y847322D1*
X3909675Y843595D1*
X3908012Y839988D1*
X3906071Y836522D1*
X3903864Y833219D1*
X3901405Y830099D1*
X3898708Y827182D1*
X3895791Y824486D1*
X3892672Y822027D1*
X3889369Y819820D1*
X3885903Y817879D1*
X3882296Y816216D1*
X3878569Y814841D1*
X3874745Y813763D1*
X3870849Y812923D1*
X3874745Y812148D1*
X3878569Y811070D1*
X3882296Y809695D1*
X3885903Y808032D1*
X3889369Y806091D1*
X3892672Y803884D1*
X3895791Y801425D1*
X3898708Y798728D1*
X3901405Y795811D1*
X3903864Y792692D1*
X3906071Y789389D1*
X3908012Y785923D1*
X3909675Y782316D1*
X3911050Y778589D1*
X3912128Y774766D1*
X3912903Y770869D1*
X3913370Y766925D1*
X3913526Y762955D1*
X3913370Y758986D1*
X3912903Y755041D1*
X3912128Y751145D1*
X3911050Y747322D1*
X3909675Y743595D1*
X3908012Y739988D1*
X3906071Y736522D1*
X3903864Y733219D1*
X3901405Y730099D1*
X3898708Y727182D1*
X3895791Y724486D1*
X3892672Y722027D1*
X3889369Y719820D1*
X3885903Y717879D1*
X3882296Y716216D1*
X3878569Y714841D1*
X3874745Y713763D1*
X3870849Y712988D1*
X3866905Y712521D1*
X3862935Y712365D1*
X3858966Y712521D1*
X3855021Y712988D1*
X3851125Y713763D1*
X3847302Y714841D1*
X3843575Y716216D1*
X3839968Y717879D1*
X3836502Y719820D1*
X3833199Y722027D1*
X3830079Y724486D1*
X3827162Y727182D1*
X3824466Y730099D1*
X3822007Y733219D1*
X3819800Y736522D1*
X3817859Y739988D1*
X3816196Y743595D1*
X3814821Y747322D1*
X3813743Y751145D1*
X3812968Y755041D1*
X3812501Y758986D1*
X3812345Y762955D1*
X3812501Y766925D1*
X3812968Y770869D1*
X3813743Y774766D1*
X3814821Y778589D1*
X3816196Y782316D1*
X3817859Y785923D1*
X3819800Y789389D1*
X3822007Y792692D1*
X3824466Y795811D1*
X3827162Y798728D1*
X3830079Y801425D1*
X3833199Y803884D1*
X3836502Y806091D1*
X3839968Y808032D1*
X3843575Y809695D1*
X3847302Y811070D1*
X3851125Y812148D1*
X3855021Y812988D1*
X3851125Y813763D1*
X3847302Y814841D1*
X3843575Y816216D1*
X3839968Y817879D1*
X3836502Y819820D1*
X3833199Y822027D1*
X3830079Y824486D1*
X3827162Y827182D1*
X3824466Y830099D1*
X3822007Y833219D1*
X3819800Y836522D1*
X3817859Y839988D1*
X3816196Y843595D1*
X3814821Y847322D1*
X3813743Y851145D1*
X3812968Y855041D1*
X3812501Y858986D1*
X3812345Y862955D1*
X3812501Y866925D1*
X3812968Y870869D1*
X3813743Y874766D1*
X3814821Y878589D1*
X3816196Y882316D1*
X3817859Y885923D1*
X3819800Y889389D1*
X3822007Y892692D1*
X3824466Y895811D1*
X3827162Y898728D1*
X3830079Y901425D1*
X3833199Y903884D1*
X3836502Y906091D1*
X3839968Y908032D1*
X3843575Y909695D1*
X3847302Y911070D1*
X3851125Y912148D1*
X3855021Y912988D1*
X3849109Y914331D1*
X3801939Y914333D1*
X3801930Y542977D1*
X3801780Y539162D1*
X3801332Y535371D1*
X3800587Y531627D1*
X3799550Y527952D1*
X3798229Y524370D1*
X3796630Y520903D1*
X3794765Y517572D1*
X3792644Y514398D1*
X3790280Y511400D1*
X3784209Y505117D1*
X3714854Y435763D1*
X3712051Y433172D1*
X3709053Y430808D1*
X3705878Y428687D1*
X3702547Y426822D1*
X3699080Y425223D1*
X3695498Y423902D1*
X3690067Y422244D1*
X4063448D1*
X4058576Y427480D1*
X4052477Y435201D1*
X4047139Y443466D1*
X4042611Y452201D1*
X4038932Y461326D1*
X4036137Y470759D1*
X4034250Y480416D1*
X4033289Y490207D1*
X4033262Y500046D1*
X4034170Y509843D1*
X4036004Y519509D1*
X4038748Y528958D1*
X4042377Y538103D1*
X4046858Y546862D1*
X4052151Y555156D1*
X4058207Y562910D1*
X4064972Y570054D1*
X4072386Y576522D1*
X4080380Y582258D1*
X4088883Y587208D1*
X4097817Y591329D1*
X4107103Y594582D1*
X4116655Y596938D1*
X4126388Y598377D1*
X4136214Y598885D1*
X4146043Y598457D1*
X4155788Y597098D1*
X4165359Y594820D1*
X4174671Y591642D1*
X4183639Y587595D1*
X4192181Y582714D1*
X4200222Y577044D1*
X4207688Y570636D1*
X4214512Y563548D1*
X4220631Y555844D1*
X4224448Y550097D1*
X4225410Y2182395D1*
X4223997Y2210207D1*
X4216064Y2233462D1*
X4202051Y2253660D1*
X4183034Y2269239D1*
X4160474Y2279002D1*
X4133993Y2282478D1*
X516190Y2282480D1*
X487844Y2277689D1*
X463578Y2265809D1*
X443694Y2247532D1*
X429816Y2224362D1*
X423088Y2198206D1*
X424228Y2166662D1*
X424236Y545492D1*
X427358Y550718D1*
X433039Y558751D1*
X439458Y566208D1*
X446555Y573022D1*
X454267Y579131D1*
X462525Y584480D1*
X471254Y589020D1*
X480374Y592711D1*
X489804Y595519D1*
X499457Y597419D1*
X509248Y598394D1*
X519086Y598434D1*
X528884Y597539D1*
X538553Y595718D1*
X548005Y592987D1*
X557155Y589371D1*
X565921Y584902D1*
X574222Y579621D1*
X581984Y573575D1*
X589137Y566819D1*
X595616Y559414D1*
X601362Y551428D1*
X606324Y542932D1*
X610456Y534003D1*
X613722Y524722D1*
X616092Y515173D1*
X617544Y505442D1*
X618065Y495617D1*
X617950Y490134D1*
X617015Y480340D1*
X615155Y470679D1*
X612385Y461238D1*
X608731Y452103D1*
X604227Y443356D1*
X598911Y435076D1*
X592834Y427339D1*
X588073Y422240D1*
X924184Y422244D1*
X917519Y423902D1*
X913937Y425223D1*
X910470Y426822D1*
X907139Y428687D1*
X903965Y430808D1*
X900967Y433172D1*
X894683Y439243D1*
X825329Y508598D1*
X822737Y511401D1*
X820373Y514400D1*
X818252Y517574D1*
X816387Y520905D1*
X814789Y524372D1*
X813467Y527954D1*
X812431Y531628D1*
X811686Y535373D1*
X811237Y539164D1*
X811087Y547900D1*
Y719664D1*
X807874Y717888D1*
X804267Y716225D1*
X800540Y714850D1*
X796717Y713772D1*
X792821Y712997D1*
X788876Y712530D1*
X784906Y712374D1*
X780937Y712530D1*
X776992Y712997D1*
X773096Y713772D1*
X769273Y714850D1*
X765546Y716225D1*
X761939Y717888D1*
X758473Y719829D1*
X755170Y722036D1*
X752051Y724495D1*
X749134Y727192D1*
X746437Y730109D1*
X743978Y733228D1*
X741771Y736531D1*
X739830Y739997D1*
X738167Y743604D1*
X736792Y747331D1*
X735714Y751154D1*
X734939Y755050D1*
X734472Y758995D1*
X734316Y762965D1*
X734472Y766934D1*
X734939Y770879D1*
X735714Y774775D1*
X736792Y778598D1*
X738167Y782325D1*
X739830Y785932D1*
X741771Y789398D1*
X743978Y792701D1*
X746437Y795821D1*
X749134Y798737D1*
X752051Y801434D1*
X755170Y803893D1*
X758473Y806100D1*
X761939Y808041D1*
X765546Y809704D1*
X769273Y811079D1*
X773096Y812157D1*
X776992Y812997D1*
X773096Y813772D1*
X769273Y814850D1*
X765546Y816225D1*
X761939Y817888D1*
X758473Y819829D1*
X755170Y822036D1*
X752051Y824495D1*
X749134Y827192D1*
X746437Y830109D1*
X743978Y833228D1*
X741771Y836531D1*
X739830Y839997D1*
X738167Y843604D1*
X736792Y847331D1*
X735714Y851154D1*
X734939Y855050D1*
X734472Y858995D1*
X734316Y862965D1*
X734472Y866934D1*
X734939Y870879D1*
X735714Y874775D1*
X736792Y878598D1*
X738167Y882325D1*
X739830Y885932D1*
X741771Y889398D1*
X743978Y892701D1*
X746437Y895821D1*
X749134Y898737D1*
X752051Y901434D1*
X755170Y903893D1*
X758473Y906100D1*
X761939Y908041D1*
X765546Y909704D1*
X769273Y911079D1*
X773096Y912157D1*
X776992Y912997D1*
X773096Y913772D1*
X769273Y914850D1*
X765546Y916225D1*
X761939Y917888D1*
X758473Y919829D1*
X755170Y922036D1*
X752051Y924495D1*
X749134Y927192D1*
X746437Y930109D1*
X743978Y933228D1*
X741771Y936531D1*
X739830Y939997D1*
X738167Y943604D1*
X736792Y947331D1*
X735714Y951154D1*
X734939Y955050D1*
X734472Y958995D1*
X734316Y962965D1*
X734472Y966934D1*
X734939Y970879D1*
X735714Y974775D1*
X736792Y978598D1*
X738167Y982325D1*
X739830Y985932D1*
X741771Y989398D1*
X743978Y992701D1*
X746437Y995821D1*
X749134Y998737D1*
X752051Y1001434D1*
X755170Y1003893D1*
X758473Y1006100D1*
X761939Y1008041D1*
X765546Y1009704D1*
X769273Y1011079D1*
X773096Y1012157D1*
X776992Y1012997D1*
X773096Y1013772D1*
X769273Y1014850D1*
X765546Y1016225D1*
X761939Y1017888D1*
X758473Y1019829D1*
X755170Y1022036D1*
X752051Y1024495D1*
X749134Y1027192D1*
X746437Y1030109D1*
X743978Y1033228D1*
X741771Y1036531D1*
X739830Y1039997D1*
X738167Y1043604D1*
X736792Y1047331D1*
X735714Y1051154D1*
X734939Y1055050D1*
X734472Y1058995D1*
X734316Y1062965D1*
X734472Y1066934D1*
X734939Y1070879D1*
X735714Y1074775D1*
X736792Y1078598D1*
X738167Y1082325D1*
X739830Y1085932D1*
X741771Y1089398D1*
X743978Y1092701D1*
X746437Y1095821D1*
X749134Y1098737D1*
X752051Y1101434D1*
X755170Y1103893D1*
X758473Y1106100D1*
X761939Y1108041D1*
X765546Y1109704D1*
X769273Y1111079D1*
X773096Y1112157D1*
X776992Y1112997D1*
X773096Y1113772D1*
X769273Y1114850D1*
X765546Y1116225D1*
X761939Y1117888D1*
X758473Y1119829D1*
X755170Y1122036D1*
X752051Y1124495D1*
X749134Y1127192D1*
X746437Y1130109D1*
X743978Y1133228D1*
X741771Y1136531D1*
X739830Y1139997D1*
X738167Y1143604D1*
X736792Y1147331D1*
X735714Y1151154D1*
X734939Y1155050D1*
X734472Y1158995D1*
X734316Y1162965D1*
X734472Y1166934D1*
X734939Y1170879D1*
X735714Y1174775D1*
X736792Y1178598D1*
X738167Y1182325D1*
X739830Y1185932D1*
X741771Y1189398D1*
X743978Y1192701D1*
X746437Y1195821D1*
X749134Y1198737D1*
X752051Y1201434D1*
X755170Y1203893D1*
X758473Y1206100D1*
X761939Y1208041D1*
X765546Y1209704D1*
X769273Y1211079D1*
X773096Y1212157D1*
X776992Y1212997D1*
X773096Y1213772D1*
X769273Y1214850D1*
X765546Y1216225D1*
X761939Y1217888D1*
X758473Y1219829D1*
X755170Y1222036D1*
X752051Y1224495D1*
X749134Y1227192D1*
X746437Y1230109D1*
X743978Y1233228D1*
X741771Y1236531D1*
X739830Y1239997D1*
X738167Y1243604D1*
X736792Y1247331D1*
X735714Y1251154D1*
X734939Y1255050D1*
X734472Y1258995D1*
X734316Y1262965D1*
X734472Y1266934D1*
X734939Y1270879D1*
X735714Y1274775D1*
X736792Y1278598D1*
X738167Y1282325D1*
X739830Y1285932D1*
X741771Y1289398D1*
X743978Y1292701D1*
X746437Y1295821D1*
X749134Y1298737D1*
X752051Y1301434D1*
X755170Y1303893D1*
X758473Y1306100D1*
X761939Y1308041D1*
X765546Y1309704D1*
X769273Y1311079D1*
X773096Y1312157D1*
X776992Y1312932D1*
X780937Y1313399D1*
X784906Y1313555D1*
X788876Y1313399D1*
X792821Y1312932D1*
X796717Y1312157D1*
X800540Y1311079D1*
X804267Y1309704D1*
X807874Y1308041D1*
X811340Y1306100D1*
X814643Y1303893D1*
X817762Y1301434D1*
X820679Y1298737D1*
X823376Y1295821D1*
X825835Y1292701D1*
X828042Y1289398D1*
X829983Y1285932D1*
X831646Y1282325D1*
X833021Y1278598D1*
X834099Y1274775D1*
X834874Y1270879D1*
X835341Y1266934D1*
X835497Y1262965D1*
X835341Y1258995D1*
X834874Y1255050D1*
X834099Y1251154D1*
X833021Y1247331D1*
X831646Y1243604D1*
X829983Y1239997D1*
X828042Y1236531D1*
X825835Y1233228D1*
X823376Y1230109D1*
X820679Y1227192D1*
X817762Y1224495D1*
X814643Y1222036D1*
X811340Y1219829D1*
X807874Y1217888D1*
X804267Y1216225D1*
X800540Y1214850D1*
X796717Y1213772D1*
X792821Y1212932D1*
X798733Y1211589D1*
X970753Y1211587D1*
X974568Y1211437D1*
X978359Y1210988D1*
X982104Y1210243D1*
X985778Y1209207D1*
X989360Y1207886D1*
X992827Y1206287D1*
X996158Y1204422D1*
X999332Y1202301D1*
X1002331Y1199937D1*
X1005134Y1197346D1*
X1007726Y1194542D1*
X1010089Y1191544D1*
X1012210Y1188370D1*
X1014076Y1185039D1*
X1015674Y1181571D1*
X1016995Y1177990D1*
X1018032Y1174315D1*
X1018776Y1170571D1*
X1019225Y1166779D1*
X1019375Y1158043D1*
Y601576D1*
X2547229Y601575D1*
X2789710Y844041D1*
X2789722Y911904D1*
X2926336D1*
X2926316Y775290D1*
X3257068Y1766046D2*
X3318665D1*
Y1676440D1*
X3229059D1*
Y1738051D1*
X3196352Y1770833D1*
X3194525Y1773347D1*
X3193115Y1776116D1*
X3192154Y1779071D1*
X3191668Y1782140D1*
X3191607Y1808301D1*
Y2046347D1*
X3158733Y2046329D1*
Y2171369D1*
X3264088D1*
Y2046329D1*
X3231196D1*
X3231214Y1791908D1*
X3257072Y1766039D1*
X831953Y1672836D2*
X959708D1*
Y1663013D1*
X1663930Y1662993D1*
X1662111Y1667696D1*
X1661117Y1671222D1*
X1660402Y1674815D1*
X1659972Y1678452D1*
X1659828Y1682113D1*
X1659972Y1685773D1*
X1660402Y1689411D1*
X1661117Y1693004D1*
X1662111Y1696530D1*
X1663379Y1699966D1*
X1664913Y1703293D1*
X1666703Y1706489D1*
X1668738Y1709535D1*
X1671006Y1712412D1*
X1673492Y1715102D1*
X1676182Y1717588D1*
X1679059Y1719856D1*
X1682105Y1721892D1*
X1685301Y1723681D1*
X1688628Y1725215D1*
X1692065Y1726483D1*
X1695590Y1727477D1*
X1699183Y1728192D1*
X1702821Y1728623D1*
X1706481Y1728766D1*
X1710142Y1728623D1*
X1713780Y1728192D1*
X1717372Y1727477D1*
X1720898Y1726483D1*
X1724335Y1725215D1*
X1727662Y1723681D1*
X1730858Y1721892D1*
X1733904Y1719856D1*
X1736780Y1717588D1*
X1739470Y1715102D1*
X1741957Y1712412D1*
X1744225Y1709535D1*
X1746260Y1706489D1*
X1748050Y1703293D1*
X1749584Y1699966D1*
X1750851Y1696530D1*
X1751846Y1693004D1*
X1752560Y1689411D1*
X1752991Y1685773D1*
X1753135Y1682113D1*
X1752991Y1678452D1*
X1752560Y1674815D1*
X1751846Y1671222D1*
X1750851Y1667696D1*
X1749584Y1664259D1*
X1748050Y1660933D1*
X1746260Y1657736D1*
X1744225Y1654691D1*
X1741957Y1651814D1*
X1739470Y1649124D1*
X1736780Y1646637D1*
X1733904Y1644369D1*
X1730858Y1642334D1*
X1727662Y1640544D1*
X1724335Y1639011D1*
X1720898Y1637743D1*
X1717372Y1636748D1*
X1713780Y1636034D1*
X1707925Y1635516D1*
X1710927Y1632510D1*
X1714395Y1632081D1*
X1718291Y1631306D1*
X1722115Y1630227D1*
X1725841Y1628852D1*
X1729449Y1627189D1*
X1732915Y1625248D1*
X1736218Y1623041D1*
X1739337Y1620582D1*
X1742254Y1617886D1*
X1744951Y1614969D1*
X1747410Y1611849D1*
X1749617Y1608546D1*
X1751558Y1605080D1*
X1753221Y1601473D1*
X1754596Y1597746D1*
X1755674Y1593923D1*
X1756449Y1590027D1*
X1756916Y1586082D1*
X1757072Y1582113D1*
X1756916Y1578144D1*
X1756449Y1574199D1*
X1755674Y1570303D1*
X1754596Y1566480D1*
X1753221Y1562753D1*
X1751558Y1559145D1*
X1749617Y1555679D1*
X1747410Y1552376D1*
X1744951Y1549257D1*
X1742254Y1546340D1*
X1739337Y1543644D1*
X1736218Y1541184D1*
X1732915Y1538977D1*
X1729449Y1537036D1*
X1725841Y1535373D1*
X1722115Y1533998D1*
X1718291Y1532920D1*
X1714395Y1532145D1*
X1710451Y1531678D1*
X1706481Y1531522D1*
X1702512Y1531678D1*
X1698567Y1532145D1*
X1694671Y1532920D1*
X1690848Y1533998D1*
X1687121Y1535373D1*
X1683514Y1537036D1*
X1680048Y1538977D1*
X1676745Y1541184D1*
X1673625Y1543644D1*
X1670708Y1546340D1*
X1668012Y1549257D1*
X1665553Y1552376D1*
X1663346Y1555679D1*
X1661405Y1559145D1*
X1659742Y1562753D1*
X1658367Y1566480D1*
X1657289Y1570303D1*
X1656514Y1574199D1*
X1656107Y1577635D1*
X1648326Y1585426D1*
X959698Y1585434D1*
X959708Y1575592D1*
X827031D1*
Y1672836D1*
X831953D1*
X2835008Y1672933D2*
X2962764D1*
Y1575689D1*
X2912301D1*
X2908408Y1574184D1*
X2902491Y1572763D1*
X2896425Y1572286D1*
X2707475D1*
X2704862Y1567452D1*
X2702655Y1564149D1*
X2700196Y1561030D1*
X2697500Y1558113D1*
X2694583Y1555416D1*
X2691463Y1552957D1*
X2688160Y1550750D1*
X2684694Y1548809D1*
X2681087Y1547146D1*
X2677360Y1545771D1*
X2673537Y1544693D1*
X2669641Y1543918D1*
X2665696Y1543451D1*
X2661727Y1543295D1*
X2657757Y1543451D1*
X2653813Y1543918D1*
X2649917Y1544693D1*
X2646093Y1545771D1*
X2642367Y1547146D1*
X2638759Y1548809D1*
X2635293Y1550750D1*
X2631990Y1552957D1*
X2628871Y1555416D1*
X2625954Y1558113D1*
X2623257Y1561030D1*
X2620798Y1564149D1*
X2618591Y1567452D1*
X2616650Y1570918D1*
X2614987Y1574526D1*
X2613612Y1578252D1*
X2612534Y1582076D1*
X2611759Y1585972D1*
X2611292Y1589917D1*
X2611136Y1593886D1*
X2611292Y1597855D1*
X2611759Y1601800D1*
X2612534Y1605696D1*
X2613612Y1609519D1*
X2614987Y1613246D1*
X2616650Y1616853D1*
X2618591Y1620319D1*
X2620798Y1623622D1*
X2623257Y1626742D1*
X2625954Y1629659D1*
X2629809Y1633095D1*
X2632238Y1636251D1*
X2636541Y1640554D1*
X2641464Y1644131D1*
X2646886Y1646893D1*
X2650836Y1648521D1*
X2647310Y1649516D1*
X2643873Y1650784D1*
X2640546Y1652317D1*
X2637350Y1654107D1*
X2634304Y1656142D1*
X2631428Y1658410D1*
X2628738Y1660897D1*
X2626251Y1663587D1*
X2623983Y1666464D1*
X2621948Y1669509D1*
X2620158Y1672706D1*
X2618624Y1676032D1*
X2617357Y1679469D1*
X2616362Y1682995D1*
X2615648Y1686588D1*
X2615217Y1690225D1*
X2615073Y1693886D1*
X2615217Y1697546D1*
X2615648Y1701184D1*
X2616362Y1704777D1*
X2617357Y1708303D1*
X2618624Y1711739D1*
X2620158Y1715066D1*
X2621948Y1718262D1*
X2623983Y1721308D1*
X2626251Y1724185D1*
X2628738Y1726875D1*
X2631428Y1729361D1*
X2634304Y1731629D1*
X2637350Y1733665D1*
X2640546Y1735454D1*
X2643873Y1736988D1*
X2647310Y1738256D1*
X2650836Y1739250D1*
X2654428Y1739965D1*
X2658066Y1740396D1*
X2661727Y1740539D1*
X2665387Y1740396D1*
X2669025Y1739965D1*
X2672618Y1739250D1*
X2676143Y1738256D1*
X2679580Y1736988D1*
X2682907Y1735454D1*
X2686103Y1733665D1*
X2689149Y1731629D1*
X2692026Y1729361D1*
X2694716Y1726875D1*
X2697202Y1724185D1*
X2699470Y1721308D1*
X2701505Y1718262D1*
X2703295Y1715066D1*
X2704829Y1711739D1*
X2706097Y1708303D1*
X2707091Y1704777D1*
X2707806Y1701184D1*
X2708236Y1697546D1*
X2708380Y1693886D1*
X2708236Y1690225D1*
X2707806Y1686588D1*
X2707091Y1682995D1*
X2706097Y1679469D1*
X2704829Y1676032D1*
X2703295Y1672706D1*
X2701505Y1669509D1*
X2699470Y1666464D1*
X2697202Y1663587D1*
X2694716Y1660897D1*
X2692026Y1658410D1*
X2689149Y1656142D1*
X2686103Y1654107D1*
X2682907Y1652317D1*
X2677043Y1649848D1*
X2830068Y1649845D1*
X2830086Y1672933D1*
X2835008D1*
X3045544Y2171369D2*
X3145978D1*
Y2046329D1*
X3113086D1*
X3113103Y1868198D1*
X3113008Y1853339D1*
Y1671963D1*
X3116756Y1668745D1*
X3120150Y1664770D1*
X3122881Y1660314D1*
X3124881Y1655485D1*
X3126101Y1650403D1*
X3126511Y1645193D1*
X3126101Y1639983D1*
X3124881Y1634900D1*
X3122881Y1630072D1*
X3120150Y1625615D1*
X3116756Y1621641D1*
X3112782Y1618247D1*
X3108325Y1615516D1*
X3103497Y1613516D1*
X3098415Y1612296D1*
X3093204Y1611886D1*
X3087994Y1612296D1*
X3082912Y1613516D1*
X3078083Y1615516D1*
X3073627Y1618247D1*
X3069653Y1621641D1*
X3066258Y1625615D1*
X3063528Y1630072D1*
X3061527Y1634900D1*
X3060307Y1639983D1*
X3059897Y1645193D1*
X3060307Y1650403D1*
X3061527Y1655485D1*
X3063528Y1660314D1*
X3066258Y1664770D1*
X3069653Y1668745D1*
X3073394Y1671955D1*
X3073497Y1882962D1*
Y2046344D1*
X3040623Y2046329D1*
Y2171369D1*
X3045544D1*
X3473904Y2010137D2*
X3474208Y2017605D1*
X3474803Y2022489D1*
X3475688Y2027329D1*
X3476862Y2032108D1*
X3478319Y2036808D1*
X3480055Y2041412D1*
X3482064Y2045904D1*
X3484337Y2050268D1*
X3486868Y2054487D1*
X3489646Y2058548D1*
X3492663Y2062436D1*
X3495906Y2066136D1*
X3499365Y2069635D1*
X3503028Y2072922D1*
X3506880Y2075983D1*
X3510909Y2078808D1*
X3515099Y2081387D1*
X3519437Y2083711D1*
X3523905Y2085771D1*
X3528489Y2087560D1*
X3533171Y2089071D1*
X3537936Y2090300D1*
X3542766Y2091241D1*
X3547643Y2091892D1*
X3552551Y2092250D1*
X3557471Y2092314D1*
X3562386Y2092083D1*
X3567278Y2091558D1*
X3572131Y2090742D1*
X3576925Y2089636D1*
X3581645Y2088246D1*
X3586274Y2086576D1*
X3590794Y2084632D1*
X3595190Y2082421D1*
X3599446Y2079951D1*
X3603546Y2077231D1*
X3607476Y2074271D1*
X3611222Y2071080D1*
X3614771Y2067671D1*
X3618109Y2064056D1*
X3621225Y2060248D1*
X3624107Y2056260D1*
X3626746Y2052107D1*
X3629131Y2047803D1*
X3631255Y2043365D1*
X3633109Y2038807D1*
X3634687Y2034146D1*
X3635984Y2029400D1*
X3636994Y2024584D1*
X3637715Y2019717D1*
X3638142Y2014815D1*
X3638277Y2000278D1*
X3638258Y1911695D1*
X3638129Y1906777D1*
X3637688Y1901877D1*
X3636954Y1897011D1*
X3635931Y1892198D1*
X3634621Y1887455D1*
X3633030Y1882799D1*
X3631163Y1878246D1*
X3629028Y1873813D1*
X3626630Y1869516D1*
X3623980Y1865370D1*
X3621087Y1861390D1*
X3617961Y1857591D1*
X3614613Y1853985D1*
X3611055Y1850585D1*
X3607301Y1847405D1*
X3603362Y1844455D1*
X3599255Y1841746D1*
X3594992Y1839288D1*
X3590590Y1837089D1*
X3586065Y1835158D1*
X3581432Y1833500D1*
X3576708Y1832123D1*
X3571910Y1831031D1*
X3567056Y1830228D1*
X3562162Y1829717D1*
X3557246Y1829499D1*
X3552326Y1829576D1*
X3547419Y1829947D1*
X3542544Y1830612D1*
X3537717Y1831566D1*
X3532956Y1832808D1*
X3528277Y1834332D1*
X3523698Y1836134D1*
X3519235Y1838206D1*
X3514905Y1840542D1*
X3510721Y1843132D1*
X3506700Y1845968D1*
X3502856Y1849040D1*
X3499203Y1852336D1*
X3495753Y1855845D1*
X3492520Y1859554D1*
X3489514Y1863450D1*
X3486747Y1867518D1*
X3484228Y1871745D1*
X3481966Y1876115D1*
X3479970Y1880613D1*
X3478247Y1885221D1*
X3476802Y1889925D1*
X3475642Y1894707D1*
X3474769Y1899549D1*
X3474188Y1904436D1*
X3473904Y1911712D1*
X3473867Y2009948D1*
X4129655Y1837263D2*
X4129188Y1833318D1*
X4128413Y1829422D1*
X4127335Y1825599D1*
X4125960Y1821872D1*
X4124297Y1818265D1*
X4122356Y1814799D1*
X4120149Y1811496D1*
X4117689Y1808376D1*
X4114993Y1805459D1*
X4112076Y1802763D1*
X4108957Y1800304D1*
X4105654Y1798097D1*
X4102188Y1796156D1*
X4098580Y1794493D1*
X4094853Y1793118D1*
X4091030Y1792040D1*
X4087134Y1791265D1*
X4083189Y1790798D1*
X4079220Y1790642D1*
X4075251Y1790798D1*
X4071306Y1791265D1*
X4067410Y1792040D1*
X4063587Y1793118D1*
X4059860Y1794493D1*
X4056252Y1796156D1*
X4052787Y1798097D1*
X4049484Y1800304D1*
X4046364Y1802763D1*
X4043447Y1805459D1*
X4040751Y1808376D1*
X4038292Y1811496D1*
X4036085Y1814799D1*
X4034144Y1818265D1*
X4032481Y1821872D1*
X4031106Y1825599D1*
X4030027Y1829422D1*
X4029252Y1833318D1*
X4028786Y1837263D1*
X4028630Y1841232D1*
X4028786Y1845202D1*
X4029252Y1849146D1*
X4030027Y1853042D1*
X4031106Y1856866D1*
X4032481Y1860592D1*
X4034144Y1864200D1*
X4036085Y1867666D1*
X4038292Y1870969D1*
X4040751Y1874088D1*
X4043447Y1877005D1*
X4046364Y1879702D1*
X4049484Y1882161D1*
X4052787Y1884368D1*
X4056252Y1886309D1*
X4059860Y1887972D1*
X4063587Y1889347D1*
X4067410Y1890425D1*
X4071306Y1891200D1*
X4075251Y1891667D1*
X4079220Y1891823D1*
X4083189Y1891667D1*
X4087134Y1891200D1*
X4091030Y1890425D1*
X4094853Y1889347D1*
X4098580Y1887972D1*
X4102188Y1886309D1*
X4105654Y1884368D1*
X4108957Y1882161D1*
X4112076Y1879702D1*
X4114993Y1877005D1*
X4117689Y1874088D1*
X4120149Y1870969D1*
X4122356Y1867666D1*
X4124297Y1864200D1*
X4125960Y1860592D1*
X4127335Y1856866D1*
X4128413Y1853042D1*
X4129188Y1849146D1*
X4129655Y1845202D1*
X4129811Y1841232D1*
X4129655Y1837263D1*
X3814311Y1049129D2*
X3812968Y1055041D1*
X3812501Y1058986D1*
X3812345Y1062955D1*
X3812501Y1066925D1*
X3812968Y1070869D1*
X3813743Y1074766D1*
X3814821Y1078589D1*
X3816196Y1082316D1*
X3817859Y1085923D1*
X3819800Y1089389D1*
X3822007Y1092692D1*
X3824466Y1095811D1*
X3827162Y1098728D1*
X3830079Y1101425D1*
X3833199Y1103884D1*
X3836502Y1106091D1*
X3839968Y1108032D1*
X3843575Y1109695D1*
X3847302Y1111070D1*
X3851125Y1112148D1*
X3855021Y1112988D1*
X3849109Y1114331D1*
X3773449Y1114333D1*
X3729089Y1069974D1*
X3729096Y1009230D1*
X3728944Y1005400D1*
X3734701Y1007876D1*
X3738283Y1009198D1*
X3741957Y1010234D1*
X3745702Y1010979D1*
X3749493Y1011428D1*
X3758229Y1011578D1*
X3814305D1*
X3814313Y1048981D1*
X798733Y1114340D2*
X792821Y1112997D1*
X792589Y1112970D1*
X796717Y1112157D1*
X800540Y1111079D1*
X804267Y1109704D1*
X807874Y1108041D1*
X811340Y1106100D1*
X814643Y1103893D1*
X817762Y1101434D1*
X820679Y1098737D1*
X823376Y1095821D1*
X825835Y1092701D1*
X828042Y1089398D1*
X829983Y1085932D1*
X831646Y1082325D1*
X833021Y1078598D1*
X834099Y1074775D1*
X834874Y1070879D1*
X835341Y1066934D1*
X835497Y1062965D1*
X835341Y1058995D1*
X834874Y1055050D1*
X834099Y1051154D1*
X833021Y1047331D1*
X831646Y1043604D1*
X829983Y1039997D1*
X828042Y1036531D1*
X825835Y1033228D1*
X823376Y1030109D1*
X820679Y1027192D1*
X817762Y1024495D1*
X814643Y1022036D1*
X811340Y1019829D1*
X807874Y1017888D1*
X804267Y1016225D1*
X800540Y1014850D1*
X796717Y1013772D1*
X792821Y1012932D1*
X798733Y1011589D1*
X828214Y1011587D1*
X832028Y1011437D1*
X835820Y1010988D1*
X839564Y1010243D1*
X843239Y1009207D1*
X846820Y1007886D1*
X850288Y1006287D1*
X853619Y1004422D1*
X856793Y1002301D1*
X859791Y999937D1*
X866074Y993866D1*
X894091Y965850D1*
X896682Y963046D1*
X899046Y960048D1*
X901167Y956874D1*
X903032Y953543D1*
X904631Y950075D1*
X905952Y946494D1*
X906988Y942819D1*
X907733Y939075D1*
X908182Y935283D1*
X908332Y926547D1*
Y563124D1*
X922269Y549181D1*
X922131Y557874D1*
Y1114342D1*
X798874D1*
X1156916Y1878144D2*
X1156449Y1874199D1*
X1155674Y1870303D1*
X1154596Y1866480D1*
X1153221Y1862753D1*
X1151558Y1859145D1*
X1149617Y1855679D1*
X1147410Y1852376D1*
X1144951Y1849257D1*
X1142254Y1846340D1*
X1139337Y1843644D1*
X1136218Y1841184D1*
X1132915Y1838977D1*
X1129449Y1837036D1*
X1125841Y1835373D1*
X1122115Y1833998D1*
X1118291Y1832920D1*
X1114395Y1832081D1*
X1118291Y1831306D1*
X1122115Y1830227D1*
X1125841Y1828852D1*
X1129449Y1827189D1*
X1132915Y1825248D1*
X1136218Y1823041D1*
X1139337Y1820582D1*
X1142254Y1817886D1*
X1144951Y1814969D1*
X1147410Y1811849D1*
X1149617Y1808546D1*
X1151558Y1805080D1*
X1153221Y1801473D1*
X1154596Y1797746D1*
X1155674Y1793923D1*
X1156449Y1790027D1*
X1156916Y1786082D1*
X1157072Y1782113D1*
X1156916Y1778144D1*
X1156449Y1774199D1*
X1155674Y1770303D1*
X1154596Y1766480D1*
X1153221Y1762753D1*
X1151558Y1759145D1*
X1149617Y1755679D1*
X1147410Y1752376D1*
X1144951Y1749257D1*
X1142254Y1746340D1*
X1139337Y1743644D1*
X1136218Y1741184D1*
X1132915Y1738977D1*
X1129449Y1737036D1*
X1125841Y1735373D1*
X1122115Y1733998D1*
X1118291Y1732920D1*
X1114395Y1732145D1*
X1110451Y1731678D1*
X1106481Y1731522D1*
X1102512Y1731678D1*
X1098567Y1732145D1*
X1094671Y1732920D1*
X1090848Y1733998D1*
X1087121Y1735373D1*
X1083514Y1737036D1*
X1080048Y1738977D1*
X1076745Y1741184D1*
X1073625Y1743644D1*
X1070708Y1746340D1*
X1068012Y1749257D1*
X1065553Y1752376D1*
X1063346Y1755679D1*
X1061405Y1759145D1*
X1059742Y1762753D1*
X1058367Y1766480D1*
X1057289Y1770303D1*
X1056514Y1774199D1*
X1056047Y1778144D1*
X1055891Y1782113D1*
X1056047Y1786082D1*
X1056514Y1790027D1*
X1057289Y1793923D1*
X1058367Y1797746D1*
X1059742Y1801473D1*
X1061405Y1805080D1*
X1063346Y1808546D1*
X1065553Y1811849D1*
X1068012Y1814969D1*
X1070708Y1817886D1*
X1073625Y1820582D1*
X1076745Y1823041D1*
X1080048Y1825248D1*
X1083514Y1827189D1*
X1087121Y1828852D1*
X1090848Y1830227D1*
X1094671Y1831306D1*
X1098567Y1832145D1*
X1094671Y1832920D1*
X1090848Y1833998D1*
X1087121Y1835373D1*
X1083514Y1837036D1*
X1080048Y1838977D1*
X1076745Y1841184D1*
X1073625Y1843644D1*
X1070708Y1846340D1*
X1068012Y1849257D1*
X1065553Y1852376D1*
X1063346Y1855679D1*
X1061405Y1859145D1*
X1059742Y1862753D1*
X1058367Y1866480D1*
X1057289Y1870303D1*
X1056514Y1874199D1*
X1056047Y1878144D1*
X1055891Y1882113D1*
X1056047Y1886082D1*
X1056514Y1890027D1*
X1057289Y1893923D1*
X1058367Y1897746D1*
X1059742Y1901473D1*
X1061405Y1905080D1*
X1063346Y1908546D1*
X1065553Y1911849D1*
X1068012Y1914969D1*
X1070708Y1917886D1*
X1073625Y1920582D1*
X1076745Y1923041D1*
X1080048Y1925248D1*
X1083514Y1927189D1*
X1087121Y1928852D1*
X1090848Y1930227D1*
X1094671Y1931306D1*
X1098567Y1932081D1*
X1102512Y1932547D1*
X1106481Y1932703D1*
X1110451Y1932547D1*
X1114395Y1932081D1*
X1118291Y1931306D1*
X1122115Y1930227D1*
X1125841Y1928852D1*
X1129449Y1927189D1*
X1132915Y1925248D1*
X1136218Y1923041D1*
X1139337Y1920582D1*
X1142254Y1917886D1*
X1144951Y1914969D1*
X1147410Y1911849D1*
X1149617Y1908546D1*
X1151558Y1905080D1*
X1153221Y1901473D1*
X1154596Y1897746D1*
X1155674Y1893923D1*
X1156449Y1890027D1*
X1156916Y1886082D1*
X1157072Y1882113D1*
X1156916Y1878144D1*
X1151146Y878598D2*
X1150733Y875104D1*
X1150047Y871654D1*
X1149092Y868268D1*
X1147874Y864967D1*
X1146401Y861773D1*
X1144682Y858703D1*
X1142728Y855778D1*
X1140550Y853016D1*
X1138162Y850432D1*
X1135579Y848044D1*
X1132816Y845866D1*
X1129891Y843912D1*
X1126821Y842193D1*
X1123627Y840720D1*
X1120326Y839503D1*
X1116940Y838548D1*
X1113490Y837861D1*
X1109996Y837448D1*
X1106481Y837310D1*
X1102966Y837448D1*
X1099473Y837861D1*
X1096022Y838548D1*
X1092636Y839503D1*
X1089336Y840720D1*
X1086141Y842193D1*
X1083072Y843912D1*
X1080147Y845866D1*
X1077384Y848044D1*
X1074801Y850432D1*
X1072413Y853016D1*
X1070235Y855778D1*
X1068280Y858703D1*
X1066561Y861773D1*
X1065089Y864967D1*
X1063871Y868268D1*
X1062916Y871654D1*
X1062230Y875104D1*
X1061816Y878598D1*
X1061678Y882113D1*
X1061816Y885628D1*
X1062230Y889122D1*
X1062916Y892572D1*
X1063871Y895958D1*
X1065089Y899258D1*
X1066561Y902453D1*
X1068280Y905522D1*
X1070235Y908447D1*
X1072413Y911210D1*
X1074801Y913793D1*
X1077384Y916181D1*
X1080147Y918359D1*
X1083072Y920314D1*
X1086141Y922033D1*
X1089336Y923506D1*
X1092636Y924723D1*
X1096022Y925678D1*
X1099473Y926364D1*
X1102966Y926778D1*
X1106481Y926916D1*
X1109996Y926778D1*
X1113490Y926364D1*
X1116940Y925678D1*
X1120326Y924723D1*
X1123627Y923506D1*
X1126821Y922033D1*
X1129891Y920314D1*
X1132816Y918359D1*
X1135579Y916181D1*
X1138162Y913793D1*
X1140550Y911210D1*
X1142728Y908447D1*
X1144682Y905522D1*
X1146401Y902453D1*
X1147874Y899258D1*
X1149092Y895958D1*
X1150047Y892572D1*
X1150733Y889122D1*
X1151146Y885628D1*
X1151284Y882113D1*
X1151146Y878598D1*
Y778598D2*
X1150733Y775104D1*
X1150047Y771654D1*
X1148887Y767714D1*
X1160679Y755921D1*
X1670141Y755930D1*
X1668280Y758703D1*
X1666561Y761773D1*
X1665089Y764967D1*
X1663871Y768268D1*
X1662916Y771654D1*
X1662230Y775104D1*
X1661816Y778598D1*
X1661678Y782113D1*
X1661816Y785628D1*
X1662230Y789122D1*
X1662916Y792572D1*
X1663871Y795958D1*
X1665089Y799258D1*
X1666561Y802453D1*
X1668280Y805522D1*
X1670235Y808447D1*
X1672413Y811210D1*
X1674801Y813793D1*
X1677384Y816181D1*
X1680147Y818359D1*
X1683072Y820314D1*
X1686141Y822033D1*
X1689336Y823506D1*
X1692636Y824723D1*
X1696022Y825678D1*
X1699473Y826364D1*
X1702966Y826778D1*
X1706481Y826916D1*
X1709996Y826778D1*
X1713490Y826364D1*
X1716940Y825678D1*
X1720326Y824723D1*
X1723627Y823506D1*
X1726821Y822033D1*
X1729891Y820314D1*
X1732816Y818359D1*
X1735579Y816181D1*
X1738162Y813793D1*
X1740550Y811210D1*
X1742728Y808447D1*
X1744682Y805522D1*
X1746401Y802453D1*
X1747874Y799258D1*
X1749092Y795958D1*
X1750047Y792572D1*
X1750733Y789122D1*
X1751146Y785628D1*
X1751284Y782113D1*
X1751146Y778598D1*
X1750733Y775104D1*
X1750047Y771654D1*
X1749092Y768268D1*
X1747874Y764967D1*
X1746401Y761773D1*
X1744682Y758703D1*
X1742827Y755927D1*
X1995752Y755930D1*
X2019313Y779478D1*
X2018161Y783427D1*
X2017475Y786877D1*
X2017062Y790371D1*
X2016924Y793886D1*
X2017062Y797401D1*
X2017475Y800895D1*
X2018161Y804345D1*
X2019116Y807731D1*
X2020334Y811031D1*
X2021807Y814226D1*
X2023526Y817295D1*
X2025480Y820220D1*
X2027658Y822983D1*
X2030046Y825566D1*
X2032629Y827954D1*
X2035392Y830132D1*
X2038317Y832087D1*
X2041386Y833806D1*
X2044581Y835279D1*
X2047882Y836496D1*
X2051268Y837451D1*
X2054718Y838137D1*
X2058211Y838551D1*
X2061727Y838689D1*
X2065242Y838551D1*
X2068735Y838137D1*
X2072186Y837451D1*
X2075572Y836496D1*
X2078872Y835279D1*
X2082067Y833806D1*
X2085136Y832087D1*
X2088061Y830132D1*
X2090824Y827954D1*
X2093407Y825566D1*
X2095795Y822983D1*
X2097973Y820220D1*
X2099928Y817295D1*
X2101647Y814226D1*
X2103119Y811031D1*
X2104337Y807731D1*
X2105292Y804345D1*
X2105978Y800895D1*
X2106392Y797401D1*
X2106530Y793886D1*
X2106392Y790371D1*
X2105978Y786877D1*
X2105292Y783427D1*
X2104337Y780041D1*
X2103119Y776740D1*
X2101647Y773546D1*
X2099928Y770476D1*
X2097973Y767551D1*
X2095795Y764789D1*
X2093407Y762205D1*
X2090824Y759817D1*
X2088061Y757639D1*
X2085136Y755685D1*
X2082067Y753966D1*
X2078872Y752493D1*
X2075572Y751275D1*
X2072186Y750321D1*
X2068735Y749634D1*
X2065242Y749221D1*
X2061727Y749083D1*
X2058211Y749221D1*
X2054718Y749634D1*
X2051268Y750321D1*
X2047327Y751480D1*
X2016829Y721069D1*
X2014315Y719242D1*
X2011546Y717832D1*
X2008591Y716871D1*
X2005522Y716385D1*
X1979362Y716324D1*
X1150913Y716385D1*
X1147844Y716871D1*
X1144888Y717832D1*
X1142120Y719242D1*
X1139606Y721069D1*
X1120888Y739700D1*
X1116940Y738548D1*
X1113490Y737861D1*
X1109996Y737448D1*
X1106481Y737310D1*
X1102966Y737448D1*
X1099473Y737861D1*
X1096022Y738548D1*
X1092636Y739503D1*
X1089336Y740720D1*
X1086141Y742193D1*
X1083072Y743912D1*
X1080147Y745866D1*
X1077384Y748044D1*
X1074801Y750432D1*
X1072413Y753016D1*
X1070235Y755778D1*
X1068280Y758703D1*
X1066561Y761773D1*
X1065089Y764967D1*
X1063871Y768268D1*
X1062916Y771654D1*
X1062230Y775104D1*
X1061816Y778598D1*
X1061678Y782113D1*
X1061816Y785628D1*
X1062230Y789122D1*
X1062916Y792572D1*
X1063871Y795958D1*
X1065089Y799258D1*
X1066561Y802453D1*
X1068280Y805522D1*
X1070235Y808447D1*
X1072413Y811210D1*
X1074801Y813793D1*
X1077384Y816181D1*
X1080147Y818359D1*
X1083072Y820314D1*
X1086141Y822033D1*
X1089336Y823506D1*
X1092636Y824723D1*
X1096022Y825678D1*
X1099473Y826364D1*
X1102966Y826778D1*
X1106481Y826916D1*
X1109996Y826778D1*
X1113490Y826364D1*
X1116940Y825678D1*
X1120326Y824723D1*
X1123627Y823506D1*
X1126821Y822033D1*
X1129891Y820314D1*
X1132816Y818359D1*
X1135579Y816181D1*
X1138162Y813793D1*
X1140550Y811210D1*
X1142728Y808447D1*
X1144682Y805522D1*
X1146401Y802453D1*
X1147874Y799258D1*
X1149092Y795958D1*
X1150047Y792572D1*
X1150733Y789122D1*
X1151146Y785628D1*
X1151284Y782113D1*
X1151146Y778598D1*
X1752991Y1878413D2*
X1752560Y1874775D1*
X1751846Y1871182D1*
X1750851Y1867657D1*
X1749584Y1864220D1*
X1748050Y1860893D1*
X1746260Y1857697D1*
X1744225Y1854651D1*
X1741957Y1851774D1*
X1739470Y1849084D1*
X1736780Y1846598D1*
X1733904Y1844330D1*
X1730858Y1842295D1*
X1727662Y1840505D1*
X1724335Y1838971D1*
X1720898Y1837703D1*
X1717372Y1836709D1*
X1713780Y1835994D1*
X1710142Y1835564D1*
X1706481Y1835420D1*
X1702821Y1835564D1*
X1699183Y1835994D1*
X1695590Y1836709D1*
X1692065Y1837703D1*
X1688628Y1838971D1*
X1685301Y1840505D1*
X1682105Y1842295D1*
X1679059Y1844330D1*
X1676182Y1846598D1*
X1673492Y1849084D1*
X1671006Y1851774D1*
X1668738Y1854651D1*
X1666703Y1857697D1*
X1664913Y1860893D1*
X1663379Y1864220D1*
X1662111Y1867657D1*
X1661117Y1871182D1*
X1660402Y1874775D1*
X1659972Y1878413D1*
X1659828Y1882073D1*
X1659972Y1885734D1*
X1660402Y1889372D1*
X1661117Y1892965D1*
X1662111Y1896490D1*
X1663379Y1899927D1*
X1664913Y1903254D1*
X1666703Y1906450D1*
X1668738Y1909496D1*
X1671006Y1912373D1*
X1673492Y1915063D1*
X1676182Y1917549D1*
X1679059Y1919817D1*
X1682105Y1921852D1*
X1685301Y1923642D1*
X1688628Y1925176D1*
X1692065Y1926444D1*
X1695590Y1927438D1*
X1699183Y1928153D1*
X1702821Y1928583D1*
X1706481Y1928727D1*
X1710142Y1928583D1*
X1713780Y1928153D1*
X1717372Y1927438D1*
X1720898Y1926444D1*
X1724335Y1925176D1*
X1727662Y1923642D1*
X1730858Y1921852D1*
X1733904Y1919817D1*
X1736780Y1917549D1*
X1739470Y1915063D1*
X1741957Y1912373D1*
X1744225Y1909496D1*
X1746260Y1906450D1*
X1748050Y1903254D1*
X1749584Y1899927D1*
X1750851Y1896490D1*
X1751846Y1892965D1*
X1752560Y1889372D1*
X1752991Y1885734D1*
X1753135Y1882073D1*
X1752991Y1878413D1*
Y1078452D2*
X1752560Y1074815D1*
X1751846Y1071222D1*
X1750851Y1067696D1*
X1749584Y1064259D1*
X1748050Y1060933D1*
X1746260Y1057736D1*
X1744225Y1054691D1*
X1741957Y1051814D1*
X1739470Y1049124D1*
X1736780Y1046637D1*
X1733904Y1044369D1*
X1730858Y1042334D1*
X1727662Y1040544D1*
X1724335Y1039011D1*
X1720898Y1037743D1*
X1717372Y1036748D1*
X1713780Y1036034D1*
X1710142Y1035603D1*
X1706481Y1035459D1*
X1702821Y1035603D1*
X1699183Y1036034D1*
X1695590Y1036748D1*
X1692065Y1037743D1*
X1688628Y1039011D1*
X1685301Y1040544D1*
X1682105Y1042334D1*
X1679059Y1044369D1*
X1676182Y1046637D1*
X1673492Y1049124D1*
X1671006Y1051814D1*
X1668738Y1054691D1*
X1666703Y1057736D1*
X1664913Y1060933D1*
X1663379Y1064259D1*
X1662111Y1067696D1*
X1661117Y1071222D1*
X1660402Y1074815D1*
X1659972Y1078452D1*
X1659828Y1082113D1*
X1659972Y1085773D1*
X1660402Y1089411D1*
X1661117Y1093004D1*
X1662111Y1096530D1*
X1663379Y1099966D1*
X1664913Y1103293D1*
X1666703Y1106489D1*
X1668738Y1109535D1*
X1671006Y1112412D1*
X1673492Y1115102D1*
X1676182Y1117588D1*
X1679059Y1119856D1*
X1682105Y1121892D1*
X1685301Y1123681D1*
X1688628Y1125215D1*
X1692065Y1126483D1*
X1695590Y1127477D1*
X1699183Y1128192D1*
X1702821Y1128623D1*
X1706481Y1128766D1*
X1710142Y1128623D1*
X1713780Y1128192D1*
X1717372Y1127477D1*
X1720898Y1126483D1*
X1724335Y1125215D1*
X1727662Y1123681D1*
X1730858Y1121892D1*
X1733904Y1119856D1*
X1736780Y1117588D1*
X1739470Y1115102D1*
X1741957Y1112412D1*
X1744225Y1109535D1*
X1746260Y1106489D1*
X1748050Y1103293D1*
X1749584Y1099966D1*
X1750851Y1096530D1*
X1751846Y1093004D1*
X1752560Y1089411D1*
X1752991Y1085773D1*
X1753135Y1082113D1*
X1752991Y1078452D1*
X1746649Y962309D2*
X1744682Y958703D1*
X1742728Y955778D1*
X1740550Y953016D1*
X1738162Y950432D1*
X1735579Y948044D1*
X1732816Y945866D1*
X1729891Y943912D1*
X1726821Y942193D1*
X1723627Y940720D1*
X1720326Y939503D1*
X1716940Y938548D1*
X1713490Y937861D1*
X1709996Y937448D1*
X1706481Y937310D1*
X1702966Y937448D1*
X1699473Y937861D1*
X1696022Y938548D1*
X1692636Y939503D1*
X1689336Y940720D1*
X1686141Y942193D1*
X1683072Y943912D1*
X1680147Y945866D1*
X1677384Y948044D1*
X1674801Y950432D1*
X1672413Y953016D1*
X1670235Y955778D1*
X1668280Y958703D1*
X1666561Y961773D1*
X1665089Y964967D1*
X1663871Y968268D1*
X1662916Y971654D1*
X1662230Y975104D1*
X1661816Y978598D1*
X1661678Y982113D1*
X1661816Y985628D1*
X1662230Y989122D1*
X1662916Y992572D1*
X1663871Y995958D1*
X1665089Y999258D1*
X1666561Y1002453D1*
X1668280Y1005522D1*
X1670235Y1008447D1*
X1672413Y1011210D1*
X1674801Y1013793D1*
X1677384Y1016181D1*
X1680147Y1018359D1*
X1683072Y1020314D1*
X1686141Y1022033D1*
X1689336Y1023506D1*
X1692636Y1024723D1*
X1696022Y1025678D1*
X1699473Y1026364D1*
X1702966Y1026778D1*
X1706481Y1026916D1*
X1709996Y1026778D1*
X1713490Y1026364D1*
X1716940Y1025678D1*
X1720326Y1024723D1*
X1723627Y1023506D1*
X1726821Y1022033D1*
X1729891Y1020314D1*
X1732816Y1018359D1*
X1735579Y1016181D1*
X1738162Y1013793D1*
X1740550Y1011210D1*
X1742728Y1008447D1*
X1744682Y1005522D1*
X1746649Y1001916D1*
X1782472D1*
X1817220Y1036582D1*
X1819734Y1038409D1*
X1822503Y1039819D1*
X1825458Y1040780D1*
X1828527Y1041266D1*
X1854687Y1041327D1*
X2632091Y1041266D1*
X2635161Y1040780D1*
X2638116Y1039819D1*
X2640885Y1038409D1*
X2643399Y1036582D1*
X2644717Y1035350D1*
X2647882Y1036496D1*
X2651268Y1037451D1*
X2654718Y1038137D1*
X2658211Y1038551D1*
X2661727Y1038689D1*
X2665242Y1038551D1*
X2668735Y1038137D1*
X2672186Y1037451D1*
X2675572Y1036496D1*
X2678872Y1035279D1*
X2682067Y1033806D1*
X2685136Y1032087D1*
X2688061Y1030132D1*
X2690824Y1027954D1*
X2693407Y1025566D1*
X2695795Y1022983D1*
X2697973Y1020220D1*
X2699928Y1017295D1*
X2701647Y1014226D1*
X2703119Y1011031D1*
X2704337Y1007731D1*
X2705292Y1004345D1*
X2705978Y1000895D1*
X2706392Y997401D1*
X2706530Y993886D1*
X2706392Y990371D1*
X2705978Y986877D1*
X2705292Y983427D1*
X2704337Y980041D1*
X2703119Y976740D1*
X2701647Y973546D1*
X2699928Y970476D1*
X2697973Y967551D1*
X2695795Y964789D1*
X2693407Y962205D1*
X2690824Y959817D1*
X2688061Y957639D1*
X2685136Y955685D1*
X2682067Y953966D1*
X2678872Y952493D1*
X2675572Y951275D1*
X2672186Y950321D1*
X2668735Y949634D1*
X2665242Y949221D1*
X2661727Y949083D1*
X2658211Y949221D1*
X2654718Y949634D1*
X2651268Y950321D1*
X2647882Y951275D1*
X2644581Y952493D1*
X2641386Y953966D1*
X2638317Y955685D1*
X2635392Y957639D1*
X2632629Y959817D1*
X2630046Y962205D1*
X2627658Y964789D1*
X2625480Y967551D1*
X2623526Y970476D1*
X2621807Y973546D1*
X2620334Y976740D1*
X2619116Y980041D1*
X2618161Y983427D1*
X2617475Y986877D1*
X2617062Y990371D1*
X2616924Y993886D1*
X2617062Y997401D1*
X2617639Y1001717D1*
X1838273Y1001720D1*
X1803531Y967054D1*
X1801017Y965228D1*
X1798249Y963817D1*
X1795293Y962857D1*
X1792224Y962371D1*
X1766064Y962310D1*
X1746667D1*
X1751146Y878598D2*
X1750733Y875104D1*
X1750047Y871654D1*
X1749092Y868268D1*
X1747874Y864967D1*
X1746401Y861773D1*
X1744682Y858703D1*
X1742728Y855778D1*
X1740550Y853016D1*
X1738162Y850432D1*
X1735579Y848044D1*
X1732816Y845866D1*
X1729891Y843912D1*
X1726821Y842193D1*
X1723627Y840720D1*
X1720326Y839503D1*
X1716940Y838548D1*
X1713490Y837861D1*
X1709996Y837448D1*
X1706481Y837310D1*
X1702966Y837448D1*
X1699473Y837861D1*
X1696022Y838548D1*
X1692636Y839503D1*
X1689336Y840720D1*
X1686141Y842193D1*
X1683072Y843912D1*
X1680147Y845866D1*
X1677384Y848044D1*
X1674801Y850432D1*
X1672413Y853016D1*
X1670235Y855778D1*
X1668280Y858703D1*
X1666561Y861773D1*
X1665089Y864967D1*
X1663871Y868268D1*
X1662916Y871654D1*
X1662230Y875104D1*
X1661816Y878598D1*
X1661678Y882113D1*
X1661816Y885628D1*
X1662230Y889122D1*
X1662916Y892572D1*
X1663871Y895958D1*
X1665089Y899258D1*
X1666561Y902453D1*
X1668280Y905522D1*
X1670235Y908447D1*
X1672413Y911210D1*
X1674801Y913793D1*
X1677384Y916181D1*
X1680147Y918359D1*
X1683072Y920314D1*
X1686141Y922033D1*
X1689336Y923506D1*
X1692636Y924723D1*
X1696022Y925678D1*
X1699473Y926364D1*
X1702966Y926778D1*
X1706481Y926916D1*
X1709996Y926778D1*
X1713490Y926364D1*
X1716940Y925678D1*
X1720326Y924723D1*
X1723627Y923506D1*
X1726821Y922033D1*
X1729891Y920314D1*
X1732816Y918359D1*
X1735579Y916181D1*
X1738162Y913793D1*
X1740550Y911210D1*
X1742728Y908447D1*
X1744682Y905522D1*
X1746401Y902453D1*
X1747874Y899258D1*
X1749092Y895958D1*
X1750047Y892572D1*
X1750733Y889122D1*
X1751146Y885628D1*
X1751284Y882113D1*
X1751146Y878598D1*
X1152991Y1078452D2*
X1152560Y1074815D1*
X1151846Y1071222D1*
X1150851Y1067696D1*
X1149584Y1064259D1*
X1148050Y1060933D1*
X1146260Y1057736D1*
X1144225Y1054691D1*
X1141957Y1051814D1*
X1139470Y1049124D1*
X1136780Y1046637D1*
X1133904Y1044369D1*
X1130858Y1042334D1*
X1127662Y1040544D1*
X1124335Y1039011D1*
X1120898Y1037743D1*
X1117372Y1036748D1*
X1113780Y1036034D1*
X1110142Y1035603D1*
X1106481Y1035459D1*
X1102821Y1035603D1*
X1099183Y1036034D1*
X1095590Y1036748D1*
X1092065Y1037743D1*
X1088628Y1039011D1*
X1085301Y1040544D1*
X1082105Y1042334D1*
X1079059Y1044369D1*
X1076182Y1046637D1*
X1073492Y1049124D1*
X1071006Y1051814D1*
X1068738Y1054691D1*
X1066703Y1057736D1*
X1064913Y1060933D1*
X1063379Y1064259D1*
X1062111Y1067696D1*
X1061117Y1071222D1*
X1060402Y1074815D1*
X1059972Y1078452D1*
X1059828Y1082113D1*
X1059972Y1085773D1*
X1060402Y1089411D1*
X1061117Y1093004D1*
X1062111Y1096530D1*
X1063379Y1099966D1*
X1064913Y1103293D1*
X1066703Y1106489D1*
X1068738Y1109535D1*
X1071006Y1112412D1*
X1073492Y1115102D1*
X1076182Y1117588D1*
X1079059Y1119856D1*
X1082105Y1121892D1*
X1085301Y1123681D1*
X1088628Y1125215D1*
X1092065Y1126483D1*
X1095590Y1127477D1*
X1099183Y1128192D1*
X1102821Y1128623D1*
X1106481Y1128766D1*
X1110142Y1128623D1*
X1113780Y1128192D1*
X1117372Y1127477D1*
X1120898Y1126483D1*
X1124335Y1125215D1*
X1127662Y1123681D1*
X1130858Y1121892D1*
X1133904Y1119856D1*
X1136780Y1117588D1*
X1139470Y1115102D1*
X1141957Y1112412D1*
X1144225Y1109535D1*
X1146260Y1106489D1*
X1148050Y1103293D1*
X1149584Y1099966D1*
X1150851Y1096530D1*
X1151846Y1093004D1*
X1152560Y1089411D1*
X1152991Y1085773D1*
X1153135Y1082113D1*
X1152991Y1078452D1*
Y1178452D2*
X1152560Y1174815D1*
X1151846Y1171222D1*
X1150851Y1167696D1*
X1149584Y1164259D1*
X1148050Y1160933D1*
X1146260Y1157736D1*
X1144225Y1154691D1*
X1141957Y1151814D1*
X1139470Y1149124D1*
X1136780Y1146637D1*
X1133904Y1144369D1*
X1130858Y1142334D1*
X1127662Y1140544D1*
X1124335Y1139011D1*
X1120898Y1137743D1*
X1117372Y1136748D1*
X1113780Y1136034D1*
X1110142Y1135603D1*
X1106481Y1135459D1*
X1102821Y1135603D1*
X1099183Y1136034D1*
X1095590Y1136748D1*
X1092065Y1137743D1*
X1088628Y1139011D1*
X1085301Y1140544D1*
X1082105Y1142334D1*
X1079059Y1144369D1*
X1076182Y1146637D1*
X1073492Y1149124D1*
X1071006Y1151814D1*
X1068738Y1154691D1*
X1066703Y1157736D1*
X1064913Y1160933D1*
X1063379Y1164259D1*
X1062111Y1167696D1*
X1061117Y1171222D1*
X1060402Y1174815D1*
X1059972Y1178452D1*
X1059828Y1182113D1*
X1059972Y1185773D1*
X1060402Y1189411D1*
X1061117Y1193004D1*
X1062111Y1196530D1*
X1063379Y1199966D1*
X1064913Y1203293D1*
X1066703Y1206489D1*
X1068738Y1209535D1*
X1071006Y1212412D1*
X1073492Y1215102D1*
X1076182Y1217588D1*
X1079059Y1219856D1*
X1082105Y1221892D1*
X1085301Y1223681D1*
X1088628Y1225215D1*
X1092065Y1226483D1*
X1095590Y1227477D1*
X1099183Y1228192D1*
X1102821Y1228623D1*
X1106481Y1228766D1*
X1110142Y1228623D1*
X1113780Y1228192D1*
X1117372Y1227477D1*
X1120898Y1226483D1*
X1124335Y1225215D1*
X1127662Y1223681D1*
X1130858Y1221892D1*
X1133904Y1219856D1*
X1136780Y1217588D1*
X1139470Y1215102D1*
X1141957Y1212412D1*
X1144225Y1209535D1*
X1146260Y1206489D1*
X1148050Y1203293D1*
X1149584Y1199966D1*
X1150851Y1196530D1*
X1151846Y1193004D1*
X1152560Y1189411D1*
X1152991Y1185773D1*
X1153135Y1182113D1*
X1152991Y1178452D1*
X2112161Y1889917D2*
X2111694Y1885972D1*
X2110919Y1882076D1*
X2109841Y1878252D1*
X2108466Y1874526D1*
X2106803Y1870918D1*
X2104862Y1867452D1*
X2102655Y1864149D1*
X2100196Y1861030D1*
X2097500Y1858113D1*
X2094583Y1855416D1*
X2091463Y1852957D1*
X2088160Y1850750D1*
X2084694Y1848809D1*
X2081087Y1847146D1*
X2077360Y1845771D1*
X2073537Y1844693D1*
X2069641Y1843854D1*
X2073537Y1843079D1*
X2077360Y1842000D1*
X2081087Y1840625D1*
X2084694Y1838962D1*
X2088160Y1837021D1*
X2091463Y1834814D1*
X2094583Y1832355D1*
X2097500Y1829659D1*
X2100196Y1826742D1*
X2102655Y1823622D1*
X2104862Y1820319D1*
X2106803Y1816853D1*
X2108466Y1813246D1*
X2109841Y1809519D1*
X2110919Y1805696D1*
X2111694Y1801800D1*
X2112161Y1797855D1*
X2112317Y1793886D1*
X2112161Y1789917D1*
X2111694Y1785972D1*
X2110919Y1782076D1*
X2109841Y1778252D1*
X2108466Y1774526D1*
X2106803Y1770918D1*
X2104862Y1767452D1*
X2102655Y1764149D1*
X2100196Y1761030D1*
X2097500Y1758113D1*
X2094583Y1755416D1*
X2091463Y1752957D1*
X2088160Y1750750D1*
X2084694Y1748809D1*
X2081087Y1747146D1*
X2077360Y1745771D1*
X2073537Y1744693D1*
X2069641Y1743918D1*
X2065696Y1743451D1*
X2061727Y1743295D1*
X2057757Y1743451D1*
X2053813Y1743918D1*
X2049917Y1744693D1*
X2046093Y1745771D1*
X2042367Y1747146D1*
X2038759Y1748809D1*
X2035293Y1750750D1*
X2031990Y1752957D1*
X2028871Y1755416D1*
X2025954Y1758113D1*
X2023257Y1761030D1*
X2020798Y1764149D1*
X2018591Y1767452D1*
X2016650Y1770918D1*
X2014987Y1774526D1*
X2013612Y1778252D1*
X2012534Y1782076D1*
X2011759Y1785972D1*
X2011292Y1789917D1*
X2011136Y1793886D1*
X2011292Y1797855D1*
X2011759Y1801800D1*
X2012534Y1805696D1*
X2013612Y1809519D1*
X2014987Y1813246D1*
X2016650Y1816853D1*
X2018591Y1820319D1*
X2020798Y1823622D1*
X2023257Y1826742D1*
X2025954Y1829659D1*
X2028871Y1832355D1*
X2031990Y1834814D1*
X2035293Y1837021D1*
X2038759Y1838962D1*
X2042367Y1840625D1*
X2046093Y1842000D1*
X2049917Y1843079D1*
X2053813Y1843918D1*
X2049917Y1844693D1*
X2046093Y1845771D1*
X2042367Y1847146D1*
X2038759Y1848809D1*
X2035293Y1850750D1*
X2031990Y1852957D1*
X2028871Y1855416D1*
X2025954Y1858113D1*
X2023257Y1861030D1*
X2020798Y1864149D1*
X2018591Y1867452D1*
X2016650Y1870918D1*
X2014987Y1874526D1*
X2013612Y1878252D1*
X2012534Y1882076D1*
X2011759Y1885972D1*
X2011292Y1889917D1*
X2011136Y1893886D1*
X2011292Y1897855D1*
X2011759Y1901800D1*
X2012534Y1905696D1*
X2013612Y1909519D1*
X2014987Y1913246D1*
X2016650Y1916853D1*
X2018591Y1920319D1*
X2020798Y1923622D1*
X2023257Y1926742D1*
X2025954Y1929659D1*
X2028871Y1932355D1*
X2031990Y1934814D1*
X2035293Y1937021D1*
X2038759Y1938962D1*
X2042367Y1940625D1*
X2046093Y1942000D1*
X2049917Y1943079D1*
X2053813Y1943854D1*
X2057757Y1944320D1*
X2061727Y1944476D1*
X2065696Y1944320D1*
X2069641Y1943854D1*
X2073537Y1943079D1*
X2077360Y1942000D1*
X2081087Y1940625D1*
X2084694Y1938962D1*
X2088160Y1937021D1*
X2091463Y1934814D1*
X2094583Y1932355D1*
X2097500Y1929659D1*
X2100196Y1926742D1*
X2102655Y1923622D1*
X2104862Y1920319D1*
X2106803Y1916853D1*
X2108466Y1913246D1*
X2109841Y1909519D1*
X2110919Y1905696D1*
X2111694Y1901800D1*
X2112161Y1897855D1*
X2112317Y1893886D1*
X2112161Y1889917D1*
X2106392Y890371D2*
X2105978Y886877D1*
X2105292Y883427D1*
X2104337Y880041D1*
X2103119Y876740D1*
X2101647Y873546D1*
X2099928Y870476D1*
X2097973Y867551D1*
X2095795Y864789D1*
X2093407Y862205D1*
X2090824Y859817D1*
X2088061Y857639D1*
X2085136Y855685D1*
X2082067Y853966D1*
X2078872Y852493D1*
X2075572Y851275D1*
X2072186Y850321D1*
X2068735Y849634D1*
X2065242Y849221D1*
X2061727Y849083D1*
X2058211Y849221D1*
X2054718Y849634D1*
X2051268Y850321D1*
X2047882Y851275D1*
X2044581Y852493D1*
X2041386Y853966D1*
X2038317Y855685D1*
X2035392Y857639D1*
X2032629Y859817D1*
X2030046Y862205D1*
X2027658Y864789D1*
X2025480Y867551D1*
X2023526Y870476D1*
X2021807Y873546D1*
X2020334Y876740D1*
X2019116Y880041D1*
X2018161Y883427D1*
X2017475Y886877D1*
X2017062Y890371D1*
X2016924Y893886D1*
X2017062Y897401D1*
X2017475Y900895D1*
X2018161Y904345D1*
X2019116Y907731D1*
X2020334Y911031D1*
X2021807Y914226D1*
X2023526Y917295D1*
X2025480Y920220D1*
X2027658Y922983D1*
X2030046Y925566D1*
X2032629Y927954D1*
X2035392Y930132D1*
X2038317Y932087D1*
X2041386Y933806D1*
X2044581Y935279D1*
X2047882Y936496D1*
X2051268Y937451D1*
X2054718Y938137D1*
X2058211Y938551D1*
X2061727Y938689D1*
X2065242Y938551D1*
X2068735Y938137D1*
X2072186Y937451D1*
X2075572Y936496D1*
X2078872Y935279D1*
X2082067Y933806D1*
X2085136Y932087D1*
X2088061Y930132D1*
X2090824Y927954D1*
X2093407Y925566D1*
X2095795Y922983D1*
X2097973Y920220D1*
X2099928Y917295D1*
X2101647Y914226D1*
X2103119Y911031D1*
X2104337Y907731D1*
X2105292Y904345D1*
X2105978Y900895D1*
X2106392Y897401D1*
X2106530Y893886D1*
X2106392Y890371D1*
X2708236Y1890186D2*
X2707806Y1886548D1*
X2707091Y1882955D1*
X2706097Y1879430D1*
X2704829Y1875993D1*
X2703295Y1872666D1*
X2701505Y1869470D1*
X2699470Y1866424D1*
X2697202Y1863547D1*
X2694716Y1860857D1*
X2692026Y1858371D1*
X2689149Y1856103D1*
X2686103Y1854068D1*
X2682907Y1852278D1*
X2679580Y1850744D1*
X2676143Y1849476D1*
X2672618Y1848482D1*
X2669025Y1847767D1*
X2665387Y1847337D1*
X2661727Y1847193D1*
X2658066Y1847337D1*
X2654428Y1847767D1*
X2650836Y1848482D1*
X2647310Y1849476D1*
X2643873Y1850744D1*
X2640546Y1852278D1*
X2637350Y1854068D1*
X2634304Y1856103D1*
X2631428Y1858371D1*
X2628738Y1860857D1*
X2626251Y1863547D1*
X2623983Y1866424D1*
X2621948Y1869470D1*
X2620158Y1872666D1*
X2618624Y1875993D1*
X2617357Y1879430D1*
X2616362Y1882955D1*
X2615648Y1886548D1*
X2615217Y1890186D1*
X2615073Y1893846D1*
X2615217Y1897507D1*
X2615648Y1901145D1*
X2616362Y1904738D1*
X2617357Y1908263D1*
X2618624Y1911700D1*
X2620158Y1915027D1*
X2621948Y1918223D1*
X2623983Y1921269D1*
X2626251Y1924146D1*
X2628738Y1926835D1*
X2631428Y1929322D1*
X2634304Y1931590D1*
X2637350Y1933625D1*
X2640546Y1935415D1*
X2643873Y1936949D1*
X2647310Y1938217D1*
X2650836Y1939211D1*
X2654428Y1939926D1*
X2658066Y1940356D1*
X2661727Y1940500D1*
X2665387Y1940356D1*
X2669025Y1939926D1*
X2672618Y1939211D1*
X2676143Y1938217D1*
X2679580Y1936949D1*
X2682907Y1935415D1*
X2686103Y1933625D1*
X2689149Y1931590D1*
X2692026Y1929322D1*
X2694716Y1926835D1*
X2697202Y1924146D1*
X2699470Y1921269D1*
X2701505Y1918223D1*
X2703295Y1915027D1*
X2704829Y1911700D1*
X2706097Y1908263D1*
X2707091Y1904738D1*
X2707806Y1901145D1*
X2708236Y1897507D1*
X2708380Y1893846D1*
X2708236Y1890186D1*
Y1090225D2*
X2707806Y1086588D1*
X2707091Y1082995D1*
X2706097Y1079469D1*
X2704829Y1076032D1*
X2703295Y1072706D1*
X2701505Y1069509D1*
X2699470Y1066464D1*
X2697202Y1063587D1*
X2694716Y1060897D1*
X2692026Y1058410D1*
X2689149Y1056142D1*
X2686103Y1054107D1*
X2682907Y1052317D1*
X2679580Y1050784D1*
X2676143Y1049516D1*
X2672618Y1048521D1*
X2669025Y1047807D1*
X2665387Y1047376D1*
X2661727Y1047232D1*
X2658066Y1047376D1*
X2654428Y1047807D1*
X2650836Y1048521D1*
X2647310Y1049516D1*
X2643873Y1050784D1*
X2640546Y1052317D1*
X2637350Y1054107D1*
X2634304Y1056142D1*
X2631428Y1058410D1*
X2628738Y1060897D1*
X2626251Y1063587D1*
X2623983Y1066464D1*
X2621948Y1069509D1*
X2620158Y1072706D1*
X2618624Y1076032D1*
X2617357Y1079469D1*
X2616362Y1082995D1*
X2615648Y1086588D1*
X2615217Y1090225D1*
X2615073Y1093886D1*
X2615217Y1097546D1*
X2615648Y1101184D1*
X2616362Y1104777D1*
X2617357Y1108303D1*
X2618624Y1111739D1*
X2620158Y1115066D1*
X2621948Y1118262D1*
X2623983Y1121308D1*
X2626251Y1124185D1*
X2628738Y1126875D1*
X2631428Y1129361D1*
X2634304Y1131629D1*
X2637350Y1133665D1*
X2640546Y1135454D1*
X2643873Y1136988D1*
X2647310Y1138256D1*
X2650836Y1139250D1*
X2654428Y1139965D1*
X2658066Y1140396D1*
X2661727Y1140539D1*
X2665387Y1140396D1*
X2669025Y1139965D1*
X2672618Y1139250D1*
X2676143Y1138256D1*
X2679580Y1136988D1*
X2682907Y1135454D1*
X2686103Y1133665D1*
X2689149Y1131629D1*
X2692026Y1129361D1*
X2694716Y1126875D1*
X2697202Y1124185D1*
X2699470Y1121308D1*
X2701505Y1118262D1*
X2703295Y1115066D1*
X2704829Y1111739D1*
X2706097Y1108303D1*
X2707091Y1104777D1*
X2707806Y1101184D1*
X2708236Y1097546D1*
X2708380Y1093886D1*
X2708236Y1090225D1*
X2706392Y890371D2*
X2705978Y886877D1*
X2705292Y883427D1*
X2704337Y880041D1*
X2703119Y876740D1*
X2701647Y873546D1*
X2699928Y870476D1*
X2697973Y867551D1*
X2695795Y864789D1*
X2693407Y862205D1*
X2690824Y859817D1*
X2688061Y857639D1*
X2685136Y855685D1*
X2682067Y853966D1*
X2678872Y852493D1*
X2675572Y851275D1*
X2672186Y850321D1*
X2668735Y849634D1*
X2665242Y849221D1*
X2661727Y849083D1*
X2658211Y849221D1*
X2654718Y849634D1*
X2651268Y850321D1*
X2647882Y851275D1*
X2644581Y852493D1*
X2641386Y853966D1*
X2638317Y855685D1*
X2635392Y857639D1*
X2632629Y859817D1*
X2630046Y862205D1*
X2627658Y864789D1*
X2625480Y867551D1*
X2623526Y870476D1*
X2621807Y873546D1*
X2620334Y876740D1*
X2619116Y880041D1*
X2618161Y883427D1*
X2617475Y886877D1*
X2617062Y890371D1*
X2616924Y893886D1*
X2617062Y897401D1*
X2617475Y900895D1*
X2618161Y904345D1*
X2619116Y907731D1*
X2620334Y911031D1*
X2621807Y914226D1*
X2623526Y917295D1*
X2625480Y920220D1*
X2627658Y922983D1*
X2630046Y925566D1*
X2632629Y927954D1*
X2635392Y930132D1*
X2638317Y932087D1*
X2641386Y933806D1*
X2644581Y935279D1*
X2647882Y936496D1*
X2651268Y937451D1*
X2654718Y938137D1*
X2658211Y938551D1*
X2661727Y938689D1*
X2665242Y938551D1*
X2668735Y938137D1*
X2672186Y937451D1*
X2675572Y936496D1*
X2678872Y935279D1*
X2682067Y933806D1*
X2685136Y932087D1*
X2688061Y930132D1*
X2690824Y927954D1*
X2693407Y925566D1*
X2695795Y922983D1*
X2697973Y920220D1*
X2699928Y917295D1*
X2701647Y914226D1*
X2703119Y911031D1*
X2704337Y907731D1*
X2705292Y904345D1*
X2705978Y900895D1*
X2706392Y897401D1*
X2706530Y893886D1*
X2706392Y890371D1*
Y790371D2*
X2705978Y786877D1*
X2705292Y783427D1*
X2704337Y780041D1*
X2703119Y776740D1*
X2701647Y773546D1*
X2699928Y770476D1*
X2697973Y767551D1*
X2695795Y764789D1*
X2693407Y762205D1*
X2690824Y759817D1*
X2688061Y757639D1*
X2685136Y755685D1*
X2682067Y753966D1*
X2678872Y752493D1*
X2675572Y751275D1*
X2672186Y750321D1*
X2668735Y749634D1*
X2665242Y749221D1*
X2661727Y749083D1*
X2658211Y749221D1*
X2654718Y749634D1*
X2651268Y750321D1*
X2647882Y751275D1*
X2644581Y752493D1*
X2641386Y753966D1*
X2638317Y755685D1*
X2635392Y757639D1*
X2632629Y759817D1*
X2630046Y762205D1*
X2627658Y764789D1*
X2625480Y767551D1*
X2623526Y770476D1*
X2621807Y773546D1*
X2620334Y776740D1*
X2619116Y780041D1*
X2618161Y783427D1*
X2617475Y786877D1*
X2617062Y790371D1*
X2616924Y793886D1*
X2617062Y797401D1*
X2617475Y800895D1*
X2618161Y804345D1*
X2619116Y807731D1*
X2620334Y811031D1*
X2621807Y814226D1*
X2623526Y817295D1*
X2625480Y820220D1*
X2627658Y822983D1*
X2630046Y825566D1*
X2632629Y827954D1*
X2635392Y830132D1*
X2638317Y832087D1*
X2641386Y833806D1*
X2644581Y835279D1*
X2647882Y836496D1*
X2651268Y837451D1*
X2654718Y838137D1*
X2658211Y838551D1*
X2661727Y838689D1*
X2665242Y838551D1*
X2668735Y838137D1*
X2672186Y837451D1*
X2675572Y836496D1*
X2678872Y835279D1*
X2682067Y833806D1*
X2685136Y832087D1*
X2688061Y830132D1*
X2690824Y827954D1*
X2693407Y825566D1*
X2695795Y822983D1*
X2697973Y820220D1*
X2699928Y817295D1*
X2701647Y814226D1*
X2703119Y811031D1*
X2704337Y807731D1*
X2705292Y804345D1*
X2705978Y800895D1*
X2706392Y797401D1*
X2706530Y793886D1*
X2706392Y790371D1*
X2108236Y1090225D2*
X2107806Y1086588D1*
X2107091Y1082995D1*
X2106097Y1079469D1*
X2104829Y1076032D1*
X2103295Y1072706D1*
X2101505Y1069509D1*
X2099470Y1066464D1*
X2097202Y1063587D1*
X2094716Y1060897D1*
X2092026Y1058410D1*
X2089149Y1056142D1*
X2086103Y1054107D1*
X2082907Y1052317D1*
X2079580Y1050784D1*
X2076143Y1049516D1*
X2072618Y1048521D1*
X2069025Y1047807D1*
X2065387Y1047376D1*
X2061727Y1047232D1*
X2058066Y1047376D1*
X2054428Y1047807D1*
X2050836Y1048521D1*
X2047310Y1049516D1*
X2043873Y1050784D1*
X2040546Y1052317D1*
X2037350Y1054107D1*
X2034304Y1056142D1*
X2031428Y1058410D1*
X2028738Y1060897D1*
X2026251Y1063587D1*
X2023983Y1066464D1*
X2021948Y1069509D1*
X2020158Y1072706D1*
X2018624Y1076032D1*
X2017357Y1079469D1*
X2016362Y1082995D1*
X2015648Y1086588D1*
X2015217Y1090225D1*
X2015073Y1093886D1*
X2015217Y1097546D1*
X2015648Y1101184D1*
X2016362Y1104777D1*
X2017357Y1108303D1*
X2018624Y1111739D1*
X2020158Y1115066D1*
X2021948Y1118262D1*
X2023983Y1121308D1*
X2026251Y1124185D1*
X2028738Y1126875D1*
X2031428Y1129361D1*
X2034304Y1131629D1*
X2037350Y1133665D1*
X2040546Y1135454D1*
X2043873Y1136988D1*
X2047310Y1138256D1*
X2050836Y1139250D1*
X2054428Y1139965D1*
X2058066Y1140396D1*
X2061727Y1140539D1*
X2065387Y1140396D1*
X2069025Y1139965D1*
X2072618Y1139250D1*
X2076143Y1138256D1*
X2079580Y1136988D1*
X2082907Y1135454D1*
X2086103Y1133665D1*
X2089149Y1131629D1*
X2092026Y1129361D1*
X2094716Y1126875D1*
X2097202Y1124185D1*
X2099470Y1121308D1*
X2101505Y1118262D1*
X2103295Y1115066D1*
X2104829Y1111739D1*
X2106097Y1108303D1*
X2107091Y1104777D1*
X2107806Y1101184D1*
X2108236Y1097546D1*
X2108380Y1093886D1*
X2108236Y1090225D1*
X2106392Y1190371D2*
X2105978Y1186877D1*
X2105292Y1183427D1*
X2104337Y1180041D1*
X2103119Y1176740D1*
X2101647Y1173546D1*
X2099928Y1170476D1*
X2097973Y1167551D1*
X2095795Y1164789D1*
X2093407Y1162205D1*
X2090824Y1159817D1*
X2088061Y1157639D1*
X2085136Y1155685D1*
X2082067Y1153966D1*
X2078872Y1152493D1*
X2075572Y1151275D1*
X2072186Y1150321D1*
X2068735Y1149634D1*
X2065242Y1149221D1*
X2061727Y1149083D1*
X2058211Y1149221D1*
X2054718Y1149634D1*
X2051268Y1150321D1*
X2047882Y1151275D1*
X2044581Y1152493D1*
X2041386Y1153966D1*
X2038317Y1155685D1*
X2035392Y1157639D1*
X2032629Y1159817D1*
X2030046Y1162205D1*
X2027658Y1164789D1*
X2025480Y1167551D1*
X2023526Y1170476D1*
X2021807Y1173546D1*
X2020334Y1176740D1*
X2019116Y1180041D1*
X2018161Y1183427D1*
X2017475Y1186877D1*
X2017062Y1190371D1*
X2016924Y1193886D1*
X2017062Y1197401D1*
X2017475Y1200895D1*
X2018161Y1204345D1*
X2019116Y1207731D1*
X2020334Y1211031D1*
X2021807Y1214226D1*
X2023526Y1217295D1*
X2025480Y1220220D1*
X2027658Y1222983D1*
X2030046Y1225566D1*
X2032629Y1227954D1*
X2035392Y1230132D1*
X2038317Y1232087D1*
X2041386Y1233806D1*
X2044581Y1235279D1*
X2047882Y1236496D1*
X2051268Y1237451D1*
X2054718Y1238137D1*
X2058211Y1238551D1*
X2061727Y1238689D1*
X2065242Y1238551D1*
X2068735Y1238137D1*
X2072186Y1237451D1*
X2075572Y1236496D1*
X2078872Y1235279D1*
X2082067Y1233806D1*
X2085136Y1232087D1*
X2088061Y1230132D1*
X2090824Y1227954D1*
X2093407Y1225566D1*
X2095795Y1222983D1*
X2097973Y1220220D1*
X2099928Y1217295D1*
X2101647Y1214226D1*
X2103119Y1211031D1*
X2104337Y1207731D1*
X2105292Y1204345D1*
X2105978Y1200895D1*
X2106392Y1197401D1*
X2106530Y1193886D1*
X2106392Y1190371D1*
X1922393Y1611641D2*
X1921453Y1605704D1*
X1919596Y1599987D1*
X1916867Y1594632D1*
X1913333Y1589769D1*
X1909083Y1585518D1*
X1904220Y1581985D1*
X1898864Y1579256D1*
X1893147Y1577398D1*
X1887210Y1576458D1*
X1881199D1*
X1875262Y1577398D1*
X1869545Y1579256D1*
X1864189Y1581985D1*
X1859326Y1585518D1*
X1855075Y1589769D1*
X1851542Y1594632D1*
X1848813Y1599987D1*
X1846956Y1605704D1*
X1846015Y1611641D1*
Y1617653D1*
X1846956Y1623590D1*
X1848813Y1629306D1*
X1851542Y1634662D1*
X1855075Y1639525D1*
X1859326Y1643776D1*
X1864189Y1647309D1*
X1869545Y1650038D1*
X1875262Y1651896D1*
X1881199Y1652836D1*
X1887210D1*
X1893147Y1651896D1*
X1898864Y1650038D1*
X1904220Y1647309D1*
X1909083Y1643776D1*
X1913333Y1639525D1*
X1916867Y1634662D1*
X1919596Y1629306D1*
X1921453Y1623590D1*
X1922393Y1617653D1*
Y1611641D1*
Y1311641D2*
X1921453Y1305704D1*
X1919596Y1299987D1*
X1916867Y1294632D1*
X1913333Y1289769D1*
X1909083Y1285518D1*
X1904220Y1281985D1*
X1898864Y1279256D1*
X1893147Y1277398D1*
X1887210Y1276458D1*
X1881199D1*
X1875262Y1277398D1*
X1869545Y1279256D1*
X1864189Y1281985D1*
X1859326Y1285518D1*
X1855075Y1289769D1*
X1851542Y1294632D1*
X1848813Y1299987D1*
X1846956Y1305704D1*
X1846015Y1311641D1*
Y1317653D1*
X1846956Y1323590D1*
X1848813Y1329306D1*
X1851542Y1334662D1*
X1855075Y1339525D1*
X1859326Y1343776D1*
X1864189Y1347309D1*
X1869545Y1350038D1*
X1875262Y1351896D1*
X1881199Y1352836D1*
X1887210D1*
X1893147Y1351896D1*
X1898864Y1350038D1*
X1904220Y1347309D1*
X1909083Y1343776D1*
X1913333Y1339525D1*
X1916867Y1334662D1*
X1919596Y1329306D1*
X1921453Y1323590D1*
X1922393Y1317653D1*
Y1311641D1*
D17*
X2858029Y1265566D3*
Y745369D3*
X3587950Y1265566D3*
Y745369D3*
X2858029Y1167455D3*
Y843597D3*
X3587950Y843873D3*
Y1167692D3*
D18*
X3273862Y1521243D3*
D19*
Y1721243D3*
D21*
X893370Y1624214D3*
Y1458860D3*
X2896425Y1624311D3*
Y1458957D3*
D22*
X2975190Y2108849D3*
X3093300D3*
X3211410D3*
D24*
X3556072Y1960908D3*
X3732319Y1960528D3*
D25*
X4079220Y1841232D3*
Y1741232D3*
Y1641862D3*
Y1541232D3*
X3862935Y762955D3*
Y862955D3*
Y962955D3*
Y1062955D3*
Y1162955D3*
Y1262955D3*
X784906Y1262965D3*
Y1162965D3*
Y1062965D3*
Y962965D3*
Y862965D3*
Y762965D3*
X1106481Y1882113D3*
Y1782113D3*
Y882113D3*
Y782113D3*
X1706481Y1882073D3*
Y1782113D3*
Y1682113D3*
Y1582113D3*
Y1082113D3*
Y982113D3*
Y882113D3*
Y782113D3*
X1106481Y1082113D3*
Y1182113D3*
X2061727Y1893886D3*
Y1793886D3*
Y893886D3*
Y793886D3*
X2661727Y1893846D3*
Y1793886D3*
Y1693886D3*
Y1593886D3*
Y1093886D3*
Y993886D3*
Y893886D3*
Y793886D3*
X2061727Y1093886D3*
Y1193886D3*
D27*
X1884204Y1614647D3*
D28*
Y1314647D3*
M02*
