G04 DipTrace 3.2.0.1*
G04 TopSilk.gbr*
%MOIN*%
G04 #@! TF.FileFunction,Legend,Top*
G04 #@! TF.Part,Single*
%ADD10C,0.009843*%
%ADD20C,0.019694*%
%ADD23C,0.007874*%
%ADD26C,0.005906*%
%ADD55C,0.00772*%
%ADD56C,0.009264*%
%ADD57C,0.012351*%
%ADD58C,0.006176*%
%ADD59C,0.010807*%
%ADD60C,0.004632*%
%ADD61C,0.003088*%
%FSLAX26Y26*%
G04*
G70*
G90*
G75*
G01*
G04 TopSilk*
%LPD*%
X2787273Y1334778D2*
D10*
X3658579D1*
Y675881D1*
X2787273D1*
Y1334778D1*
X3262042Y1802353D2*
X3285682D1*
X3273862Y1814150D2*
Y1790523D1*
X3123862Y1621244D2*
G02X3123862Y1621244I150000J0D01*
G01*
D20*
X890846Y1677988D3*
X946283Y1659325D2*
D10*
X840456D1*
Y1423112D1*
X946283D1*
Y1659325D1*
D20*
X2893901Y1678085D3*
X2949338Y1659422D2*
D10*
X2843511D1*
Y1423209D1*
X2949338D1*
Y1659422D1*
X3463801Y2173264D2*
D23*
X3822057D1*
Y1823659D1*
X3463801D1*
Y2173264D1*
X3644757Y2173017D2*
Y1825917D1*
X4212763Y1935326D2*
D10*
X3986379D1*
Y1447137D1*
X4212763D1*
Y1935326D1*
X3812951Y712945D2*
X3912943D1*
Y1312985D1*
X3812951D1*
Y712945D1*
Y814235D2*
X3912943D1*
X3812951Y1112995D2*
X3912943D1*
X3812951Y912935D2*
X3912943D1*
X3762954Y662965D2*
X4225454D1*
Y1362965D1*
X3762954D1*
Y662965D1*
X834910Y1312985D2*
X734917D1*
Y712945D1*
X834910D1*
Y1312985D1*
Y812975D2*
X734917D1*
X834910Y912935D2*
X734917D1*
X834910Y1112995D2*
X734917D1*
X884906Y1362965D2*
X422406D1*
Y662965D1*
X884906D1*
Y1362965D1*
X1056481Y2042113D2*
D26*
X1766481D1*
Y732113D1*
X1056481D1*
Y2042113D1*
Y1932073D2*
X1156449D1*
Y1732167D1*
X1056481D1*
Y1932073D1*
X2011727Y2053886D2*
X2721727D1*
Y743886D1*
X2011727D1*
Y2053886D1*
Y1943846D2*
X2111695D1*
Y1743940D1*
X2011727D1*
Y1943846D1*
X1914204Y1544797D2*
D10*
X1854204D1*
X1914204Y1384497D2*
Y1544797D1*
Y1384497D2*
X1854204D1*
Y1544797D1*
X3127557Y1160911D2*
D55*
X3108378Y1211151D1*
X3089255Y1160911D1*
X3096440Y1177658D2*
X3120372D1*
X3142996Y1194404D2*
Y1160911D1*
Y1180034D2*
X3145428Y1187219D1*
X3150181Y1192028D1*
X3154989Y1194404D1*
X3162174D1*
X3206299Y1211151D2*
Y1160911D1*
Y1187219D2*
X3201545Y1192028D1*
X3196737Y1194404D1*
X3189552D1*
X3184799Y1192028D1*
X3179990Y1187219D1*
X3177614Y1180034D1*
Y1175281D1*
X3179990Y1168096D1*
X3184799Y1163343D1*
X3189552Y1160911D1*
X3196737D1*
X3201545Y1163343D1*
X3206299Y1168096D1*
X3221738Y1194404D2*
Y1170473D1*
X3224114Y1163343D1*
X3228923Y1160911D1*
X3236108D1*
X3240861Y1163343D1*
X3248046Y1170473D1*
Y1194404D2*
Y1160911D1*
X3263485Y1211151D2*
X3265862Y1208774D1*
X3268294Y1211151D1*
X3265862Y1213583D1*
X3263485Y1211151D1*
X3265862Y1194404D2*
Y1160911D1*
X3283733Y1194404D2*
Y1160911D1*
Y1184843D2*
X3290918Y1192028D1*
X3295727Y1194404D1*
X3302856D1*
X3307665Y1192028D1*
X3310041Y1184843D1*
Y1160911D1*
X3337419Y1194404D2*
X3332666Y1192028D1*
X3327857Y1187219D1*
X3325481Y1180034D1*
Y1175281D1*
X3327857Y1168096D1*
X3332666Y1163343D1*
X3337419Y1160911D1*
X3344604D1*
X3349412Y1163343D1*
X3354166Y1168096D1*
X3356597Y1175281D1*
Y1180034D1*
X3354166Y1187219D1*
X3349412Y1192028D1*
X3344604Y1194404D1*
X3337419D1*
X3278080Y1875434D2*
X3275704Y1880188D1*
X3270895Y1884996D1*
X3266142Y1887373D1*
X3256581D1*
X3251772Y1884996D1*
X3247019Y1880188D1*
X3244587Y1875434D1*
X3242210Y1868249D1*
Y1856256D1*
X3244587Y1849126D1*
X3247019Y1844318D1*
X3251772Y1839565D1*
X3256581Y1837133D1*
X3266142D1*
X3270895Y1839565D1*
X3275704Y1844318D1*
X3278080Y1849126D1*
X3293520Y1877756D2*
X3298328Y1880188D1*
X3305513Y1887317D1*
Y1837133D1*
X3150314Y1444661D2*
X3155123Y1447093D1*
X3162308Y1454222D1*
Y1404038D1*
X3192117Y1454222D2*
X3184932Y1451846D1*
X3180124Y1444661D1*
X3177747Y1432722D1*
Y1425537D1*
X3180124Y1413599D1*
X3184932Y1406414D1*
X3192117Y1404038D1*
X3196870D1*
X3204055Y1406414D1*
X3208809Y1413599D1*
X3211241Y1425537D1*
Y1432722D1*
X3208809Y1444661D1*
X3204055Y1451846D1*
X3196870Y1454222D1*
X3192117D1*
X3208809Y1444661D2*
X3180124Y1413599D1*
X3241050Y1454222D2*
X3233865Y1451846D1*
X3229056Y1444661D1*
X3226680Y1432722D1*
Y1425537D1*
X3229056Y1413599D1*
X3233865Y1406414D1*
X3241050Y1404038D1*
X3245803D1*
X3252988Y1406414D1*
X3257741Y1413599D1*
X3260173Y1425537D1*
Y1432722D1*
X3257741Y1444661D1*
X3252988Y1451846D1*
X3245803Y1454222D1*
X3241050D1*
X3257741Y1444661D2*
X3229056Y1413599D1*
X3289982Y1454222D2*
X3282797Y1451846D1*
X3277989Y1444661D1*
X3275612Y1432722D1*
Y1425537D1*
X3277989Y1413599D1*
X3282797Y1406414D1*
X3289982Y1404038D1*
X3294736D1*
X3301921Y1406414D1*
X3306674Y1413599D1*
X3309106Y1425537D1*
Y1432722D1*
X3306674Y1444661D1*
X3301921Y1451846D1*
X3294736Y1454222D1*
X3289982D1*
X3306674Y1444661D2*
X3277989Y1413599D1*
X3324545Y1437531D2*
Y1413599D1*
X3326922Y1406469D1*
X3331730Y1404038D1*
X3338915D1*
X3343668Y1406469D1*
X3350853Y1413599D1*
Y1437531D2*
Y1404038D1*
X3397409Y1454278D2*
X3366292D1*
Y1404038D1*
Y1430346D2*
X3385416D1*
X767233Y1525011D2*
X817473D1*
Y1541757D1*
X815041Y1548942D1*
X810288Y1553751D1*
X805480Y1556128D1*
X798350Y1558504D1*
X786357D1*
X779172Y1556128D1*
X774418Y1553751D1*
X769610Y1548943D1*
X767233Y1541758D1*
Y1525011D1*
X776850Y1573943D2*
X774418Y1578752D1*
X767289Y1585937D1*
X817473D1*
X2770288Y1514358D2*
X2820528D1*
Y1531105D1*
X2818097Y1538290D1*
X2813343Y1543098D1*
X2808535Y1545475D1*
X2801405Y1547851D1*
X2789412D1*
X2782227Y1545475D1*
X2777474Y1543098D1*
X2772665Y1538290D1*
X2770288Y1531105D1*
Y1514358D1*
X2782282Y1565722D2*
X2779905D1*
X2775097Y1568099D1*
X2772720Y1570476D1*
X2770344Y1575284D1*
Y1584846D1*
X2772720Y1589599D1*
X2775097Y1591975D1*
X2779905Y1594407D1*
X2784659D1*
X2789467Y1591975D1*
X2796597Y1587222D1*
X2820528Y1563291D1*
Y1596784D1*
X2863735Y2231285D2*
X2875729Y2181045D1*
X2887667Y2231285D1*
X2899605Y2181045D1*
X2911599Y2231285D1*
X2960531Y2224100D2*
X2955778Y2228908D1*
X2948593Y2231285D1*
X2939032D1*
X2931846Y2228908D1*
X2927038Y2224100D1*
Y2219347D1*
X2929470Y2214538D1*
X2931846Y2212161D1*
X2936600Y2209785D1*
X2950970Y2204976D1*
X2955778Y2202600D1*
X2958155Y2200168D1*
X2960531Y2195415D1*
Y2188230D1*
X2955778Y2183477D1*
X2948593Y2181045D1*
X2939032D1*
X2931846Y2183477D1*
X2927038Y2188230D1*
X2978402Y2219291D2*
Y2221668D1*
X2980779Y2226476D1*
X2983156Y2228853D1*
X2987964Y2231229D1*
X2997526D1*
X3002279Y2228853D1*
X3004655Y2226476D1*
X3007087Y2221668D1*
Y2216915D1*
X3004655Y2212106D1*
X2999902Y2204976D1*
X2975971Y2181045D1*
X3009464D1*
X3036841Y2231229D2*
X3029712Y2228853D1*
X3027280Y2224100D1*
Y2219291D1*
X3029712Y2214538D1*
X3034465Y2212106D1*
X3044026Y2209730D1*
X3051211Y2207353D1*
X3055965Y2202545D1*
X3058341Y2197791D1*
Y2190606D1*
X3055965Y2185853D1*
X3053588Y2183421D1*
X3046403Y2181045D1*
X3036841D1*
X3029712Y2183421D1*
X3027280Y2185853D1*
X3024903Y2190606D1*
Y2197791D1*
X3027280Y2202545D1*
X3032088Y2207353D1*
X3039218Y2209730D1*
X3048780Y2212106D1*
X3053588Y2214538D1*
X3055965Y2219291D1*
Y2224100D1*
X3053588Y2228853D1*
X3046403Y2231229D1*
X3036841D1*
X3073781Y2221668D2*
X3078589Y2224100D1*
X3085774Y2231229D1*
Y2181045D1*
X3103645Y2219291D2*
Y2221668D1*
X3106022Y2226476D1*
X3108398Y2228853D1*
X3113207Y2231229D1*
X3122768D1*
X3127522Y2228853D1*
X3129898Y2226476D1*
X3132330Y2221668D1*
Y2216915D1*
X3129898Y2212106D1*
X3125145Y2204976D1*
X3101213Y2181045D1*
X3134707D1*
X3198747Y2231285D2*
Y2181045D1*
X3227432D1*
X3273932Y2231285D2*
X3242871D1*
Y2181045D1*
X3273932D1*
X3242871Y2207353D2*
X3261994D1*
X3289372Y2231285D2*
Y2181045D1*
X3306118D1*
X3313303Y2183477D1*
X3318112Y2188230D1*
X3320488Y2193038D1*
X3322865Y2200168D1*
Y2212161D1*
X3320488Y2219347D1*
X3318112Y2224100D1*
X3313303Y2228908D1*
X3306118Y2231285D1*
X3289372D1*
X3553675Y2249325D2*
X3529798D1*
X3527422Y2227825D1*
X3529798Y2230202D1*
X3536984Y2232634D1*
X3544113D1*
X3551298Y2230202D1*
X3556107Y2225449D1*
X3558483Y2218264D1*
Y2213511D1*
X3556107Y2206326D1*
X3551298Y2201517D1*
X3544113Y2199141D1*
X3536984D1*
X3529798Y2201517D1*
X3527422Y2203949D1*
X3524990Y2208702D1*
X3573923Y2249381D2*
X3593046Y2199141D1*
X3612169Y2249381D1*
X3676209D2*
Y2199141D1*
X3692956D1*
X3700141Y2201572D1*
X3704950Y2206326D1*
X3707326Y2211134D1*
X3709703Y2218264D1*
Y2230257D1*
X3707326Y2237442D1*
X3704950Y2242196D1*
X3700141Y2247004D1*
X3692956Y2249381D1*
X3676209D1*
X3761012Y2237442D2*
X3758635Y2242196D1*
X3753827Y2247004D1*
X3749074Y2249381D1*
X3739512D1*
X3734704Y2247004D1*
X3729950Y2242196D1*
X3727519Y2237442D1*
X3725142Y2230257D1*
Y2218264D1*
X3727519Y2211134D1*
X3729950Y2206326D1*
X3734704Y2201572D1*
X3739512Y2199141D1*
X3749074D1*
X3753827Y2201572D1*
X3758635Y2206326D1*
X3761012Y2211134D1*
X1179069Y703216D2*
X1176693Y707969D1*
X1171884Y712778D1*
X1167131Y715154D1*
X1157569D1*
X1152761Y712778D1*
X1148008Y707969D1*
X1145576Y703216D1*
X1143199Y696031D1*
Y684037D1*
X1145576Y676908D1*
X1148008Y672099D1*
X1152761Y667346D1*
X1157569Y664914D1*
X1167131D1*
X1171884Y667346D1*
X1176693Y672099D1*
X1179069Y676908D1*
X1194508Y715154D2*
Y664914D1*
Y688846D2*
X1201693Y696031D1*
X1206502Y698408D1*
X1213687D1*
X1218440Y696031D1*
X1220817Y688846D1*
Y664914D1*
X1248194Y698408D2*
X1243441Y696031D1*
X1238633Y691222D1*
X1236256Y684037D1*
Y679284D1*
X1238633Y672099D1*
X1243441Y667346D1*
X1248194Y664914D1*
X1255379D1*
X1260188Y667346D1*
X1264941Y672099D1*
X1267373Y679284D1*
Y684037D1*
X1264941Y691222D1*
X1260188Y696031D1*
X1255379Y698408D1*
X1248194D1*
X1282812D2*
Y664914D1*
Y684037D2*
X1285244Y691222D1*
X1289997Y696031D1*
X1294805Y698408D1*
X1301990D1*
X1317430D2*
Y674476D1*
X1319806Y667346D1*
X1324615Y664914D1*
X1331800D1*
X1336553Y667346D1*
X1343738Y674476D1*
Y698408D2*
Y664914D1*
X1385486Y691222D2*
X1383109Y696031D1*
X1375924Y698408D1*
X1368739D1*
X1361554Y696031D1*
X1359177Y691222D1*
X1361554Y686469D1*
X1366362Y684037D1*
X1378301Y681661D1*
X1383109Y679284D1*
X1385486Y674476D1*
Y672099D1*
X1383109Y667346D1*
X1375924Y664914D1*
X1368739D1*
X1361554Y667346D1*
X1359177Y672099D1*
X1487772Y664914D2*
Y715154D1*
X1468649Y664914D1*
X1449526Y715154D1*
Y664914D1*
X1515150Y698408D2*
X1510397Y696031D1*
X1505588Y691222D1*
X1503212Y684037D1*
Y679284D1*
X1505588Y672099D1*
X1510397Y667346D1*
X1515150Y664914D1*
X1522335D1*
X1527143Y667346D1*
X1531896Y672099D1*
X1534328Y679284D1*
Y684037D1*
X1531896Y691222D1*
X1527143Y696031D1*
X1522335Y698408D1*
X1515150D1*
X1578452Y715154D2*
Y664914D1*
Y691222D2*
X1573699Y696031D1*
X1568891Y698408D1*
X1561706D1*
X1556953Y696031D1*
X1552144Y691222D1*
X1549768Y684037D1*
Y679284D1*
X1552144Y672099D1*
X1556953Y667346D1*
X1561706Y664914D1*
X1568891D1*
X1573699Y667346D1*
X1578452Y672099D1*
X1593892Y698408D2*
Y674476D1*
X1596268Y667346D1*
X1601077Y664914D1*
X1608262D1*
X1613015Y667346D1*
X1620200Y674476D1*
Y698408D2*
Y664914D1*
X1635639Y715154D2*
Y664914D1*
X1651078Y684037D2*
X1679763D1*
Y688846D1*
X1677387Y693654D1*
X1675010Y696031D1*
X1670202Y698408D1*
X1663017D1*
X1658263Y696031D1*
X1653455Y691222D1*
X1651078Y684037D1*
Y679284D1*
X1653455Y672099D1*
X1658263Y667346D1*
X1663017Y664914D1*
X1670202D1*
X1675010Y667346D1*
X1679763Y672099D1*
X2093609Y726927D2*
X2105602Y676687D1*
X2117540Y726927D1*
X2129478Y676687D1*
X2141472Y726927D1*
X2190405Y719742D2*
X2185651Y724551D1*
X2178466Y726927D1*
X2168905D1*
X2161720Y724551D1*
X2156911Y719742D1*
Y714989D1*
X2159343Y710180D1*
X2161720Y707804D1*
X2166473Y705427D1*
X2180843Y700619D1*
X2185651Y698242D1*
X2188028Y695810D1*
X2190405Y691057D1*
Y683872D1*
X2185651Y679119D1*
X2178466Y676687D1*
X2168905D1*
X2161720Y679119D1*
X2156911Y683872D1*
X2208276Y714934D2*
Y717310D1*
X2210652Y722119D1*
X2213029Y724495D1*
X2217837Y726872D1*
X2227399D1*
X2232152Y724495D1*
X2234529Y722119D1*
X2236961Y717310D1*
Y712557D1*
X2234529Y707749D1*
X2229775Y700619D1*
X2205844Y676687D1*
X2239337D1*
X2266715Y726872D2*
X2259585Y724495D1*
X2257153Y719742D1*
Y714934D1*
X2259585Y710180D1*
X2264338Y707749D1*
X2273900Y705372D1*
X2281085Y702995D1*
X2285838Y698187D1*
X2288214Y693434D1*
Y686249D1*
X2285838Y681496D1*
X2283461Y679064D1*
X2276276Y676687D1*
X2266715D1*
X2259585Y679064D1*
X2257153Y681496D1*
X2254776Y686249D1*
Y693434D1*
X2257153Y698187D1*
X2261961Y702995D1*
X2269091Y705372D1*
X2278653Y707749D1*
X2283461Y710180D1*
X2285838Y714934D1*
Y719742D1*
X2283461Y724495D1*
X2276276Y726872D1*
X2266715D1*
X2303654Y717310D2*
X2308462Y719742D1*
X2315647Y726872D1*
Y676687D1*
X2333518Y714934D2*
Y717310D1*
X2335895Y722119D1*
X2338271Y724495D1*
X2343080Y726872D1*
X2352642D1*
X2357395Y724495D1*
X2359771Y722119D1*
X2362203Y717310D1*
Y712557D1*
X2359771Y707749D1*
X2355018Y700619D1*
X2331086Y676687D1*
X2364580D1*
X2428620Y726927D2*
Y676687D1*
X2445367D1*
X2452552Y679119D1*
X2457360Y683872D1*
X2459737Y688681D1*
X2462113Y695810D1*
Y707804D1*
X2459737Y714989D1*
X2457360Y719742D1*
X2452552Y724551D1*
X2445367Y726927D1*
X2428620D1*
X2477553Y710180D2*
Y676687D1*
Y695810D2*
X2479984Y702995D1*
X2484738Y707804D1*
X2489546Y710180D1*
X2496731D1*
X2512170Y726927D2*
X2514547Y724551D1*
X2516979Y726927D1*
X2514547Y729359D1*
X2512170Y726927D1*
X2514547Y710180D2*
Y676687D1*
X2532418Y710180D2*
X2546788Y676687D1*
X2561103Y710180D1*
X2576542Y695810D2*
X2605227D1*
Y700619D1*
X2602850Y705427D1*
X2600474Y707804D1*
X2595665Y710180D1*
X2588480D1*
X2583727Y707804D1*
X2578919Y702995D1*
X2576542Y695810D1*
Y691057D1*
X2578919Y683872D1*
X2583727Y679119D1*
X2588480Y676687D1*
X2595665D1*
X2600474Y679119D1*
X2605227Y683872D1*
X2620666Y710180D2*
Y676687D1*
Y695810D2*
X2623098Y702995D1*
X2627851Y707804D1*
X2632660Y710180D1*
X2639845D1*
X1804913Y1434184D2*
Y1455684D1*
X1802481Y1462869D1*
X1800105Y1465301D1*
X1795351Y1467677D1*
X1790543D1*
X1785790Y1465301D1*
X1783358Y1462869D1*
X1780981Y1455684D1*
Y1434184D1*
X1831221D1*
X1804913Y1450931D2*
X1831221Y1467677D1*
X1790598Y1483117D2*
X1788166Y1487925D1*
X1781037Y1495110D1*
X1831221D1*
X1981403Y1421711D2*
X1931218D1*
X1964656Y1397780D1*
Y1433649D1*
X1981403Y1458650D2*
X1931218Y1482582D1*
Y1449089D1*
Y1512391D2*
X1933595Y1505206D1*
X1940780Y1500398D1*
X1952718Y1498021D1*
X1959903D1*
X1971841Y1500398D1*
X1979027Y1505206D1*
X1981403Y1512391D1*
Y1517144D1*
X1979027Y1524329D1*
X1971841Y1529083D1*
X1959903Y1531515D1*
X1952718D1*
X1940780Y1529083D1*
X1933595Y1524330D1*
X1931218Y1517144D1*
Y1512391D1*
X1940780Y1529083D2*
X1971841Y1500398D1*
X3223739Y633918D2*
X3199862D1*
X3197486Y612418D1*
X3199862Y614795D1*
X3207047Y617226D1*
X3214177D1*
X3221362Y614795D1*
X3226170Y610041D1*
X3228547Y602856D1*
Y598103D1*
X3226170Y590918D1*
X3221362Y586110D1*
X3214177Y583733D1*
X3207047D1*
X3199862Y586110D1*
X3197486Y588542D1*
X3195054Y593295D1*
X3243986Y633973D2*
X3263110Y583733D1*
X3282233Y633973D1*
X499200Y1487922D2*
D56*
X559489Y1510870D1*
X499201Y1533818D1*
X510741Y1552345D2*
X507823Y1558115D1*
X499267Y1566737D1*
X559489D1*
X553718Y1588116D2*
X556637Y1585264D1*
X559489Y1588116D1*
X556637Y1591034D1*
X553718Y1588116D1*
X499267Y1626805D2*
X502119Y1618183D1*
X510741Y1612413D1*
X525067Y1609561D1*
X533689D1*
X548015Y1612413D1*
X556637Y1618183D1*
X559489Y1626805D1*
Y1632509D1*
X556637Y1641131D1*
X548015Y1646835D1*
X533689Y1649753D1*
X525067D1*
X510741Y1646835D1*
X502119Y1641131D1*
X499267Y1632509D1*
Y1626805D1*
X510741Y1646835D2*
X548015Y1612413D1*
X529378Y1668280D2*
Y1701442D1*
X499267Y1737213D2*
X502119Y1728591D1*
X510741Y1722821D1*
X525067Y1719969D1*
X533689D1*
X548015Y1722821D1*
X556637Y1728591D1*
X559488Y1737213D1*
Y1742917D1*
X556637Y1751539D1*
X548015Y1757243D1*
X533689Y1760161D1*
X525067D1*
X510741Y1757243D1*
X502119Y1751539D1*
X499267Y1742917D1*
Y1737213D1*
X510741Y1757243D2*
X548015Y1722821D1*
X559488Y1790162D2*
X499267Y1818880D1*
Y1778688D1*
X553718Y1840259D2*
X556637Y1837407D1*
X559488Y1840259D1*
X556637Y1843177D1*
X553718Y1840259D1*
X499267Y1878949D2*
X502119Y1870327D1*
X510741Y1864557D1*
X525067Y1861705D1*
X533689D1*
X548015Y1864556D1*
X556637Y1870327D1*
X559488Y1878949D1*
Y1884652D1*
X556637Y1893275D1*
X548015Y1898978D1*
X533689Y1901897D1*
X525067D1*
X510741Y1898978D1*
X502119Y1893275D1*
X499267Y1884653D1*
Y1878949D1*
X510741Y1898978D2*
X548015Y1864556D1*
X519296Y1957764D2*
X527919Y1954846D1*
X533689Y1949142D1*
X536541Y1940520D1*
Y1937668D1*
X533689Y1929046D1*
X527919Y1923342D1*
X519296Y1920424D1*
X516445D1*
X507823Y1923342D1*
X502119Y1929046D1*
X499267Y1937668D1*
Y1940520D1*
X502119Y1949142D1*
X507823Y1954846D1*
X519296Y1957764D1*
X533689D1*
X548015Y1954846D1*
X556637Y1949142D1*
X559488Y1940520D1*
Y1934816D1*
X556637Y1926194D1*
X550866Y1923342D1*
X553718Y1979143D2*
X556637Y1976291D1*
X559488Y1979143D1*
X556637Y1982061D1*
X553718Y1979143D1*
X510741Y2000588D2*
X507823Y2006358D1*
X499267Y2014980D1*
X559488D1*
X499267Y2047833D2*
X502119Y2039278D1*
X507823Y2036359D1*
X513593D1*
X519296Y2039278D1*
X522215Y2044981D1*
X525067Y2056455D1*
X527919Y2065077D1*
X533689Y2070781D1*
X539392Y2073633D1*
X548015D1*
X553718Y2070781D1*
X556637Y2067929D1*
X559488Y2059307D1*
Y2047833D1*
X556637Y2039278D1*
X553718Y2036359D1*
X548015Y2033507D1*
X539392D1*
X533689Y2036359D1*
X527919Y2042129D1*
X525067Y2050685D1*
X522215Y2062159D1*
X519296Y2067929D1*
X513593Y2070781D1*
X507823D1*
X502119Y2067929D1*
X499267Y2059307D1*
Y2047833D1*
X721508Y2191981D2*
D57*
X717706Y2199587D1*
X710012Y2207280D1*
X702407Y2211083D1*
X687108D1*
X679415Y2207280D1*
X671810Y2199587D1*
X667919Y2191981D1*
X664116Y2180485D1*
Y2161296D1*
X667919Y2149888D1*
X671810Y2142195D1*
X679415Y2134590D1*
X687108Y2130699D1*
X702407D1*
X710012Y2134590D1*
X717706Y2142195D1*
X721508Y2149888D1*
X746211Y2211083D2*
Y2130699D1*
Y2168989D2*
X757707Y2180485D1*
X765401Y2184288D1*
X776897D1*
X784502Y2180485D1*
X788304Y2168989D1*
Y2130699D1*
X832108Y2184288D2*
X824503Y2180485D1*
X816810Y2172792D1*
X813007Y2161296D1*
Y2153691D1*
X816810Y2142195D1*
X824503Y2134590D1*
X832108Y2130699D1*
X843604D1*
X851298Y2134590D1*
X858903Y2142195D1*
X862794Y2153691D1*
Y2161296D1*
X858903Y2172792D1*
X851298Y2180485D1*
X843604Y2184288D1*
X832108D1*
X887497D2*
Y2130699D1*
Y2161296D2*
X891388Y2172792D1*
X898993Y2180485D1*
X906686Y2184288D1*
X918182D1*
X942885D2*
Y2145997D1*
X946688Y2134590D1*
X954381Y2130699D1*
X965877D1*
X973482Y2134590D1*
X984978Y2145997D1*
Y2184288D2*
Y2130699D1*
X1051774Y2172792D2*
X1047972Y2180485D1*
X1036476Y2184288D1*
X1024980D1*
X1013484Y2180485D1*
X1009681Y2172792D1*
X1013484Y2165187D1*
X1021177Y2161296D1*
X1040278Y2157493D1*
X1047972Y2153691D1*
X1051774Y2145997D1*
Y2142195D1*
X1047972Y2134590D1*
X1036476Y2130699D1*
X1024980D1*
X1013484Y2134590D1*
X1009681Y2142195D1*
X1154239Y2172792D2*
X1188639D1*
X1200135Y2176683D1*
X1204026Y2180485D1*
X1207828Y2188091D1*
Y2195784D1*
X1204026Y2203389D1*
X1200135Y2207280D1*
X1188639Y2211083D1*
X1154239D1*
Y2130699D1*
X1181033Y2172792D2*
X1207828Y2130699D1*
X1282318Y2211083D2*
X1232531D1*
Y2130699D1*
Y2172792D2*
X1263128D1*
X1384782Y2211083D2*
Y2130699D1*
X1430678D1*
X1505079Y2211083D2*
X1455381D1*
Y2130699D1*
X1505079D1*
X1455381Y2172792D2*
X1485978D1*
X1529782Y2211083D2*
Y2130699D1*
X1556576D1*
X1568073Y2134590D1*
X1575766Y2142195D1*
X1579569Y2149888D1*
X1583371Y2161296D1*
Y2180485D1*
X1579569Y2191981D1*
X1575766Y2199587D1*
X1568073Y2207280D1*
X1556576Y2211083D1*
X1529782D1*
X1685835D2*
Y2130699D1*
X1712630D1*
X1724126Y2134590D1*
X1731820Y2142195D1*
X1735622Y2149888D1*
X1739425Y2161296D1*
Y2180485D1*
X1735622Y2191981D1*
X1731820Y2199587D1*
X1724126Y2207280D1*
X1712630Y2211083D1*
X1685835D1*
X1764128Y2184288D2*
Y2130699D1*
Y2161296D2*
X1768019Y2172792D1*
X1775624Y2180485D1*
X1783317Y2184288D1*
X1794813D1*
X1819516Y2211083D2*
X1823319Y2207280D1*
X1827210Y2211083D1*
X1823319Y2214974D1*
X1819516Y2211083D1*
X1823319Y2184288D2*
Y2130699D1*
X1851912Y2184288D2*
X1874905Y2130699D1*
X1897808Y2184288D1*
X1922511Y2161296D2*
X1968407D1*
Y2168989D1*
X1964604Y2176683D1*
X1960802Y2180485D1*
X1953108Y2184288D1*
X1941612D1*
X1934007Y2180485D1*
X1926314Y2172792D1*
X1922511Y2161296D1*
Y2153691D1*
X1926314Y2142195D1*
X1934007Y2134590D1*
X1941612Y2130699D1*
X1953108D1*
X1960802Y2134590D1*
X1968407Y2142195D1*
X1993110Y2184288D2*
Y2130699D1*
Y2161296D2*
X1997001Y2172792D1*
X2004606Y2180485D1*
X2012299Y2184288D1*
X2023795D1*
X2126260Y2211083D2*
Y2130699D1*
X2160748D1*
X2172244Y2134590D1*
X2176046Y2138392D1*
X2179849Y2145997D1*
Y2157493D1*
X2176046Y2165187D1*
X2172244Y2168989D1*
X2160748Y2172792D1*
X2172244Y2176683D1*
X2176046Y2180485D1*
X2179849Y2188091D1*
Y2195784D1*
X2176046Y2203389D1*
X2172244Y2207280D1*
X2160748Y2211083D1*
X2126260D1*
Y2172792D2*
X2160748D1*
X2223653Y2184288D2*
X2216048Y2180485D1*
X2208354Y2172792D1*
X2204552Y2161296D1*
Y2153691D1*
X2208354Y2142195D1*
X2216048Y2134590D1*
X2223653Y2130699D1*
X2235149D1*
X2242842Y2134590D1*
X2250448Y2142195D1*
X2254339Y2153691D1*
Y2161296D1*
X2250448Y2172792D1*
X2242842Y2180485D1*
X2235149Y2184288D1*
X2223653D1*
X2324937D2*
Y2130699D1*
Y2172792D2*
X2317332Y2180485D1*
X2309639Y2184288D1*
X2298231D1*
X2290537Y2180485D1*
X2282932Y2172792D1*
X2279041Y2161296D1*
Y2153691D1*
X2282932Y2142195D1*
X2290537Y2134590D1*
X2298231Y2130699D1*
X2309639D1*
X2317332Y2134590D1*
X2324937Y2142195D1*
X2349640Y2184288D2*
Y2130699D1*
Y2161296D2*
X2353531Y2172792D1*
X2361136Y2180485D1*
X2368830Y2184288D1*
X2380326D1*
X2450924Y2211083D2*
Y2130699D1*
Y2172792D2*
X2443319Y2180485D1*
X2435626Y2184288D1*
X2424130D1*
X2416524Y2180485D1*
X2408831Y2172792D1*
X2405028Y2161296D1*
Y2153691D1*
X2408831Y2142195D1*
X2416524Y2134590D1*
X2424130Y2130699D1*
X2435626D1*
X2443319Y2134590D1*
X2450924Y2142195D1*
X704748Y532889D2*
X739236D1*
X750644Y536692D1*
X754535Y540583D1*
X758337Y548188D1*
Y559684D1*
X754535Y567289D1*
X750644Y571180D1*
X739236Y574982D1*
X704748D1*
Y494598D1*
X783040Y548188D2*
Y494598D1*
Y525195D2*
X786931Y536692D1*
X794536Y544385D1*
X802229Y548188D1*
X813726D1*
X857529D2*
X849924Y544385D1*
X842231Y536692D1*
X838428Y525195D1*
Y517590D1*
X842231Y506094D1*
X849924Y498489D1*
X857529Y494598D1*
X869026D1*
X876719Y498489D1*
X884324Y506094D1*
X888215Y517590D1*
Y525195D1*
X884324Y536692D1*
X876719Y544385D1*
X869026Y548188D1*
X857529D1*
X928217Y575071D2*
X932108Y571268D1*
X935910Y575071D1*
X932108Y578873D1*
X928217Y575071D1*
X932108Y548276D2*
Y483191D1*
X928217Y471695D1*
X920611Y467892D1*
X912918D1*
X960613Y525195D2*
X1006509D1*
Y532889D1*
X1002706Y540583D1*
X998904Y544385D1*
X991210Y548188D1*
X979714D1*
X972109Y544385D1*
X964415Y536692D1*
X960613Y525195D1*
Y517590D1*
X964415Y506094D1*
X972109Y498489D1*
X979714Y494598D1*
X991210D1*
X998904Y498489D1*
X1006509Y506094D1*
X1077196Y536692D2*
X1069502Y544385D1*
X1061809Y548188D1*
X1050401D1*
X1042708Y544385D1*
X1035102Y536692D1*
X1031211Y525195D1*
Y517590D1*
X1035102Y506094D1*
X1042708Y498489D1*
X1050401Y494598D1*
X1061809D1*
X1069502Y498489D1*
X1077196Y506094D1*
X1113395Y574982D2*
Y509897D1*
X1117197Y498489D1*
X1124891Y494598D1*
X1132496D1*
X1101899Y548188D2*
X1128693D1*
X1234960Y574982D2*
Y494598D1*
Y536692D2*
X1242654Y544385D1*
X1250259Y548188D1*
X1261755D1*
X1269360Y544385D1*
X1277053Y536692D1*
X1280856Y525195D1*
Y517590D1*
X1277053Y506094D1*
X1269360Y498489D1*
X1261755Y494598D1*
X1250259D1*
X1242654Y498489D1*
X1234960Y506094D1*
X1309450Y548188D2*
X1332353Y494598D1*
X1324748Y479300D1*
X1317055Y471606D1*
X1309450Y467804D1*
X1305559D1*
X1355345Y548188D2*
X1332353Y494598D1*
X1519093D2*
X1488407Y574982D1*
X1457810Y494598D1*
X1469306Y521393D2*
X1507597D1*
X1543795Y548188D2*
Y494598D1*
Y532889D2*
X1555292Y544385D1*
X1562985Y548188D1*
X1574393D1*
X1582086Y544385D1*
X1585889Y532889D1*
Y494598D1*
X1656487Y574982D2*
Y494598D1*
Y536692D2*
X1648882Y544385D1*
X1641189Y548188D1*
X1629693D1*
X1622088Y544385D1*
X1614394Y536692D1*
X1610592Y525195D1*
Y517590D1*
X1614394Y506094D1*
X1622088Y498489D1*
X1629693Y494598D1*
X1641189D1*
X1648882Y498489D1*
X1656487Y506094D1*
X1681190Y548188D2*
Y494598D1*
Y525195D2*
X1685081Y536692D1*
X1692686Y544385D1*
X1700380Y548188D1*
X1711876D1*
X1736579Y525195D2*
X1782474D1*
Y532889D1*
X1778672Y540583D1*
X1774869Y544385D1*
X1767176Y548188D1*
X1755680D1*
X1748075Y544385D1*
X1740381Y536692D1*
X1736579Y525195D1*
Y517590D1*
X1740381Y506094D1*
X1748075Y498489D1*
X1755680Y494598D1*
X1767176D1*
X1774869Y498489D1*
X1782474Y506094D1*
X1811068Y548188D2*
X1833972Y494598D1*
X1826367Y479300D1*
X1818673Y471606D1*
X1811068Y467804D1*
X1807177D1*
X1856964Y548188D2*
X1833972Y494598D1*
X1959428Y574982D2*
X1990026Y494598D1*
X2020623Y574982D1*
X2064427Y548188D2*
X2056822Y544385D1*
X2049128Y536692D1*
X2045326Y525195D1*
Y517590D1*
X2049128Y506094D1*
X2056822Y498489D1*
X2064427Y494598D1*
X2075923D1*
X2083616Y498489D1*
X2091221Y506094D1*
X2095112Y517590D1*
Y525195D1*
X2091221Y536692D1*
X2083616Y544385D1*
X2075923Y548188D1*
X2064427D1*
X2119815D2*
Y494598D1*
Y525195D2*
X2123706Y536692D1*
X2131311Y544385D1*
X2139005Y548188D1*
X2150501D1*
X2194305D2*
X2186700Y544385D1*
X2179006Y536692D1*
X2175204Y525195D1*
Y517590D1*
X2179006Y506094D1*
X2186700Y498489D1*
X2194305Y494598D1*
X2205801D1*
X2213494Y498489D1*
X2221099Y506094D1*
X2224990Y517590D1*
Y525195D1*
X2221099Y536692D1*
X2213494Y544385D1*
X2205801Y548188D1*
X2194305D1*
X2291786Y536692D2*
X2287984Y544385D1*
X2276488Y548188D1*
X2264992D1*
X2253496Y544385D1*
X2249693Y536692D1*
X2253496Y529086D1*
X2261189Y525195D1*
X2280290Y521393D1*
X2287984Y517590D1*
X2291786Y509897D1*
Y506094D1*
X2287984Y498489D1*
X2276488Y494598D1*
X2264992D1*
X2253496Y498489D1*
X2249693Y506094D1*
X2316489Y574982D2*
Y494598D1*
Y532889D2*
X2327985Y544385D1*
X2335679Y548188D1*
X2347175D1*
X2354780Y544385D1*
X2358583Y532889D1*
Y494598D1*
X2383285Y574982D2*
Y494598D1*
X2421576Y548188D2*
X2383285Y509897D1*
X2398584Y525195D2*
X2425379Y494598D1*
X2469183Y548188D2*
X2461577Y544385D1*
X2453884Y536692D1*
X2450081Y525195D1*
Y517590D1*
X2453884Y506094D1*
X2461577Y498489D1*
X2469183Y494598D1*
X2480679D1*
X2488372Y498489D1*
X2495977Y506094D1*
X2499868Y517590D1*
Y525195D1*
X2495977Y536692D1*
X2488372Y544385D1*
X2480679Y548188D1*
X2469183D1*
X2524571D2*
X2547563Y494598D1*
X2570467Y548188D1*
X2887941Y1056422D2*
D55*
X2837701Y1037298D1*
X2887941Y1018175D1*
Y1002736D2*
X2837701D1*
X2887941Y953803D2*
X2837701D1*
X2887941Y987297D1*
X2837701D1*
X3569151Y914901D2*
X3619391Y934024D1*
X3569151Y953148D1*
Y982957D2*
X3571528Y978148D1*
X3576336Y973395D1*
X3581090Y970963D1*
X3588275Y968587D1*
X3600268D1*
X3607398Y970963D1*
X3612206Y973395D1*
X3616959Y978148D1*
X3619391Y982957D1*
Y992518D1*
X3616959Y997272D1*
X3612206Y1002080D1*
X3607398Y1004457D1*
X3600268Y1006833D1*
X3588275D1*
X3581090Y1004457D1*
X3576336Y1002080D1*
X3571528Y997272D1*
X3569151Y992518D1*
Y982957D1*
Y1022273D2*
X3605021Y1022272D1*
X3612206Y1024649D1*
X3616959Y1029458D1*
X3619391Y1036643D1*
Y1041396D1*
X3616959Y1048581D1*
X3612206Y1053389D1*
X3605021Y1055766D1*
X3569151D1*
Y1087952D2*
X3619391D1*
X3569151Y1071205D2*
Y1104698D1*
X3227222Y1289312D2*
X3254856D1*
X3259331Y709953D2*
X3216276D1*
X3237776Y731453D2*
Y688398D1*
X3110699Y980480D2*
D58*
X3106896Y984326D1*
X3101148Y986228D1*
X3093499D1*
X3087751Y984326D1*
X3083904Y980480D1*
Y976677D1*
X3085850Y972830D1*
X3087751Y970929D1*
X3091553Y969028D1*
X3103049Y965181D1*
X3106896Y963280D1*
X3108797Y961334D1*
X3110699Y957532D1*
Y951784D1*
X3106896Y947981D1*
X3101148Y946036D1*
X3093499D1*
X3087751Y947981D1*
X3083904Y951784D1*
X3136447Y986228D2*
Y946036D1*
X3123050Y986228D2*
X3149845D1*
X3187045D2*
X3162196D1*
Y946036D1*
X3187045D1*
X3162196Y967082D2*
X3177495D1*
X3199397Y965181D2*
X3216641D1*
X3222345Y967082D1*
X3224290Y969028D1*
X3226191Y972830D1*
Y978578D1*
X3224290Y982381D1*
X3222345Y984326D1*
X3216641Y986228D1*
X3199397D1*
Y946036D1*
X3238543Y986228D2*
Y946036D1*
X3251940D1*
X3257688Y947981D1*
X3261535Y951784D1*
X3263436Y955630D1*
X3265337Y961334D1*
Y970929D1*
X3263436Y976677D1*
X3261535Y980480D1*
X3257688Y984326D1*
X3251940Y986228D1*
X3238543D1*
X3289185D2*
X3285338Y984326D1*
X3281536Y980480D1*
X3279590Y976677D1*
X3277689Y970929D1*
Y961334D1*
X3279590Y955630D1*
X3281536Y951784D1*
X3285338Y947981D1*
X3289185Y946036D1*
X3296834D1*
X3300637Y947981D1*
X3304484Y951784D1*
X3306385Y955630D1*
X3308286Y961334D1*
Y970929D1*
X3306385Y976677D1*
X3304484Y980480D1*
X3300637Y984326D1*
X3296834Y986228D1*
X3289185D1*
X3320637D2*
X3330232Y946036D1*
X3339783Y986228D1*
X3349333Y946036D1*
X3358928Y986228D1*
X3398074D2*
Y946036D1*
X3371280Y986228D1*
Y946036D1*
X3038959Y1007774D2*
Y1047966D1*
X3023660Y1007774D1*
X3008362Y1047966D1*
Y1007774D1*
X3051310Y1026920D2*
X3068555D1*
X3074258Y1028821D1*
X3076204Y1030767D1*
X3078105Y1034569D1*
Y1040317D1*
X3076204Y1044120D1*
X3074258Y1046065D1*
X3068555Y1047966D1*
X3051310D1*
Y1007774D1*
X3090457Y1040273D2*
X3094303Y1042218D1*
X3100051Y1047922D1*
Y1007774D1*
X3135351Y1047922D2*
X3116249D1*
X3114348Y1030722D1*
X3116249Y1032624D1*
X3121997Y1034569D1*
X3127701D1*
X3133449Y1032624D1*
X3137296Y1028821D1*
X3139197Y1023073D1*
Y1019270D1*
X3137296Y1013522D1*
X3133449Y1009676D1*
X3127701Y1007774D1*
X3121997D1*
X3116249Y1009676D1*
X3114348Y1011621D1*
X3112403Y1015424D1*
X3161099Y1047922D2*
X3155396Y1046021D1*
X3153450Y1042218D1*
Y1038372D1*
X3155396Y1034569D1*
X3159198Y1032624D1*
X3166847Y1030722D1*
X3172595Y1028821D1*
X3176398Y1024974D1*
X3178299Y1021172D1*
Y1015424D1*
X3176398Y1011621D1*
X3174497Y1009676D1*
X3168749Y1007774D1*
X3161099D1*
X3155396Y1009676D1*
X3153450Y1011621D1*
X3151549Y1015424D1*
Y1021172D1*
X3153450Y1024974D1*
X3157297Y1028821D1*
X3163001Y1030722D1*
X3170650Y1032624D1*
X3174497Y1034569D1*
X3176398Y1038372D1*
Y1042218D1*
X3174497Y1046021D1*
X3168749Y1047922D1*
X3161099D1*
X3209796Y1007774D2*
Y1047922D1*
X3190651Y1021172D1*
X3219347D1*
X3256547Y1047966D2*
X3231698D1*
Y1007774D1*
X3256547D1*
X3231698Y1028821D2*
X3246997D1*
X3295693Y1047966D2*
Y1007774D1*
X3268899Y1047966D1*
Y1007774D1*
X3346925Y1047966D2*
Y1007774D1*
X3360323D1*
X3366071Y1009720D1*
X3369917Y1013522D1*
X3371819Y1017369D1*
X3373720Y1023073D1*
Y1032668D1*
X3371819Y1038416D1*
X3369917Y1042218D1*
X3366071Y1046065D1*
X3360323Y1047966D1*
X3346925D1*
X3416669Y1007774D2*
Y1047966D1*
X3401370Y1007774D1*
X3386071Y1047966D1*
Y1007774D1*
X3440516Y1047922D2*
X3434768Y1046021D1*
X3430921Y1040273D1*
X3429020Y1030722D1*
Y1024974D1*
X3430921Y1015424D1*
X3434768Y1009676D1*
X3440516Y1007774D1*
X3444319D1*
X3450067Y1009676D1*
X3453869Y1015424D1*
X3455815Y1024974D1*
Y1030722D1*
X3453869Y1040273D1*
X3450067Y1046021D1*
X3444319Y1047922D1*
X3440516D1*
X3453869Y1040273D2*
X3430921Y1015424D1*
X3470112Y1038372D2*
Y1040273D1*
X3472013Y1044120D1*
X3473914Y1046021D1*
X3477761Y1047922D1*
X3485410D1*
X3489213Y1046021D1*
X3491114Y1044120D1*
X3493060Y1040273D1*
Y1036470D1*
X3491114Y1032624D1*
X3487311Y1026920D1*
X3468166Y1007774D1*
X3494961D1*
X3556164Y2147652D2*
D56*
Y2095986D1*
X3530365Y2121786D2*
X3582031D1*
X3721052Y2117209D2*
D59*
X3759741D1*
X3972476Y1841919D2*
D60*
Y1856245D1*
X3959576Y1857671D1*
X3961002Y1856245D1*
X3962461Y1851934D1*
Y1847656D1*
X3961002Y1843345D1*
X3958150Y1840460D1*
X3953839Y1839034D1*
X3950987D1*
X3946676Y1840460D1*
X3943791Y1843345D1*
X3942365Y1847656D1*
Y1851934D1*
X3943791Y1856245D1*
X3945250Y1857671D1*
X3948102Y1859130D1*
X3972509Y1829771D2*
X3942365Y1818297D1*
X3972509Y1806823D1*
X3965346Y1746877D2*
X3968198Y1748303D1*
X3971083Y1751188D1*
X3972509Y1754040D1*
Y1759777D1*
X3971083Y1762662D1*
X3968198Y1765514D1*
X3965346Y1766973D1*
X3961035Y1768399D1*
X3953839D1*
X3949561Y1766973D1*
X3946676Y1765514D1*
X3943824Y1762662D1*
X3942365Y1759777D1*
Y1754040D1*
X3943824Y1751188D1*
X3946676Y1748303D1*
X3949561Y1746877D1*
X3953839D1*
Y1754040D1*
X3972509Y1717517D2*
X3942365D1*
X3972509Y1737613D1*
X3942365D1*
X3972509Y1708254D2*
X3942365D1*
Y1698206D1*
X3943824Y1693895D1*
X3946676Y1691010D1*
X3949561Y1689584D1*
X3953839Y1688158D1*
X3961035D1*
X3965346Y1689584D1*
X3968198Y1691010D1*
X3971083Y1693895D1*
X3972509Y1698206D1*
Y1708254D1*
X3958150Y1649734D2*
Y1636834D1*
X3959609Y1632523D1*
X3961035Y1631064D1*
X3963887Y1629638D1*
X3966772D1*
X3969624Y1631064D1*
X3971083Y1632523D1*
X3972509Y1636834D1*
Y1649734D1*
X3942365D1*
X3958150Y1639686D2*
X3942365Y1629638D1*
X3972509Y1620374D2*
X3942365Y1600278D1*
X3972509D2*
X3942365Y1620374D1*
X3972509Y1551806D2*
X3942365D1*
X3972509Y1561854D2*
Y1541758D1*
Y1532494D2*
X3942365Y1512398D1*
X3972509D2*
X3942365Y1532494D1*
X3988093Y1968069D2*
D61*
X3992891Y1947973D1*
X3997666Y1968069D1*
X4002441Y1947973D1*
X4007239Y1968069D1*
X4013414D2*
X4014365Y1967118D1*
X4015338Y1968069D1*
X4014365Y1969042D1*
X4013414Y1968069D1*
X4014365Y1961370D2*
Y1947973D1*
X4033960Y1968069D2*
X4021513D1*
Y1947973D1*
Y1958496D2*
X4029163D1*
X4040136Y1968069D2*
X4041086Y1967118D1*
X4042059Y1968069D1*
X4041086Y1969042D1*
X4040136Y1968069D1*
X4041086Y1961370D2*
Y1947973D1*
X4048235D2*
X4061632Y1968047D1*
X4067808Y1968069D2*
Y1947973D1*
X4076430D1*
X4079304Y1948946D1*
X4080255Y1949896D1*
X4081205Y1951798D1*
Y1954672D1*
X4080255Y1956595D1*
X4079304Y1957546D1*
X4076430Y1958496D1*
X4079304Y1959469D1*
X4080255Y1960420D1*
X4081205Y1962321D1*
Y1964244D1*
X4080255Y1966146D1*
X4079304Y1967118D1*
X4076430Y1968069D1*
X4067808D1*
Y1958496D2*
X4076430D1*
X4087381Y1968069D2*
Y1947973D1*
X4093557Y1961370D2*
Y1951798D1*
X4094507Y1948946D1*
X4096431Y1947973D1*
X4099305D1*
X4101206Y1948946D1*
X4104080Y1951798D1*
Y1961370D2*
Y1947973D1*
X4110256Y1955622D2*
X4121730D1*
Y1957546D1*
X4120779Y1959469D1*
X4119828Y1960420D1*
X4117905Y1961370D1*
X4115031D1*
X4113130Y1960420D1*
X4111206Y1958496D1*
X4110256Y1955622D1*
Y1953721D1*
X4111206Y1950847D1*
X4113130Y1948946D1*
X4115031Y1947973D1*
X4117905D1*
X4119828Y1948946D1*
X4121730Y1950847D1*
X4130779Y1968069D2*
Y1951798D1*
X4131730Y1948946D1*
X4133653Y1947973D1*
X4135555D1*
X4127905Y1961370D2*
X4134604D1*
X4146506D2*
X4144604Y1960420D1*
X4142681Y1958496D1*
X4141730Y1955622D1*
Y1953721D1*
X4142681Y1950847D1*
X4144604Y1948946D1*
X4146506Y1947973D1*
X4149380D1*
X4151303Y1948946D1*
X4153204Y1950847D1*
X4154177Y1953721D1*
Y1955622D1*
X4153204Y1958496D1*
X4151303Y1960420D1*
X4149380Y1961370D1*
X4146506D1*
X4165128D2*
X4163227Y1960420D1*
X4161303Y1958496D1*
X4160353Y1955622D1*
Y1953721D1*
X4161303Y1950847D1*
X4163227Y1948946D1*
X4165128Y1947973D1*
X4168002D1*
X4169925Y1948946D1*
X4171827Y1950847D1*
X4172799Y1953721D1*
Y1955622D1*
X4171827Y1958496D1*
X4169925Y1960420D1*
X4168002Y1961370D1*
X4165128D1*
X4181849Y1968069D2*
Y1951798D1*
X4182800Y1948946D1*
X4184723Y1947973D1*
X4186624D1*
X4178975Y1961370D2*
X4185674D1*
X4192800Y1968069D2*
Y1947973D1*
Y1957546D2*
X4195674Y1960420D1*
X4197598Y1961370D1*
X4200472D1*
X4202373Y1960420D1*
X4203323Y1957546D1*
Y1947973D1*
X3788136Y747181D2*
D60*
Y760080D1*
X3786677Y764391D1*
X3785251Y765851D1*
X3782399Y767277D1*
X3779514D1*
X3776662Y765851D1*
X3775203Y764391D1*
X3773777Y760080D1*
Y747181D1*
X3803921D1*
X3788136Y757229D2*
X3803921Y767276D1*
X3773777Y776540D2*
X3803921Y796636D1*
X3773777D2*
X3803921Y776540D1*
X3773777Y845108D2*
X3803921D1*
X3773777Y835060D2*
Y855156D1*
Y864420D2*
X3803921Y884516D1*
X3773777D2*
X3803921Y864420D1*
X3780940Y1002783D2*
X3778088Y1001357D1*
X3775203Y998472D1*
X3773777Y995620D1*
Y989883D1*
X3775203Y986998D1*
X3778088Y984146D1*
X3780940Y982687D1*
X3785251Y981261D1*
X3792447D1*
X3796725Y982687D1*
X3799610Y984146D1*
X3802462Y986998D1*
X3803921Y989883D1*
Y995620D1*
X3802462Y998472D1*
X3799610Y1001357D1*
X3796725Y1002783D1*
X3792447D1*
Y995620D1*
X3773777Y1032142D2*
X3803921D1*
X3773777Y1012046D1*
X3803921D1*
X3773777Y1041406D2*
X3803921D1*
Y1051454D1*
X3802462Y1055765D1*
X3799610Y1058650D1*
X3796725Y1060076D1*
X3792447Y1061502D1*
X3785251D1*
X3780940Y1060076D1*
X3778088Y1058650D1*
X3775203Y1055765D1*
X3773777Y1051454D1*
Y1041406D1*
Y1158247D2*
X3803921Y1169721D1*
X3773777Y1181195D1*
X3780940Y1211981D2*
X3778088Y1210555D1*
X3775203Y1207670D1*
X3773777Y1204818D1*
Y1199081D1*
X3775203Y1196196D1*
X3778088Y1193344D1*
X3780940Y1191885D1*
X3785251Y1190459D1*
X3792447D1*
X3796725Y1191885D1*
X3799610Y1193344D1*
X3802462Y1196196D1*
X3803921Y1199081D1*
Y1204818D1*
X3802462Y1207670D1*
X3799610Y1210555D1*
X3796725Y1211981D1*
X3780940Y1242766D2*
X3778088Y1241340D1*
X3775203Y1238455D1*
X3773777Y1235603D1*
Y1229866D1*
X3775203Y1226981D1*
X3778088Y1224129D1*
X3780940Y1222670D1*
X3785251Y1221244D1*
X3792447D1*
X3796725Y1222670D1*
X3799610Y1224129D1*
X3802462Y1226981D1*
X3803921Y1229866D1*
Y1235603D1*
X3802462Y1238455D1*
X3799610Y1241340D1*
X3796725Y1242766D1*
X874731Y1247249D2*
X844587Y1235775D1*
X874731Y1224301D1*
X867568Y1193515D2*
X870420Y1194941D1*
X873305Y1197826D1*
X874731Y1200678D1*
Y1206415D1*
X873305Y1209300D1*
X870420Y1212152D1*
X867568Y1213611D1*
X863257Y1215037D1*
X856060D1*
X851783Y1213611D1*
X848898Y1212152D1*
X846046Y1209300D1*
X844587Y1206415D1*
Y1200678D1*
X846046Y1197826D1*
X848898Y1194941D1*
X851783Y1193515D1*
X867568Y1162730D2*
X870420Y1164156D1*
X873305Y1167041D1*
X874731Y1169893D1*
Y1175630D1*
X873305Y1178515D1*
X870420Y1181367D1*
X867568Y1182826D1*
X863257Y1184252D1*
X856061D1*
X851783Y1182826D1*
X848898Y1181367D1*
X846046Y1178515D1*
X844587Y1175630D1*
Y1169893D1*
X846046Y1167041D1*
X848898Y1164156D1*
X851783Y1162730D1*
X867568Y1044463D2*
X870420Y1045888D1*
X873305Y1048774D1*
X874731Y1051625D1*
Y1057362D1*
X873305Y1060247D1*
X870420Y1063099D1*
X867568Y1064559D1*
X863257Y1065984D1*
X856061D1*
X851783Y1064559D1*
X848898Y1063099D1*
X846046Y1060247D1*
X844587Y1057362D1*
Y1051625D1*
X846046Y1048774D1*
X848898Y1045888D1*
X851783Y1044463D1*
X856061D1*
Y1051625D1*
X874731Y1015103D2*
X844587D1*
X874731Y1035199D1*
X844587D1*
X874731Y1005839D2*
X844587D1*
Y995791D1*
X846046Y991480D1*
X848898Y988595D1*
X851783Y987169D1*
X856061Y985743D1*
X863257D1*
X867568Y987169D1*
X870420Y988595D1*
X873305Y991480D1*
X874731Y995791D1*
Y1005839D1*
X860372Y888998D2*
Y876098D1*
X861831Y871787D1*
X863257Y870328D1*
X866109Y868902D1*
X868994D1*
X871846Y870328D1*
X873305Y871787D1*
X874731Y876098D1*
Y888998D1*
X844587D1*
X860372Y878950D2*
X844587Y868902D1*
X874731Y859639D2*
X844587Y839543D1*
X874731D2*
X844587Y859639D1*
X874731Y791070D2*
X844587D1*
X874731Y801118D2*
Y781022D1*
Y771759D2*
X844587Y751663D1*
X874731D2*
X844587Y771759D1*
X1179182Y1912349D2*
D58*
Y1872157D1*
X1165785Y1912349D2*
X1192580D1*
X1204931D2*
X1231726Y1872157D1*
Y1912349D2*
X1204931Y1872157D1*
X1165856Y1786963D2*
X1183056D1*
X1188804Y1788908D1*
X1190750Y1790809D1*
X1192651Y1794612D1*
Y1798459D1*
X1190750Y1802261D1*
X1188804Y1804207D1*
X1183056Y1806108D1*
X1165856D1*
Y1765916D1*
X1179253Y1786963D2*
X1192651Y1765916D1*
X1205002Y1806108D2*
X1231797Y1765916D1*
Y1806108D2*
X1205002Y1765916D1*
X2134428Y1924122D2*
Y1883930D1*
X2121031Y1924122D2*
X2147825D1*
X2160177D2*
X2186971Y1883930D1*
Y1924122D2*
X2160177Y1883930D1*
X2121102Y1798736D2*
X2138301D1*
X2144049Y1800681D1*
X2145995Y1802582D1*
X2147896Y1806385D1*
Y1810232D1*
X2145995Y1814034D1*
X2144049Y1815980D1*
X2138301Y1817881D1*
X2121102D1*
Y1777689D1*
X2134499Y1798736D2*
X2147896Y1777689D1*
X2160248Y1817881D2*
X2187042Y1777689D1*
Y1817881D2*
X2160248Y1777689D1*
M02*
